<?xml version="1.0" encoding="utf-8"?>
<!-- Generator: Adobe Illustrator 26.3.1, SVG Export Plug-In . SVG Version: 6.00 Build 0)  -->
<svg version="1.1" id="layer_2_" xmlns="http://www.w3.org/2000/svg" xmlns:xlink="http://www.w3.org/1999/xlink" x="0px" y="0px"
	 viewBox="0 0 720 720" style="enable-background:new 0 0 720 720;" xml:space="preserve">
<style type="text/css">
	.st0{fill:#FFFFFF;}
	.st1{fill:#727171;}
	.st2{fill:#F6AE54;}
	.st3{fill:#69A3D8;}
	.st4{fill:#A97452;}
	.st5{fill:#F3A7AC;}
</style>
<circle class="st0" cx="360" cy="360" r="360"/>
<g>
	<g>
		<path d="M215.5,231.5c10-10.9,24.2-17.6,38.9-18.4c4.2-0.2,8.4-0.1,12.5,0.6c1.1,0.2,2.2-0.3,2.5-1.4c0.3-1-0.3-2.3-1.4-2.5
			c-15.6-2.6-32,1-45.1,10c-3.7,2.6-7.2,5.5-10.2,8.9C210.9,230.6,213.8,233.4,215.5,231.5L215.5,231.5z"/>
	</g>
</g>
<g>
	<g>
		<path d="M221.5,214.7c3.2,4.5,6.5,8.9,9.7,13.4c0.6,0.9,1.7,1.3,2.7,0.7c0.9-0.5,1.4-1.9,0.7-2.7c-3.2-4.5-6.5-8.9-9.7-13.4
			c-0.6-0.9-1.7-1.3-2.7-0.7C221.4,212.5,220.9,213.9,221.5,214.7L221.5,214.7z"/>
	</g>
</g>
<g>
	<g>
		<path d="M243.6,204.5c0.9,5.7,1.8,11.4,2.7,17.1c0.2,1.1,1.5,1.7,2.5,1.4c1.1-0.3,1.6-1.4,1.4-2.5c-0.9-5.7-1.8-11.4-2.7-17.1
			c-0.2-1.1-1.5-1.7-2.5-1.4C243.9,202.3,243.5,203.4,243.6,204.5L243.6,204.5z"/>
	</g>
</g>
<g>
	<g>
		<path d="M419.9,217.7c16.4-5.1,34.7-3.5,50,4.2c4.4,2.2,8.5,4.9,12.3,8c2,1.6,4.8-1.2,2.8-2.8c-14-11.8-32.6-17.6-50.9-16.2
			c-5.2,0.4-10.3,1.4-15.2,2.9C416.4,214.6,417.4,218.4,419.9,217.7L419.9,217.7z"/>
	</g>
</g>
<g>
	<g>
		<path d="M437.2,206c0.6,6,1.7,11.8,3.4,17.6c0.7,2.5,4.6,1.4,3.9-1.1c-1.6-5.4-2.7-10.9-3.2-16.5c-0.1-1.1-0.8-2-2-2
			C438.2,204,437.1,204.9,437.2,206L437.2,206z"/>
	</g>
</g>
<g>
	<g>
		<path d="M466.4,209.5c-1.7,5.1-3.5,10.2-5.5,15.2c-0.4,1,0.4,2.2,1.4,2.5c1.1,0.3,2.1-0.4,2.5-1.4c2-5,3.7-10.1,5.5-15.2
			c0.3-1-0.4-2.2-1.4-2.5C467.7,207.8,466.7,208.5,466.4,209.5L466.4,209.5z"/>
	</g>
</g>
<g id="woman3">
	<g>
		<path class="st0" d="M514.9,349.3c0.3-2.1,0.3-4.2,0.5-6.3c0.2-2.1-0.7-9-1.9-11.8c0,0-0.5-1.1-1.1-2.6c-4,0.6-10-0.8-14.2-3
			c-2.1-1.1-4.1-3-5.3-6.4c-1.6-4.3-1-14-0.5-16.5c-0.2-0.1-0.4-0.1-0.4-0.1c-1.8-0.6-2.7-1.8-2.4-2.8c0.2-0.7,0.7-1.3,1.6-2.5
			c1.1-1.4,1.9-1.9,2.8-3.6c1.5-2.8,1.6-9.6,2.1-12.9c0.4-3.1,1.1-6.2,2.1-9.2c1.2-0.9,2.3-1.8,3.5-2.7c2.6,2.2,5.4,4,8.4,5.5
			c3.3,2.4,6.9,4.9,6.9,4.9c8.2,5.9,14.1,13.7,13.1,23.8c1.6-1,3.3-2.4,4.6-4.2c1.5-0.2,2.6-0.4,2.6-0.4c1.7-0.3,3.6,0.2,4.8,1.3
			c1.9,1.8,1.2,4,0.6,5.5c-0.7,1.8-2.5,4.1-4.9,5.9c3,2,4.7,5.3,5.6,8.8c0.7,2.7,0.9,5.6,1.1,8.4c0.1,0.8,0.2,1.7,0.5,2.4
			c0.4,1.1,1.3,1.9,2.2,2.7c0.3,0.2,0.6,0.5,0.9,0.7c-0.4,3-0.2,6.1,0.5,9.1c0.4,3,2.3,5.1,4,7.8c0,0-2.7,10.8-19.6,10.8
			C516.1,361.9,514.9,349.3,514.9,349.3z"/>
	</g>
	<g>
		<path class="st1" d="M567.1,308.6c0.7-1.5,1.9-2.9,2.9-4.4c3.1-4.5,5.6-13.5,4.6-21.9c-0.5-4.4-1.8-8.8-3.7-12.8
			c-6.4-13-19.9-22-34.1-22.7c0,0-4.5-0.1-6.6,0c-2.6,0.2-5.2,0.4-7.7,1c-9.1,2.1-16.6,8.5-21,16.3c-0.8,1.4-1.6,3.1-2.3,4.8
			c2.8-1.5,1.3-1.7,1.2-1.3c0,0.2,0.1,0.4,0.3,0.6c2.8,2.5,5.9,4.6,9.3,6.2c3.3,2.4,6.9,4.9,6.9,4.9c8.2,5.9,14.1,13.7,13.1,23.8
			c1.6-1,3.3-2.4,4.6-4.2c1.5-0.2,2.6-0.4,2.6-0.4c1.7-0.3,3.6,0.2,4.8,1.3c1.9,1.8,1.2,4,0.6,5.5c-0.7,1.8-2.5,4.1-4.9,5.9
			c3,2,4.7,5.3,5.6,8.8c0.7,2.7,0.9,5.6,1.1,8.4c0.7,1.7,11.7,0.9,11.7,0.9c2.1,0.1,4.5,0.1,5.7-1.6c0.8-1,0.8-2.4,0.9-3.7
			c0.3-5.4,1.9-10.7,4.5-15.4"/>
	</g>
	<g>
		<path class="st2" d="M513.1,348.5c5.2,4.1,11.9,5.8,18.4,5.9c6.6,0.1,13.1-1.3,19.4-3c0.9-0.1,1.5-0.1,1.5-0.1
			c5.1-0.5,9,4.5,11,9.2c5.3,12.3,5,26.2,3.8,39.5c-1.5,18.2-2.1,35-6.2,52.8c-0.9,3.7-1.9,7.6-4.4,10.5c-1.1,1.3-2.8,2.5-4.7,3.5
			c-2.5-2.4,2.6,17.4,1.5,19.1c-0.4,0.7-1.2,1.1-1.9,1.3c-2.1,0.7-52-6.6-55.4-7.3c-9.5-1.8-10.1-5.1-17.8-7.9
			c-1.5-0.5-3.4-1.8-3.4-3.2c0.1-3.1,3.4-9.5,4.3-12.4c3.3-9.6,7.6-16.9,9.3-26.9c0.8-4.9,0.3-8.7-1.3-13.4c-2-6.8-3-13.9-1.3-20.8
			c0.8-3.3,2.4-6.4,4.1-9.4c4.5-8.3,8.9-16.7,13.4-25c2.4-4.5,5-9.1,9.2-12"/>
	</g>
	<g>
		<path class="st0" d="M534.8,433.4c-0.9-1.2-2.6-3-3.3-4.3c-0.3-0.5-0.5-1-0.4-1.5c0.1-0.6,0.5-1,0.9-1.5c3.4-4.9,0.7-4.9,2.9-10.5
			c0.3-0.7,0.6-2.3,0.6-3.1c0-0.8-0.3-1.7-1.1-2c-0.7-0.4-2-0.5-2.7,0c-0.9,0.6-2.5,1.9-3.8,3.3c-0.8,0.8-2.1,0.7-3,0.3
			c0,0-0.9-0.1-1.9-0.3c-0.8-1.7-1.5-3.5-2-4.5c-0.7-1.6-2-1.9-2.9-1.6c-0.5,0.2-1.3,0.9-1.6,1.3c-1.3,2-0.7,4.4-0.1,6.7
			c0.2,1,0.5,2,0.7,3c4,6.9-5-9.7-8.9-15.9c-0.2-0.4-1.4-1.4-3.2-0.4c-2,1.4-1.3,3.3-0.9,5.1c-0.5-0.9-0.9-1.5-1.7-1.9
			c-1-0.4-2.1,0.3-2.5,1c-0.3,0.5-0.4,1.6-0.3,2.2c0.6,6.9,3.5,13,6.3,19.4c-2.3-3.2-5.4-5.8-8.9-7.6c-0.2-0.1-0.5-0.2-0.8-0.2
			c-0.6,0.1-0.8,0.7-0.9,1.3c-0.5,3.5,2.2,6.5,4.6,9c1.5,1.5,3,3,4.8,4c2.8,1.6,6.2,1.8,9.2,3.1c2.7,1.2,5,3.2,7.3,5.2"/>
	</g>
	<g>
		<g>
			<path d="M492.4,300.7c-0.4-0.1-0.6-0.4-1-0.5c-0.5-0.3,0.3,0.1-0.1,0.2c0,0,0.4-0.7,0.5-0.8c0.3-0.5,0.7-0.9,1.1-1.4
				c1.4-1.7,2.8-3.1,3.4-5.2c1.1-3.7,1-8.1,1.6-11.6c0.2-1.1-0.3-2.2-1.4-2.5c-0.9-0.3-2.3,0.3-2.5,1.4c-0.4,2.3-0.5,4.6-0.7,6.9
				c-0.2,1.9-0.4,4.2-1.3,5.7c-1.1,2.1-3.3,3.5-4.3,5.7c-1.3,2.8,1.1,5.1,3.6,6C493.8,305.4,494.9,301.5,492.4,300.7L492.4,300.7z"
				/>
		</g>
	</g>
	<g>
		<g>
			<path d="M490.4,302.2c-0.9,4.9-0.9,10.3-0.1,15.2c0.5,2.9,1.9,5.8,4,7.9c2.2,2.2,5.4,3.4,8.3,4.3c3.5,1,7.4,1.6,11.1,0.9
				c2.5-0.5,1.5-4.4-1.1-3.9c-3.4,0.7-7.2-0.2-10.4-1.4c-3.2-1.1-5.8-2.7-7.2-6c-1.2-2.7-1.2-5.8-1.2-8.6c0-1.5,0.1-3.1,0.2-4.6
				c0-0.6,0.1-1.2,0.2-1.7c0.1-0.7,0-0.4,0.1-1C494.7,300.7,490.9,299.7,490.4,302.2L490.4,302.2z"/>
		</g>
	</g>
	<g>
		<g>
			<path d="M511.5,331.8c1,2.5,1.4,5.4,1.7,7.8c0.3,3.2,0.1,6.5-0.3,9.7c-0.1,1.1,1,2,2,2c1.2,0,1.9-0.9,2-2
				c0.4-3.3,0.6-6.7,0.3-9.9c-0.3-2.9-0.7-6-1.8-8.7c-0.4-1-1.3-1.7-2.5-1.4C512,329.6,511.1,330.8,511.5,331.8L511.5,331.8z"/>
		</g>
	</g>
	<g>
		<g>
			<path d="M537.1,300.4c1.1-0.1,2-0.1,2.9,0.4c0.4,0.2,0.6,0.4,0.9,0.7c0.2,0.3,0.2,0.3,0.3,0.5c0,0.1,0.1,0.6,0.1,0.3
				c0,0.3,0,0.5,0,0.8c0-0.4,0,0.2-0.1,0.2c-0.1,0.5-0.3,0.9-0.5,1.4c0.1-0.3,0.1-0.2,0,0.1c-0.1,0.2-0.2,0.4-0.3,0.6
				c-0.2,0.4-0.4,0.7-0.7,1c0,0.1-0.4,0.5-0.3,0.4c0.1-0.1-0.3,0.3-0.3,0.4c-0.3,0.4-0.6,0.7-1,1c-0.8,0.8-1.4,1.3-2.3,1.9
				c-0.8,0.5-1.8,1-2.5,1.3c-1.1,0.4-2,0.6-3.1,0.6s-2,0.9-2,2c0,1.1,0.9,2,2,2c4.4-0.1,8.5-2.4,11.4-5.6c2.5-2.7,5-7.1,2.9-10.7
				c-1.4-2.5-4.5-3.7-7.3-3.3c-1.1,0.1-2,0.8-2,2C535.1,299.4,536.1,300.6,537.1,300.4L537.1,300.4z"/>
		</g>
	</g>
	<g>
		<g>
			<path d="M552,320.8c-3.8,4.3-6,9.7-6.2,15.5c-0.1,2.8,0.3,5.5,0.9,8.2c0.6,2.9,2.5,5.2,4.1,7.7c1.4,2.1,4.9,0.1,3.5-2
				c-1.3-2-3-4-3.6-6.3c-0.6-2.3-0.9-4.7-0.8-7.1c0.1-4.8,1.9-9.4,5.1-13C556.5,321.7,553.7,318.8,552,320.8L552,320.8z"/>
		</g>
	</g>
	<g>
		<g>
			<path d="M498,280.8c1.1-9.3,5.3-18.4,12.4-24.6c3.2-2.8,7.1-5,11.2-6.2c4.4-1.2,9-1.4,13.5-1.4c16.8,0.2,32.3,12.3,36.6,28.6
				c1.5,5.5,1.5,11.3,0.2,16.8c-0.5,2.4-1.3,4.7-2.4,6.9c-1.2,2.3-3,4.3-4.1,6.6c-1.2,2.3,2.3,4.3,3.5,2c1.1-2.2,2.8-4.1,4-6.3
				c1.1-2.1,1.9-4.4,2.6-6.7c1.4-5.3,1.8-10.8,1-16.2c-1.5-10-6.9-19.2-14.7-25.6c-7-5.8-15.9-9.7-25.1-10c-4.3-0.2-8.6,0-12.8,0.7
				c-4.9,0.8-9.6,2.9-13.6,5.8c-9.5,7-14.8,18-16.2,29.5c-0.1,1.1,1,2,2,2C497.2,282.8,497.9,281.9,498,280.8L498,280.8z"/>
		</g>
	</g>
	<g>
		<g>
			<path d="M494.6,311.2c1.1,0.1,2.3,0.2,3.4,0.3c0.5,0.1,1.1,0.1,1.6,0.2c0.5,0.1-0.4-0.1,0.1,0c0.1,0,0.3,0,0.4,0.1
				c0.3,0,0.6,0.1,0.9,0.1c-0.5-0.8-0.9-1.6-1.4-2.5c-0.1,0.7-0.3,1.3-0.5,1.9c0,0.1-0.1,0.1-0.1,0.2c-0.1,0.3,0-0.1,0.1-0.1
				c-0.1,0.2-0.1,0.3-0.2,0.5c-0.2,0.3-0.3,0.6-0.5,0.9s-0.4,0.5-0.5,0.8c0.1-0.1,0.3-0.3,0.1-0.1c-0.1,0.1-0.1,0.1-0.2,0.2
				s-0.2,0.2-0.3,0.4c-0.2,0.2-0.5,0.5-0.7,0.7c-0.1,0.1-0.3,0.2-0.4,0.3c-0.2,0.2,0.3-0.2,0.1-0.1c-0.1,0.1-0.2,0.1-0.2,0.2
				c-0.4,0.3-0.8,0.7-0.9,1.2s-0.1,1.1,0.2,1.5c0.5,0.8,1.8,1.4,2.7,0.7c2.7-1.9,4.7-4.8,5.3-8.1c0.1-0.5,0.1-1.1-0.2-1.5
				c-0.3-0.4-0.7-0.8-1.2-0.9c-2.5-0.4-5-0.7-7.5-0.8c-1-0.1-2,1-2,2C492.6,310.3,493.5,311.1,494.6,311.2L494.6,311.2z"/>
		</g>
	</g>
	<g>
		<g>
			<path d="M500.2,290.7c0.4,0,0.7,0,1.1,0c-0.2,0-0.4,0-0.5-0.1c0.4,0.1,0.8,0.2,1.1,0.3c-0.2-0.1-0.3-0.1-0.5-0.2
				c0.3,0.1,0.7,0.3,1,0.6c-0.1-0.1-0.3-0.2-0.4-0.3c0.1,0.1,0.3,0.2,0.4,0.4c0.4,0.4,0.9,0.6,1.4,0.6s1.1-0.2,1.4-0.6
				s0.6-0.9,0.6-1.4s-0.2-1-0.6-1.4c-0.7-0.7-1.6-1.2-2.5-1.5c-0.5-0.2-1-0.2-1.4-0.3c-0.3,0-0.7,0-1,0s-0.5,0-0.8,0.2
				c-0.2,0.1-0.5,0.2-0.6,0.4c-0.3,0.3-0.6,0.9-0.6,1.4s0.2,1.1,0.6,1.4C499.2,290.5,499.7,290.8,500.2,290.7L500.2,290.7z"/>
		</g>
	</g>
	<g>
		<g>
			<path d="M538,314c3.5,3.6,4,8.9,4.4,13.7c0.2,2.7,0.7,4.9,2.8,6.8c1.9,1.7,4.1,2.9,6.5,3.8c2.4,0.9,3.5-3,1.1-3.9
				c-2-0.7-4.1-1.8-5.5-3.4c-0.7-0.8-0.8-1.8-0.9-2.9c-0.1-1.3-0.2-2.7-0.4-4c-0.6-4.7-1.8-9.5-5.2-13
				C539,309.4,536.2,312.2,538,314L538,314z"/>
		</g>
	</g>
	<g>
		<g>
			<path d="M565.5,307.6c-2.2,4-3.8,8.4-4.4,13c-0.2,1.1-0.3,2.3-0.4,3.5c-0.1,0.8,0,1.7-0.4,2.4c-0.8,1.2-3,0.9-4.2,0.9
				c-2.6-0.1-2.6,3.9,0,4c2.1,0.1,4.3,0.1,6.1-1.2c2.2-1.5,2.4-4,2.6-6.5c0.4-4.9,1.9-9.7,4.2-14
				C570.2,307.4,566.7,305.4,565.5,307.6L565.5,307.6z"/>
		</g>
	</g>
	<g>
		<g>
			<path d="M502.8,267c-0.4-1.4-2.1-2-3.3-1.3c-1.3,0.8-1.3,2.6-0.3,3.7c1.3,1.4,3,2.6,4.6,3.7c3.2,2.2,6.6,3.9,10.3,5.1
				c1,0.3,2.2-0.4,2.5-1.4c0.3-1.1-0.4-2.1-1.4-2.5c-2.5-0.8-4.8-1.9-7.1-3.2c-1.1-0.7-2.2-1.4-3.3-2.2c-0.4-0.3-0.8-0.6-1.3-1
				c-0.3-0.2-0.6-0.5-0.8-0.7c-0.1-0.1-0.2-0.2-0.4-0.3c-0.2-0.1-0.2-0.3-0.1-0.1c0.1,0.3,0.2,0.7,0.3,1c0-0.1,0-0.1,0-0.2
				c-0.1,0.3-0.2,0.7-0.3,1v-0.1c-0.2,0.2-0.5,0.5-0.7,0.7c-0.2,0.1-0.5,0.1-0.7,0.2c-0.3-0.1-0.7-0.2-1-0.3h0.1
				c-0.3-0.4-0.6-0.8-0.9-1.2v0.1c0.3,1,1.4,1.7,2.5,1.4C502.4,269.2,503.1,268,502.8,267L502.8,267z"/>
		</g>
	</g>
	<g>
		<g>
			<path d="M515.9,281c3.6,2.6,7,5.7,9.3,9.6c2.3,3.8,3.2,8,2.8,12.4c-0.1,1.5,1.8,2.5,3,1.7c3.9-2.5,6.9-6.2,8-10.8
				c0.6-2.5-3.2-3.6-3.9-1.1c-0.9,3.5-3.1,6.4-6.2,8.4c1,0.6,2,1.2,3,1.7c0.5-5.1-0.7-10.1-3.3-14.5c-2.7-4.5-6.5-8-10.7-11
				c-0.9-0.6-2.2-0.2-2.7,0.7C514.6,279.3,515,280.4,515.9,281L515.9,281z"/>
		</g>
	</g>
	<g>
		<g>
			<path d="M533.4,280.8c0.9,1.8,1.6,3.9,1.9,6c0,0.2,0.1,0.9,0.1,1.4c0,0.6,0,1.1,0,1.7c0,1.1-0.1,2-0.3,3
				c-0.2,1.1,0.3,2.2,1.4,2.5c1,0.3,2.3-0.3,2.5-1.4c1-5.2,0.2-10.5-2.2-15.1c-0.5-1-1.8-1.2-2.7-0.7
				C533.2,278.6,532.9,279.8,533.4,280.8L533.4,280.8z"/>
		</g>
	</g>
	<g>
		<g>
			<path d="M554,295.1c0.8,5.1-1,10.6-4.5,14.4c-1.8,1.9,1.1,4.7,2.8,2.8c4.6-4.9,6.6-11.7,5.6-18.3c-0.2-1.1-1.5-1.7-2.5-1.4
				C554.3,293,553.8,294,554,295.1L554,295.1z"/>
		</g>
	</g>
	<g>
		<g>
			<path d="M504.7,263.9c-4.3,3.4-8.6,6.8-12.9,10.2c-0.8,0.7-0.7,2.1,0,2.8c0.8,0.8,2,0.7,2.8,0c4.3-3.4,8.6-6.8,12.9-10.2
				c0.8-0.7,0.7-2.1,0-2.8C506.7,263.1,505.6,263.2,504.7,263.9L504.7,263.9z"/>
		</g>
	</g>
	<g>
		<g>
			<path d="M511.7,349.9c11.6,9,26.6,7,39.8,3.4c2.5-0.7,1.4-4.5-1.1-3.9c-11.5,3.1-25.6,5.6-35.9-2.4c-0.9-0.7-2-0.8-2.8,0
				C511,347.8,510.8,349.2,511.7,349.9L511.7,349.9z"/>
		</g>
	</g>
	<g>
		<g>
			<path d="M536.4,376.2c0.1-0.5,0.2-1,0.4-1.4c0.1-0.2,0.2-0.4,0.2-0.7c0,0.1-0.1,0.2-0.1,0.2c0-0.1,0.1-0.2,0.1-0.2
				c0-0.1,0.1-0.2,0.1-0.3c0.2-0.4,0.5-0.9,0.7-1.3c0.1-0.2,0.2-0.3,0.4-0.5c0.2-0.3-0.2,0.3,0,0c0.1-0.1,0.2-0.2,0.2-0.3
				c0.3-0.4,0.6-0.7,1-1c0.2-0.2,0.3-0.3,0.5-0.5c0.4-0.3-0.2,0.1,0,0c0.1-0.1,0.2-0.1,0.3-0.2c0.4-0.3,0.8-0.5,1.2-0.7
				c0.2-0.1,0.5-0.2,0.7-0.3c0.4-0.2-0.4,0.1,0,0c0.1,0,0.2-0.1,0.4-0.1c1-0.4,1.7-1.4,1.4-2.5c-0.3-1-1.4-1.8-2.5-1.4
				c-4.4,1.6-7.9,5.4-8.9,10.1c-0.2,1,0.3,2.2,1.4,2.5C534.9,377.8,536.1,377.3,536.4,376.2L536.4,376.2z"/>
		</g>
	</g>
	<g>
		<g>
			<path d="M477.2,455.9c-0.8,2.5-2,4.9-3,7.4c-0.9,2.4-2.3,5.6-0.6,7.9c1.8,2.5,5.2,3,7.8,4.5c2.1,1.1,4,2.5,6.1,3.6
				c5.7,2.9,12.5,3.3,18.8,4.3c8.7,1.3,17.4,2.5,26.2,3.7c3.8,0.5,7.6,1,11.4,1.4c2.2,0.3,4.5,0.6,6.8,0.6c1.6,0,3.3-0.8,4.2-2.2
				c0.8-1.3,0.5-3.1,0.4-4.6c-0.5-4.4-1.6-9.1-2.1-13.3c-0.1-0.7-0.1-1.3-0.1-2c0.1-1.1-1-2-2-2c-1.2,0-1.9,0.9-2,2
				c-0.2,1.7,0.2,3.4,0.5,5c0.3,2.3,0.8,4.6,1.1,6.9c0.3,1.9,0.6,3.4,0.7,5.3c0,0.3,0,0.6,0,0.9c0,0.4,0.1-0.4,0-0.1
				c-0.1,0.3,0.3-0.2,0.1-0.2c-0.1,0-0.8,0.4-0.8,0.4s0.6,0,0.2,0c-1.8-0.2-3.7-0.2-5.6-0.4c-3.4-0.4-6.8-0.8-10.2-1.2
				c-8.2-1.1-16.5-2.2-24.7-3.4c-5.1-0.7-10.3-1.3-15.4-2.4c-2.9-0.7-5.5-1.7-8.1-3.3c-2.4-1.5-4.7-2.8-7.3-3.9
				c-0.9-0.3-2.9-0.8-3-1.9c-0.1-0.9,0.7-2.6,1-3.6c1-2.7,2.3-5.3,3.2-8C481.8,454.5,478,453.4,477.2,455.9L477.2,455.9z"/>
		</g>
	</g>
	<g>
		<g>
			<path d="M476.9,474.7c1.2,11.3,1.8,22.6,1.9,33.9c0,2.6,4,2.6,4,0c-0.1-11.3-0.7-22.7-1.9-33.9c-0.1-1.1-0.8-2-2-2
				C477.9,472.7,476.8,473.6,476.9,474.7L476.9,474.7z"/>
		</g>
	</g>
	<g>
		<g>
			<path d="M545.8,488.8c-1.2,3.2-1.2,6.9-1.5,10.3c-0.3,3.6-0.7,7.2-1,10.9c-0.1,1.1,1,2,2,2c1.2,0,1.9-0.9,2-2
				c0.3-3.5,0.7-7,1-10.5c0.3-3.2,0.3-6.6,1.4-9.7c0.4-1-0.4-2.2-1.4-2.5C547.1,487.1,546.1,487.8,545.8,488.8L545.8,488.8z"/>
		</g>
	</g>
	<g>
		<g>
			<path d="M531.1,393.4c0.1,5.2,0.3,10.4,0.4,15.5c0.1,2.6,4.1,2.6,4,0c-0.1-5.2-0.3-10.4-0.4-15.5
				C535.1,390.9,531.1,390.8,531.1,393.4L531.1,393.4z"/>
		</g>
	</g>
	<g>
		<g>
			<path d="M552.4,353.2c4-0.3,6.7,3.2,8.4,6.4c2.2,4.1,3.4,8.8,4.2,13.4c1.7,9.9,0.8,19.9,0.1,29.8c-0.8,10.3-1.4,20.7-2.7,31
				c-0.6,5.2-1.5,10.4-2.6,15.5c-0.9,4.2-1.7,9.3-4.7,12.7c-2.8,3-7.3,4.7-11.2,5.4c-4.8,0.8-10.3-0.2-14.7-2.1
				c-1-0.4-2.1-0.3-2.7,0.7c-0.5,0.8-0.3,2.3,0.7,2.7c8.8,3.8,19.1,4,27.4-1.2c4.1-2.6,6.4-6.5,7.7-11.1c1.5-5.3,2.5-10.8,3.3-16.3
				c1.7-11.1,2.4-22.3,3.3-33.5c0.8-10.9,1.9-21.8,0.4-32.7c-0.8-5.6-2.2-11.5-4.9-16.5c-2.4-4.3-6.5-8.6-11.8-8.2
				C549.9,349.4,549.9,353.4,552.4,353.2L552.4,353.2z"/>
		</g>
	</g>
	<g>
		<g>
			<path d="M481.1,457c2.3-6.8,5.6-13.2,7.7-20c1.1-3.5,1.9-7.3,2-11s-0.8-7.2-1.9-10.8c-2.2-7.4-3-15.6,0-22.9
				c1.5-3.6,3.5-7,5.4-10.4c2-3.7,3.9-7.3,5.9-11c2.1-3.9,4.1-7.8,6.3-11.6c1.8-3.2,3.9-6.5,7-8.6c2.1-1.5,0.1-4.9-2-3.5
				c-6.1,4.2-9.2,11.4-12.6,17.7c-3.9,7.4-8,14.7-11.8,22.1c-1.8,3.5-3.2,7-3.7,11c-0.6,4.1-0.3,8.2,0.4,12.2
				c0.7,3.9,2.2,7.5,2.8,11.4c0.6,3.6,0.1,7.3-0.7,10.9c-1.9,8.1-5.8,15.5-8.6,23.4C476.4,458.3,480.2,459.4,481.1,457L481.1,457z"
				/>
		</g>
	</g>
	<g>
		<g>
			<path d="M536.3,432c-1-1.3-2.3-2.5-3-3.9c-0.1-0.3-0.1-0.4-0.2-0.2c0.1-0.2,0.3-0.4,0.4-0.6c0.3-0.4,0.6-0.8,0.8-1.2
				c0.4-0.7,0.7-1.3,1-2c0.9-2.2,0.3-4.7,1-6.9c0.5-1.6,1.1-3.1,1.1-4.8c0-2.1-1.4-3.8-3.4-4.2c-2.1-0.4-3.4,0.4-5,1.7
				c-0.8,0.7-1.6,1.4-2.3,2.1c-0.5,0.5-0.7,0.3-1.3,0.1c-2.4-0.8-3.5,3-1.1,3.9c1.7,0.6,3.6,0.4,4.9-0.8c0.8-0.7,1.5-1.5,2.3-2.2
				c0.3-0.3,0.8-0.8,1.2-0.8c0.2,0,0.4,0,0.6,0.1c-0.2-0.1,0,0.3,0,0.5c0,0.6-0.2,1.3-0.4,1.9c-0.5,1.6-1,3-1.1,4.6
				c0,0.5,0,1-0.1,1.4c0,0.2,0,0.5,0,0.7c0,0.1-0.1,0.8,0,0.4c-0.2,1.3-0.9,2.4-1.7,3.5c-1.4,1.9-1.2,3.7,0.1,5.6
				c1,1.4,2.1,2.7,3.2,4c0.7,0.9,2.1,0.7,2.8,0C537.1,434,536.9,432.9,536.3,432L536.3,432z"/>
		</g>
	</g>
	<g>
		<g>
			<path d="M526.6,416.2C526.6,416.1,526.4,415.9,526.6,416.2l-0.1-0.1c-0.1-0.2-0.2-0.3-0.3-0.5c-0.2-0.4-0.5-0.8-0.7-1.2
				c-0.4-0.9-0.8-1.8-1.2-2.7c-0.1-0.1-0.1-0.2-0.2-0.4c0,0,0.1,0.2,0,0s-0.2-0.4-0.3-0.6c-0.2-0.5-0.4-1-0.6-1.5
				c-0.4-0.9-0.8-1.7-1.5-2.4c-0.8-0.8-1.9-1.3-3-1.3c-1.2,0-2.2,0.5-3,1.3c-2,1.8-2.1,4.5-1.7,7c0.5,2.8,1.3,5.6,2,8.4
				c0.3,1,1.4,1.7,2.5,1.4c1.1-0.3,1.7-1.4,1.4-2.5c-0.5-2.2-1.1-4.3-1.6-6.5c-0.1-0.5-0.2-0.9-0.3-1.4c-0.1-0.5-0.1-0.7-0.1-1.2
				c0-0.2,0-0.5,0-0.7c0-0.1,0-0.2,0-0.3c0,0.1,0,0.2,0,0c0.1-0.5,0.2-0.6,0.5-1.1c-0.2,0.3,0,0,0.1-0.1c0.1-0.1,0.4-0.4,0.2-0.2
				c0.2-0.1,0.4-0.2,0.1-0.1c0.2,0,0-0.1,0,0c-0.1,0.1-0.2,0,0.1,0c0.3,0.1-0.4-0.1-0.1,0c0.1,0,0.1,0,0.2,0.1h-0.1
				c-0.1-0.1-0.1-0.1,0,0l0.2,0.1c-0.3-0.2,0,0,0.1,0.1c-0.2-0.2,0.2,0.3,0.2,0.4c0.1,0.3,0.3,0.5,0.4,0.8c0.1,0.1,0.1,0.3,0.2,0.4
				c0.1,0.2,0-0.1,0-0.1c0,0.1,0.1,0.2,0.1,0.3c0.4,0.9,0.7,1.7,1.1,2.6c0.8,1.7,1.6,3.4,2.8,4.9c0.7,0.8,2.1,0.7,2.8,0
				C527.4,418.2,527.3,417,526.6,416.2L526.6,416.2z"/>
		</g>
	</g>
	<g>
		<g>
			<path d="M518.5,416.7c-1.9-3.5-3.8-6.9-5.8-10.3c-0.9-1.6-1.8-3.2-2.8-4.7c-1.3-2-4.1-2.5-6.1-1.1c-1.3,0.9-2.1,2.2-2.2,3.8
				c-0.1,1.2,0.2,2.3,0.5,3.5c0.7,2.5,4.5,1.4,3.9-1.1c-0.1-0.5-0.3-1-0.4-1.6c0-0.2,0-0.3,0-0.1c0-0.1,0-0.3,0-0.4
				c0-0.4,0,0.2,0-0.2c0.1-0.2,0.1-0.2,0-0.1c0.1-0.1,0.1-0.2,0.2-0.4c-0.1,0.1,0.3-0.2,0.4-0.3c0.4-0.2,0.1,0,0.3,0
				c0.2,0,0.1,0-0.1,0c0.2,0.1,0.2,0.1,0,0c0.1,0,0.2,0.1,0.3,0.1c-0.2-0.2-0.3-0.2-0.1-0.1c0.1,0.2,0.1,0.1-0.1-0.2
				c0.1,0.1,0.1,0.2,0.2,0.3c0.2,0.3,0.4,0.7,0.6,1.1c0.5,0.9,1,1.8,1.6,2.6c2.1,3.7,4.2,7.4,6.3,11.2
				C516.3,421,519.8,419,518.5,416.7L518.5,416.7z"/>
		</g>
	</g>
	<g>
		<g>
			<path d="M505.8,406.3c-0.6-1.1-1.4-2.2-2.7-2.7c-1.3-0.6-2.8-0.2-3.9,0.6c-2.2,1.7-1.7,4.8-1.3,7.2c0.9,5.7,3.4,11.1,5.7,16.4
				c0.4,1,1.9,1.2,2.7,0.7c1-0.6,1.2-1.7,0.7-2.7c-1.7-3.8-3.4-7.6-4.5-11.7c-0.5-1.8-1-3.8-1-5.7c0-0.3,0-0.6,0-0.8
				c0.1-0.3,0-0.1,0.1-0.3c0.1-0.1-0.1-0.2,0,0c0.3,0.3,0.4,0.6,0.6,0.9C503.6,410.6,507.1,408.5,505.8,406.3L505.8,406.3z"/>
		</g>
	</g>
	<g>
		<g>
			<path d="M506,425c-2.3-2.6-5.2-5-8.4-6.5c-1.8-0.8-3.6,0.1-4.1,2c-0.5,1.5-0.2,3.3,0.3,4.8c1.2,3.3,3.9,5.9,6.4,8.2
				c1.3,1.2,2.7,2.3,4.3,3.1c1.6,0.8,3.4,1.2,5.1,1.7c1.9,0.5,3.7,1.1,5.4,2.1c1.7,1.1,3.3,2.5,4.8,3.8c1.9,1.7,4.8-1.1,2.8-2.8
				c-2.2-2-4.5-4.1-7.3-5.4c-2.7-1.3-5.8-1.6-8.5-2.8c-2.6-1.1-4.6-3.2-6.5-5.2c-0.9-1-1.8-2-2.4-3.2c-0.3-0.5-0.5-1.1-0.6-1.6
				c-0.1-0.3-0.1-0.6-0.1-1c0-0.1,0-0.3,0-0.4c0.1-0.4-0.1-0.3-0.7,0.4c-0.3-0.1-0.7-0.2-1-0.3c2.9,1.3,5.5,3.4,7.6,5.8
				C504.8,429.8,507.7,427,506,425L506,425z"/>
		</g>
	</g>
	<g>
		<g>
			<path d="M502.4,408.3c2.4,5.8,5,11.5,7.4,17.3c0.4,1,1.3,1.7,2.5,1.4c0.9-0.3,1.8-1.5,1.4-2.5c-2.4-5.8-5-11.5-7.4-17.3
				c-0.4-1-1.3-1.7-2.5-1.4C502.9,406.1,502,407.3,502.4,408.3L502.4,408.3z"/>
		</g>
	</g>
	<g>
		<g>
			<path d="M515.6,432.8c1.2-0.8,2.5-1.6,3.8-2.3c0.6-0.3,1.3-0.7,1.9-1c0.3-0.2,0.7-0.3,1-0.5c0.2-0.1,0.4-0.2,0.5-0.2
				s0.2-0.1,0.3-0.1c-0.3,0.1-0.3,0.1-0.1,0c0.5-0.2,0.9-0.4,1.2-0.9c0.3-0.4,0.4-1.1,0.2-1.5c-0.2-0.5-0.5-1-0.9-1.2
				s-1.1-0.4-1.5-0.2c-2.9,1.2-5.8,2.7-8.4,4.5c-0.9,0.6-1.3,1.8-0.7,2.7C513.5,432.9,514.7,433.4,515.6,432.8L515.6,432.8z"/>
		</g>
	</g>
	<g>
		<g>
			<path d="M538.2,431c-7.3,4.5-14.3,9.3-21.2,14.4c-0.9,0.6-1.3,1.7-0.7,2.7c0.5,0.9,1.9,1.4,2.7,0.7c6.9-5.1,13.9-9.9,21.2-14.4
				C542.4,433.1,540.4,429.7,538.2,431L538.2,431z"/>
		</g>
	</g>
</g>
<g id="woman2">
	<g>
		<path class="st0" d="M257.1,455.1c0.2,2.6,1.6,6.5,2.4,9c2,6.3,5.7,15.3,6.8,21.8c0.2,1.4,1.2,4.6,0.6,5.6c-0.6,1-1.9,1.3-2.9,1.2
			c-1.9-0.1-3.5-2-3.8-2.5c-2.2-4.4-5.2-11.4-7.1-16c-0.3,0.6-0.5,1-0.5,1c-0.6,1.3-1.5,4.2-2.3,4.9c-0.5,0.4-2.2,0.8-2.8,0.4
			c-0.7-0.4-1.1-1.1-1.2-2.1c-0.3-2.9-0.3-7-0.3-9.3l0.1-13.6"/>
	</g>
	<g>
		<path class="st0" d="M258.2,454.5c-4.6,0.9-9.2,1.3-13.8,1.5c0.3,1.9,0.7,3.9,1,5.8c-1.9,3.2-14.7,0.8-14.7-5.2
			c-1.5-20.7-3-78.1-9.3-102.1c4.1,0.5,10.6,2.6,14.4,3.9c6.7,2.4,8.6,4.3,10.4,6c2.2,2.3,4.2,7.5,4.4,9.5c3.3,27.4,5.9,52,7.1,79.6
			"/>
	</g>
	<g>
		<path class="st0" d="M180.8,457c-0.9,3.8-2.1,7.4-3.9,10.2c-5.3,2.3-17.6-0.3-19.3-0.7c-1.2-0.3-2.3-0.7-2.1-1.4
			c1.5-8,3.5-14,4.2-21.1c0,0,0.3-4.6,0.7-9.4c-9.5-12.2-12.6-31.1-14.7-48.4c-0.3-2.8-0.6-5.7,0.4-8.4c1.4-3.9,5-6.5,8.4-8.9
			c5.6-3.9,11.2-7.7,16.8-11.6c0.3,1,0.7,1.9,1,2.8c1.9,4.6,5.3,7.9,11.6,13.4c0.5,0.4,1.3,0.5,1.6,1.1c0.2,0.5,0.1,1.1,0,1.7
			c-0.5,1.7-0.9,3.3-1.4,5c2.2,0.3,4.4,0.6,6.5,1c4.6,0.8,9.1,1.8,13.8,3.1c-1,5.9-2.7,13.1-4.6,20.3c-2.7,10.6-4.4,20.5-9.2,30.3
			c-0.3,0.7-1,1.6-1.8,2.4c-1.1,1.1-2.7,2.3-4.6,3.1C182.8,446.1,182.1,451.7,180.8,457z"/>
	</g>
	<g>
		<path class="st0" d="M186.2,339.6c0-0.2-0.1-0.4-0.1-0.6c0.5,0.2,0.9,0.5,1.4,0.7c5.1,2.4,10.4,3,16,2.9c2.6-0.1,5.1-0.5,7.4-1.3
			c0.5,2.8,0.9,5.8,1.4,8.1c0.1,0.3,0.4,1.8,1.3,2.7c1.4,1.2,4.7,2.4,8.1,3.5c0.7,2.8,1.3,6,1.9,9.5c-1,2.8-2.6,5.2-4.8,7.2
			c-5.6,4.1-15,4.5-19.4,1.6c1.5-1.5,2-2.8,2-4.8c-0.1-3.6-1.5-7.2-3.7-10.1c-2.2-2.9-5-5.2-7.7-7.6c-0.7-0.6-1.5-1.3-1.9-2.1
			c-0.6-1-0.7-2.2-0.8-3.3C187,343.8,186.7,341.7,186.2,339.6z"/>
	</g>
	<g>
		<path class="st0" d="M191.5,341.2c-1.3-0.4-2.6-0.9-3.9-1.5c-0.5-0.2-0.9-0.4-1.4-0.7c-3.8-2-7.5-4.9-10-7.4
			c-0.2-0.7-0.3-1.1-0.3-1.1c-0.6,0-1.5-0.1-2.4-0.3c-0.8-0.2-1.6-0.3-2.1-0.5h-0.1c-1.6-0.5-4-2-5.1-3c-2.5-2.2-3.3-3.6-4.3-6.7
			c-0.2-0.8-0.4-2.3-0.3-3.2c0.1-1.2,0.9-2.4,2-3c1.1-0.7,2.5-0.8,3.7-0.4c0.9-0.5,2.4-1.9,4.2-3.8c0.1-0.1,0.3-0.3,0.4-0.5
			c1.1-1.2,2.4-2.6,3.7-4.1c0.1-0.1,0.2-0.3,0.3-0.4c5.8-1.6,16.9-8.1,25.8-14.5c0.2-0.2,0.5-0.3,0.7-0.5c4.9-3.5,9.1-7,11.3-9.7
			c0.3-0.3,0.5-0.6,0.7-0.9c0,0,2.4-2.9,4.4-6.1c4.2,5.9,7.3,13.7,8.5,23.1c1.9,9.5,3,20.7-1,30c-4,9.3-13.2,16.2-23.3,16.4
			C199,342.5,195.2,342.2,191.5,341.2z"/>
	</g>
	<g>
		<path class="st3" d="M203.5,385.3c-1.1-0.3-2.2-0.6-3.3-0.9c0-3.4-0.1-8.3-0.2-10.2c0.4,0.2,0.7,0.3,0.7,0.3
			c4.8,2.1,13.1,1.4,18.2-2.3c2.2-1.9,3.9-4.4,4.8-7.2c4,24.6,5.5,64.3,6.7,85.1c-1.7,0.2-2.9,0.3-2.9,0.3
			c-8.9,1.2-26.2,2.9-37.6,2.9c0,0-4.4-0.1-9-0.3c1.3-4,2.3-8,3.1-11.4c1.9-0.8,3.4-2,4.6-3.1c0.9-0.9,1.5-1.7,1.8-2.4
			c4.7-9.9,6.4-19.8,9.2-30.3c1.9-7.3,3.5-14.5,4.6-20.3C203.9,385.5,203.7,385.4,203.5,385.3z"/>
	</g>
	<g>
		<path class="st1" d="M218.8,272.8c-8.3,13.9-30.5,27-42.9,31.6l0,0c-2.4,2.8-6.3,7.3-8.7,8.8c-12.7-0.9-2.6,18.1,8.7,17.2
			c1.2,4.2,4.8,16.6,3.7,20.8c-0.7,2.3-4.8,3.2-8.5,3.6c-8.3,0-12.3,2.5-18.8,0c-0.6-0.7,0-1.7,0.4-2.4c8.2-10.4-6.2-24.9,4.5-34.1
			l0,0c0.4-0.3,0.9-0.6,1.4-0.8c-13.6-15.8-9.9-42,7.6-53.3C181.8,254.3,208.4,256.9,218.8,272.8z"/>
	</g>
	<g>
		<g>
			<path d="M214.9,319.8c-3.4,0.9-6.8,2.2-10.2,3.2c-1.3,0.4-1.7,1.8-1.2,2.9c1,2.1,2.2,4.2,4,5.8c0.8,0.7,2.1,0.8,2.8,0
				c0.7-0.8,0.8-2.1,0-2.8c-0.4-0.3-0.7-0.7-1.1-1.1c-0.1-0.1-0.2-0.2-0.3-0.3c0.1,0.1,0.1,0.2,0,0c-0.2-0.2-0.3-0.5-0.5-0.7
				c-0.6-0.9-1.1-1.9-1.5-2.9c-0.4,1-0.8,2-1.2,2.9c3.4-1,6.8-2.3,10.2-3.2c1-0.3,1.7-1.4,1.4-2.5C217,320.1,216,319.5,214.9,319.8
				L214.9,319.8z"/>
		</g>
	</g>
	<g>
		<g>
			<path d="M160.3,316.6c-6.1-7.2-8.9-16.9-7.9-26.3c1-8.9,5.9-17.3,12.9-22.9c2.9-2.4,6.3-4,10-5c5-1.4,10.1-2.2,15.3-1.9
				c8.6,0.5,17.4,3.5,23.4,9.7c6.7,6.9,10,16.4,11.3,25.8c0.1,1.1,0.8,2,2,2c1,0,2.1-0.9,2-2c-1.2-9.6-4.3-18.9-10.5-26.5
				c-6-7.3-14.8-11.3-24.1-12.6c-5.8-0.8-11.5-0.4-17.3,0.8c-4.4,0.9-8.5,2.4-12.2,4.9c-8.1,5.5-14,14.2-16.1,23.8
				c-2.5,11.6,0.8,23.9,8.4,33C159.1,321.4,162,318.5,160.3,316.6L160.3,316.6z"/>
		</g>
	</g>
	<g>
		<g>
			<path d="M208,310.6c0.1,0.3,0.3,0.6,0.4,0.9c-0.1-0.2-0.1-0.3-0.2-0.5c0.2,0.4,0.3,0.7,0.4,1.1c0.1,0.3,0.3,0.7,0.3,1
				c0-0.2,0-0.4-0.1-0.5c0,0.1,0,0.2,0,0.3c0-0.2,0-0.4,0.1-0.5c0,0.1,0,0.1,0,0.1c0.1-0.2,0.1-0.3,0.2-0.5c0,0,0,0.1-0.1,0.1
				c0.1-0.1,0.2-0.3,0.3-0.4l-0.1,0.1c0.1-0.1,0.3-0.2,0.4-0.3c-0.1,0.1-0.2,0.1-0.3,0.2c0.2-0.1,0.3-0.1,0.5-0.2
				c-0.1,0-0.2,0.1-0.3,0.1c0.2,0,0.4,0,0.5-0.1c-0.2,0-0.4,0-0.6,0c-0.5,0-1,0.2-1.4,0.6c-0.3,0.3-0.6,0.9-0.6,1.4s0.2,1.1,0.6,1.4
				c0.4,0.4,0.9,0.6,1.4,0.6c0.2,0,0.4,0,0.6,0c0.6-0.1,1.1-0.2,1.6-0.5c0.4-0.3,0.7-0.5,0.9-0.9c0.2-0.4,0.3-0.8,0.3-1.2
				c0-0.4-0.1-0.8-0.2-1.2c-0.4-1-0.8-2.1-1.3-3.1c-0.2-0.4-0.8-0.8-1.2-0.9c-0.5-0.1-1.1-0.1-1.5,0.2c-0.4,0.3-0.8,0.7-0.9,1.2
				c0,0.2,0,0.4-0.1,0.5C207.7,310,207.8,310.3,208,310.6L208,310.6z"/>
		</g>
	</g>
	<g>
		<path d="M190.3,306.7c-0.2,1.7,0.7,5.3,3.8,5.1c4-0.7,3.5-5.2,1.8-7.1C194.5,303.3,191.1,303.1,190.3,306.7z"/>
	</g>
	<g>
		<path d="M215,299.8c-0.2,1.6,0.5,5.2,3.2,5.2c3.5-0.5,3.2-4.9,1.8-6.8C218.8,296.7,215.8,296.3,215,299.8z"/>
	</g>
	<g>
		<g>
			<path d="M174.4,332.6c4.4,4.6,10.2,8.5,16.3,10.4c5.9,1.8,12.9,2.1,18.9,0.4c5.4-1.6,10.3-4.8,13.9-9.2c4-4.8,6.3-10.6,7.1-16.8
				c1-7.3,0.1-14.8-1.4-22c-0.5-2.5-4.4-1.5-3.9,1.1c2.2,11,3.3,23.6-3.4,33.3c-2.8,4-6.8,7.3-11.4,9.1c-5.2,2-11.1,2-16.5,0.9
				c-6.4-1.4-12.3-5.3-16.9-10C175.4,327.9,172.6,330.8,174.4,332.6L174.4,332.6z"/>
		</g>
	</g>
	<g>
		<g>
			<path d="M167.7,311.3c-2.8-0.9-5.8,0.3-7.3,2.6c-1.4,2-1.1,4.9-0.4,7.1c0.7,2.1,1.7,3.9,3.2,5.5c1.5,1.6,3.4,3,5.4,4
				c2.2,1.1,4.9,1.8,7.3,1.8c2.6,0,2.6-4,0-4c-3.9,0-8.1-2.3-10.4-5.4c-1-1.3-1.9-3.3-2-5.1c0-0.2,0-0.5,0-0.7c0-0.1,0-0.3,0-0.4
				c0,0.2,0,0.1,0-0.1c0.1-0.4,0.3-0.7,0.6-1c0.7-0.7,1.7-0.8,2.6-0.5C169.1,316,170.2,312.1,167.7,311.3L167.7,311.3z"/>
		</g>
	</g>
	<g>
		<g>
			<path d="M156.6,316.5c-3.2,2.4-4.8,5.9-5.2,9.8c-0.4,4.4,1,8.8,1.9,13.1c0.5,2.1,0.7,4.1,0.2,6.2s-1.5,3.9-2.5,5.8
				c-1.1,2.1-0.9,4.5,1.6,5.4c1.4,0.5,2.9,0.6,4.3,0.7c4.5,0.3,9.1-0.1,13.4-1.3c2.5-0.7,1.4-4.5-1.1-3.9c-3.3,0.9-6.7,1.3-10.1,1.2
				c-1.3,0-2.6-0.1-3.9-0.2c-0.2,0-0.5-0.1-0.7-0.1c-0.3-0.1-0.6-0.3-0.4,0.2c0.3,0.5,0.5-0.3,0.7-0.7c0.2-0.4,0.5-0.9,0.7-1.3
				c1.7-3.4,2.6-7.1,2-10.9c-0.6-3.8-2.1-7.5-2.3-11.4c-0.2-3.2,0.5-7.1,3.3-9.2c0.9-0.6,1.3-1.7,0.7-2.7
				C158.8,316.3,157.4,315.8,156.6,316.5L156.6,316.5z"/>
		</g>
	</g>
	<g>
		<g>
			<path d="M217.1,272.7c-4.1,5.9-9.9,10.7-15.6,14.9c-6,4.4-12.3,8.5-18.9,11.9c-2.6,1.3-4.9,2.4-7.7,3.2c-2.5,0.6-1.4,4.5,1.1,3.9
				c5.9-1.5,11.6-4.9,16.7-8.1c7-4.3,13.7-9.1,19.8-14.7c3-2.8,5.8-5.7,8.1-9.1C222.1,272.6,218.6,270.6,217.1,272.7L217.1,272.7z"
				/>
		</g>
	</g>
	<g>
		<g>
			<path d="M187.3,284.4c-2.9,6-6.9,11.4-11.1,16.5c-2,2.4-4,4.8-6.1,7c-0.8,0.8-1.5,1.6-2.4,2.4c-0.3,0.3-0.7,0.6-1,0.9
				c0.4-0.3-0.3,0.2-0.5,0.3c-2.2,1.3-0.2,4.8,2,3.5c1.7-1,3.1-2.6,4.5-4c2.2-2.3,4.3-4.7,6.3-7.2c4.4-5.4,8.7-11.1,11.7-17.4
				C191.8,284.1,188.4,282.1,187.3,284.4L187.3,284.4z"/>
		</g>
	</g>
	<g>
		<g>
			<path d="M247.9,363.1c-1.2-1.1-2.3-2.2-3.7-3.1c-2.3-1.5-4.9-2.6-7.4-3.5c-5.2-1.9-10.6-3.7-16.1-4.2c-1.1-0.1-2,1-2,2
				c0,1.2,0.9,1.9,2,2c5,0.5,10,2.3,14.6,3.9c2.4,0.8,4.7,1.8,6.8,3.2c1,0.7,1.9,1.6,3,2.6C247,367.7,249.8,364.9,247.9,363.1
				L247.9,363.1z"/>
		</g>
	</g>
	<g>
		<g>
			<path d="M189.1,455.4c12.9,0,26-1.2,38.8-3c1.1-0.1,1.7-1.5,1.4-2.5c-0.3-1.2-1.4-1.5-2.5-1.4c-12.5,1.7-25.2,2.9-37.8,2.9
				C186.5,451.4,186.5,455.4,189.1,455.4L189.1,455.4z"/>
		</g>
	</g>
	<g>
		<path class="st0" d="M183.9,380.9c0.4-1.5,0.8-3,1.2-4.5c0.1-0.6,0.3-1.2,0-1.7c-0.3-0.6-1.1-0.7-1.6-1.1
			c-6.2-5.5-9.7-8.7-11.6-13.4c-0.6-1.5-1.1-3.1-1.6-4.7c-1.3-4.6-1.9-9.6-1.8-14.5c0-0.3,0-0.5,0.1-0.8v-0.1c0-0.4,0.1-0.9,0.2-1.3
			c0-0.1,0-0.2,0.1-0.3c0-0.2,0.1-0.4,0.2-0.6c0.3-0.8,0.7-1.6,1.1-2.2c0.1-0.1,0.2-0.2,0.3-0.4c0.1-0.1,0.1-0.1,0.2-0.2
			c0-1.1,0-1.9,0-1.9c0-0.1,0-0.1,0-0.1c0-0.2-0.1-0.4-0.1-0.7c-0.1-1-0.2-2.1-0.2-3.1c0-0.3,0-0.7,0-1c0.1-1.1-0.2-1.6,1-2.7
			c0.8-0.8,2.1-0.8,2.5,0.2c0-1.1,1.9-1.7,2.8-1.2c1,0.4,1.4,1.2,1.6,2.3c0.2,1.2,0.2,2.1,0.3,3.4c1.6-0.2,3.4,0.4,4.4,1.4
			c1.1,1,1.6,2.5,2,3.9c0.3,1.1,0.6,2.2,0.8,3.2c0.5,2.3,0.9,4.6,1.2,7c0.1,1.1,0.2,2.3,0.8,3.3c0.4,0.8,1.2,1.5,1.9,2.1
			c2.7,2.4,5.6,4.7,7.7,7.6c2.1,2.9,3.5,6.5,3.7,10.1c0.1,1.7-0.4,2.9-1.4,4.2c0.2,2.5,0.4,7.8,0.2,10.3"/>
	</g>
	<g>
		<g>
			<path d="M201.3,374.7c4.7-6,0.4-14.6-4.2-19.4c-1.3-1.4-2.7-2.6-4.1-3.8c-1.2-1.1-3-2.2-3.5-3.9c-0.5-2-0.5-4.1-0.9-6.1
				s-0.8-4-1.4-6c-0.5-1.9-1.3-3.9-2.8-5.3c-1.5-1.3-3.6-2-5.6-1.8c0.7,0.7,1.3,1.3,2,2c-0.2-2.6-0.1-5.9-2.8-7.3
				c-2.5-1.4-5.6,0.1-6,2.9c1.2-0.3,2.5-0.7,3.7-1c-1.4-3-5.3-1.7-6.7,0.6c-0.6,1-0.6,2.4-0.6,3.5c0,1.4,0.2,2.8,0.3,4.2
				c0.2,2.6,4.2,2.6,4,0c-0.1-1.5-0.3-3-0.3-4.6c0-0.3,0-1,0-1.2c0.1-0.2,0.4-0.3,0.4-0.4c0,0.2-0.8-0.3-0.7-0.1
				c0.4,0.8,1.5,1.1,2.3,0.9c0.9-0.3,1.4-1,1.5-1.9c-0.1,0.2-0.2,0.5-0.3,0.7c0-0.1,0.1-0.1,0.2-0.1c-0.1-0.1,0.2,0,0.2,0
				c0.1,0.2,0.2,0.2,0.3,0.5c0.4,1,0.3,2.3,0.4,3.4c0.1,1,0.9,2.1,2,2c1.9-0.2,3.2,0.6,3.9,2.3c0.8,1.9,1.2,4.1,1.7,6.2
				c0.5,2.3,0.6,4.6,1,6.9c0.4,2.1,1.5,3.6,3,5c3.1,2.7,6.5,5.3,8.6,8.9c1.5,2.6,3.5,7.4,1.4,10.1c-0.7,0.8-0.8,2,0,2.8
				C199.2,375.4,200.6,375.5,201.3,374.7L201.3,374.7z"/>
		</g>
	</g>
	<g>
		<g>
			<path d="M197.9,373.3c0.3,3.4,0.4,6.9,0.2,10.3c0,1,1,2,2,2c1.1-0.1,1.9-0.9,2-2c0.2-3.4,0.1-6.9-0.2-10.3c-0.1-1-0.9-2.1-2-2
				C198.9,371.3,197.8,372.2,197.9,373.3L197.9,373.3z"/>
		</g>
	</g>
	<g>
		<g>
			<path d="M177.2,336.7c0.7,3.8,1.1,7.6,1.8,11.3c0.2,1,1.5,1.7,2.5,1.4c1.1-0.4,1.6-1.4,1.4-2.5c-0.6-3.8-1.1-7.6-1.8-11.3
				c-0.2-1-1.5-1.7-2.5-1.4C177.4,334.6,176.9,335.6,177.2,336.7L177.2,336.7z"/>
		</g>
	</g>
	<g>
		<g>
			<path d="M170.8,327.9c0.7,7.9,1.7,15.8,3.6,23.5c0.6,2.5,4.4,1.4,3.9-1.1c-1.7-7.4-2.8-14.9-3.4-22.4
				C174.5,325.3,170.5,325.3,170.8,327.9L170.8,327.9z"/>
		</g>
	</g>
	<g>
		<g>
			<path d="M238.7,470.5c-0.6,14.6-1,29.2-2.3,43.7c-0.2,2.6,3.8,2.5,4,0c1.3-14.5,1.7-29.1,2.3-43.7
				C242.8,468,238.8,468,238.7,470.5L238.7,470.5z"/>
		</g>
	</g>
	<g>
		<g>
			<path d="M209.2,478.1c-3.6,12.5-7.3,25-11,37.5c-0.7,2.5,3.1,3.5,3.9,1.1c3.7-12.5,7.4-25,11-37.5
				C213.8,476.7,209.9,475.7,209.2,478.1L209.2,478.1z"/>
		</g>
	</g>
	<g>
		<g>
			<path d="M161.2,469c-1.4,14.1-3.4,28.2-5.8,42.2c-0.2,1.1,0.3,2.2,1.4,2.5c1,0.3,2.3-0.3,2.5-1.4c2.5-14.3,4.5-28.8,5.9-43.3
				c0.1-1.1-1-2-2-2C162,467,161.3,467.9,161.2,469L161.2,469z"/>
		</g>
	</g>
	<g>
		<g>
			<path d="M157.6,444c-0.6,5.9-2.3,11.7-3.5,17.5c-0.3,1.3-1,3.2-0.5,4.5c0.5,1.5,2.1,2.1,3.5,2.4c1.1,0.3,2.3,0.5,3.5,0.7
				c4.2,0.7,8.6,1.3,12.9,0.9c1-0.1,2-0.2,2.9-0.5c1.3-0.4,2.2-1,2.8-2.2c1.3-2.2,2.2-4.7,2.9-7.2c1.7-5.7,2.3-11.7,3.8-17.5
				c0.6-2.5-3.2-3.6-3.9-1.1c-1,4.2-1.6,8.4-2.5,12.7c-0.9,4.1-2,8.3-4.2,11.9c0.2-0.2,0.5-0.5,0.7-0.7c-2.4,1-6,0.8-8.7,0.5
				c-2.7-0.2-5.3-0.6-7.9-1.2c-0.3-0.1-0.6-0.1-0.9-0.2c-0.2-0.1-0.7-0.3-0.9-0.2c-0.4-0.2-0.4,0.1,0.1,0.7c0.1-0.3,0.1-0.6,0.2-0.9
				c0.5-2.3,1-4.7,1.5-7c1-4.4,2-8.7,2.4-13.2c0.1-1.1-1-2-2-2C158.4,442,157.7,442.9,157.6,444L157.6,444z"/>
		</g>
	</g>
	<g>
		<g>
			<path d="M169.6,356.4c-4.4,3-8.9,5.8-13.3,8.7c-4.7,3.1-10.1,6.3-12.2,11.7c-1.3,3.4-0.9,7-0.4,10.5c0.4,3.3,0.9,6.7,1.4,10
				c1,6.4,2.3,12.8,4.2,19c1.8,5.9,4.2,11.8,7.7,16.9c3.4,5.1,9,9.2,14.8,10.9c4.4,1.3,9,1.1,13.2-0.8c1.6-0.7,3-1.6,4.3-2.7
				c2.4-2,3.5-4.6,4.7-7.4c3-7.4,4.8-15.2,6.6-22.9c2-8.1,4.1-16.2,5.6-24.4c0.2-1.1-0.3-2.1-1.4-2.5c-9.1-2.6-18.4-3.9-27.8-5.1
				c-1.1-0.1-2,1-2,2c0,1.2,0.9,1.9,2,2c9,1.1,18,2.4,26.7,5c-0.5-0.8-0.9-1.6-1.4-2.5c-1.2,6.8-2.9,13.6-4.6,20.3
				c-1.7,6.5-3,13.1-5,19.5c-1,3.2-2.1,6.4-3.6,9.5c-0.5,1.2-1.1,2.1-2.1,3c-0.6,0.6-1,0.9-1.5,1.3c-2.9,2-6.2,2.8-9.7,2.5
				c-5.2-0.5-10.1-3.8-13.7-7.4c-1.8-1.9-3.2-4.5-4.4-6.8c-1.4-2.6-2.5-5.3-3.5-8.1c-2-5.7-3.4-11.5-4.4-17.4
				c-0.6-3.1-1-6.2-1.5-9.3c-0.4-3.1-1-6.3-1.1-9.4c-0.1-3.6,1.2-6.3,3.8-8.7c2.1-1.9,4.5-3.4,6.8-5c4.6-3,9.3-6,13.9-9.1
				C173.7,358.4,171.7,354.9,169.6,356.4L169.6,356.4z"/>
		</g>
	</g>
	<g>
		<g>
			<path d="M174.9,379.9c-1.7,7.3-4.3,14.4-6.7,21.5c-0.8,2.5,3.1,3.5,3.9,1.1c2.3-7.1,5-14.2,6.7-21.5
				C179.3,378.5,175.5,377.4,174.9,379.9L174.9,379.9z"/>
		</g>
	</g>
	<g>
		<g>
			<path d="M169.7,333.5c-2.8,2.4-3.2,6.2-3.1,9.7c0.1,4.1,0.6,8.2,1.7,12.2c0.9,3.2,1.9,6.5,3.8,9.2c1.7,2.5,3.8,4.7,6.1,6.8
				c1.5,1.4,3.1,3.2,4.9,4.2c0.1,0,0.3,0.2,0.4,0.2c0.2,0.1,0.2,0.1,0-0.2c-0.1-0.3-0.1-0.3-0.1-0.2c-0.1,0.1-0.3,1.2-0.3,1.3
				c-0.3,1.2-0.6,2.4-1,3.6c-0.7,2.5,3.2,3.5,3.9,1.1c0.5-1.8,1.3-3.8,1.4-5.7c0.2-1.9-0.9-2.7-2.3-3.6c-1.4-0.9-2.7-2.4-4-3.5
				c-1.2-1.1-2.3-2.2-3.4-3.4c-4.4-4.8-6.1-11.6-6.7-17.9c-0.2-2.2-0.3-4.4-0.2-6.6c0.1-1.6,0.6-3.2,1.9-4.3
				C174.5,334.7,171.7,331.9,169.7,333.5L169.7,333.5z"/>
		</g>
	</g>
	<g>
		<g>
			<path d="M209.1,342.5c0.3,1.9,0.6,3.7,0.9,5.6c0.2,1.3,0.4,2.6,1.1,3.8c0.7,1.4,1.9,2.3,3.3,2.9c1.6,0.8,3.4,1.4,5.1,2
				c1,0.3,2.2-0.4,2.5-1.4c0.3-1.1-0.3-2.1-1.4-2.5c-0.8-0.3-1.6-0.5-2.4-0.9c-0.8-0.3-1-0.4-1.8-0.8c-0.5-0.3-1-0.5-1.4-0.9
				c0.2,0.2,0.2,0.2,0,0c-0.1-0.1-0.3-0.3-0.1-0.1c-0.1-0.1-0.2-0.3-0.3-0.5c0,0-0.2-0.5-0.1-0.2c0.1,0.3-0.1-0.2-0.1-0.2
				c0-0.1-0.1-0.2-0.1-0.3c0-0.1-0.1-0.3-0.1-0.4c-0.2-0.7-0.3-1.5-0.4-2.2c-0.3-1.7-0.6-3.4-0.9-5.1c-0.2-1-1.5-1.7-2.5-1.4
				C209.4,340.4,208.9,341.4,209.1,342.5L209.1,342.5z"/>
		</g>
	</g>
	<g>
		<g>
			<path d="M228.7,456.5c0.1,5.4,6.2,7.9,10.8,8.5c2,0.3,4.4,0.2,6.2-0.9c0.4-0.2,0.7-0.5,1-0.9c0.8-1,0.6-1.9,0.4-3
				c-0.3-1.9-0.6-3.7-1-5.6c-1.4-8.2-2.8-16.4-3.6-24.7c-0.4-4.4-0.6-8.9-0.6-13.3c0-4.6,0.5-9.2,0.7-13.8c0.2-4.1-0.1-8.1-1-12.1
				c-0.8-3.6-1.7-7.2-2.3-10.8c-0.2-1.1-1.5-1.7-2.5-1.4c-1.1,0.3-1.6,1.4-1.4,2.5c0.7,4.2,1.8,8.2,2.6,12.3
				c1.1,5.3,0.5,10.8,0.1,16.2c-0.8,11.8,0.3,23.5,2.1,35.1c0.9,5.9,2,11.8,3,17.7c0.1-0.5,0.1-1,0.2-1.5c0.2-0.3,0.1,0,0,0
				s0.3-0.2,0,0s-0.5,0.2-0.3,0.2c-0.3,0.1-0.5,0.2-0.8,0.2c-0.4,0.1,0.1,0-0.2,0c-0.1,0-0.3,0-0.4,0c-1.5,0.1-2.7-0.1-4.2-0.5
				c-1.3-0.4-2.7-0.9-3.6-1.6c-0.3-0.2-0.5-0.4-0.7-0.7c-0.3-0.3-0.3-0.3-0.4-0.5c-0.4-0.6-0.4-0.8-0.4-1.3
				C232.6,453.9,228.6,453.9,228.7,456.5L228.7,456.5z"/>
		</g>
	</g>
	<g>
		<g>
			<path d="M199.6,376.3c4.2,1.8,9,1.8,13.4,0.7c2.2-0.5,4.4-1.4,6.3-2.7c2.3-1.5,4.1-4,5.3-6.5c1.1-2.3-2.3-4.3-3.5-2
				c-0.9,1.9-2.2,4-4,5.1c-1.6,1-3.4,1.7-5.2,2.2c-3.2,0.8-7.2,1-10.3-0.3c-1-0.4-2.1-0.3-2.7,0.7
				C198.4,374.4,198.6,375.8,199.6,376.3L199.6,376.3z"/>
		</g>
	</g>
	<g>
		<g>
			<path d="M219.7,355.4c3.2,12.7,4.2,25.9,5.3,38.9c1.2,14.7,2,29.5,2.7,44.2c0.3,6,0.6,12,1,17.9c0.2,2.6,4.2,2.6,4,0
				c-0.9-12.2-1.3-24.3-2-36.5c-0.9-15.1-1.9-30.3-3.7-45.3c-0.8-6.8-1.8-13.6-3.4-20.3C222.9,351.9,219,352.9,219.7,355.4
				L219.7,355.4z"/>
		</g>
	</g>
	<g>
		<g>
			<path d="M244.7,365.6c2.9,3.1,3.9,7.5,4.3,11.6c0.8,6.2,1.5,12.5,2.2,18.7c1.3,12,2.5,24.1,3.3,36.2c0.5,7.1,0.9,14.2,1.2,21.3
				c0.1,2.6,4.1,2.6,4,0c-1-25.5-3.6-50.9-6.7-76.2c-0.3-2.6-0.6-5.1-1.5-7.5c-1-2.5-2.2-4.9-4-6.9
				C245.8,360.8,243,363.7,244.7,365.6L244.7,365.6z"/>
		</g>
	</g>
	<g>
		<g>
			<path d="M257.7,452.5c-3.7,0.7-7.1,1.1-11,1.3c-1,0.1-2.1,0.9-2,2c0,1,0.9,2.1,2,2c4.1-0.2,8.1-0.7,12.1-1.4
				c1-0.2,1.7-1.5,1.4-2.5C259.8,452.8,258.8,452.3,257.7,452.5L257.7,452.5z"/>
		</g>
	</g>
	<g>
		<g>
			<path d="M255.1,455.1c0.4,4.1,1.9,8,3.2,11.9c1.5,4.3,3.1,8.6,4.4,13c0.6,2,1.2,4.1,1.6,6.2c0.2,0.8,0.3,1.6,0.5,2.4
				c0.1,0.5,0.4,1.8,0.3,2.1c0.1-0.2-0.1,0-0.4,0.1s-0.6,0-0.9-0.1c-0.6-0.2-1.4-0.9-1.7-1.3c-1-1.5-1.7-3.4-2.4-5
				c-1.8-4.1-3.5-8.2-5.3-12.3c-0.4-1-1.3-1.7-2.5-1.4c-0.9,0.3-1.8,1.5-1.4,2.5c1.8,4.2,3.5,8.4,5.4,12.6c1.7,3.7,3.4,9,8.4,9.1
				c2.5,0,4.7-1.5,4.8-4.1c0.1-2-0.6-4-1-6c-1-5-2.8-9.8-4.5-14.6c-0.9-2.5-1.7-5-2.5-7.5c-0.8-2.4-1.7-5-2-7.5c-0.1-1.1-0.8-2-2-2
				C256.1,453.1,255,454,255.1,455.1L255.1,455.1z"/>
		</g>
	</g>
	<g>
		<g>
			<path d="M244.1,469.1c0,3.1-0.1,6.4,0.3,9.5c0.3,2.1,1.7,4.1,4,4.1c1.7,0,3.3-0.7,4.2-2.2c0.5-0.8,0.8-1.6,1.1-2.5
				c0.1-0.4,0.3-0.7,0.4-1.1c0.1-0.2,0.1-0.4,0.2-0.5l0.1-0.2c0,0-0.2,0.4,0,0c0.4-1,0.3-2.2-0.7-2.7c-0.9-0.5-2.3-0.3-2.7,0.7
				c-0.4,0.8-0.7,1.6-1,2.4c-0.1,0.2-0.2,0.4-0.2,0.6c-0.1,0.2-0.1,0.2,0,0c0,0.1-0.1,0.2-0.1,0.3c-0.1,0.3-0.3,0.6-0.4,0.9
				c0,0.1-0.2,0.4-0.3,0.4c0.2-0.3,0.3-0.3,0.1-0.2c-0.1,0.1-0.1,0.1,0.2-0.1c-0.4,0.3,0.3-0.1,0,0c-0.2,0-0.4,0.1-0.5,0.1
				c-0.4,0.1,0.4,0,0,0c-0.1,0-0.5,0-0.5,0c0.3,0.1,0.4,0.1,0.2,0c0.3,0.2,0.4,0.2,0.2,0c0.2,0.2,0.2,0.2,0.1,0
				c-0.1-0.2-0.1-0.1,0,0.1c-0.1-0.1-0.1-0.2-0.2-0.3c0.1,0.2,0.1,0.3,0,0c0-0.1-0.1-0.2-0.1-0.3c0,0.2,0,0.2,0,0
				c0-0.4-0.1-0.8-0.1-1.2c-0.1-1-0.1-1.9-0.1-2.9c0-1.7,0-3.4,0-5.1c0-1-0.9-2-2-2C245,467.1,244.1,468,244.1,469.1L244.1,469.1z"
				/>
		</g>
	</g>
</g>
<g id="woman1">
	<g>
		<path class="st4" d="M295.5,260.9c-1-5-1.2-12.2-1.3-15.1c-0.3-9.7,2.9-20.9,8.5-27.6c2.4-2.9,3.1-4.2,5.8-6c0,0,1.5-1.1,3.1-2.1
			c0.8-0.4,1.5-0.8,1.5-0.8c4.9-2.6,10.1-4.5,17.7-5.3c12.4-1.3,24.1,4,29.5,8.2c7.8,6.1,13.9,17.3,16.2,33.3c-5-2.9-10-8-12.4-10.6
			c-2.1-2.3-5.1-7.5-7.3-11.2c-4.1,9-10.4,16.2-19.2,21.2c-2.1,1.2-1.7-6.1-2.1-9.4c-5.2,8.2-20.8,25-23.3,28.3
			c-1.2-0.6-2.9-0.6-4.2,0.1c-1.2,0.6-2.1,1.8-2.4,3.1c-0.2,0.9-0.1,2.5,0.1,3.4c0.8,3.4,1.6,4.9,4.1,7.4c1.2,1.2,3.7,3,5.4,3.6
			c1,0.4,2.7,0.9,4,1.1c1.8,2.3,4.6,5.1,7.9,7.6c-0.9-4.1,0.8,11.5-2.3,14.7c-3.9,3.9-7,4.4-10.3,6.5l-4.2-0.1
			c-8.5,4.1-16.5-2.5-17.1-8.8c-0.4-3.8,0-6.8,0.8-10.6C295.1,287.1,297,277.5,295.5,260.9"/>
	</g>
	<g>
		<g>
			<path d="M304.8,308.9c3.2,3.4,8.1,5.1,12.7,4.7c1-0.1,2.1-0.9,2-2c0-1-0.9-2.1-2-2c-1,0.1-2,0.1-3,0c-0.3,0,0.3,0.1,0,0
				c-0.1,0-0.3,0-0.4-0.1c-0.2,0-0.5-0.1-0.7-0.1c-0.5-0.1-1-0.3-1.5-0.4c-0.1,0-0.2-0.1-0.3-0.1c0,0-0.4-0.1-0.2-0.1
				c0.2,0.1-0.1-0.1-0.2-0.1c-0.1,0-0.2-0.1-0.3-0.2c-0.4-0.2-0.9-0.5-1.3-0.7c-0.2-0.1-0.4-0.3-0.6-0.4c-0.1-0.1-0.2-0.1-0.3-0.2
				c0.2,0.1,0.1,0.1,0,0c-0.4-0.3-0.8-0.7-1.1-1.1c-0.7-0.8-2.1-0.8-2.8,0C304,306.9,304,308.1,304.8,308.9L304.8,308.9z"/>
		</g>
	</g>
	<g>
		<g>
			<path d="M293.5,260.9c0.8,8.7,0.9,17.7-0.6,26.3c-1.4,7.9-4.4,17.3,2.6,23.5c4.4,3.9,10.4,4.6,15.7,2.1c1-0.5,1.2-1.9,0.7-2.7
				c-0.6-1-1.8-1.2-2.7-0.7c-3.8,1.7-8.2,1.1-11.2-1.8c-3.2-3-3.3-7.2-2.8-11.3c0.3-2.9,1.2-5.8,1.7-8.7c0.6-3.3,0.9-6.7,1.1-10.1
				c0.3-5.5,0.1-11-0.4-16.5c-0.1-1.1-0.9-2-2-2C294.5,258.9,293.4,259.9,293.5,260.9L293.5,260.9z"/>
		</g>
	</g>
	<g>
		<path class="st0" d="M314.4,311.2c3.3-2.1,6.4-2.6,10.3-6.5c1.9-1.9,2-8.3,2-12.2c0,0-0.1-1.2-0.1-2.8c1.6,1.3,3.4,2.4,5.1,3.4
			c5,2.8,10.5,3.8,16.2,4c4,0.2,7.9-0.6,11.5-2.2c0.2,2.7,0.4,5.4,0.6,7.7c0,0.3,0.2,1.8,1.1,2.7c1.8,1.9,7.4,4,11.9,5.9
			c0,0-6.6,17-29.7,17C320.2,328.2,314.4,311.2,314.4,311.2z"/>
	</g>
	<g>
		<path class="st0" d="M318.4,282.3c0.3,0.1,0.5,0.1,0.7,0.1c2.6,3.4,7.5,7.8,12.5,10.6c5,2.8,10.5,3.8,16.2,4
			c10.8,0.4,21-6.2,25.9-15.8c3.6-7,4.6-15.1,3.7-23c-0.1-4.6-0.4-8.8-1-12.8c-5-2.9-10-8-12.4-10.6c-2.1-2.3-5.1-7.5-7.3-11.2
			c-4.1,9-10.4,16.2-19.2,21.2c-2.1,1.2-1.7-6.1-2.1-9.4c-5.2,8.2-20.8,25-23.3,28.3c-1.2-0.6-2.9-0.6-4.2,0.1
			c-1.2,0.6-2.1,1.8-2.4,3.1c-0.2,0.9-0.1,2.5,0.1,3.4c0.8,3.4,1.6,4.9,4.1,7.4c1.2,1.2,3.7,3,5.4,3.6
			C316,281.6,317.3,282,318.4,282.3z"/>
	</g>
	<g>
		<path class="st5" d="M317.7,309.4c0.7-0.4,1.3-0.8,2-1.2c3.1,2.7,7.2,4.7,11,6.3c4,1.7,8.3,2.8,12.7,3.2c4.4,0.5,8.8,0.3,13-0.7
			c4.6-1.2,10.3-3.5,12.8-7.8c4,1.6,8.5,3.6,11.8,5.5c3.1,1.8,6.2,3.8,8.4,6.6c1.5,2,2.5,4.2,3.4,6.5c4.4,10.5,8,22.5,10.3,33.7
			c2.1-3.7,3.6-6.4,3.6-6.4c2.9-5.1,9.9-18.5,10.7-18.8c1-0.4,16.5,9.4,23.7,14.2c-6.8,13-12.4,25-20.3,36.3
			c-4,5.8-9.7,11.5-16.7,11.8c-5.5,0.3-10.5-2.9-15.1-6c0,0-1.7-0.8-3.8-1.7c-0.9,6-1.3,11.3-2.2,18.6c-21,2.5-42.1,3.6-63.2,3.2
			l-38.7-1.9l1.4-35.7c2-14.9,3.4-24.7,5.9-39.6c1-5.9,3.6-10.3,7.7-13C303.9,317.2,310,314,317.7,309.4z"/>
	</g>
	<g>
		<path class="st4" d="M380.7,287.7c-1.6-4.2-3.8-8.2-3-12.5c0,0-0.6-0.2-1.5-0.4c-0.6,2.2-1.5,4.4-2.5,6.5
			c-3.1,6.1-8.3,10.9-14.4,13.6c0.2,2.7,0.4,5.4,0.6,7.7c0,0.3,0.2,1.8,1.1,2.7c1.3,1.4,4.6,2.9,8,4.3c9.6-3.9,13.6-11.6,13.1-16.6
			C381.9,291.1,381.3,289.4,380.7,287.7z"/>
	</g>
	<g>
		<g>
			<path d="M315.4,312.9c1.8-1.1,3.8-1.9,5.7-3c2.1-1.2,4.5-2.7,5.8-4.8c1.1-1.8,1.4-4,1.6-6.1c0.2-2.2,0.3-4.4,0.3-6.6
				c0-2.6-4-2.6-4,0c0,2,0,4.1-0.2,6.1c-0.1,0.9-0.2,1.7-0.4,2.6c-0.1,0.4-0.2,0.9-0.4,1.3c0,0.1-0.1,0.2-0.1,0.3
				c0.1-0.1,0.1-0.2,0,0c-0.1,0.2-0.2,0.3-0.3,0.5c-0.1,0.2-0.2,0.3,0,0.1c-0.2,0.2-0.4,0.4-0.6,0.6c-0.4,0.4-0.9,0.8-1.3,1.2
				c-0.9,0.7-1.8,1.3-2.8,1.8c-1.7,0.9-3.6,1.7-5.2,2.7C311.2,310.8,313.2,314.3,315.4,312.9L315.4,312.9z"/>
		</g>
	</g>
	<g>
		<g>
			<path d="M357.4,295.6c0.2,2.4,0.3,4.7,0.6,7.1c0.2,2.1,1.1,3.7,2.8,4.9c1.5,1.1,3.2,1.9,4.9,2.6c2.1,0.9,4.2,1.8,6.3,2.7
				c1,0.4,2.1,0.3,2.7-0.7c0.5-0.8,0.3-2.3-0.7-2.7c-3.5-1.5-7.4-2.8-10.6-4.9c-0.1-0.1-0.2-0.2-0.4-0.3c-0.4-0.3,0.2,0.2-0.1-0.1
				c-0.3-0.3-0.4-0.3-0.5-0.5c-0.2-0.4-0.2-0.3-0.3-0.8c0-0.2-0.1-0.3-0.1-0.5c-0.1-0.4,0,0.4,0,0.1c0-1.1-0.2-2.2-0.3-3.3
				c-0.1-1.2-0.2-2.4-0.3-3.6c-0.1-1.1-0.9-2-2-2C358.4,293.6,357.3,294.5,357.4,295.6L357.4,295.6z"/>
		</g>
	</g>
	<g>
		<g>
			<path d="M355.2,225c1.7,2.8,3.3,5.7,5.2,8.4c1.4,2,3,3.7,4.7,5.5c4.1,4.1,8.9,8.4,14.5,10.2c2.5,0.8,3.5-3.1,1.1-3.9
				c-5-1.6-9.3-5.7-13-9.4c-1.6-1.6-3-3.2-4.2-5c-1.7-2.5-3.2-5.2-4.8-7.8C357.4,220.8,353.9,222.8,355.2,225L355.2,225z"/>
		</g>
	</g>
	<g>
		<g>
			<path d="M355,222.7c-3,6.4-7.2,12.2-12.7,16.6c-1.4,1.1-2.8,2.1-4.4,3c-0.3,0.2-0.7,0.4-1,0.6c-0.4,0.2-0.5,0.3-0.1,0.1
				c0.5-0.1,0.9,0,1.3,0.3c0.2,0.2,0.1,0,0.1,0.2c0-0.2-0.2-0.5-0.2-0.8c-0.5-2.4-0.3-5-0.6-7.4c-0.2-1.9-2.6-2.8-3.7-1
				c-3.4,5.3-7.6,10.1-11.7,14.9c-3.6,4.2-7.3,8.2-10.8,12.4c-1.6,2,1.2,4.8,2.8,2.8c6.1-7.4,12.7-14.3,18.6-21.8
				c1.6-2.1,3.2-4.1,4.6-6.3c-1.2-0.3-2.5-0.7-3.7-1c0.3,2.4,0.2,4.8,0.5,7.2c0.3,2,1.2,5,3.9,4.2c1.4-0.4,2.8-1.6,4-2.4
				c1.4-1,2.8-2,4.1-3.1c2.5-2.1,4.7-4.5,6.6-7c2.3-3,4.2-6.2,5.8-9.7c0.5-1,0.3-2.2-0.7-2.7C356.9,221.4,355.5,221.7,355,222.7
				L355,222.7z"/>
		</g>
	</g>
	<g>
		<g>
			<path d="M314.1,211.1c11.8-6.2,25.7-6.9,37.8-1.4c4.4,2,8.2,4.6,11.4,8.3c3.3,3.8,5.7,8.4,7.4,13.1c2.6,6.9,3.9,14.2,4.4,21.5
				c0.2,2.6,4.2,2.6,4,0c-0.9-12.7-3.9-26-12-36.2c-7.6-9.6-20.7-14.5-32.8-14.5c-7.8,0-15.4,2.2-22.3,5.8
				C309.8,208.8,311.9,212.3,314.1,211.1L314.1,211.1z"/>
		</g>
	</g>
	<g>
		<g>
			<path d="M297.4,260.4c-0.6-3.3-0.9-6.6-1.1-10c-0.2-2.9-0.3-5.8-0.1-8.7c0.4-6.9,2.4-14.1,6.3-19.9c1-1.5,2.2-2.9,3.3-4.3
				c1.1-1.3,2.2-2.6,3.7-3.6c2.1-1.5,0.1-4.9-2-3.5c-2.9,2-5.1,4.8-7.2,7.6c-2.3,3-3.9,6.3-5.2,9.8c-2.5,6.9-3.1,14-2.8,21.3
				c0.2,4.1,0.5,8.2,1.3,12.2C294.1,264,297.9,262.9,297.4,260.4L297.4,260.4z"/>
		</g>
	</g>
	<g>
		<g>
			<path d="M355.3,263.2c0.2,0.5,0.4,1,0.5,1.5c0.2,0.5,0.4,1.1,0.5,1.7c0-0.2,0-0.4-0.1-0.5c0,0.1,0,0.2,0,0.3c0-0.2,0-0.4,0.1-0.5
				c0,0.1,0,0.1,0,0.2c0.1-0.2,0.1-0.3,0.2-0.5v0.1c0.1-0.1,0.2-0.3,0.3-0.4l-0.1,0.1c0.1-0.1,0.3-0.2,0.4-0.3
				c-0.1,0.1-0.2,0.2-0.4,0.2c0.2-0.1,0.3-0.1,0.5-0.2c-0.1,0-0.2,0.1-0.4,0.1c0.2,0,0.4,0,0.5-0.1c-0.2,0-0.4,0-0.7,0
				c-0.5,0-1.1,0.2-1.4,0.6c-0.3,0.3-0.6,0.9-0.6,1.4c0,1.1,0.9,2,2,2c0.2,0,0.4,0,0.6,0c0.6,0,1.1-0.2,1.7-0.5
				c0.6-0.4,1.2-0.9,1.3-1.7c0.1-0.6,0.1-1.2-0.1-1.8c-0.3-1-0.6-1.9-0.9-2.8c-0.2-0.5-0.4-0.9-0.9-1.2c-0.4-0.3-1.1-0.4-1.5-0.2
				c-0.5,0.2-1,0.5-1.2,0.9C355.2,262.2,355.1,262.7,355.3,263.2L355.3,263.2z"/>
		</g>
	</g>
	<g>
		<path d="M336.7,257.3c-0.4,1.8,0.4,5.7,3.7,5.7c4.3-0.5,4-5.3,2.4-7.4C341.4,253.9,337.8,253.5,336.7,257.3z"/>
	</g>
	<g>
		<path d="M363.9,253.4c-0.3,1.7,0.1,5.6,2.8,5.7c3.4-0.2,3.4-4.9,2.1-7.1C367.7,250.3,364.9,249.8,363.9,253.4z"/>
	</g>
	<g>
		<g>
			<path d="M373.9,250.3c3.1,11.5,2.8,25.4-5.1,35c-3.4,4.1-7.9,7.3-13.1,8.8c-5.6,1.7-11.9,1.2-17.5-0.5
				c-6.6-1.9-12.6-6.5-16.9-11.7c-1.7-2-4.5,0.9-2.8,2.8c4.4,5.2,10.3,9.7,16.7,12.1c6,2.2,13.2,3,19.5,1.7
				c12.7-2.6,21.7-13.5,24.2-25.8c1.6-7.8,1-15.8-1.1-23.4C377.1,246.7,373.2,247.8,373.9,250.3L373.9,250.3z"/>
		</g>
	</g>
	<g>
		<g>
			<path d="M375.8,274.6c-0.6,3.7,0.4,7.1,1.7,10.5c1.2,2.9,2.8,6,2.6,9.2c-0.3,5.5-5.3,10.1-10,12.5c-2.3,1.2-0.3,4.6,2,3.5
				c5.6-2.9,10.8-8,11.8-14.5c0.5-3.3-0.5-6.5-1.7-9.6c-1.3-3.3-3.2-6.9-2.7-10.6c0.2-1.1-0.3-2.2-1.4-2.5
				C377.3,273,375.9,273.5,375.8,274.6L375.8,274.6z"/>
		</g>
	</g>
	<g>
		<g>
			<path d="M312.5,261.7c-2.8-1.1-6,0-7.8,2.4c-1.5,2-1.4,4.9-0.8,7.3c0.6,2.3,1.5,4.3,3,6.1c1.6,1.9,3.5,3.5,5.6,4.8
				c2.2,1.3,4.9,2.1,7.4,2.3c1.1,0.1,2-1,2-2c0-1.2-0.9-1.9-2-2c-0.2,0-0.2,0-0.1,0c-0.2,0-0.3-0.1-0.5-0.1c-0.3,0-0.5-0.1-0.8-0.2
				c-0.6-0.1-1.2-0.3-1.8-0.5c-1-0.3-1.7-0.6-2.7-1.2c-1.8-1.2-3.7-2.7-4.9-4.5c-1.1-1.7-1.8-3.8-1.8-5.8c0-0.9,0-1.7,0.9-2.4
				c0.9-0.7,2-0.7,3-0.3s2.2-0.4,2.5-1.4C314.2,263,313.5,262.1,312.5,261.7L312.5,261.7z"/>
		</g>
	</g>
	<g>
		<g>
			<path d="M360.6,274.7c-3.2,0.5-6.4,1.2-9.7,1.8c-1.1,0.2-1.6,1.5-1.4,2.5c0.6,2.6,1.8,5.4,3.8,7.3c0.8,0.7,2.1,0.8,2.8,0
				c0.7-0.8,0.8-2.1,0-2.8c-0.2-0.2-0.5-0.5-0.7-0.7c-0.3-0.3,0.2,0.3,0-0.1c-0.1-0.1-0.2-0.2-0.2-0.4c-0.3-0.5-0.6-1.1-0.9-1.6
				c-0.1-0.1-0.1-0.3-0.2-0.4c0.3,0.4,0,0.1,0,0c-0.1-0.3-0.2-0.6-0.3-0.9c-0.2-0.5-0.3-1-0.4-1.4c-0.5,0.8-0.9,1.6-1.4,2.5
				c3.2-0.6,6.4-1.3,9.7-1.8c1-0.1,1.7-1.5,1.4-2.5C362.6,275,361.7,274.5,360.6,274.7L360.6,274.7z"/>
		</g>
	</g>
	<g>
		<path class="st0" d="M422,337.9c2.2-3.8,4.3-9.7,6.6-14.6c3.3-7.1,10.2-11.9,16.7-16.3c0.6-0.4,1.3-0.8,2-0.6
			c0.4,0.1,0.7,0.4,0.9,0.8c1.2,1.8,0.3,4.3-1.1,6c-1.6,1.9-3.8,3.4-4.6,5.8c9.3,0.6,15.1-2.5,23.6-5.8c1.9-0.8,5.1-0.9,6,1
			c0.4,1,0,2.2-0.8,3s-1.6,1-2.6,1.4c4.3-1.9,5.9-1.1,6.5,0.4c0.5,1.3,0,2.9-2,3.8c-1.2,0.6-2.3,1.2-3.7,1.8
			c1.1-0.3,2.7,1.3,2.7,2.5c0,0.7-0.6,1.8-0.9,2.1c-4.4,3.6-7.4,5.7-12.3,9.2c-1.5,1.1-3.8,2.2-5.6,2.9c-1.4,0.5-2.9,0.7-4.3,0.8
			c-2.7,0.2-5.4,0.2-8.1,0c-0.5,0.8-0.9,1.4-0.9,1.4c-0.9,1.3-1.9,2.6-2.8,4"/>
	</g>
	<g>
		<g>
			<path d="M365.1,309.7c4,1.4,7.9,3.1,11.6,4.9c3.7,1.9,7.6,3.9,10.4,7.1c2.9,3.3,4.4,8.1,5.9,12.1c1.7,4.5,3.2,9.1,4.5,13.7
				c1.5,5.2,2.8,10.5,3.9,15.8c0.5,2.5,4.4,1.5,3.9-1.1c-2-9.8-4.7-19.5-8.1-28.9c-1.7-4.5-3.3-9.5-6.2-13.4
				c-2.8-3.6-6.7-6.1-10.7-8.1c-4.5-2.4-9.2-4.4-14-6.1C363.8,305,362.7,308.8,365.1,309.7L365.1,309.7z"/>
		</g>
	</g>
	<g>
		<g>
			<path d="M408.5,356c3.3-5.9,6.3-12,9.8-17.7c0.1-0.2,0.3-0.4,0.4-0.6c0.2-0.3,0.2-0.2,0,0c0.1-0.1,0.2-0.2-0.1,0
				c-0.2,0.2-1.4,0.4-1,0.4c-0.4,0.1-0.5-0.2-0.1,0c0.4,0.3-0.4-0.2,0.2,0.1c0.2,0.1,0.4,0.2,0.5,0.3c0.6,0.3,1.1,0.6,1.7,0.9
				c3.2,1.8,6.3,3.7,9.4,5.7c3.6,2.3,7.3,4.6,10.9,7c-0.2-0.9-0.5-1.8-0.7-2.7c-4.9,9.4-9.5,19-15,28.1c-2.5,4.2-5.1,8.5-8.4,12.1
				c-2.9,3.2-6.5,6.2-10.9,6.8c-5.6,0.8-10.7-2.7-15.1-5.6c-2.1-1.4-4.1,2-2,3.5c4.4,3,9.2,6,14.7,6.3c5,0.3,9.7-2.1,13.4-5.3
				c3.9-3.3,6.7-7.7,9.5-12c3-4.7,5.8-9.7,8.4-14.6c3-5.7,5.9-11.5,8.9-17.2c0.5-1,0.2-2.1-0.7-2.7c-6.6-4.4-13.3-8.8-20.3-12.6
				c-1.7-0.9-4.4-2.9-6.1-1c-0.8,0.9-1.3,2-1.9,3c-0.9,1.6-1.8,3.1-2.6,4.7c-2.1,3.8-4.1,7.6-6.2,11.3
				C403.7,356.2,407.2,358.3,408.5,356L408.5,356z"/>
		</g>
	</g>
	<g>
		<g>
			<path d="M381.6,336.6c1.5,5.2,2.7,10.5,3.8,15.8c0.8,4.2,1.7,8.5,1.7,12.8c0,3.9-0.7,7.8-1.3,11.6c-0.7,4.7-1.9,9.2-2.6,13.9
				c-0.9,6.1-1.4,12.3-2.1,18.4c-0.1,1.1,1,2,2,2c1.2,0,1.9-0.9,2-2c0.6-5.4,1.1-10.9,1.8-16.4c0.7-4.8,1.8-9.5,2.6-14.2
				c0.7-4.1,1.4-8.3,1.6-12.4c0.2-4.2-0.7-8.5-1.4-12.6c-1.1-6-2.6-12-4.2-17.9C384.7,333.1,380.9,334.1,381.6,336.6L381.6,336.6z"
				/>
		</g>
	</g>
	<g>
		<g>
			<path d="M319.8,414.5c21.1,0.4,42.2-0.7,63.1-3.1c1.1-0.1,2-0.8,2-2c0-1-0.9-2.1-2-2c-20.9,2.5-42,3.5-63.1,3.1
				C317.2,410.5,317.2,414.5,319.8,414.5L319.8,414.5z"/>
		</g>
	</g>
	<g>
		<g>
			<path d="M380.6,412c2.2,6.5,4.5,13,5.8,19.7c1.7,8.8,1.9,17.8,1.9,26.7c0,3.5-0.1,6.9,0,10.4c0.1,2.6,4.1,2.6,4,0
				c-0.2-7.2,0.1-14.5-0.3-21.7c-0.3-5-0.7-10-1.5-14.9c-0.6-3.7-1.6-7.3-2.6-10.8c-1.1-3.5-2.2-6.9-3.4-10.4
				C383.6,408.5,379.7,409.6,380.6,412L380.6,412z"/>
		</g>
	</g>
	<g>
		<g>
			<path d="M308.7,422.8c-0.4,14.6-4.9,28.6-9.2,42.4c-0.8,2.5,3.1,3.5,3.9,1.1c4.5-14.2,9-28.5,9.4-43.5
				C312.8,420.3,308.8,420.3,308.7,422.8L308.7,422.8z"/>
		</g>
	</g>
	<g>
		<g>
			<path d="M297.8,345.7c2.7,11.2,5.5,22.5,8.2,33.7c0.6,2.5,4.5,1.4,3.9-1.1c-2.7-11.2-5.5-22.5-8.2-33.7
				C301.1,342.1,297.2,343.2,297.8,345.7L297.8,345.7z"/>
		</g>
	</g>
	<g>
		<g>
			<path d="M318.7,306.4c-4.8,2.9-9.7,5.7-14.6,8.6c-2.5,1.5-5,3-7.5,4.6c-2.1,1.3-4,2.7-5.6,4.6c-3.4,4.2-4.4,9.1-5.2,14.2
				c-0.9,5.6-1.8,11.2-2.6,16.8c-0.9,6.4-1.8,12.8-2.7,19.2c-0.1,1.1,0.3,2.1,1.4,2.5c0.9,0.3,2.3-0.3,2.5-1.4
				c1.5-10.9,3-21.8,4.7-32.6c0.8-5,1.1-10.4,4-14.8c1.1-1.8,2.6-3.1,4.4-4.3c2.4-1.6,4.8-3.1,7.2-4.5c5.3-3.2,10.7-6.3,16-9.5
				C322.9,308.5,320.9,305.1,318.7,306.4L318.7,306.4z"/>
		</g>
	</g>
	<g>
		<g>
			<path d="M318.3,309.5c5.9,5,13.9,8.3,21.5,9.6c7.7,1.3,15.6,0.9,22.8-2.2c3.4-1.5,6.6-3.7,8.4-7c1.3-2.2-2.2-4.3-3.5-2
				c-1.7,3.1-5.1,4.9-8.4,6.1c-4.1,1.5-8.4,2.1-12.8,1.9c-4.7-0.2-9.4-1.2-13.9-2.9c-4-1.5-8.1-3.5-11.4-6.3
				C319.2,305.1,316.4,307.9,318.3,309.5L318.3,309.5z"/>
		</g>
	</g>
	<g>
		<g>
			<path d="M444.7,319c0.9-1.7,2.4-2.8,3.7-4.2c1.3-1.5,2.3-3.3,2.5-5.3c0.1-1.9-0.7-4-2.5-4.8c-2.2-1-4.3,0.8-6,1.9
				c-3.3,2.3-6.6,4.6-9.4,7.4c-2.9,2.9-5.1,6.1-6.8,9.8c-1.9,4.4-3.5,8.9-5.9,13c-1.3,2.2,2.2,4.2,3.5,2c3.4-5.9,4.8-12.9,8.9-18.5
				c1.8-2.6,4.2-4.7,6.7-6.7c1.2-1,2.5-1.9,3.8-2.8c0.7-0.5,1.3-0.9,2-1.4c0.6-0.4,1.6-1.3,2.3-1.2c-0.3-0.1-0.7-0.2-1-0.3
				c1.4,0.6-0.2,3.2-0.9,4c-1.4,1.6-3.1,3-4.2,4.9C440,319.2,443.5,321.3,444.7,319L444.7,319z"/>
		</g>
	</g>
	<g>
		<g>
			<path d="M443.6,320.9c6,0.2,11.6-1.3,17.2-3.5c1.4-0.5,2.8-1.1,4.2-1.7c1.1-0.4,2.2-1,3.4-1.2c0.4-0.1,1.8-0.2,2.1,0.3
				c0.5,0.8-1.7,1.6-2.1,1.7c0.5,1.2,1,2.4,1.5,3.7c1-0.4,2.1-0.9,3.2-0.9c0,0,0.4,0,0.3,0.1c0.1,0-0.1-0.2,0.1,0
				c-0.3-0.3,0,0,0.1,0.1c0,0.1,0.1,0.2,0.1,0.3c-0.1,0.3-0.2,0.5-0.5,0.7c-1.2,0.9-3,1.5-4.4,2.2c-0.9,0.4-1.2,1.7-0.8,2.5
				c0.4,1,1.3,1.3,2.4,1.2c-0.6,0.1,0.1,0.2,0.2,0.6c0,0.2-0.3,0.8-0.3,0.7c-0.5,0.6-1.3,1.1-1.9,1.5s-1.1,0.9-1.7,1.3
				c-2.6,1.9-5.2,3.8-7.8,5.7c-2.5,1.8-5.3,3.4-8.4,3.7c-3.7,0.4-7.5,0.3-11.2,0c-2.6-0.2-2.5,3.8,0,4c2.4,0.2,4.8,0.3,7.2,0.2
				c2.3,0,4.7-0.1,6.9-0.7c4-1.1,7.4-3.7,10.7-6.1c1.5-1.1,3.1-2.2,4.6-3.4c0.9-0.7,1.8-1.4,2.6-2.1c0.7-0.6,1.6-1.1,2.2-1.9
				c1-1.5,1.4-3.4,0.4-5.1c-1-1.7-2.7-2.7-4.6-2.4c0.5,1.2,1,2.4,1.5,3.7c2-0.9,4.5-1.8,5.9-3.6c1.1-1.5,1.2-3.5,0.3-5.1
				c-1.9-3.5-6.3-2-9.1-0.8c-2.1,0.9-0.6,4.5,1.5,3.7c1.8-0.7,3.5-1.5,4.5-3.2c0.9-1.6,0.8-3.6-0.4-5c-2.1-2.4-5.9-1.8-8.5-0.7
				c-3.5,1.4-6.9,2.9-10.4,4s-7.1,1.6-10.8,1.5C441,316.8,441,320.8,443.6,320.9L443.6,320.9z"/>
		</g>
	</g>
	<g>
		<g>
			<path d="M470.2,315.8c-5.6,2-11.2,4.3-16.8,6.4c-1,0.4-1.7,1.4-1.4,2.5c0.3,1,1.4,1.8,2.5,1.4c5.6-2.1,11.2-4.4,16.8-6.4
				c1-0.4,1.7-1.4,1.4-2.5C472.4,316.2,471.2,315.4,470.2,315.8L470.2,315.8z"/>
		</g>
	</g>
	<g>
		<g>
			<path d="M468.4,323c-4.7,2.4-9.8,4.2-14.5,6.6c-1,0.5-1.2,1.8-0.7,2.7c0.6,1,1.8,1.2,2.7,0.7c4.7-2.4,9.8-4.2,14.5-6.6
				c1-0.5,1.2-1.8,0.7-2.7C470.5,322.7,469.3,322.5,468.4,323L468.4,323z"/>
		</g>
	</g>
	<g>
		<g>
			<path d="M438.5,342.5c-0.9,1.3-1.9,2.6-2.8,4c-0.3,0.4-0.3,1.1-0.2,1.5c0.1,0.5,0.5,1,0.9,1.2c0.5,0.2,1,0.4,1.5,0.2
				c0.2-0.1,0.3-0.1,0.5-0.2c0.3-0.2,0.5-0.4,0.7-0.7c0.9-1.3,1.9-2.6,2.8-4c0.3-0.4,0.3-1.1,0.2-1.5c-0.1-0.5-0.5-1-0.9-1.2
				c-0.5-0.2-1-0.4-1.5-0.2c-0.2,0.1-0.3,0.1-0.5,0.2C438.9,341.9,438.7,342.2,438.5,342.5L438.5,342.5z"/>
		</g>
	</g>
	<g>
		<g>
			<path d="M450.6,323c0.4,3.3,0.7,6.6,1.1,9.9c0.1,1,0.8,2.1,2,2c1,0,2.1-0.9,2-2c-0.4-3.3-0.7-6.6-1.1-9.9c-0.1-1-0.8-2.1-2-2
				C451.7,321,450.5,321.9,450.6,323L450.6,323z"/>
		</g>
	</g>
	<g>
		<path class="st0" d="M292.3,379.2c-4.8-0.4-9.1,2.2-13.6,3.7c-1.6,0.5-2.9,2.5-3.4,3.9c-0.9,2.3-0.4,4.8,0.1,6.1
			c0.4,0.9,2.3,5.2,3.4,6.2l0.1,0.1c0,0.1,0,0.2,0,0.2c-1.7,4.9-3.1,13.3-2.9,19.7c0,0.5,0,0.9,0.2,1.4c0.2,0.7,0.8,1.4,1.5,1.7
			c1.9,0.9,3.7-0.4,4.3-2.2c1.4-4.9,2-11.1,3.8-11.8c0,2.6,0.1,5.1,0.4,7.7c0.2,1.8,0.3,4.1,0.6,6c0.6,2,0.8,4.2,2.7,5
			c2.4,1,5.3-1.2,5.7-3.7c0.6,2.2,2.9,4.3,5.1,3.8c0.4-0.1,0.8-0.3,1.1-0.6c0.8-0.8,0.8-1.8,0.8-2.6c-0.3-4.5-1-8.7-1.3-13.2
			c1.7,3.2,2.8,5.7,4.4,8.2c1.3,1.9,4.1,5.3,6.2,4.6c1.3-0.4,1.6-1.2,1.2-2.4c-0.8-2.3-1.8-4.4-2.7-6.5c-1-3.9-2-7.8-2-7.8
			c-0.7-2.9,0.1-5.9,0.7-8.8c0.6-2.9,1.1-6.1-0.2-8.8c-1-2.1-2.9-3.5-4.8-4.8C301,382.3,295.8,379.8,292.3,379.2"/>
	</g>
	<g>
		<g>
			<path d="M284.8,422.3c0.4,1.4,0.7,2.8,1.4,4.1c0.9,1.5,2.4,2.4,4.2,2.5c3.1,0.2,6.1-2.4,6.6-5.4c-1.3,0-2.6,0-3.9,0
				c0.7,2.2,2.3,4.2,4.5,5c2.5,0.9,5.4-0.3,6.2-2.9c0.3-1.1,0.2-2.2,0.1-3.3c-0.1-1.3-0.3-2.7-0.4-4c-0.3-2.6-0.6-5.1-0.8-7.7
				c-0.1-1.1-0.9-2-2-2c-1,0-2.1,0.9-2,2c0.3,4,0.9,8,1.2,12c0,0.4,0.1,0.8,0.1,1.3c0,0.3,0,0.5-0.1,0.7c-0.1,0.1-0.1,0.2-0.3,0.3
				c-0.2,0.1,0.1,0-0.2,0c-0.1,0-0.3,0-0.1,0c-1.1-0.2-2-1.3-2.4-2.4c-0.2-0.8-1-1.5-1.9-1.5c-0.8,0-1.8,0.6-1.9,1.5
				c-0.1,0.6-0.1,0.7-0.4,1.1c-0.2,0.4-0.4,0.5-0.8,0.9c0.2-0.2-0.3,0.2-0.3,0.2s-0.6,0.3-0.3,0.2c-0.1,0-0.8,0.2-0.5,0.2
				c-0.2,0-0.4,0-0.6,0c0.4,0-0.2-0.1-0.3-0.1c0.4,0.1-0.5-0.3-0.2-0.2c-0.1,0,0,0-0.2-0.2c-0.1-0.2-0.2-0.4-0.3-0.5
				c0.1,0.2-0.1-0.3-0.1-0.4c-0.1-0.2-0.1-0.5-0.2-0.7c-0.1-0.5-0.3-1-0.4-1.5C288,418.7,284.1,419.8,284.8,422.3L284.8,422.3z"/>
		</g>
	</g>
	<g>
		<g>
			<path d="M306.3,411.1c0.8,2.1,1.8,4.1,2.7,6.2c0.5,1,0.7,1.6,1.1,2.6c0.2,0.5,0.4,1,0.5,1.5c0,0.1,0,0.2,0.1,0.2
				c0.1,0.4,0,0,0-0.1c0,0.1,0,0.1,0,0.2c0,0.3,0.1-0.4,0-0.1c0-0.1,0.1-0.2,0.2-0.4c0.2-0.4-0.1,0.2,0.1-0.1c0.2-0.2-0.3,0.1-0.1,0
				c0.3-0.1-0.3,0.1-0.3,0.1h0.1c0.2,0,0.2,0,0,0h-0.1c0.1,0,0.2,0,0.3,0c0,0-0.4-0.1-0.5-0.1c-0.2,0,0.1,0,0.1,0.1
				c-0.1-0.1-0.2-0.1-0.3-0.1c-0.2-0.1-0.3-0.2-0.5-0.3c-0.1,0-0.1-0.1-0.2-0.1c0.2,0.1,0.2,0.1,0,0c-0.6-0.6-1.2-1.2-1.8-1.8
				c-0.1-0.1-0.4-0.5-0.2-0.2c-0.1-0.1-0.2-0.3-0.3-0.5c-0.2-0.3-0.4-0.6-0.6-0.9c-1.3-2-2.4-4.2-3.5-6.4c-0.5-0.9-1.9-1.3-2.7-0.7
				c-1,0.6-1.2,1.7-0.7,2.7c2,3.9,3.9,8.2,7.5,11c1.7,1.3,4,2,5.9,0.6c2.5-1.8,1.2-4.6,0.3-6.9c-1.1-2.6-2.4-5.2-3.3-7.6
				c-0.4-1-1.4-1.8-2.5-1.4C306.8,408.9,305.9,410,306.3,411.1L306.3,411.1z"/>
		</g>
	</g>
	<g>
		<g>
			<path d="M291.8,381.1c2.6,0.5,5,1.6,7.4,2.7c2.3,1.2,4.7,2.5,6.5,4.4c2.1,2.4,1.7,5.6,1.1,8.4c-0.7,3.4-1.6,6.8-0.8,10.3
				c0.6,2.5,4.4,1.4,3.9-1.1c-0.8-3.6,0.8-7.3,1.3-10.9c0.5-3.5-0.2-6.9-2.6-9.6c-2-2.2-4.7-3.8-7.3-5.1c-2.6-1.3-5.4-2.5-8.3-3.1
				C290.3,376.7,289.2,380.6,291.8,381.1L291.8,381.1z"/>
		</g>
	</g>
	<g>
		<g>
			<path d="M291.4,407.1c-0.4,5.3,0.2,10.7,1.6,15.8c0.7,2.5,4.5,1.4,3.9-1.1c-1.3-4.8-1.8-9.8-1.4-14.7c0.1-1.1-1-2-2-2
				C292.3,405.1,291.5,406.1,291.4,407.1L291.4,407.1z"/>
		</g>
	</g>
	<g>
		<g>
			<path d="M283.8,404.9c-0.2,5.8,0.2,11.8,1.1,17.6c0.2,1.1,1.5,1.7,2.5,1.4c1.1-0.3,1.6-1.4,1.4-2.5c-0.4-2.5-0.5-5-0.7-7.5
				c-0.2-3-0.3-6-0.2-9.1C287.9,402.3,283.9,402.3,283.8,404.9L283.8,404.9z"/>
		</g>
	</g>
	<g>
		<g>
			<path d="M277,398.7c-1.2,3.4-1.9,7-2.3,10.6c-0.3,2-0.5,4.1-0.6,6.1c-0.1,1.8-0.3,3.9,0.3,5.6c1.4,4.3,7.2,4.2,9.1,0.4
				c0.9-1.8,1.2-4,1.6-6c0.4-1.7,0.7-3.5,1.3-5.1c0.4-1-0.4-2.2-1.4-2.5c-1.1-0.3-2.1,0.4-2.5,1.4c-1.1,2.9-1.5,6-2.2,8.9
				c-0.2,0.7-0.4,2.2-1.5,2.1c-1.2-0.1-0.8-2.2-0.8-2.9c0.1-5.9,1-12,2.9-17.6C281.7,397.3,277.8,396.3,277,398.7L277,398.7z"/>
		</g>
	</g>
	<g>
		<g>
			<path d="M292.3,377.2c-4.5-0.3-8.5,1.7-12.7,3.2c-0.9,0.3-1.9,0.6-2.7,1.1c-1,0.6-1.7,1.4-2.4,2.3c-1.2,1.7-1.8,3.8-1.8,5.8
				c0,3.1,1.6,6,3.1,8.6c0.8,1.4,1.7,2.6,3.2,3.2c1.9,0.9,4.4,0.7,5.8-0.9c1.2-1.4,1.4-3.4,1.2-5.2c-0.1-0.9-0.2-1.8-0.4-2.7
				c-0.1-0.4-0.1-0.7-0.2-1.1c0-0.2-0.1-0.3-0.1-0.5c0-0.1-0.1-0.8,0-0.2c-0.1-1.1-0.8-2-2-2c-1,0-2.1,0.9-2,2s0.4,2.2,0.6,3.3
				c0.1,0.6,0.2,1,0.2,1.5c0,0.3,0,0.6,0,0.8c0,0.2,0,0.3,0,0.5c0,0.1,0,0.3,0,0.1c0,0.1-0.2,0.8-0.1,0.5c0,0.1-0.1,0.2-0.1,0.3
				c-0.2,0.2,0.2-0.2,0,0c-0.2,0.2,0.2-0.1-0.1,0c-0.1,0-0.1,0-0.2,0.1c-0.3,0-0.5,0-0.8-0.1c-0.2-0.1-0.5-0.2-0.7-0.4
				c-0.1,0-0.1-0.1-0.2-0.2c0,0,0.2,0.3,0.1,0.1c-0.3-0.5-0.6-1-0.9-1.5c-0.6-1-1.1-2.1-1.6-3.2c-0.1-0.2-0.2-0.4-0.2-0.5
				s-0.2-0.6-0.1-0.1c-0.2-0.6-0.4-1.1-0.4-1.7c-0.2-1.5,0.2-2.9,1-4.1c0.8-1.3,2-1.6,3.4-2.1c3.6-1.4,7.2-3.2,11.1-2.9
				c1.1,0.1,2-1,2-2C294.3,378,293.4,377.3,292.3,377.2L292.3,377.2z"/>
		</g>
	</g>
	<g>
		<g>
			<path d="M290.9,388.4c-1.1,0.1-2.1,0.4-3.1,0.8s-2,0.8-3,1.3c-0.9,0.5-1.3,1.8-0.7,2.7c0.6,0.9,1.8,1.3,2.7,0.7
				c0.4-0.2,0.9-0.5,1.4-0.7c-0.2,0.1-0.3,0.1-0.5,0.2c1.1-0.5,2.3-0.9,3.5-1.1c-0.2,0-0.4,0-0.5,0.1c0.1,0,0.1,0,0.2,0
				c0.5-0.1,1-0.2,1.4-0.6c0.3-0.3,0.6-0.9,0.6-1.4s-0.2-1.1-0.6-1.4C291.9,388.6,291.4,388.3,290.9,388.4L290.9,388.4z"/>
		</g>
	</g>
</g>
</svg>
