<?xml version="1.0" encoding="utf-8"?>
<!-- Generator: Adobe Illustrator 26.3.1, SVG Export Plug-In . SVG Version: 6.00 Build 0)  -->
<svg version="1.1" id="layer" xmlns="http://www.w3.org/2000/svg" xmlns:xlink="http://www.w3.org/1999/xlink" x="0px" y="0px"
	 viewBox="0 0 720 720" style="enable-background:new 0 0 720 720;" xml:space="preserve">
<style type="text/css">
	.st0{fill:#FFFFFF;}
	.st1{fill:#4C8DCB;}
	.st2{fill:#6BBC6E;}
	.st3{fill:#A98667;}
	.st4{fill:#B5B5B6;}
	.st5{fill:#9FA0A0;}
	.st6{fill:#81CDE4;}
</style>
<circle class="st0" cx="360" cy="360" r="360"/>
<g id="group">
	<g>
		<path class="st0" d="M139,241.8c-3.3,0-5.9,0-7.7,0c0,6.5,0,191.7,0,197.9c28.8,0,295.5-0.2,334.8-0.3c0-66.6,0.1-193.5,0.1-197.7
			C429.8,241.8,192.8,241.8,139,241.8z"/>
	</g>
	<g>
		<g>
			<path d="M439.6,441.4L439.6,441.4c0-1.3,0-2.7,0-4c-2.5,0-5,0-7.5,0c-6.8,0-13.6,0-20.4,0c-10.1,0-20.2,0-30.3,0
				c-12.5,0-24.9,0-37.4,0c-13.9,0-27.7,0-41.6,0c-14.3,0-28.7,0-43,0c-13.7,0-27.4,0-41.1,0c-12.2,0-24.4,0-36.6,0
				c-9.7,0-19.4,0-29.1,0c-6.2,0-12.5,0-18.7,0c-0.9,0-1.7,0-2.6,0c0.7,0.7,1.3,1.3,2,2c0-7.1,0-14.3,0-21.4c0-15.5,0-30.9,0-46.4
				c0-18.5,0-36.9,0-55.4c0-16.1,0-32.3,0-48.4c0-8.5,0-17,0-25.5c0-0.3,0-0.5,0-0.8c-0.7,0.7-1.3,1.3-2,2c5.2,0,10.4,0,15.6,0
				c8.8,0,17.5,0,26.3,0c11.5,0,22.9,0,34.4,0c13.4,0,26.8,0,40.2,0c14.4,0,28.7,0,43.1,0c14.5,0,29.1,0,43.6,0
				c13.9,0,27.8,0,41.7,0c12.3,0,24.6,0,36.9,0c9.9,0,19.9,0,29.8,0c6.7,0,13.4,0,20.2,0c1,0,2.1,0,3.1,0c-0.7-0.7-1.3-1.3-2-2
				c0,11,0,22,0,33c0,21.8,0,43.6,0,65.5c0,13,0,26.1,0,39.1c0,2.6,4,2.6,4,0c0-23.3,0-46.5,0-69.8c0-18.4,0-36.8,0-55.2
				c0-4.2,0-8.4,0-12.6c0-1.1-0.9-2-2-2c-5.8,0-11.6,0-17.4,0c-9.2,0-18.5,0-27.7,0c-11.8,0-23.6,0-35.4,0c-13.6,0-27.2,0-40.8,0
				c-14.4,0-28.9,0-43.3,0c-14.5,0-29,0-43.5,0c-13.7,0-27.5,0-41.2,0c-12,0-24,0-36,0c-9.5,0-19,0-28.5,0c-6.1,0-12.3,0-18.4,0
				c-0.9,0-1.8,0-2.6,0c-1.1,0-2,0.9-2,2c0,7.2,0,14.4,0,21.6c0,15.5,0,31,0,46.5c0,18.5,0,36.9,0,55.4c0,16.1,0,32.2,0,48.4
				c0,8.5,0,16.9,0,25.4c0,0.3,0,0.5,0,0.8c0,1.1,0.9,2,2,2c5.2,0,10.5,0,15.7,0c8.9,0,17.9,0,26.8,0c11.7,0,23.3,0,35,0
				c13.4,0,26.9,0,40.3,0c14.2,0,28.4,0,42.7,0c14.1,0,28.2,0,42.3,0c12.9,0,25.8,0,38.7,0c10.8,0,21.6,0,32.3,0
				c7.7,0,15.4,0,23.1,0c3.6,0,7.3,0.1,10.9,0C439.3,441.4,439.4,441.4,439.6,441.4c2.6,0,2.6-4,0-4l0,0
				C437,437.4,437,441.4,439.6,441.4L439.6,441.4z"/>
		</g>
	</g>
	<g id="graph">
		<g>
			<path class="st0" d="M214.3,360.2c0,10.2,0.1,33.5,0.1,36.8c9.4,0,20.7,0,33.1-0.1c0-4.6,0-39.4,0-41.4c-5.1,0-27.9,0-33.2,0
				C214.2,355.8,214.3,357.6,214.3,360.2z"/>
		</g>
		<g>
			<path class="st0" d="M269.8,340.9c0-3.6,0-5.9,0-6.1c5.3,0,28.1,0,33.2,0c0,2,0,56.4,0,62c-11.3,0-22.4,0.1-33.1,0.1
				C269.8,392.8,269.8,355.8,269.8,340.9z"/>
		</g>
		<g>
			<path class="st1" d="M325.2,320.8c0-4,0-6.5,0-6.7c5.3,0,28.1,0,33.2,0c0,1.9,0,75.7,0,82.7c-10.7,0-21.8,0.1-33.1,0.1
				C325.3,391.5,325.3,339.6,325.2,320.8z"/>
		</g>
		<g>
			<g>
				<path d="M216.3,397c0-12.1,0-24.2-0.1-36.2c0-1.7,0-3.5,0-5.2c-0.7,0.7-1.3,1.3-2,2c9.2,0,18.4,0,27.6,0c1.9,0,3.8,0,5.6,0
					c-0.7-0.7-1.3-1.3-2-2c0,11.6,0,23.2,0,34.7c0,2.2,0,4.5,0,6.7c0,2.6,4,2.6,4,0c0-12,0-24,0-36c0-1.8,0-3.6,0-5.4
					c0-1.1-0.9-2-2-2c-9.1,0-18.3,0-27.4,0c-1.9,0-3.8,0-5.8,0c-1.1,0-2,0.9-2,2c0,11.6,0,23.2,0.1,34.9c0,2.2,0,4.4,0,6.6
					C212.3,399.6,216.3,399.6,216.3,397L216.3,397z"/>
			</g>
		</g>
		<g>
			<g>
				<path d="M271.8,396.9c0-7.6,0-15.2,0-22.8c0-10.5,0-21.1,0-31.6c0-2.6,0-5.1,0-7.7c-0.7,0.7-1.3,1.3-2,2c9.2,0,18.4,0,27.6,0
					c1.9,0,3.8,0,5.6,0c-0.7-0.7-1.3-1.3-2-2c0,6.8,0,13.5,0,20.3c0,10.7,0,21.4,0,32.1c0,3.2,0,6.4,0,9.6c0,2.6,4,2.6,4,0
					c0-7.6,0-15.2,0-22.8c0-10.5,0-20.9,0-31.4c0-2.6,0-5.2,0-7.8c0-1.1-0.9-2-2-2c-9.1,0-18.3,0-27.4,0c-1.9,0-3.8,0-5.8,0
					c-1.1,0-2,0.9-2,2c0,6.8,0,13.5,0,20.3c0,10.8,0,21.6,0,32.3c0,3.2,0,6.3,0,9.5C267.8,399.5,271.8,399.5,271.8,396.9
					L271.8,396.9z"/>
			</g>
		</g>
		<g>
			<g>
				<path d="M327.3,396.8c0-10.1,0-20.2,0-30.3c0-14.1,0-28.2,0-42.4c0-3.4,0-6.7,0-10.1c-0.7,0.7-1.3,1.3-2,2c9.2,0,18.4,0,27.6,0
					c1.9,0,3.8,0,5.6,0c-0.7-0.7-1.3-1.3-2-2c0,9,0,17.9,0,26.9c0,14.4,0,28.7,0,43.1c0,4.2,0,8.5,0,12.7c0,2.6,4,2.6,4,0
					c0-10.1,0-20.3,0-30.4c0-14,0-28,0-42.1c0-3.4,0-6.8,0-10.2c0-1.1-0.9-2-2-2c-9.1,0-18.3,0-27.4,0c-1.9,0-3.8,0-5.8,0
					c-1.1,0-2,0.9-2,2c0,8.9,0,17.9,0,26.8c0,14.4,0,28.9,0,43.3c0,4.2,0,8.4,0,12.6C323.3,399.4,327.3,399.4,327.3,396.8
					L327.3,396.8z"/>
			</g>
		</g>
		<g>
			<g>
				<path d="M382.6,394.5c-7.9,0-15.9,0-23.8,0.1c-13.8,0-27.5,0.1-41.3,0.1c-16.2,0.1-32.4,0.1-48.6,0.1c-15.1,0-30.1,0.1-45.2,0.1
					c-10.4,0-20.8,0.1-31.2,0.1c-0.8,0-1.6,0-2.4,0c-2.6,0-2.6,4,0,4c9.7,0,19.3,0,29-0.1c14.7,0,29.3-0.1,44-0.1
					c16.2,0,32.5-0.1,48.7-0.1c14.3,0,28.6-0.1,42.8-0.1c8.8,0,17.6-0.1,26.4-0.1c0.5,0,1.1,0,1.6,0
					C385.2,398.5,385.2,394.5,382.6,394.5L382.6,394.5z"/>
			</g>
		</g>
		<g>
			<path class="st2" d="M363.2,284.6c-0.1-0.7-0.7-1.1-1.4-1.3c-2.1-0.6-4.7-0.7-7.6,0c-4.8,1.2-7.6,4.1-8.4,5
				c-3.7,4.1-3.5,9.3-3.3,10.8c0,0.2,0.2,0.4,0.4,0.5c1.7,0.5,8.9,2,14.5-1.9c1-0.7,4.4-3,5.7-7.1
				C363.8,288.4,363.5,286,363.2,284.6z"/>
		</g>
		<g>
			<g>
				<path d="M365.1,284.1c-0.9-3-4.7-3.4-7.4-3.3c-3.1,0.1-6.1,0.9-8.8,2.4c-4,2.2-7.1,5.8-8.1,10.3c-0.4,1.7-0.6,3.5-0.4,5.3
					c0.2,2.5,2.3,2.8,4.3,3.1c4.9,0.7,10.1,0.1,14.1-2.9c2-1.4,3.7-3.1,5-5.2C365.6,290.7,365.8,287.5,365.1,284.1
					c-0.2-1.1-1.5-1.7-2.5-1.4c-1.1,0.3-1.6,1.4-1.4,2.5c0.4,2.1,0.4,4.2-0.6,6.1c-0.8,1.6-2,2.8-3.4,4c-0.1,0.1-0.2,0.2-0.3,0.2
					c0.3-0.3-0.1,0-0.1,0.1c-0.2,0.1-0.3,0.2-0.5,0.3c-0.9,0.6-1.9,1.1-3,1.5c-1.9,0.6-3.8,0.9-5.7,0.8c-1.6,0-2.4-0.2-3.9-0.5
					c-0.1,0-0.2-0.1-0.3-0.1c-0.5,0,0.7,1.7,0.8,1c0-0.2,0-0.5,0-0.7c0-0.7,0-1.5,0.1-2.2c0.4-3,2.1-5.9,4.6-7.8
					c1.5-1.2,3.6-2.2,5.7-2.7c1.4-0.3,2.8-0.5,4.2-0.4c0.6,0,1.1,0.1,1.7,0.3c0.2,0,0.4,0.1,0.6,0.2c0.5,0.1,0.1,0.3,0-0.1
					C362,287.6,365.8,286.6,365.1,284.1z"/>
			</g>
		</g>
		<g>
			<path class="st2" d="M320.6,284.6c0.1-0.7,0.7-1.1,1.4-1.3c2.1-0.6,4.7-0.7,7.6,0c4.8,1.2,7.6,4.1,8.4,5
				c3.7,4.1,3.5,9.3,3.3,10.8c0,0.2-0.2,0.4-0.4,0.5c-1.7,0.5-8.9,2-14.5-1.9c-1-0.7-4.4-3-5.7-7.1C320,288.4,320.3,286,320.6,284.6
				z"/>
		</g>
		<g>
			<g>
				<path d="M322.5,285.1C322.4,285.5,322,285.3,322.5,285.1c0.1,0.1,0.2,0,0.3,0c0.4-0.1,0.9-0.2,1.3-0.3c1.2-0.2,2.5-0.1,3.7,0.1
					c2.2,0.4,4.2,1.2,6.1,2.4c2.5,1.7,4.5,4.3,5.2,7.4c0.2,0.8,0.2,1.2,0.3,2c0,0.6-0.1,1.2,0,1.8c0.1,0.6,1.4-1,0.8-1
					c-0.1,0-0.2,0.1-0.3,0.1c-0.2,0-0.5,0.1-0.7,0.2c-0.8,0.2-1.1,0.2-1.9,0.3c-3.8,0.3-7.3-0.4-10.4-2.6c0,0-0.4-0.3-0.2-0.1
					c0.2,0.1-0.3-0.3-0.4-0.3c-0.3-0.3-0.7-0.6-1-0.9c-0.7-0.7-1.2-1.4-1.7-2.2C322.2,289.9,322,287.6,322.5,285.1
					c0.2-1.1-0.3-2.2-1.4-2.5c-1-0.3-2.3,0.3-2.5,1.4c-0.6,3-0.5,5.9,0.8,8.7c1,2.1,2.6,3.9,4.3,5.3c3.8,3.1,8.6,4.3,13.5,3.9
					c1.5-0.1,4-0.2,5.2-1.3c1.3-1.3,1-3.9,0.8-5.5c-0.6-4.6-3.2-8.5-7-11.1c-2.7-1.9-5.8-2.9-9-3.3c-2.9-0.3-7.7-0.2-8.7,3.2
					C317.9,286.6,321.8,287.6,322.5,285.1z"/>
			</g>
		</g>
		<g>
			<g>
				<path d="M339.9,300.3c0,4.4,0,8.7,0,13.1c0,1,0.9,2,2,2s2-0.9,2-2c0-4.4,0-8.7,0-13.1c0-1-0.9-2-2-2
					C340.8,298.4,339.9,299.2,339.9,300.3L339.9,300.3z"/>
			</g>
		</g>
	</g>
	<g id="woman">
		<g>
			<path class="st3" d="M558.1,388.8c7.7,3,14-4,14-9.8c0-3.6-0.6-6.3-1.7-9.7c-1.4-4.3-4-13-4.2-28.5c0.4-4.4,0-10.7-0.2-13.1
				c-0.6-8.4-4.4-17.8-9.8-23.1c-2.3-2.3-6.1-5.6-11.7-7.7c-3.8-1.5-7.3-2.2-13.9-2.2c-10.8,0-20.5,5.6-24.8,9.7
				c-7.1,6.8-11.6,19.2-11,36.4c0,12.5-0.9,21.5-2.3,26.6c-0.9,3.5-1.7,9.3-1.7,12.9c0,5.8,5.8,12.2,14.5,10.2L558.1,388.8z"/>
		</g>
		<g>
			<path class="st0" d="M513.1,394.4c3,1.8,9.3,3.7,17.3,3.7c10.4,0,14.2-3,18.2-5.2l0.1-8.9c-2.4-1.6-4.8-3.5-5.3-4.7
				c-0.7-1.6-0.6-3.8-0.6-5.6c6.9-3,12.5-12.3,13.4-14.9c0.1-0.4,0.4-1.2,0.7-2.2c0.5-0.1,0.8-0.1,0.8-0.1c1.2-0.2,2.3-0.7,3.2-1.5
				c1.2-1,2.1-2.2,2.7-3.6c1.4-2.7,1.9-5.8,1.7-8.8c-0.1-0.8-0.2-1.5-0.6-2.2c-0.5-1-1.6-1.7-2.8-1.9c-1.2-0.2-2.5,0.2-3.3,1
				c0,0-0.7,0.6-1.7,1.5c-1.3-4.4-3.4-9.2-6.6-13.5c-3.5-4.8-9.4-7.1-15.1-6c-0.1,0-0.1,0-0.1,0c-12.7,3.4-26.8,11.1-31.3,18.8
				c-0.7-1.3-2.4-2-4-1.8c-1.2,0.2-2.3,0.9-2.8,1.9c-0.4,0.7-0.5,1.5-0.6,2.2c-0.3,3,0.3,6,1.7,8.8c0.7,1.3,1.5,2.6,2.7,3.6
				c1.2,0.9,2.7,1.6,4.3,1.5c0.9,3.3,2.5,7.1,5.4,10.5c2.6,3.1,5.5,5.4,8.7,6.8c0,1.8,0,3.9-0.6,5.5c-0.5,1.2-2.9,2.9-5.5,4.6
				C513.1,383.9,513.1,391.9,513.1,394.4z"/>
		</g>
		<g>
			<g>
				<path d="M560.2,341c0.8-0.7,2.3-0.5,2.9,0.4c0.4,0.6,0.4,1.6,0.4,2.3c0,0.9,0,1.9-0.2,2.8c-0.6,3.4-2.3,7.4-6,8.1
					c-1.1,0.2-1.7,1.5-1.4,2.5c0.3,1.1,1.4,1.6,2.5,1.4c5.9-1.1,8.7-7.7,9.1-13c0.2-2.8,0-5.9-2.4-7.7c-2.4-1.8-5.5-1.4-7.7,0.4
					c-0.8,0.7-0.7,2.1,0,2.8C558.2,341.8,559.3,341.7,560.2,341L560.2,341z"/>
			</g>
		</g>
		<g>
			<g>
				<path d="M504.7,338.2c-2.2-1.8-5.3-2.2-7.7-0.4c-2.4,1.8-2.6,4.9-2.4,7.7c0.4,5.3,3.2,11.9,9.1,13c1.1,0.2,2.2-0.3,2.5-1.4
					c0.3-1-0.3-2.3-1.4-2.5c-3.7-0.7-5.4-4.7-6-8.1c-0.2-0.9-0.2-1.8-0.2-2.7c0-0.7,0-1.7,0.4-2.3c0.6-1,2.1-1.2,3-0.5
					c0.8,0.7,2,0.8,2.8,0C505.4,340.3,505.5,338.9,504.7,338.2L504.7,338.2z"/>
			</g>
		</g>
		<g>
			<g>
				<path d="M504.7,388.5c-3.6,0.8-7.3-0.1-9.8-2.9c-2.4-2.7-2.2-5.8-1.9-9.2c0.3-3.7,1.2-7.2,1.9-10.8c0.7-3.6,1.1-7.2,1.4-10.8
					c0.4-5,0.6-10,0.5-15c-0.1-4.7,0.1-9.4,1-14c1.3-7,3.8-14.1,8.8-19.3c5.4-5.6,13.7-9.1,21.3-9.7c8.4-0.7,16.9,0.9,23.6,6.1
					c2.9,2.3,5.5,5,7.4,8.2c2.3,3.9,3.9,8.3,4.7,12.7c0.7,3.7,0.8,7.5,0.8,11.3c0,2.3-0.2,4.5-0.1,6.8c0.1,2.5,0.2,5,0.4,7.5
					c0.5,6.5,1.6,12.9,3.5,19.2c1.1,3.6,2.5,7.7,1.9,11.5c-0.5,3.1-2.9,6-5.9,7c-1.8,0.6-3.6,0.4-5.4-0.3c-2.4-0.9-3.5,3-1.1,3.9
					c4.3,1.6,8.8,0.6,12.2-2.4c3.2-2.9,4.5-6.9,4.2-11.1c-0.2-3.9-1.4-7.5-2.5-11.2c-0.9-3.1-1.6-6.2-2.1-9.3
					c-0.8-4.7-1.1-9.5-1.2-14.3c-0.1-2.4,0.2-4.8,0.1-7.3c0-2.1-0.1-4.2-0.3-6.3c-0.6-9.1-3.6-18.9-10.2-25.5
					c-6.1-6.1-13.9-9.9-22.5-10.5c-9.9-0.7-19.7,1.7-27.8,7.5c-6.1,4.5-10,11.1-12.2,18.3c-1.4,4.5-2.1,9.3-2.4,14
					c-0.4,5.4-0.1,10.9-0.3,16.4c-0.2,4.3-0.4,8.7-1.1,13c-0.6,3.7-1.6,7.2-2.1,10.9c-0.6,4.1-1.3,8.5,0.5,12.4
					c1.6,3.6,5.1,6.3,9,7.2c2.3,0.5,4.6,0.4,6.9-0.1C508.3,391.8,507.3,388,504.7,388.5L504.7,388.5z"/>
			</g>
		</g>
		<g>
			<g>
				<path d="M534.7,319.7c-6.5,1.8-12.9,4.4-18.8,7.7c-5,2.9-9.9,6.4-13.2,11.2c-1.5,2.1,2,4.1,3.5,2c3-4.3,7.7-7.4,12.2-9.9
					c5.5-3.1,11.4-5.5,17.5-7.1C538.2,322.9,537.2,319,534.7,319.7L534.7,319.7z"/>
			</g>
		</g>
		<g>
			<g>
				<path d="M534.1,317.5c10.9,4.1,17.8,13.7,21.1,24.5c0.7,2.5,4.6,1.4,3.9-1.1c-1.7-5.6-4.3-11-7.9-15.6c-4.2-5.3-9.7-9.3-16-11.7
					c-1-0.4-2.2,0.4-2.5,1.4C532.4,316.1,533.1,317.1,534.1,317.5L534.1,317.5z"/>
			</g>
		</g>
		<g>
			<g>
				<path d="M555.5,353.4c-0.1,1.4-0.5,2.8-0.9,4.2c-0.1,0.2-0.2,0.5-0.2,0.7c0,0.1-0.2,0.5,0-0.1c-0.1,0.3-0.3,0.6-0.4,0.9
					c-0.9,1.7-1.9,3.3-3,4.9c-2.6,3.6-6.2,7.4-10.7,8.5c-2.5,0.6-1.4,4.4,1.1,3.9c5.5-1.3,9.7-5.8,12.9-10.1c2.8-3.8,5.1-8,5.3-12.8
					C559.6,350.8,555.6,350.8,555.5,353.4L555.5,353.4z"/>
			</g>
		</g>
		<g>
			<g>
				<path d="M502.7,354.7c2.3,10.7,10.1,21.2,21.6,22.5c1.1,0.1,2-1,2-2c0-1.2-0.9-1.9-2-2c-4.6-0.5-8.6-3.3-11.6-6.7
					c-3.3-3.6-5.1-8.1-6.1-12.9C506,351.1,502.1,352.2,502.7,354.7L502.7,354.7z"/>
			</g>
		</g>
		<g>
			<g>
				<path d="M540.9,373.7c0,1.2,0,2.4,0.1,3.6s0.3,2.5,1,3.5c1.4,2,3.7,3.5,5.7,4.9c0.9,0.6,2.3,0.2,2.7-0.7c0.5-1,0.2-2.1-0.7-2.7
					c-0.5-0.3-1-0.7-1.4-1c-0.3-0.2-0.5-0.4-0.8-0.6c0.2,0.1,0.1,0.1,0,0c-0.1-0.1-0.2-0.2-0.3-0.3c-0.4-0.3-0.7-0.6-1.1-1
					c-0.2-0.1-0.3-0.3-0.4-0.5c-0.1-0.1-0.1-0.2-0.2-0.2c-0.2-0.2,0.3,0.4,0.1,0.1c-0.1-0.1-0.1-0.3-0.2-0.4s0.1,0.4,0.1,0.1
					c0-0.1-0.1-0.3-0.1-0.4c-0.1-0.2-0.1-0.5-0.2-0.7c0-0.1,0-0.3-0.1-0.4c0,0.2,0,0.2,0,0c-0.1-1.1-0.1-2.2-0.1-3.3c0-1-0.9-2-2-2
					C541.8,371.8,540.9,372.6,540.9,373.7L540.9,373.7z"/>
			</g>
		</g>
		<g>
			<g>
				<path d="M517.2,373.8c0,1.1,0,2.2-0.1,3.3c0,0.4,0-0.2,0,0.1c0,0.1,0,0.2-0.1,0.3c-0.1,0.3-0.1,0.5-0.2,0.8
					c0,0.1-0.1,0.3-0.1,0.4c0,0,0.2-0.4,0.1-0.2c0,0.1-0.1,0.1-0.1,0.2c-0.1,0.2-0.2,0.2,0.1-0.1c-0.3,0.2-0.5,0.6-0.8,0.8
					c-0.2,0.2-0.4,0.3-0.6,0.5c-0.1,0.1-0.2,0.1-0.2,0.2c-0.4,0.3,0.2-0.1-0.1,0c-1,0.7-2,1.4-3,2c-0.9,0.6-1.3,1.8-0.7,2.7
					c0.6,0.9,1.8,1.3,2.7,0.7c1.1-0.7,2.2-1.4,3.2-2.2c1-0.8,1.9-1.5,2.7-2.5c0.7-0.9,0.9-2.1,1-3.2c0.2-1.3,0.2-2.6,0.2-3.9
					c0-1-0.9-2-2-2C518.1,371.9,517.2,372.7,517.2,373.8L517.2,373.8z"/>
			</g>
		</g>
		<g>
			<path class="st0" d="M549.2,481.4c-0.8-2.3-1.4-4.6-1.8-6.6c-0.5-2.9-0.9-5.9-1.3-9.2c-7.5,0.1-27,0.4-31.2,0.4c0,0-0.4,0-1.1,0
				c-0.4,3.1-0.8,6-1.3,8.8c-0.4,1.9-1,4.2-1.8,6.6L549.2,481.4L549.2,481.4z"/>
		</g>
		<g>
			<path class="st4" d="M567.5,438.2c0.8-3.2,1.5-7.2,2.3-11.6c8.2,0,18.7,0,18.7,0c-3.9-10.2-4.6-16-8.5-26.2
				c-0.7-1.9-1.7-3.5-3.1-5c-1.3-1.4-3.3-1.8-5.1-2.6c-5.1-2.5-13.5-5-19.1-7.6c-1.2-1.4-2.4-2.9-3.8-4.4l-3.3-0.8
				c1.2,10.7,0.6,21.6,0,32.4c-0.2,4.1-0.7,12.2-0.9,21.4c-0.1,3-0.1,6-0.1,9.1c0,13.5,1.3,23.4,2.7,31.9c0.4,1.9,1,4.2,1.8,6.6
				c6.5,0,13.1,0,19.6,0c-1.7-11.8-3.1-26.3-3.1-28.9C565.6,448.1,566.3,443.3,567.5,438.2z"/>
		</g>
		<g>
			<path class="st4" d="M512.4,474.9c1.4-8.5,2.7-18.4,2.7-31.9c0-12.7-0.7-25.1-1.1-30.5c-0.6-10.8-1.2-21.7,0-32.4l-2.5,0.8
				c-1.2,1.3-2.3,2.6-3.3,3.8c-5.5,2.9-14.8,5.5-20.3,8.2c-1.7,0.8-3.8,1.2-5.1,2.6c-1.4,1.5-2.3,3.1-3.1,5
				c-2.4,6.2-3.6,10.8-5,15.8c-0.9,3.2-2,6.6-3.6,10.8c-2.2-5.2-4.2-10.1-6.4-15.5c-5.6,3-14.5,7-20.1,8.3
				c2.8,8.9,5.6,18.6,9.5,27.5c2.7,6.2,5.7,12.6,12.4,13.7c4.3,0.7,9.4-1.1,12.7-3.9c3.3-2.9,8.4-8.9,10.9-12l0.9-1.2
				c0,0,0.8-1,1.9-2.5c0.8,4,1.3,7.7,1.3,11.3c0,2.6-1.5,17.1-3.1,28.9c6.5,0,13.1,0,19.6,0C511.4,479.1,512,476.8,512.4,474.9z"/>
		</g>
		<g>
			<path class="st0" d="M456.6,389.5c-0.8-1-1.5-2-1.8-3.4c-0.5-2.2-1.6-5-3.9-5.1c-1.5-0.1-2,1.1-2.2,1.8c0,0-0.1,0.5-0.4,1.3
				c-0.5-0.2-1-0.3-1.7-0.5c-4-0.7-8.3,0.2-8.5,2.2c-0.2,1,0.1,1.9,0.9,3.5c-0.7,0.7-1.2,2.7-0.7,3.2c0,0,0.2,0.5,0.3,1
				c-1.1-0.2-2,0.1-2.6,0.8c-0.8,0.9-1.4,2.8-0.5,3.5c0.4,0.3,0.8,0.6,1.2,0.9h-0.1c-1.7-0.6-4,0.9-3.8,2.4c0.1,1.2,1,2.2,2,3
				l0.1,0.1c0.4,0.7,0.7,1.1,0.7,1.1c1.6,2.7,3.8,5.2,6.3,7.1c0.7,0.6,1.5,1.1,2.1,1.7c1.1,1,2.1,2.1,2.9,3.4c0,0,0.2,0.3,0.5,0.8
				c3.1-1.2,10.7-4,14.7-5.9c-0.1-0.6-0.1-1.1-0.1-1.1c-0.6-8-0.9-15.9-2.3-18.1C458.9,391.8,457.6,390.7,456.6,389.5z"/>
		</g>
		<g>
			<g>
				<path d="M439.5,403.1C439.6,403.2,439.7,403.5,439.5,403.1C439.4,402.8,439.6,403.5,439.5,403.1
					C439.5,402.6,439.5,403.1,439.5,403.1c0,0.1,0,0.1,0,0.2C439.5,403.6,439.6,402.8,439.5,403.1c0,0.1,0,0.2,0,0.3
					c0,0.1-0.2,0.5,0,0.2c0.1-0.3,0,0.1-0.1,0.1l-0.1,0.1c-0.1,0.2,0.3-0.3,0.1-0.2l-0.1,0.1c-0.1,0.1,0.2-0.2,0.2-0.2
					c-0.1,0-0.3,0.1-0.3,0.2c-0.2,0.1,0.2-0.1,0.2-0.1c-0.1,0-0.1,0-0.2,0.1c-0.2,0.1-0.3,0.1-0.5,0.1c-0.5,0.1,0.3,0,0,0
					c-0.1,0-0.2,0-0.4,0c-0.1,0-0.2,0-0.2,0s0.4,0.1,0.2,0c-0.2-0.1-0.3-0.1-0.5-0.1c-0.2-0.1,0.1,0,0.1,0.1l-0.2-0.1
					c-0.2-0.1-0.3-0.2-0.4-0.2c-0.3-0.2-0.6-0.4-0.8-0.6l-0.2-0.2c0,0,0.3,0.2,0.1,0.1c-0.1-0.1-0.2-0.2-0.4-0.3
					c-0.2-0.2-0.4-0.4-0.7-0.7c-0.3-0.3,0.2,0.3,0,0c-0.1-0.1-0.2-0.3-0.2-0.4s-0.1-0.1-0.1-0.2c-0.2-0.3,0,0.1,0,0.1
					c0-0.1-0.1-0.4-0.1-0.5c0,0,0,0.4,0,0.2v-0.1c0-0.3-0.1,0.6,0,0.1v-0.1c0.1,0-0.2,0.4-0.1,0.3c0-0.1,0.3-0.5,0.1-0.2
					c-0.2,0.3,0.1-0.1,0.1-0.1l0.1-0.1c-0.1,0.1-0.4,0.3-0.1,0.1c0.1-0.1,0.2-0.1,0.3-0.2c0.1,0,0.2-0.1,0.2-0.1s-0.4,0.2-0.2,0.1
					c0.1,0,0.3-0.1,0.4-0.1s0.1,0,0.2,0c0.2-0.1-0.5,0-0.2,0c0.1,0,0.2,0,0.4,0c0.2,0-0.4-0.1-0.2,0c0.1,0,0.2,0,0.2,0.1
					c1,0.3,2.2-0.4,2.5-1.4c0.2-1.1-0.3-2.1-1.4-2.5c-1.8-0.6-3.8,0.1-5.1,1.3c-0.7,0.7-1.2,1.6-1.3,2.6c-0.1,1,0.3,2,0.8,2.8
					s1.1,1.5,1.9,2.1s1.5,1.2,2.4,1.6c1,0.5,2,0.7,3.2,0.5c1-0.1,2-0.5,2.8-1.2c1.4-1.2,2-4,0.9-5.5c-0.3-0.4-0.7-0.8-1.2-0.9
					s-1.1-0.1-1.5,0.2C439.4,400.9,438.9,402.2,439.5,403.1L439.5,403.1z"/>
			</g>
		</g>
		<g>
			<g>
				<path d="M441,392.3c-1.3-0.6-2.6-1-4-0.6c-1.2,0.3-2.1,1.1-2.8,2.1c-0.6,0.9-1,2.1-0.9,3.2c0,0.6,0.2,1.2,0.5,1.8
					c0.3,0.4,0.5,0.6,0.9,0.9c0.1,0.1,0.2,0.1,0.3,0.2c-0.3-0.2,0.2,0.1,0.2,0.2c1.4,1.1,2.8,2.1,4.3,3.2c0.6,0.4,1.2,0.9,1.8,1.2
					c1.1,0.5,2.3,0.6,3.5,0.2c1.5-0.4,2.5-1.4,3.1-2.8s0.3-3.1-0.6-4.4c-0.6-0.9-1.8-1.3-2.7-0.7c-0.8,0.5-1.4,1.8-0.7,2.7
					c0.1,0.2,0.3,0.4,0.4,0.6c0-0.1-0.1-0.3,0,0s0,0,0-0.1c-0.1,0.1,0.1,0.6,0,0.3c0-0.2,0-0.1,0,0.1l-0.1,0.3c0,0,0.2-0.4,0-0.1
					c0,0-0.1,0.1-0.1,0.2c-0.1,0.2,0.3-0.3,0.1-0.1c-0.2,0.2-0.1,0,0,0.1l0.1-0.1c-0.1,0-0.1,0.1-0.2,0.1s-0.1,0.1-0.2,0.1
					c-0.3,0.2,0.1-0.1,0.1,0l-0.3,0.1c-0.1,0-0.2,0-0.3,0.1c-0.3,0.1,0.4,0,0.1,0c-0.2,0-0.3,0-0.5,0c-0.4,0,0.4,0,0,0h-0.1
					c0.1,0,0.5,0.2,0.2,0.1c-0.5-0.3-1-0.6-1.4-0.9c-0.9-0.7-1.8-1.3-2.8-2c0,0-0.3-0.2-0.1-0.1c0.2,0.1-0.1-0.1-0.1-0.1
					c-0.2-0.1-0.3-0.3-0.5-0.4s-0.4-0.3-0.6-0.4s-0.4-0.3-0.5-0.4c-0.1,0-0.4-0.4-0.2-0.2c0.2,0.3-0.2-0.3,0.1,0.1
					c0.2,0.2,0.1,0.1,0,0c0.2,0.4,0.1,0.3,0.1,0.2c-0.1-0.3,0,0.2,0,0.2V397c0-0.3,0.1,0.1,0,0.2c0.1,0,0.1-0.4,0.1-0.5l0.1-0.2
					c0,0-0.2,0.4,0,0.1c0.1-0.1,0.3-0.4,0.3-0.5c0,0.1-0.3,0.3-0.1,0.1c0.1-0.1,0.2-0.1,0.2-0.2c0.2-0.2-0.3,0.2-0.1,0.1
					c0.1,0,0.2-0.1,0.3-0.2c0.2-0.2-0.1,0.1-0.1,0.1l0.2-0.1c0.3-0.1-0.1,0-0.2,0c0.1,0,0.2,0,0.3,0c0.1,0,0.4,0.1,0.1,0
					s0.1,0,0.2,0.1c0.1,0,0.2,0.1,0.3,0.1c-0.3-0.1,0.1,0,0.2,0.1c0.9,0.5,2.2,0.3,2.7-0.7C442.2,394.1,442,392.8,441,392.3
					L441,392.3z"/>
			</g>
		</g>
		<g>
			<g>
				<path d="M445.7,396c-1.6-1.3-3.1-2.6-4.6-3.9c-0.3-0.2-0.6-0.5-0.9-0.7c-0.1-0.1-0.2-0.1-0.3-0.2c-0.2-0.1-0.1-0.3,0.1,0.2
					c0.3,0.5,0.1,0.4,0.1,0.3c0.1,0.6,0,0.3,0,0.1v-0.2c0.1,0.3-0.1,0.4,0,0.1c0.1-0.2,0.1-0.4,0.2-0.6c0,0,0.1-0.2,0.1-0.3
					c0,0-0.2,0.4,0,0.1c0-0.1,0.1-0.2,0.2-0.3c0.1-0.1,0-0.1-0.1,0.2l0.1-0.1c0.1-0.1,0.3-0.2,0.1-0.1c-0.3,0.2,0.2-0.1,0.2-0.1
					s-0.5,0.1-0.1,0c0.1,0,0.2,0,0.3-0.1c0.4-0.1-0.1,0-0.1,0s0.3,0,0.4,0c0,0,0,0,0.1,0c0.2,0,0.2,0-0.1,0l0.4,0.1c0,0-0.5-0.2,0,0
					c0.1,0.1,0.2,0.1,0.3,0.2c0.2,0.1,0.5,0.3,0.7,0.4c0.5,0.3,0.9,0.6,1.3,0.9c-0.3-0.3,0.1,0.1,0.2,0.2c0.2,0.2,0.4,0.4,0.6,0.5
					c0.4,0.3,0.7,0.7,1,1.1c0.1,0.1,0.2,0.2,0.3,0.3c0.1,0.1,0.3,0.4,0,0c0.1,0.2,0.2,0.3,0.3,0.5c0.1,0.2,0.2,0.4,0.3,0.6
					c0,0.1,0.2,0.4,0.1,0.1s0.1,0.2,0.1,0.3c0.2,0.4-0.1-0.1,0-0.1v0.4c0,0,0.1-0.5,0-0.1v0.1c-0.1,0.2-0.1,0.2,0-0.1
					c0,0-0.1,0.2-0.1,0.3c0,0.1-0.1,0.1-0.1,0.2c-0.1,0.1,0,0.1,0.1-0.1l-0.2,0.2c0,0-0.1,0.1-0.2,0.1c-0.1,0.1-0.1,0.1,0.1-0.1
					l-0.2,0.1c0.3-0.1,0.3-0.1,0.1-0.1c0.1,0,0.2,0,0.2,0c-0.4,0.1,0.1,0,0.1,0c-0.1,0.1-0.5-0.2-0.1,0c-0.3-0.1-0.5-0.3-0.7-0.4
					c-0.1,0-0.3-0.2-0.1-0.1C446.1,396.4,445.7,396,445.7,396c-0.8-0.7-2-0.9-2.8,0c-0.7,0.7-0.9,2.1,0,2.8c1.2,0.9,2.4,1.9,4,1.8
					s3-1.3,3.7-2.7c0.3-0.7,0.5-1.4,0.5-2.2c0-0.9-0.4-1.7-0.8-2.4c-0.6-1.2-1.5-2.2-2.4-3.1c-2-2-4.9-4.1-7.9-3.5
					c-1.6,0.3-2.7,1.5-3.3,3c-0.5,1.2-0.7,2.6,0,3.8c0.3,0.6,0.9,0.9,1.4,1.4c0.5,0.4,0.9,0.8,1.4,1.2c1.1,1,2.3,1.9,3.4,2.9
					c0.8,0.7,2,0.9,2.8,0C446.3,398.1,446.5,396.7,445.7,396z"/>
			</g>
		</g>
		<g>
			<g>
				<path d="M450.7,383.3c0-0.1,0-0.3,0.1-0.3c0.3,0,0.6,0.3,0.8,0.5c0.8,0.9,1.1,2.1,1.3,3.2c0.8,3.2,3.4,4.9,5.1,7.6
					c0.5,0.7,0.6,1.3,0.8,2.3c0.3,1.3,0.4,2.6,0.5,3.9c0.4,3.7,0.6,7.4,0.8,11c0.2,2.6,4.2,2.6,4,0c-0.3-4.4-0.5-8.7-1.1-13.1
					c-0.2-1.5-0.4-3.1-0.9-4.5c-0.5-1.5-1.5-2.8-2.6-4s-2.4-2.3-2.8-3.9c-0.5-1.7-0.9-3.3-1.9-4.7c-2.3-3.1-6.9-3-8.1,0.9
					C446,384.7,449.9,385.7,450.7,383.3L450.7,383.3z"/>
			</g>
		</g>
		<g>
			<g>
				<path d="M445.8,389.4c0.3,2.1,1,4.1,1.6,6.1c0.3,0.9,0.6,1.9,0.7,2.9c0-0.3,0,0.3,0,0.3c0,0.3,0,0.6,0,0.9c0,0-0.1,0.6,0,0.3
					c0,0.3-0.1,0.6-0.2,0.8c-0.3,1,0.4,2.2,1.4,2.5c1.1,0.2,2.1-0.3,2.5-1.4c0.7-2.2,0.3-4.6-0.3-6.7c-0.3-1-0.7-2-1-2.9
					c-0.2-0.5-0.3-1-0.4-1.5c-0.1-0.2-0.1-0.5-0.2-0.7c0-0.1-0.1-0.3-0.1-0.4c0-0.2,0-0.3,0-0.1c-0.1-1-0.8-2.1-2-2
					C446.9,387.4,445.7,388.2,445.8,389.4L445.8,389.4z"/>
			</g>
		</g>
		<g>
			<g>
				<path d="M444.7,390.8c2.2,0.3,4.9,0.6,6.7-1c1.9-1.6,1.8-4.6,0-6.2c-1.9-1.7-4.6-2.1-7-2.2c-2.1-0.1-4.6,0.2-6.3,1.4
					c-0.5,0.4-1,0.8-1.3,1.3c-0.2,0.3-0.3,0.6-0.4,0.9s-0.2,1.2-0.1,0.5c-0.2,1.6,0.2,3,0.9,4.4c0.4,1,1.9,1.3,2.7,0.7
					c1-0.6,1.2-1.7,0.7-2.7c-0.1-0.3,0-0.1-0.1-0.3c-0.1-0.2-0.1-0.4-0.2-0.6c0-0.1-0.1-0.6-0.1-0.3c0,0.3,0-0.2,0-0.3
					c0,0,0-0.3,0,0c0,0.5,0-0.9,0-0.3c0,0.4,0.1-0.2,0,0.1c-0.1,0.4,0.2-0.2,0,0.1c-0.2,0.3,0.3-0.2,0,0s0.1-0.1,0.2-0.1
					c0.1-0.1,0.2-0.1,0.4-0.2c0.2-0.1-0.1,0.1-0.1,0.1c0.1,0,0.2-0.1,0.3-0.1c0.2-0.1,0.4-0.1,0.5-0.2c0.3-0.1,0.7-0.1,1-0.2
					s-0.3,0,0,0c0.1,0,0.2,0,0.3,0c0.2,0,0.4,0,0.7,0c0.4,0,0.9,0,1.3,0c0.2,0,0.4,0,0.6,0c0.1,0,0.2,0,0.3,0c0.3,0-0.3,0,0.1,0
					c0.5,0.1,0.9,0.2,1.4,0.3c0.2,0.1,0.4,0.1,0.6,0.2c0.1,0,0.2,0.1,0.3,0.1c0.2,0.1-0.2-0.1,0.1,0c0.1,0.1,0.3,0.2,0.4,0.2
					c0.2,0.1,0.3,0.3,0.1,0c0.1,0.1,0.2,0.2,0.3,0.3c0.2,0.1-0.2-0.2-0.1-0.2l0.1,0.2c0,0,0.2,0.3,0,0c-0.1-0.3,0,0,0,0
					c0.2,0.3-0.1-0.3,0,0c0.2,0.4,0-0.2,0-0.1v0.2c-0.1,0.2,0.1-0.1,0.1-0.1c0,0.1-0.1,0.2-0.1,0.2s0.2-0.3,0.1-0.1
					c0,0.1-0.4,0.3,0,0c0,0-0.3,0.2-0.1,0c0.2-0.1-0.1,0-0.1,0c-0.1,0-0.2,0-0.2,0.1h-0.1c-0.4,0.1,0.1,0,0.1,0c0,0.1-1,0.1-1.1,0.1
					c-0.5,0-1.1,0-1.4-0.1c-1-0.2-2.2,0.3-2.5,1.4C443.1,389.3,443.6,390.6,444.7,390.8L444.7,390.8z"/>
			</g>
		</g>
		<g>
			<g>
				<path d="M434.1,406.5c1.5,2.4,3.3,4.7,5.4,6.5c1.1,1,2.4,1.8,3.3,2.7c1.1,1,1.9,1.9,2.6,3c0.6,0.9,1.8,1.3,2.7,0.7
					c0.9-0.6,1.3-1.8,0.7-2.7c-0.8-1.3-1.8-2.5-2.9-3.5s-2.3-1.8-3.4-2.7c-2.2-1.8-3.7-3.7-5.1-6c-0.5-0.9-1.8-1.3-2.7-0.7
					C433.9,404.3,433.5,405.5,434.1,406.5L434.1,406.5z"/>
			</g>
		</g>
		<g>
			<g>
				<path d="M427.7,338.7c4.2,11.3,8.2,22.6,12.5,33.9c1.3,3.4,2.6,6.8,3.9,10.1c0.4,1,1.3,1.7,2.5,1.4c1-0.3,1.8-1.4,1.4-2.5
					c-4.7-12-9.1-24.2-13.6-36.4c-0.9-2.5-1.8-5.1-2.8-7.6C430.7,335.2,426.8,336.3,427.7,338.7L427.7,338.7z"/>
			</g>
		</g>
		<g>
			<path class="st5" d="M423.8,335.2c0.1,0.3,0.7,1.8,1.8,4.4c0.5,1.3,2.1,2,3.4,1.5c1-0.4,2-0.8,3-1.2c1.3-0.5,2-2.1,1.5-3.4
				c-1-2.5-1.3-3.4-1.7-4.4c-0.9-2.3-3.9-4.3-5.9-3.6C424.1,329,422.8,332.5,423.8,335.2z"/>
		</g>
		<g>
			<g>
				<path d="M421.9,335.7c0.3,0.8,0.7,1.7,1,2.5c0.7,1.7,1.2,3.6,3,4.4c0.9,0.5,1.9,0.6,3,0.4c0.9-0.1,1.7-0.6,2.5-0.9
					c1-0.4,1.9-0.7,2.7-1.4c0.6-0.6,1.1-1.4,1.4-2.2c0.5-1.8-0.3-3.3-1-4.9c-0.4-1-0.7-2-1.2-3c-1.3-2.7-4.9-5.2-8-4.3
					c-1.7,0.5-2.8,2.2-3.4,3.8C421.3,332,421.2,334,421.9,335.7c0.4,1,1.4,1.8,2.5,1.4c0.9-0.3,1.8-1.4,1.4-2.5
					c-0.1-0.3-0.2-0.6-0.3-0.8c-0.1-0.4,0-0.1,0,0c0-0.1,0-0.3,0-0.4c0-0.3,0-0.5,0-0.8c0-0.6-0.1,0.2,0-0.1c0-0.2,0.1-0.3,0.1-0.5
					c0.1-0.2,0.1-0.5,0.2-0.7c-0.1,0.4,0,0.1,0,0c0.1-0.1,0.1-0.2,0.2-0.3c0.1-0.1,0.1-0.2,0.2-0.3c0.2-0.4-0.2,0.2,0,0
					c0.1-0.1,0.2-0.2,0.2-0.2c0.2-0.3-0.3,0.2,0,0l0.2-0.1c-0.1,0-0.5,0.1-0.1,0.1c0.3,0-0.5,0,0,0c0.1,0,0.2,0,0.3,0
					c0.4,0,0,0-0.1,0c0.2,0,0.3,0.1,0.5,0.1c0.1,0,0.2,0.1,0.3,0.1c-0.4-0.1,0,0,0.1,0.1c0.3,0.1,0.5,0.3,0.7,0.4c0.1,0,0.3,0.2,0,0
					c0.1,0.1,0.2,0.2,0.3,0.2c0.2,0.2,0.4,0.4,0.6,0.6c0.3,0.3,0.1,0.1,0,0c0.1,0.1,0.2,0.3,0.3,0.4c0.1,0.1,0.2,0.3,0.2,0.4
					c0.1,0.2,0.2,0.2,0-0.1c0.1,0.1,0.1,0.3,0.2,0.4c0.1,0.3,0.3,0.7,0.4,1c0.4,1.1,0.9,2.1,1.2,3.2c0.1,0.2,0,0.3,0,0
					c0,0,0,0.5,0,0.2s-0.1,0.2-0.1,0.2c0-0.1,0.2-0.3,0,0c0,0-0.3,0.4-0.1,0.2c0.2-0.2-0.2,0.1-0.2,0.1c0.1-0.1,0.3-0.2,0,0
					c-0.5,0.2,0.4-0.2-0.3,0.1c-0.7,0.3-1.4,0.5-2.1,0.8c-0.3,0.1-0.6,0.2-0.9,0.3c0.4-0.1,0.2,0,0,0s-0.2,0,0,0c-0.1,0-0.1,0-0.2,0
					c-0.5-0.2,0.3,0.3-0.1,0c-0.1-0.1-0.4-0.4-0.1-0.1c-0.1-0.1-0.2-0.2-0.2-0.2c0.3,0.3,0-0.1-0.1-0.2c0.1,0.3-0.1-0.2-0.1-0.2
					c-0.1-0.2-0.2-0.4-0.3-0.6c-0.1-0.3-0.3-0.7-0.4-1c-0.3-0.7-0.6-1.5-0.9-2.2c-0.4-1-1.3-1.8-2.5-1.4
					C422.4,333.5,421.5,334.7,421.9,335.7z"/>
			</g>
		</g>
		<g>
			<path class="st6" d="M536.3,395.1c3.1-0.4,6.4-1,9-1.7c0,0,0.5-0.1,1.2-0.3c0,6.5-0.3,12.9-0.7,19.4c-0.3,5.4-1.1,17.9-1.1,30.5
				c0,8.9,0.6,16.3,1.4,22.7c-1.1,0-1.8,0-1.8,0c-5.2,0-23.7,0.5-27.8,0.5c0,0-1.1,0-2.8,0c0.8-6.5,1.4-14,1.4-23.2
				c0-12.7-0.7-25.1-1.1-30.5c-0.4-6.7-0.8-13.4-0.7-20.1c4.5,2.2,12.1,3.1,17.2,3.1C532.3,395.5,534.3,395.3,536.3,395.1z"/>
		</g>
		<g>
			<g>
				<path d="M544.7,391.4c-9.5,2.5-20.2,3.2-29.5-0.4c-1-0.4-2.2,0.4-2.5,1.4c-0.3,1.1,0.4,2.1,1.4,2.5c4.9,1.9,10.4,2.5,15.6,2.6
					c5.4,0.1,10.9-0.8,16.1-2.2C548.2,394.7,547.2,390.8,544.7,391.4L544.7,391.4z"/>
			</g>
		</g>
		<g>
			<g>
				<path d="M473.2,427.2c2.9-7.6,4.7-15.5,7.3-23.1c0.7-2,1.4-4,2.5-5.8c1.1-1.7,2.5-2.4,4.3-3.1c3.4-1.3,6.7-2.8,10.1-4.1
					c4-1.5,8-2.9,11.8-4.8c2.3-1.2,0.3-4.6-2-3.5c-3.4,1.7-7.1,3-10.6,4.3s-7,2.8-10.4,4.2c-2,0.8-3.8,1.5-5.2,3.2
					c-1.4,1.7-2.3,3.5-3.1,5.5c-1.5,4-2.8,8-3.9,12.1c-1.3,4.7-2.7,9.3-4.4,13.8c-0.4,1,0.4,2.2,1.4,2.5
					C471.9,428.9,472.8,428.2,473.2,427.2L473.2,427.2z"/>
			</g>
		</g>
		<g>
			<g>
				<path d="M476.3,433.9c-3.4-7.6-6.5-15.3-9.7-23c-0.5-1.2-1.7-1.8-2.9-1.2c-6.2,3.2-12.8,6.5-19.7,8.1c-1,0.2-1.7,1.5-1.4,2.5
					c2,6.3,3.9,12.6,6.1,18.8c2,5.5,4.1,11.3,7.2,16.2c2.8,4.5,7,7.7,12.4,7.7c5.6,0,10.5-2.7,14.3-6.6c3.6-3.7,7-7.6,10.1-11.7
					c0.7-0.9,0.1-2.2-0.7-2.7c-1-0.6-2.1-0.1-2.7,0.7c-0.2,0.2-0.4,0.5-0.5,0.7c-0.1,0.1-0.2,0.3-0.3,0.4c-0.2,0.3,0.5-0.6-0.1,0.1
					c-0.7,0.8-1.3,1.6-2,2.4c-1.6,1.9-3.2,3.7-4.9,5.5c-1.4,1.5-2.9,3.2-4.6,4.4c-2,1.4-4.4,2.4-6.8,2.7c-4.7,0.6-8.3-1.8-10.7-5.7
					c-2.8-4.4-4.7-9.5-6.5-14.4c-2.4-6.5-4.3-13.1-6.4-19.7c-0.5,0.8-0.9,1.6-1.4,2.5c3.6-0.8,7-2.2,10.4-3.6
					c3.5-1.5,6.9-3.1,10.3-4.9c-1-0.4-2-0.8-2.9-1.2c3.3,8,6.5,16,10.1,23.9c0.4,1,1.9,1.2,2.7,0.7
					C476.6,436.1,476.8,434.9,476.3,433.9L476.3,433.9z"/>
			</g>
		</g>
		<g>
			<g>
				<path d="M483.7,394.5c1.1,11.8,2.7,23.6,4.7,35.2c1.1,6.1,2.8,12,3.4,18.2c0.4,4.3,0,8.4-0.5,12.6c-0.7,6.8-1.6,13.6-2.5,20.5
					c-0.1,1.1,0.3,2.1,1.4,2.5c0.9,0.3,2.3-0.3,2.5-1.4c0.8-6.3,1.6-12.5,2.3-18.8c0.5-4.1,1.1-8.2,1-12.3c-0.3-6.5-2-12.8-3.2-19.2
					c-1.1-6-2.1-12-2.9-18c-0.9-6.4-1.7-12.8-2.3-19.2c-0.1-1.1-0.8-2-2-2C484.7,392.5,483.6,393.4,483.7,394.5L483.7,394.5z"/>
			</g>
		</g>
		<g>
			<g>
				<path d="M590.5,426.1c-3-7.8-4.8-15.9-7.6-23.7c-1.4-3.8-3-8.2-6.9-10c-3.5-1.6-7.1-3.1-10.8-4.4c-2.1-0.8-4.3-1.6-6.4-2.4
					c-1-0.4-2.1-0.8-3.1-1.2c-0.9-0.4-1.9-1.1-2.9-1.1c-2.6,0-2.6,4,0,4l0,0c-0.3-0.1-0.7-0.2-1-0.3c3.5,1.6,7,2.9,10.6,4.2
					c3.4,1.3,6.7,2.7,10,4.1c1.7,0.7,3,1.3,4.1,2.8c1.1,1.6,1.8,3.4,2.4,5.2c1.3,3.6,2.4,7.3,3.5,11c1.2,4.4,2.6,8.7,4.2,12.9
					c0.4,1,1.3,1.7,2.5,1.4C590,428.3,590.8,427.1,590.5,426.1L590.5,426.1z"/>
			</g>
		</g>
		<g>
			<g>
				<path d="M547.6,382.2c2.1,2.3,4,4.7,5.9,7.1c0.9,1.1,1.7,2.2,2.5,3.4c0.5,0.7,1,1.3,1.4,2c0.4,0.6,1.1,1.3,1.2,2
					c0-0.4,0-0.7,0-1.1c-0.2,0.8-1.2,1.7-1.8,2.4c-0.7,0.8-1.5,1.6-2.3,2.4c-0.8,0.8-0.7,2.1,0,2.8c1,1.1,2.1,2.1,3,3.3
					c0.6,0.7,1.1,1.5,1.1,2.4c0,2-0.8,4.2-1.4,6.1c-2.2,6.6-4.5,13.2-6.7,19.8c-0.8,2.4,3,3.5,3.9,1.1c2.4-7.1,5-14.1,7.2-21.2
					c0.6-2,1.3-4.6,1-6.7c-0.4-3.1-3.2-5.5-5.2-7.6c0,0.9,0,1.9,0,2.8c1.7-1.6,3.6-3.5,4.8-5.6c1.4-2.5-1.2-4.9-2.6-6.8
					c-2.9-4-5.9-7.8-9.2-11.4C548.7,377.4,545.9,380.3,547.6,382.2L547.6,382.2z"/>
			</g>
		</g>
		<g>
			<g>
				<path d="M510.1,379.4c-3.3,3.6-6.3,7.5-9.2,11.4c-1.3,1.8-3.8,4.2-2.6,6.6c1.1,2.1,3.1,4.1,4.9,5.7c0-0.9,0-1.9,0-2.8
					c-2,2-4.7,4.4-5.2,7.3c-0.4,2.2,0.4,4.9,1,6.9c2.2,7.1,4.8,14.2,7.2,21.2c0.8,2.4,4.7,1.4,3.9-1.1c-2.2-6.6-4.5-13.2-6.7-19.8
					c-0.6-1.9-1.3-4-1.4-6c-0.1-1,0.5-1.8,1.1-2.6c0.9-1.2,2-2.2,3-3.3c0.7-0.8,0.8-2.1,0-2.8c-0.8-0.8-1.6-1.6-2.3-2.4
					c-0.5-0.6-1.6-1.5-1.8-2.4c0,0.4,0,0.7,0,1.1c0.1-0.7,0.7-1.2,1.1-1.8c0.5-0.7,1-1.3,1.4-2c0.9-1.2,1.7-2.4,2.6-3.5
					c1.9-2.4,3.9-4.8,5.9-7.1C514.6,380.3,511.8,377.4,510.1,379.4L510.1,379.4z"/>
			</g>
		</g>
		<g>
			<g>
				<path d="M514.8,468.1c10.4,0,20.7-0.4,31.1-0.5c2.6,0,2.6-4,0-4c-10.4,0-20.7,0.4-31.1,0.5C512.2,464.1,512.2,468.1,514.8,468.1
					L514.8,468.1z"/>
			</g>
		</g>
		<g>
			<g>
				<path d="M513.4,479.3c1.5-5.4,2.1-11,2.7-16.6c0.7-6.6,1-13.1,1-19.7c0-12.5-0.8-24.9-1.4-37.4c-0.4-8.5-0.6-17.1,0.4-25.5
					c0.1-1.1-1-2-2-2c-1.2,0-1.9,0.9-2,2c-1.5,13.2-0.2,26.5,0.4,39.7c0.7,13.4,1.1,26.9-0.1,40.3c-0.6,6.1-1.2,12.3-2.8,18.2
					C508.8,480.7,512.7,481.7,513.4,479.3L513.4,479.3z"/>
			</g>
		</g>
		<g>
			<g>
				<path d="M570.9,481.1c-0.8-6.2-1.6-12.4-2.3-18.6c-0.5-4-1.1-8.1-0.9-12.1c0.3-6.4,2.1-12.5,3.3-18.7c1.1-5.9,2-11.8,2.8-17.8
					c0.9-6.5,1.7-13,2.3-19.5c0.1-1.1-1-2-2-2c-1.2,0-1.9,0.9-2,2c-1.1,11.7-2.6,23.3-4.7,34.8c-1.1,6.2-2.8,12.3-3.5,18.5
					c-0.4,4.3,0,8.4,0.5,12.7c0.8,6.9,1.6,13.8,2.6,20.6c0.1,1.1,0.8,2,2,2C569.9,483.1,571.1,482.2,570.9,481.1L570.9,481.1z"/>
			</g>
		</g>
		<g>
			<g>
				<path d="M543.7,380c1.5,13.3,0.2,26.7-0.4,40c-0.7,13.4-1.1,26.9,0.2,40.4c0.6,6.2,1.2,12.6,2.9,18.6c0.7,2.5,4.6,1.4,3.9-1.1
					c-1.5-5.2-2-10.7-2.6-16.1c-0.7-6.5-1-13-0.9-19.5c0-12.5,0.9-24.9,1.5-37.4c0.4-8.3,0.5-16.7-0.4-25c-0.1-1.1-0.8-2-2-2
					C544.7,378,543.6,378.9,543.7,380L543.7,380z"/>
			</g>
		</g>
		<g>
			<g>
				<path class="st0" d="M525.2,430.5c-0.8,0.7-1.5,1.5-2,2.2c0.3,0.5,2.8,2.7,3.5,3.2c0,0,0.1,0.1,0.3,0.3c2-2.8,4.6-4.5,7.7-5.7
					c4.6-1.8,9.5-2.8,14.5-2.6c4.9,0.2,10.3,1.7,13.9,5.2c3-3.4,8.5-6.1,12.8-7.1c4.2-1.1,8.6-1.1,13-0.7c2.8,0.3,5.4,1.1,7.5,2.1
					c0.1-0.1,0.1-0.1,0.1-0.1c0.8-0.7,2.3-2.2,3.6-3.6c-4.7-3.5-7.3-4.1-12.8-4.6c-4.2-0.4-9-0.5-13,0.5s-9.4,2.7-12.3,6
					c-3.3-2.3-7.9-3.6-12.8-3.8c-4.9-0.2-9.8,0.8-14.5,2.6c-2,0.8-4.2,1.8-5.9,3.2C527.6,428.4,526.4,429.4,525.2,430.5z"/>
			</g>
			<g>
				<path class="st5" d="M584.5,445.1c3.2-2.8,13.2-12.2,15.8-14.9c-2.2-2.3-6.4-4.5-11.5-5c-4.3-0.4-8.7-0.4-13,0.7
					s-9.9,3.7-12.8,7.1c-3.6-3.5-9-5-13.9-5.2c-4.9-0.2-9.8,0.8-14.5,2.6c-3.7,1.5-6.8,3.6-8.8,7.6c2.9,2.5,13.5,10.7,16.5,13
					L584.5,445.1z"/>
			</g>
			<g>
				<path class="st0" d="M570.8,437.4c-0.2-0.2-0.4-0.3-0.6-0.5c-2.5-1.9-4.3-2.2-6.9-0.8c0,0-0.7,0.6-1.4,1.2c-1.1-1.1-2-2-2.3-2.4
					c-1.2-1-2.9-1.4-4.1-0.9c-1.6,0.6-2.3,1.5-2.3,2.9c0,0-0.1,0.5-0.2,1.2c-0.9-0.9-1.6-1.7-2.2-2.2c-0.5-0.5-3-1.7-4.6-0.4
					c-1.4,1.1-1.7,2.5-0.8,3.8c0.1,0.1,0.2,0.3,0.2,0.5c-0.2-0.1-0.4-0.2-0.4-0.2c-2.8-1.5-5,0.8-5.3,1.9c-0.2,0.8-0.2,2.3,0.4,3.5
					c1.1,2,5.7,7.2,8.2,9.8c5.7,4,14.8,1.2,22.1-0.5c0.8-0.2,2.2-0.7,2.9-1.2c2.7-1.9,4.1-4.2,6.4-6.7c0.8-0.9,2-2,2.5-3
					c0.7-1.4,1.3-3,0.9-4.5c-0.2-0.8-0.6-1.6-1.3-2c-1.1-0.7-2.5-0.4-3.7,0.1c-1.8,0.7-3.5,1.8-5,3
					C572.6,438.9,571.7,438.2,570.8,437.4z"/>
			</g>
			<g>
				<g>
					<path d="M572.5,451.2c-1.5,1-3.3,1.3-5,1.7c-2.1,0.5-4.3,1-6.4,1.4c-3.7,0.6-7.8,1-11.1-1c-2.2-1.3-4.2,2.1-2,3.5
						c4.1,2.4,8.9,2.3,13.4,1.6c2.4-0.4,4.7-0.9,7-1.5c2.1-0.5,4.3-0.9,6.2-2.1C576.7,453.2,574.7,449.8,572.5,451.2L572.5,451.2z"
						/>
				</g>
			</g>
			<g>
				<g>
					<path d="M576.2,440.1c-1.7-2.2-3.8-4.3-6.2-5.7c-1.1-0.7-2.4-1.1-3.7-1.1c-1.4,0-2.7,0.5-4,1.2c-0.9,0.5-1.3,1.8-0.7,2.7
						c0.6,0.9,1.8,1.3,2.7,0.7c0.1-0.1,0.2-0.1,0.3-0.2c0,0,0.5-0.2,0.3-0.1s0.1,0,0.2-0.1c0.1,0,0.2-0.1,0.3-0.1
						c0.1,0,0.7-0.2,0.7-0.2s-0.4,0-0.1,0c0.1,0,0.2,0,0.3,0c0.1,0,0.5,0,0.2,0c-0.3,0,0,0,0.1,0c0.2,0,0.4,0.1,0.6,0.2
						c0.2,0.1,0.3,0.1,0.1,0c0.1,0.1,0.2,0.1,0.3,0.2c0.2,0.1,0.5,0.3,0.7,0.4s0.4,0.3,0.7,0.5c0.3,0.2-0.2-0.1,0.1,0.1
						c0.1,0.1,0.3,0.2,0.4,0.3c0.4,0.3,0.8,0.7,1.2,1.1c0.4,0.4,0.8,0.7,1.2,1.1c0.2,0.2,0.3,0.4,0.5,0.6c0.1,0.1,0.2,0.2,0.3,0.4
						c0.2,0.3-0.3-0.4,0.1,0.1c0.6,0.8,1.8,1.3,2.7,0.7C576.3,442.3,576.8,441,576.2,440.1L576.2,440.1z"/>
				</g>
			</g>
			<g>
				<g>
					<path d="M568.7,441.7c-1.7-1.6-3.3-3.5-5-5.3c-0.8-0.9-1.6-1.7-2.5-2.6c-1.5-1.5-3.6-2.3-5.7-1.9c-2.5,0.4-4.4,2.4-4.4,5
						c0,1.1,0.9,2,2,2c1.1,0,2-0.9,2-2c0-0.1,0-0.2,0-0.3c0,0.3,0,0.3,0,0.1c0.1-0.2,0.1-0.2,0,0c0-0.1,0.1-0.2,0.2-0.3
						c-0.2,0.4,0.1-0.1,0.2-0.2c-0.3,0.3,0.3-0.1,0.4-0.2c0.2-0.1,0.2-0.1,0.1-0.1c0.1,0,0.2-0.1,0.4-0.1c0.2,0,0.3-0.1,0.1,0
						c0.1,0,0.3,0,0.4,0c0.2,0,0.3,0,0.1,0c0.1,0,0.3,0.1,0.4,0.1c0.3,0.1,0,0,0.3,0.1c0.9,0.5,1.8,1.5,2.6,2.4c1.9,2,3.7,4.2,5.7,6
						c0.8,0.7,2,0.8,2.8,0C569.5,443.8,569.5,442.4,568.7,441.7L568.7,441.7z"/>
				</g>
			</g>
			<g>
				<g>
					<path d="M543.7,449.7c-5.5-4.3-11.2-8.4-16.5-13c0.1,0.8,0.2,1.6,0.3,2.4c3.1-5.8,9.7-8,15.9-8.9c6.2-0.9,13.4-0.1,18.2,4.3
						c0.8,0.7,2.1,0.8,2.8,0c4-4.5,10.6-6.9,16.5-7.4c6.1-0.5,13.4-0.1,18,4.5c0-0.9,0-1.9,0-2.8c-5.1,5.1-10.4,10.1-15.8,14.9
						c-1.9,1.7,0.9,4.5,2.8,2.8c5.4-4.8,10.7-9.8,15.8-14.9c0.8-0.8,0.8-2.1,0-2.8c-5.3-5.4-13.6-6.2-20.8-5.7
						c-6.9,0.6-14.6,3.2-19.3,8.5c0.9,0,1.9,0,2.8,0c-5.8-5.4-14.1-6.4-21.6-5.4c-7.4,1-15,3.9-18.7,10.8c-0.4,0.7-0.4,1.8,0.3,2.4
						c5.3,4.6,11,8.7,16.5,13c0.8,0.7,2,0.8,2.8,0C544.4,451.9,544.6,450.4,543.7,449.7L543.7,449.7z"/>
				</g>
			</g>
			<g>
				<g>
					<path d="M527.7,434.3c0.4,0.3-0.4-0.4-0.5-0.5c-0.4-0.3-0.7-0.6-1-0.9c-0.5-0.5-1.1-0.9-1.5-1.5c0,0.9,0,1.9,0,2.8
						c4.2-5.4,10.5-8.5,17.1-9.8c6.4-1.3,13.8-0.9,19.3,2.9c0.7,0.5,1.9,0.3,2.4-0.3c2.1-2.3,5.1-3.6,8-4.5c3.3-1.1,6.6-1.7,10-1.7
						c3.3,0,6.7,0.2,10,0.9c2.9,0.6,5.3,2,7.7,3.8c-0.1-1-0.3-2.1-0.4-3.1c-1.2,1.2-2.3,2.4-3.6,3.6c-1.9,1.8,1,4.6,2.8,2.8
						c1.2-1.2,2.4-2.4,3.6-3.6c1-1,0.6-2.4-0.4-3.1c-2.6-2-5.4-3.5-8.6-4.2c-3.7-0.8-7.7-1-11.5-1c-3.8,0.1-7.6,0.8-11.2,2
						c-3.4,1.1-6.7,2.7-9.2,5.3c0.8-0.1,1.6-0.2,2.4-0.3c-6.3-4.3-14.6-4.8-21.9-3.4c-7.3,1.4-14.6,5-19.3,10.9
						c-0.7,0.9-0.8,1.9,0,2.8c1.1,1.3,2.5,2.5,3.9,3.5c0.9,0.7,2.2,0.1,2.7-0.7C529,436,528.5,434.9,527.7,434.3L527.7,434.3z"/>
				</g>
			</g>
			<g>
				<g>
					<path d="M546.2,437.7c-2.1-1-4.4-1-6.2,0.4c-1.5,1.1-2.2,2.7-2.1,4.5c0.1,1.9,0.8,3.4,1.9,4.8c1.1,1.5,2.3,2.9,3.5,4.2
						c1.3,1.5,2.6,2.9,3.9,4.3c0.7,0.8,2.1,0.7,2.8,0c0.8-0.8,0.7-2,0-2.8c-1.2-1.3-2.4-2.6-3.6-4c-0.7-0.8-1.3-1.5-2-2.3
						c-0.3-0.4-0.6-0.7-0.9-1.1c-0.3-0.3,0.1,0.2-0.1-0.2c-0.1-0.2-0.2-0.3-0.4-0.5c-0.3-0.4-0.7-0.9-0.9-1.4
						c-0.2-0.5-0.3-0.9-0.3-1.4c0-0.1,0-0.7,0-0.3c0-0.1,0.2-0.7,0-0.3c-0.1,0.4,0.1-0.1,0.1-0.2c0.2-0.3-0.3,0.2,0,0
						c0.2-0.1,0.3-0.3,0.5-0.4c-0.3,0.2,0.1,0,0.2-0.1c0.3-0.2-0.2,0,0.2-0.1c0.1,0,0.2-0.1,0.4-0.1c-0.2,0-0.2,0,0.1,0
						c0.5,0,0.5,0,1,0.2c1,0.5,2.2,0.3,2.7-0.7C547.4,439.6,547.2,438.2,546.2,437.7L546.2,437.7z"/>
				</g>
			</g>
			<g>
				<g>
					<path d="M561,443.9c-1.6-1.8-3.2-3.6-4.9-5.4c-0.8-0.9-1.6-1.8-2.5-2.6c-0.7-0.7-1.3-1.4-2.2-2c-2.6-1.7-6.3-1.4-8,1.4
						c-1.9,3.2,0.8,6,2.7,8.3c2,2.5,4.1,4.9,6.4,7.2c1.8,1.8,4.7-1,2.8-2.8c-1.8-1.8-3.5-3.6-5.1-5.5c-0.8-1-1.6-2-2.4-3
						c-0.4-0.5-0.6-0.8-0.9-1.4c0-0.1-0.1-0.2-0.2-0.3c-0.2-0.3,0.1,0.2,0-0.1c0-0.1-0.1-0.4-0.1-0.2c0,0.2,0.1-0.3,0,0.1
						c0-0.1,0.1-0.2,0.1-0.4c-0.1,0.3,0,0,0.1,0c-0.2,0.2,0.1-0.1,0.1-0.1c0.1-0.1,0.2-0.2,0.3-0.3c-0.1,0.1-0.1,0,0.1-0.1
						c-0.1,0-0.3,0.1,0.1,0c0.1,0,0.4,0,0,0c0.2,0,0.3,0,0.5,0c0.3,0-0.3-0.1,0,0c0.1,0,0.2,0,0.3,0.1c0.2,0.1,0.5,0.1,0.7,0.2
						c-0.4-0.2,0.1,0.1,0.2,0.1c0.1,0,0.1,0.1,0.2,0.1c0.3,0.1-0.3-0.3-0.1-0.1c0.5,0.6,1.2,1.2,1.8,1.8c0.7,0.8,1.4,1.5,2.2,2.3
						c1.6,1.8,3.2,3.6,4.8,5.3c0.7,0.8,2.1,0.7,2.8,0C561.8,445.9,561.7,444.7,561,443.9L561,443.9z"/>
				</g>
			</g>
			<g>
				<g>
					<path d="M575.6,440.6c0.9-0.7,1.9-1.2,3-1.7c0.6-0.3,1.7-0.8,2.3-0.6c0.3,0.1,0.6,0.7,0.6,1.3c0.1,1-0.4,2-0.9,2.8
						c-0.4,0.8-1.1,1.4-1.7,2c-0.7,0.8-1.4,1.5-2,2.3c-1.3,1.6-2.6,3.2-4.3,4.5c-0.9,0.6-1.3,1.7-0.7,2.7c0.5,0.9,1.9,1.3,2.7,0.7
						c2.3-1.7,4-3.8,5.8-5.9c0.8-0.9,1.7-1.8,2.5-2.7c1-1.2,1.7-2.4,2.2-3.9c1-2.8,0.1-6.8-3.2-7.7c-2.9-0.8-6.1,1.1-8.4,2.7
						c-0.9,0.6-1.3,1.7-0.7,2.7C573.3,440.8,574.7,441.2,575.6,440.6L575.6,440.6z"/>
				</g>
			</g>
		</g>
		<g id="face_6_">
			<g>
				<g>
					<path d="M525.6,362.5c1.8,0.9,3.7,1.3,5.7,1.3c2.1,0,4.1-0.5,5.8-1.8c0.4-0.3,0.6-1,0.6-1.4c0-0.5-0.2-1.1-0.6-1.4
						c-0.9-0.8-1.9-0.7-2.8,0c0.7-0.5,0,0-0.2,0.1c-0.2,0.1-0.6,0.2,0,0c-0.2,0.1-0.3,0.1-0.5,0.2c-0.4,0.1-0.9,0.2-1.3,0.3
						c0.2-0.1,0.3,0,0,0c-0.1,0-0.3,0-0.4,0c-0.3,0-0.6,0-0.9,0c-0.3,0-0.5,0-0.8,0c-0.1,0-0.2,0-0.4,0c-0.1,0-0.1,0-0.2,0
						c-0.2,0-0.1,0,0.2,0c0-0.1-0.5-0.1-0.6-0.1c-0.2,0-0.4-0.1-0.6-0.2c-0.2,0-0.3-0.1-0.5-0.2c-0.4-0.2,0.4,0.2,0,0
						c-0.2-0.1-0.4-0.2-0.6-0.3c-0.9-0.5-2.2-0.3-2.7,0.7C524.4,360.7,524.6,361.9,525.6,362.5L525.6,362.5z"/>
				</g>
			</g>
			<g>
				<g>
					<path d="M530,349.5c0.2,0.9,0.5,1.8,0.6,2.7c0-0.2,0-0.4-0.1-0.5c0,0.1,0,0.2,0,0.4c0-0.2,0-0.4,0.1-0.5c0,0.1,0,0.1,0,0.2
						c0.1-0.2,0.1-0.3,0.2-0.5c0,0,0,0.1-0.1,0.1c0.1-0.1,0.2-0.3,0.3-0.4l-0.1,0.1c0.1-0.1,0.3-0.2,0.4-0.3c-0.1,0-0.1,0.1-0.2,0.1
						c0.2-0.1,0.3-0.1,0.5-0.2c-0.1,0-0.2,0.1-0.4,0.1c0.2,0,0.4,0,0.5-0.1c-0.1,0-0.2,0-0.3,0c0.2,0,0.4,0,0.5,0.1
						c-0.1,0-0.3,0-0.4-0.1c-0.3-0.1-0.5-0.1-0.8,0c-0.3,0-0.5,0.1-0.7,0.2c-0.4,0.2-0.8,0.7-0.9,1.2c-0.1,0.5-0.1,1.1,0.2,1.5
						c0.1,0.1,0.2,0.3,0.3,0.4c0.2,0.2,0.5,0.4,0.9,0.5c0.3,0,0.7,0.1,1,0.1c0.6,0,1.1-0.2,1.6-0.4c0.6-0.3,1.1-0.9,1.3-1.6
						c0.1-0.6,0.1-1.1,0-1.6c-0.1-0.9-0.3-1.7-0.6-2.6c-0.1-0.5-0.5-0.9-0.9-1.2c-0.4-0.3-1.1-0.4-1.5-0.2c-0.5,0.2-1,0.5-1.2,0.9
						C529.9,348.5,529.8,349,530,349.5L530,349.5z"/>
				</g>
			</g>
			<g>
				<path d="M516.3,341.7c-0.5,1.5-0.2,4.8,2.6,5.1c3.7,0,3.9-4.1,2.6-6C520.5,339.3,517.6,338.6,516.3,341.7z"/>
			</g>
			<g>
				<path d="M545.7,341.7c0.5,1.5,0.2,4.8-2.6,5.1c-3.7,0-3.9-4.1-2.6-6C541.4,339.3,544.4,338.6,545.7,341.7z"/>
			</g>
		</g>
	</g>
</g>
</svg>
