<?xml version="1.0" encoding="utf-8"?>
<!-- Generator: Adobe Illustrator 26.3.1, SVG Export Plug-In . SVG Version: 6.00 Build 0)  -->
<svg version="1.1" id="layer" xmlns="http://www.w3.org/2000/svg" xmlns:xlink="http://www.w3.org/1999/xlink" x="0px" y="0px"
	 viewBox="0 0 720 720" style="enable-background:new 0 0 720 720;" xml:space="preserve">
<style type="text/css">
	.st0{fill:#FFFFFF;}
	.st1{fill:#6EC8E2;}
	.st2{fill:#898989;}
	.st3{fill:#4C8DCB;}
	.st4{fill:#B5B5B6;}
</style>
<circle class="st0" cx="360" cy="360" r="360"/>
<g id="group">
	<g>
		<path class="st0" d="M506.2,369.9c-0.3,2.2-1.2,5.2-1.7,6.4c-0.8,2.5-4.6,10.1-10.1,15.3c0,0.9,0,1.5,0,1.5
			c-0.8,0.6-10.3,8.8-14.9,12.6l-2.8,0.2c-5.2-2.8-16.2-8.8-17.1-9.2c0,0,0-0.1,0-0.3c-3.3-1.4-6.4-3.7-9.3-6.8
			c-4.2-4.3-6.8-9.1-8.3-13.1c-1.7,0.5-3.5,0-4.8-0.8c-2.9-2-4.2-4.9-5-6.9c-1.2-2.7-1.5-7.2-0.2-9.8c0.4-0.8,1.5-2.3,4.1-2.6
			c1.2-0.1,2.7,0.2,3.8,1.1c0,0-4.8-27.1,26.7-31.4c42.7-5.8,38.9,27.1,38.9,27.1c1-1.1,2.4-1.5,3.6-1.6c2.7-0.1,3.9,1.2,4.4,2
			c1.6,2.3,1.8,6.9,1.1,9.7c-0.6,2-1.5,5.1-4.1,7.4c-1.1,1-2.7,1.7-4.3,1.5"/>
	</g>
	<g>
		<path class="st0" d="M144.7,405.3c0.2-2.1,0.5-4.4,0.9-6c1.1-5,3.3-10.5,5.4-12.3c3.6-3.3,7.1-2,11.5-0.8c1.2,0.4,6.3,2.3,6.7,4.6
			c0.4-1.4,1.3-2.5,2.9-2.8c1.2-0.2,3.6-0.5,5,1.9c1.7,2.9,1.8,10.6,0.1,13.4c-0.2,0.4-0.5,0.7-0.8,0.9c0,1.1,0.1,1.8,0.1,1.8
			c0.1,2.4,0.8,6.6-0.2,9.1c-1.6,3.8-4,6.1-7.1,7.2c0,0.6-0.1,1.1-0.1,1.1c0,0.8-0.1,2-0.1,3.3c-5.9,0.7-11.8,1.6-17.8,2.7
			c-0.6-1.9-1.4-5.8-1.2-8.1c0.2-2-1.3-3.8-2.4-5.6c-1.5-2.4-2.7-5-2.9-7.8C144.6,407.3,144.6,406.4,144.7,405.3z"/>
	</g>
	<g>
		<g>
			<path d="M167,423.5c-0.2,2.9,0,5.7-0.2,8.6c-0.1,1,1,2,2,2c1.1-0.1,1.9-0.9,2-2c0.2-2.9,0-5.7,0.2-8.6c0.1-1-1-2-2-2
				C167.8,421.5,167,422.4,167,423.5L167,423.5z"/>
		</g>
	</g>
	<g>
		<g>
			<path d="M168.3,424.6c3.9-0.9,6.9-3.5,8.8-7c1-1.9,1.5-3.9,1.5-6.1c0-1.8-0.2-3.7-0.3-5.5c-0.1-1.1-0.9-2-2-2c-1,0-2.1,0.9-2,2
				c0.1,1.6,0.3,3.3,0.3,4.9c0,1.7-0.1,2.9-0.9,4.4c-1.5,2.9-3.6,4.7-6.5,5.4C164.8,421.4,165.8,425.2,168.3,424.6L168.3,424.6z"/>
		</g>
	</g>
	<g>
		<g>
			<path d="M156.2,396.2c1.7,0,3.3,0.1,5,0.2c1.8,0.1,3.7,0.4,5.5,0.2c3.1-0.3,5.2-2.7,4.5-5.9c-0.6-2.6-3-4.1-5.2-5.1
				c-2.3-1.1-4.9-1.9-7.4-2.3c-3.1-0.6-5.9-0.1-8.4,1.9c-2.3,1.8-3.5,4.5-4.5,7.1c-1.2,3.1-2,6.4-2.5,9.7c-0.4,3.1-0.8,6.3,0.1,9.3
				c0.6,2,1.5,3.9,2.6,5.7c0.8,1.3,2,2.7,2.1,4.2c0.1,1.7,0.1,3.2,0.4,4.9c0.2,1.5,0.6,2.9,1,4.3c0.8,2.5,4.6,1.4,3.9-1.1
				c-0.7-2.1-1.2-4.4-1.3-6.6c0-1.2,0.1-2.4-0.3-3.6c-0.5-1.4-1.3-2.5-2-3.7c-1.5-2.4-2.9-5-3-7.8c0-2.5,0.3-4.9,0.8-7.3
				c0.6-2.8,1.4-5.5,2.6-8.1c0.9-2,2.1-4,4.2-4.8c2.1-0.8,4.5,0,6.6,0.6c1.7,0.5,3.3,1.1,4.8,2c0.9,0.6,3,2.5,0.8,2.7
				c-1.7,0.2-3.5-0.1-5.1-0.2c-1.7-0.1-3.3-0.1-5-0.2C153.6,392.1,153.6,396.1,156.2,396.2L156.2,396.2z"/>
		</g>
	</g>
	<g>
		<g>
			<path d="M165.1,396.9c0.1,0,0.2,0.1,0.3,0.1c-0.2-0.1-0.2-0.1,0,0c0.2,0.1,0.4,0.2,0.5,0.3c-0.4-0.3,0,0,0,0.1
				c0.1,0.1,0.1,0.1,0.2,0.2c-0.2-0.2-0.2-0.2-0.1-0.1c0,0.1,0.3,0.4,0.3,0.5c0-0.1-0.1-0.2-0.1-0.2c0,0.1,0.1,0.2,0.1,0.3
				c0.1,0.5,0-0.2,0,0.1c0,0,0,0.3,0,0.4c0.1-0.3,0.1-0.4,0-0.2c0,0.1,0,0.2-0.1,0.2c0,0.1-0.1,0.2-0.1,0.3c0.1-0.5,0.2-0.4,0.1-0.2
				c0,0.1-0.1,0.2-0.1,0.2c-0.1,0.1-0.1,0.2-0.2,0.3c0.1-0.1,0.4-0.4,0.1-0.1c0,0-0.3,0.2-0.3,0.3c0.3-0.2,0.3-0.3,0.2-0.1l-0.1,0.1
				c-0.1,0.1-0.2,0.1-0.3,0.2c-0.3,0.2,0.4-0.1-0.1,0c-0.3,0.1-0.7,0.2-1,0.2c0.5-0.1-0.3,0-0.4,0c-0.2,0-0.4,0-0.6,0
				c-0.4,0-0.9,0-1.3,0c-1.9,0-3.7-0.1-5.6-0.2c-1,0-2,0.9-2,2s0.9,2,2,2c1.7,0.1,3.4,0.1,5.1,0.2c1.6,0,3.4,0.1,5-0.4
				c2.6-0.9,4.2-3.4,3.6-6.1c-0.5-2-2.1-3.5-4.1-4.1c-1-0.3-2.2,0.4-2.5,1.4C163.5,395.5,164,396.6,165.1,396.9L165.1,396.9z"/>
		</g>
	</g>
	<g>
		<g>
			<path d="M163,403.6c0.1,0.1,0.7,0.3,0.8,0.5c0-0.1-0.3-0.2,0,0c0.1,0.1,0.2,0.2,0.3,0.3c0.2,0.2-0.2-0.3,0,0
				c0.1,0.1,0.2,0.2,0.2,0.4c0.2,0.3-0.1-0.3,0,0.1c0,0.1,0.2,0.5,0.1,0.2c-0.1-0.3,0,0.1,0,0.2c0,0.4,0.1-0.3,0,0.1
				c0,0.1,0,0.1-0.1,0.2c0,0.1,0,0.1,0.1-0.1c0,0.1-0.2,0.3-0.2,0.4c-0.2,0.3,0.1-0.1,0,0c-0.1,0.1-0.2,0.2-0.3,0.3
				c-0.1,0.1-0.2,0.1-0.2,0.2c0.1,0,0.1-0.1,0.2-0.1c0,0.1-0.4,0.2-0.4,0.3c-0.1,0.1-0.3,0.1-0.4,0.2c-0.1,0-0.2,0.1-0.2,0.1
				c0.2-0.1,0.2-0.1,0.1,0c-0.3,0.1-0.6,0.2-0.9,0.3c-0.6,0.2-1.3,0.4-1.9,0.7c-0.8,0.5-1.4,1.2-1.7,2c-0.3,0.9-0.2,1.8,0,2.7
				c0.2,1,1.5,1.7,2.5,1.4c1.1-0.4,1.6-1.4,1.4-2.5c0-0.2-0.1-0.5,0-0.2c0-0.2,0-0.3,0-0.5c0,0.1-0.2,0.5,0,0.2
				c-0.2,0.2-0.2,0.2,0,0.1c-0.1,0-0.1,0.1-0.2,0.1c0.1-0.1,0.2-0.1,0.3-0.1c-0.1,0-0.1,0.1-0.2,0.1l0.4-0.1
				c0.3-0.1,0.6-0.2,0.9-0.3c1.6-0.5,3.1-1.3,4.1-2.7c0.9-1.3,1.2-3,0.7-4.5c-0.6-1.5-1.7-2.7-3.1-3.4c-0.9-0.5-2.2-0.3-2.7,0.7
				C161.8,401.8,162,403.1,163,403.6L163,403.6z"/>
		</g>
	</g>
	<g>
		<g>
			<path d="M174.1,406.9c2-0.1,3.9-0.9,4.9-2.9c0.7-1.4,1-3,1.1-4.6c0.3-3.1,0.2-6.6-1-9.5c-0.7-1.8-2.1-3.3-4-3.9
				c-1.6-0.4-3.4-0.3-4.9,0.4c-3.6,1.6-4.1,6.8-3.8,10.2C166.9,401.1,168.9,406.9,174.1,406.9c2.6,0,2.6-4,0-4c-1,0-1.7-0.6-2.3-1.6
				c-0.7-1.3-1.1-2.7-1.3-4.1c-0.2-1.2-0.1-2.8,0-3.9c0.1-0.7,0.3-1.3,0.4-2c0.2-0.5,0.3-0.9,0.7-1.2c0.2-0.1,0.6-0.2,1-0.3
				c0.3-0.1,0,0-0.1,0c0.1,0,0.3,0,0.4,0c0.3,0,0.5,0,0.8,0c-0.5-0.1,0.5,0.2,0.3,0.1c-0.1,0,0.5,0.3,0.4,0.2
				c0.1,0.1,0.3,0.3,0.4,0.5c0.1,0.1,0.4,0.9,0.3,0.5c0.9,2.2,1,4.3,0.9,6.7c-0.1,1.4-0.1,2.2-0.5,3.6c0,0.2-0.4,0.9-0.1,0.4
				c0,0.1-0.1,0.2-0.1,0.3c0,0-0.3,0.4-0.1,0.2c-0.2,0.3-0.7,0.4-1.2,0.4c-1.1,0.1-2,0.9-2,2C172.1,405.9,173,406.9,174.1,406.9z"/>
		</g>
	</g>
	<g>
		<path class="st1" d="M241.1,450.8c0.9,3.5,1.8,6.9,3,11.7c5-8.8,7-12.2,11.4-21.1c3.8-7.6,7.7-15.5,11.4-23.4
			c-0.6,0.2-1,0.3-1,0.3c-5.2,1.9-12.2,2.1-17.5,1.2s-10.4-3.1-15-5.7c1.6,8.6,3.6,17.3,5.2,25.5C239.4,444,240.2,447.4,241.1,450.8
			z"/>
	</g>
	<g>
		<path class="st2" d="M446.9,313c-0.2,0.1-0.4,0.3-0.5,0.4c-7,5.7-14.6,15.7-14.3,30.9c0.1,3.8,0.9,8.1,2.4,12.5
			c0.5-0.2,1-0.3,1.6-0.4c1.2-0.1,2.7,0.2,3.8,1.1c0,0,0.7,0.5,1.4,1.1c1.2-5.4,5.5-16.3,10.9-19.2c4.2-2.1,11.5-0.4,16.4-0.4
			c8.1,0.1,22.6-4.1,26.4-0.8c2.9,1.7,8.6,18.7,10.4,14.9c1-1.1,2.4-1.5,3.6-1.6c0.5,0,1,0,1.5,0.1c0.9-4.8,1.2-8.3,0.7-12.6
			c-1.6-14.5-9.6-23.3-17.2-28.2c-6.9-4.3-14.8-6.9-24.8-6.3C460.3,305.3,452.8,308.3,446.9,313z"/>
	</g>
	<g>
		<path class="st0" d="M444.9,510.9c-2.3-12.5-5.2-27.7-7.8-40.8c-9.1,6.6-15.4,11.7-24.8,19.4c0,0-1.3,1.2-2.8,2.6
			c-0.1-3.5-0.3-6.8-0.3-9.5c-0.3-12.5-1.4-27.7-1.7-40.5c0.6-0.7,1-1.1,1-1.1c4.4-4.6,13.8-18.6,19.8-23.2
			c7.3-5.6,17.7-10.5,26.9-14c1.6-2.3,3.5-5.7,4.5-7.1c0.9,0.5,11.9,6.5,17.1,9.2l2.8-0.2c4.5-3.8,14.1-11.9,14.9-12.6
			c1.3,1.2,3.8,4.1,5.8,6c9.2,3.7,25,10,29.8,11.6l38.3,30.2c0.6,0,1.1,0.1,1.9,0.1c0.8,0,1.5,0.5,1.8,1.2c1,2.2,1.8,5,2.2,7.1
			c1,5.1,1.4,11.2,1,16.3c-0.6,7.3-1.2,13.3-5.6,19c-4.2,5.6-11,9-17.3,5.5c-2.6-1.4-4.6-2.8-6.4-5.1c-4.5-5.7-8.7-11.5-12.6-17.6
			c2.7,12.9,6.2,28.7,9.5,43.6h-98V510.9z"/>
	</g>
	<g>
		<path class="st3" d="M477.6,480.3c-2-2.4-3.8-4.8-5.3-6.9c-0.1-0.2-0.2-0.4-0.2-0.6c0.5-12.9,2.7-49.1,2.6-49.8
			c-0.2-1.4-0.7-2.6-1.2-3.9c-0.4-1-0.8-1.9-1.1-2.9c0,0-0.2-0.5-0.6-1.3c1.9-3.6,4.2-7.8,4.9-9.2l2.8-0.2c0.9,1.2,4.1,4.9,6.7,8.1
			c-0.1,1.7-0.2,2.9-0.4,4.6c0,0.3-0.1,0.7-0.1,1c-0.1,0.8-0.2,1.5-0.1,2.3c0,0.4,10,37.2,12.7,49.2c0.1,0.2,0,0.4-0.1,0.6
			c-2.6,5.5-6.2,12.2-10.1,18.9c-0.3,0.6-1.1,0.7-1.6,0.2C483.8,487.6,480.6,483.9,477.6,480.3z"/>
	</g>
	<g>
		<path class="st0" d="M395,346.1c1.1-1,2.5-1.3,3.7-1.3c2.7,0.1,3.8,1.5,4.3,2.3c1.4,2.5,1.3,7,0.3,9.7c-0.7,2-1.9,5-4.6,7.1
			c-1.1,0.9-2.8,1.5-4.4,1.2c0,0-0.2,0-0.4-0.1c-0.5,1.6-1.2,3.2-1.5,3.9c-1,2.6-6.2,11.1-12.9,15.7c0,1.3,0,2.7,0,2.7
			c-0.9,0.6-11.2,7.7-16.1,11l-2.8-0.1c-4.9-3.3-15.2-10.4-16.1-11c0,0,0-1.2,0-2.6c-2.6-1.6-5-3.8-7.2-6.5
			c-3.9-4.6-6.1-9.5-7.3-13.6c-1.7,0.4-3.5-0.2-4.7-1.2c-2.7-2.2-3.8-5.2-4.5-7.2c-1-2.8-1-7.3,0.5-9.7c0.5-0.8,1.6-2.2,4.3-2.3
			c1.2,0,2.6,0.4,3.7,1.4c0,0-4.3-27,31.9-27C399.5,318.5,395,346.1,395,346.1z"/>
	</g>
	<g>
		<path class="st0" d="M362.1,398.3c-0.7,0-1.5-0.1-1.5-0.1c-4.9-3.3-15.2-10.4-16.1-11c-1.3,1.6-4,5.4-6,7.5
			c3.4,14.4,9.1,29.8,13.6,43.7c3.7,11.3,4.8,14.7,9.9,27.2c4.5-11.6,6.5-16.1,10.2-27.4c4.5-13.8,10.1-28.9,13.5-43.2
			c-1.9-2-4.9-6.1-6.2-7.8c-0.9,0.6-11.2,7.7-16.1,11C363.4,398.4,362.8,398.4,362.1,398.3z"/>
	</g>
	<g>
		<path class="st3" d="M362,398.3c-0.7,0-1.4-0.1-1.4-0.1c-0.8,1.3-3.5,5.1-5.7,8.5c0.2,0.8,0.4,1.4,0.4,1.4c0.2,0.9,0.5,1.9,0.8,3
			c0.4,1.3,0.8,2.6,0.8,4c0,0.7-1.9,13.9-3.7,26.5c2.9,8.9,4.2,12.8,8.8,24c4-10.4,6-15,9-23.9c-1.4-12.1-3.3-26.5-3.3-26.9
			c0-0.8,0.2-1.5,0.3-2.3c0.1-0.3,0.2-0.7,0.2-1c0.4-1.6,0.6-2.9,0.9-4.5c-2.3-3.5-5.1-7.5-5.9-8.8
			C363.4,398.4,362.7,398.4,362,398.3z"/>
	</g>
	<g>
		<path class="st4" d="M311.7,510.9c0.4-8.6,1-21,1.2-28.3c0.3-13.6,1.4-27.7,1.7-41c-4.3-4.3-6.5-7.6-10.5-12.1
			c-3.3-3.8-6.7-8.1-10.3-11.1c-1.7-1.4-3.6-2.7-5.5-3.9c4-2.5,8-5.1,8-5.1c7.7-5.3,24.7-11,33.1-12.2c0,0,2.8-0.4,4.6-0.7
			c1.5-1.3,2.9-2.4,4.2-3.2c3.4,14.9,9.3,30.9,14,45.4c3.7,11.3,4.8,14.7,9.9,27.2c4.5-11.6,6.5-16.1,10.2-27.4
			c4.7-14.4,10.7-30.5,14-45.3c1.3,0.8,2.7,1.8,4.2,3.1c2.7,0.4,4.4,0.6,4.4,0.6c11.1,1.6,23.1,5.8,32.5,10.7c0,0,4.6,2.4,9.3,4.8
			c-3,1.7-5.9,3.5-8.3,5.4c-6,4.6-15.3,18.6-19.8,23.2c0,0-0.4,0.5-1,1.2c0.4,12.8,1.4,27.9,1.7,40.4c0.2,7.4,0.8,19.8,1.2,28.3
			H311.7z"/>
	</g>
	<g>
		<path class="st2" d="M275.7,400.2c2,0.4,5.5,0.3,7.2,0.3c5.9-0.2,10.6-3.3,12.3-8c2.2-5.8-0.3-13,0.6-19.2l-0.3-18.1
			c1.4-4.3,2.1-7.6,2.2-11.7c0.4-12.4-4.6-21.3-10.3-27.2l-4.9-4.2c-5.6-4.2-12.3-7-21-7.6c-9.1-0.7-16.9,1.4-23.4,5.4
			c-7.5,4.6-16.3,13.2-18,28.1c-0.4,3.5-0.2,7.6,0.6,11.9l-1,17.9c-1.3,4.8-4,9.5-4,14.5c0.2,2.2,1.3,5.2,2.1,6.3
			c3.9,5.2,6.7,6.2,10.1,6.8l2.7,3.4l41.9,6.4L275.7,400.2z"/>
	</g>
	<g>
		<path class="st0" d="M253.1,335.3c-0.7,3.6-3.4,11.2-1,10.6c10.3-2.3,18.7-7.8,25.6-16c1.6,9.8,8.4,24.3,12.5,26.6
			c1.1-0.9,2.5-1.2,3.7-1c2.6,0.3,3.6,1.7,4,2.6c1.2,2.5,0.9,6.9-0.3,9.6c-0.8,1.9-2.1,4.8-5,6.7c-1.2,0.8-2.8,1.3-4.4,0.9
			c0,0-0.1,0-0.4-0.1c-0.6,1.5-1.3,3-1.7,3.8c-1.4,3-8.9,13.7-17.5,16.3c-0.3,2.6-0.4,5.1-0.2,7.7c0.1,0.8,0.1,1.6,0.4,2.4
			c0.3,0.8,1.5,1.9,2.9,2.9l4.7,3c0,0-2.9,3.4-4.8,4.4c-2.3,1.3-6,2.9-6,2.9c-5.2,1.9-12.2,2.1-17.5,1.2s-10.3-3-14.9-5.7
			c0,0-3.6-2.8-4.9-4.7c-1.8-2.7-2.9-6.5-2.9-6.5l5.3-1.6c1-0.2,7.1-1.8,7.9-2.4c0.6-0.5,1-1.1,1.4-1.6c0.6-1,1.4-2.2,2.2-3.6
			c-4-1.8-7.4-4.9-10.6-9.1c-3.5-4.7-5.4-9.7-6.3-13.8c-1.7,0.3-3.4-0.4-4.5-1.5c-2.5-2.3-3.4-5.3-3.9-7.3c-0.8-2.8-0.5-7.2,1.1-9.5
			c0.5-0.8,1.7-2.1,4.3-2c1.3,0,2.7,0.5,3.7,1.7c8.9-5.4,17.4-11.2,26.7-17.1"/>
	</g>
	<g>
		<path class="st0" d="M292.5,417.3c-4.7-3.6-10-6.3-15.5-8.8c-1.5-1.7-3.1-3.2-4.4-4.3c-4.7,12.4-11.2,25.2-17.1,37.1
			c-4.5,9-6.4,12.3-11.4,21.1c-2.5-9.4-3.7-13.6-5.6-23.3c-2.6-13.1-6.1-27.6-7.4-40.9c-1.9,0.8-4.2,2.1-6.4,3.7
			c-4.2,1.3-8.5,2.3-12.9,2.9c-5.1,1.3-10.6,4.6-13.7,7.8c-4.3,4.3-8.6,8.6-13,12.9l-6.8,0.3c-10.1,0.8-20.3,2.3-30.6,4.3
			c-1.6,0.3-2.8,1.7-2.8,3.3c-0.5,15,2.8,36.3,8,44.8c2.5,4.1,6.4,7.8,10.5,7.7c6.1-0.2,9.4-2.6,14.2-6.2
			c5.1-3.8,10.7-9.3,17.1-16.1c0,0,0.3-0.3,0.8-0.8c-1.4,5.8-2.6,10.4-3.4,12.8c-2.3,7-12.3,20.9-19.7,30.9l0,0
			c-1.4,1.8-0.1,4.4,2.1,4.4c28,0,99.7,0,99.7,0c2.4-14.5,5.8-34.7,8.8-50.7c9.6,6.5,19,14.1,28.4,21.5c0,0,0.6,0.4,1.4,1v-0.1
			c0.3-13.6,1.4-27.7,1.7-41c-4.3-4.3-6.5-7.6-10.5-12.1c-3.3-3.8-6.7-8.1-10.3-11.1C293.4,417.9,292.9,417.6,292.5,417.3z"/>
	</g>
	<g>
		<g>
			<path d="M231.5,403c2.1-0.5,4.2-1.1,6.3-1.8c1.3-0.4,2.4-0.9,3.2-2c0.7-0.8,1.2-1.7,1.8-2.6c0.3-0.4,0.5-0.9,0.8-1.3
				c0.4-0.6,0.8-1.2,0.8-2c0-1-0.9-2-2-2s-2,0.9-2,2l0,0c0.1-0.3,0.2-0.7,0.3-1c-0.5,0.9-1,1.7-1.5,2.5c-0.2,0.4-0.4,0.7-0.7,1
				c-0.1,0.2-0.3,0.4-0.4,0.6c0.2-0.3-0.1,0.2-0.2,0.2c-0.1,0.1-0.2,0.2-0.3,0.3c0.2-0.2,0.3-0.2,0.2-0.1l-0.1,0.1
				c-0.1,0-0.2,0.1-0.2,0.1c-0.3,0.1,0.5-0.2,0.2-0.1c-0.5,0.2-0.9,0.3-1.4,0.5c-1.9,0.6-3.8,1.1-5.8,1.6c-1,0.3-1.7,1.4-1.4,2.5
				C229.4,402.6,230.4,403.3,231.5,403L231.5,403z"/>
		</g>
	</g>
	<g>
		<g>
			<path d="M217.9,367.3c-1,3.5-2.6,6.8-3.4,10.3c-0.8,3.4-0.7,6.6,0.7,9.9c2.1,5.1,7,9,12.4,9.9c1.1,0.2,2.2-0.3,2.5-1.4
				c0.3-1-0.3-2.3-1.4-2.5c-1.9-0.3-3.7-0.8-5.3-2c-1.9-1.4-3.8-3.5-4.6-5.8c-0.4-1.2-0.9-2.5-0.9-3.8c0-1.5,0.4-3.1,0.8-4.5
				c0.9-3.1,2.3-6,3.1-9C222.4,365.8,218.6,364.8,217.9,367.3L217.9,367.3z"/>
		</g>
	</g>
	<g>
		<g>
			<path d="M275.1,402.2c3.3,0.7,7.1,0.6,10.5,0s6.8-2.3,9-4.9c2.6-3.1,3.5-6.8,3.5-10.8c0-4.2-1-8.4-0.4-12.6
				c0.2-1.1-0.3-2.1-1.4-2.5c-0.9-0.3-2.3,0.3-2.5,1.4c-0.6,3.9-0.1,7.7,0.1,11.5c0.2,3.3,0.1,6.9-1.9,9.7c-1.7,2.3-4.4,3.7-7.2,4.2
				c-1.3,0.3-2.7,0.3-4.1,0.3c-1.5,0-3.1,0.1-4.6-0.3C273.7,397.8,272.6,401.6,275.1,402.2L275.1,402.2z"/>
		</g>
	</g>
	<g>
		<path class="st2" d="M384.3,301.4c-6-3.9-13-6.4-21.9-6.4c-9.3-0.1-17.2,2.6-23.5,7c-7.4,5.2-15.7,14.5-16.5,29.7
			c-0.2,3.8,0.3,8.2,1.5,12.6c0.5-0.1,1-0.2,1.6-0.2c1.2,0,2.6,0.4,3.7,1.4l5.3-4.2c4-4.2,11-10.6,15.9-13c0.6-0.3,1.3,0.1,1.5,1
			c0.2,0.9,0.2,1.6,0.1,2.2c-0.1,1,0.9,1.7,1.7,1.3c3.5-1.8,9.7-5.6,14.2-7.3l6.5,0.8c2.1,0.9,3.7,1.8,6,3.7c3.9,3.3,7.7,7.9,9.3,12
			l5.2,4c1.1-1,2.5-1.3,3.7-1.3c0.6,0,1.1,0.1,1.5,0.2c0.1-0.3,0.1-0.5,0.1-0.5c1.2-4.4,1.7-7.9,1.5-12
			c-0.4-12.8-6.1-21.6-12.4-27.2L384.3,301.4z"/>
	</g>
	<g>
		<g>
			<path d="M276.1,511.4c2.8-16.9,5.6-33.8,8.8-50.7c-1,0.4-2,0.8-2.9,1.2c9.7,6.6,18.8,14,28,21.2c0.8,0.7,2,0.8,2.8,0
				c0.7-0.7,0.9-2.2,0-2.8c-9.5-7.4-18.8-15.1-28.9-21.8c-1-0.7-2.7,0-2.9,1.2c-3.1,16.9-6,33.8-8.8,50.7c-0.2,1.1,0.3,2.2,1.4,2.5
				C274.6,513,275.9,512.5,276.1,511.4L276.1,511.4z"/>
		</g>
	</g>
	<g>
		<path class="st0" d="M566,413.3c-0.6-0.8-1.4-1.7-1.8-1.9c-3.8-2.3-7.1-4.4-10.7-6.2c-0.8-0.4-1.9-0.8-2.7-1.1
			c-1.5-0.5-3.1-0.4-4.5,0.2c-1.2,0.6-2.8,2.7-2.3,4.2c-0.9,0.1-3.2,0.4-3.2,0.4c-0.9-0.1-1.8-0.6-2.7-0.8c-1.9-0.4-3.9,0.5-5.3,2
			s-2.1,3.3-2.7,5.2c-0.5,1.4-0.5,3.1-0.1,4.6c0.3,1.1,1.1,1.7,2,2c0.9,0.3,2.5,0.5,4.1-0.4l-0.3,2.3c-0.4,0.4-0.9,1.1-1.2,1.7
			c-0.7,1.5-0.2,3.6,0.9,4.7c0.6,0.6,3.3,3.3,4.3,4c0,0,0.8-0.9,1.7-1.9c1.7,1.4,3,3.1,3.1,4.8c1.1,9.5,3.4,13.4,7.2,14.4
			c3.1,0.8,7.1,0.9,9.1,0.4c0.8-0.2,4.5-1.3,5-1.9c1.1-1.3,2.2-2.2,2.6-3.9c0.3-1.4,0.2-2.9,0-4.3c-0.3-1.7-0.8-6-1-8.9
			c-0.3-3.1-0.2-8.7,0.3-11.4c0.5-2.7,0.1-5.1-0.9-6.9C566.7,414.2,566.4,413.8,566,413.3z"/>
	</g>
	<g>
		<g>
			<path d="M178.2,423.9c-5.7,0.5-11.3,1.1-17,1.9c-2.9,0.4-5.8,0.9-8.8,1.4c-1.3,0.2-2.6,0.5-3.9,0.7c-1.2,0.2-2.4,0.4-3.4,1.2
				c-2.1,1.5-2.3,3.7-2.3,6c0,2.1,0,4.1,0.1,6.2c0.2,4.6,0.6,9.1,1.3,13.6c1.1,7.7,2.6,15.8,6.1,22.8c1.9,3.8,5,7.5,8.9,9.3
				c4.1,1.8,9,0.6,12.8-1.3c4.2-2.1,8.1-5.3,11.7-8.4c4.4-3.8,8.4-8.1,12.4-12.3c1.8-1.9-1.1-4.7-2.8-2.8
				c-6,6.4-12.1,12.6-19.3,17.7c-3.2,2.2-6.5,3.9-10.4,4.1c-4,0.2-7.2-3.7-9-6.8c-1.5-2.5-2.5-5.3-3.3-8.1
				c-1.1-3.7-1.9-7.4-2.5-11.1c-1.4-7.9-2.1-16-1.8-24c0-0.8,0.2-1.4,1-1.8c1.2-0.5,2.8-0.6,4.1-0.8c2.9-0.5,5.8-1,8.8-1.5
				c5.8-0.9,11.7-1.6,17.6-2.1C180.7,427.7,180.8,423.7,178.2,423.9L178.2,423.9z"/>
		</g>
	</g>
	<g>
		<g>
			<path d="M266.8,395.5c-0.3,2.7-0.4,5.4-0.1,8c0.2,1.4,0.5,2.6,1.3,3.7c0.8,1,1.8,1.8,2.9,2.5c0.8,0.6,2.3,0.2,2.7-0.7
				c0.5-1,0.2-2.1-0.7-2.7c-0.3-0.2-0.3-0.2-0.5-0.4c-0.2-0.2-0.4-0.4-0.7-0.6c-0.1-0.1-0.3-0.3-0.4-0.4c-0.1-0.1-0.5-0.7-0.3-0.3
				c-0.1-0.1-0.5-0.6-0.1-0.1c-0.1-0.2-0.1-0.4-0.2-0.6c0-0.1-0.1-0.3-0.1-0.4c0,0.2,0,0.1,0-0.1c0-0.3,0-0.5-0.1-0.8
				c-0.2-2.4-0.1-4.8,0.2-7.2c0.1-1-1-2-2-2C267.6,393.6,266.9,394.4,266.8,395.5L266.8,395.5z"/>
		</g>
	</g>
	<g>
		<g>
			<path d="M186.4,427c3.4-3.4,6.8-6.7,10.2-10.1c3-2.9,5.8-5.6,9.5-7.6c1.7-0.9,3.5-1.7,5.4-2.3c2.1-0.6,4.5-0.8,6.7-1.2
				c4.4-0.9,8.7-2.3,12.8-3.9c1-0.4,1.7-1.3,1.4-2.5c-0.3-1-1.5-1.8-2.5-1.4c-4.3,1.7-8.7,3.1-13.3,4c-2.2,0.5-4.5,0.6-6.7,1.3
				c-2.1,0.6-4.1,1.5-6,2.5c-3.8,2.1-6.9,4.8-9.9,7.8c-3.5,3.5-7,7-10.5,10.5C181.7,426,184.6,428.8,186.4,427L186.4,427z"/>
		</g>
	</g>
	<g>
		<g>
			<path d="M568.4,442.9c0.4,0,1.5-0.2,1.9,0.1c0,0,0.3,0.7,0.4,1c0.5,1.4,1,2.8,1.3,4.2c0.7,2.8,1.1,5.7,1.3,8.5
				c0.4,5.7,0.1,11.8-1.1,17.4c-1.1,5.2-3.8,10.2-8.3,13.2c-2,1.4-4.4,2.2-6.9,2.1c-2.5-0.2-5-1.6-6.9-3.1c-2.8-2.1-4.8-5.3-6.9-8.1
				c-2.3-3.1-4.5-6.2-6.7-9.4c-1.4-2.1-4.9-0.1-3.5,2c2.2,3.3,4.6,6.6,7,9.8c2.1,2.8,4.2,6,6.9,8.3c2.4,2,5.3,3.8,8.4,4.4
				c3.1,0.5,6.1-0.1,8.9-1.5c5.8-2.9,9.7-8.9,11.4-15.1c0.8-3.1,1.2-6.3,1.4-9.5c0.3-3.4,0.4-6.8,0.2-10.3
				c-0.2-3.8-0.7-7.5-1.8-11.1c-0.5-1.7-1-3.9-2.2-5.3c-1.3-1.5-3.1-1.4-4.9-1.5C565.8,438.8,565.8,442.8,568.4,442.9L568.4,442.9z"
				/>
		</g>
	</g>
	<g>
		<g>
			<path d="M530.6,408.8c-10.1-3.4-20-7.6-29.8-11.6c-1-0.4-2.2,0.4-2.5,1.4c-0.3,1.1,0.4,2.1,1.4,2.5c9.8,4,19.7,8.2,29.8,11.6
				C531.9,413.4,533,409.6,530.6,408.8L530.6,408.8z"/>
		</g>
	</g>
	<g>
		<g>
			<path d="M545.8,408.1c0-1.5,1.6-2.3,2.9-2.4c1.9-0.1,3.9,1.2,5.5,2c1.9,1,3.7,2,5.5,3.1c0.9,0.6,1.9,1.2,2.8,1.7
				c0.4,0.2,0.5,0.3,0.7,0.5c0.3,0.3,0.6,0.6,0.8,0.9c0.9,1.1,1.6,2.4,1.8,3.8c0.3,1.7-0.1,3.3-0.3,4.9c-0.4,3.2-0.4,6.5-0.2,9.7
				c0.2,3.3,0.6,6.6,1.1,9.8c0.3,1.8,0.3,3.4-0.9,4.8c-0.3,0.3-0.6,0.6-0.9,1c-0.1,0.1-0.2,0.3-0.4,0.4c0.3-0.3,0.2-0.1,0.1-0.1
				c-0.4,0.3-0.8,0.4-1.3,0.6c-2.7,1-5.2,1.3-8.1,1c-0.9-0.1-1.8-0.2-2.6-0.5c-0.2-0.1-0.5-0.1-0.7-0.2c-0.3-0.1,0.1,0.1-0.4-0.2
				c-0.7-0.4-1.2-0.8-1.6-1.4c-1.9-2.5-2.5-6.1-3-9.1c-0.3-2.2-0.5-4-1.9-5.8c-1.4-1.8-3.2-3.2-5.2-4.3c-2.3-1.2-4.3,2.3-2,3.5
				c1.8,0.9,3.6,2.2,4.6,4c0.5,0.9,0.5,1.9,0.6,2.8c0.2,1.1,0.3,2.3,0.6,3.4c0.6,3,1.6,6.1,3.7,8.5s5.2,3,8.2,3.3
				c3.3,0.3,6.4-0.2,9.5-1.4c3.7-1.4,6.1-5.1,5.9-9c-0.1-1.8-0.5-3.6-0.7-5.3c-0.2-2-0.4-4-0.6-6c-0.2-3.4-0.3-7,0.3-10.3
				c0.7-4.3-0.3-8.1-3.2-11.3c-1.6-1.8-4.1-2.9-6.2-4.1c-2.4-1.4-4.8-2.8-7.3-3.8s-5.1-1.5-7.6-0.3c-2.1,1-3.6,3.3-3.6,5.6
				C541.7,410.7,545.7,410.7,545.8,408.1L545.8,408.1z"/>
		</g>
	</g>
	<g>
		<g>
			<path d="M555.2,413.1c-2.3-1.2-4.7-2.4-7-3.6c-0.8-0.4-1.7-0.9-2.6-1.2c-2.1-0.6-4.4,0.1-5.8,1.9c-1.5,1.9-1.7,4.7-0.5,6.8
				c0.5,0.9,1.8,1.3,2.7,0.7c0.9-0.5,1.3-1.8,0.7-2.7c-0.1-0.1-0.1-0.2-0.2-0.3c0.1,0.2,0.1,0.2,0,0c0-0.1-0.1-0.2-0.1-0.4
				c0,0.2,0,0.2,0,0s0-0.5,0-0.7c0,0.4,0.1-0.3,0.1-0.4s0.1-0.2,0.1-0.3c-0.1,0.2,0,0.1,0.1-0.1c0.1-0.1,0.1-0.2,0.2-0.3
				c-0.1,0.2-0.1,0.2,0,0c0.1-0.1,0.5-0.3,0.2-0.1c0.1-0.1,0.2-0.1,0.3-0.2c-0.2,0.1-0.2,0.1,0,0c0.1,0,0.6-0.1,0.2-0.1
				c0.1,0,0.8,0,0.4,0c0.2,0,0.4,0.1,0.6,0.2c0.3,0.1-0.5-0.3-0.3-0.1c0.4,0.2,0.8,0.4,1.1,0.5c2.6,1.2,5.1,2.5,7.6,3.9
				c1,0.5,2.2,0.2,2.7-0.7C556.4,414.9,556.1,413.6,555.2,413.1L555.2,413.1z"/>
		</g>
	</g>
	<g>
		<g>
			<path d="M549.2,417.7c-2.1-1-4.4-1.9-6.6-2.5c-1.1-0.3-2.1-0.7-3.2-0.5c-1.2,0.2-2.3,0.7-3.1,1.6c-1.7,1.9-1.9,4.8-0.3,6.8
				c1,1.2,2.6,2.1,4.1,2.8c1.6,0.7,3.2,1.4,4.8,2.1c1,0.4,2.2,0.3,2.7-0.7c0.5-0.9,0.3-2.3-0.7-2.7c-2.3-1-4.7-1.9-6.9-3.3
				c-0.2-0.1-0.3-0.2-0.5-0.3c-0.1,0-0.3-0.2,0,0c-0.1-0.1-0.1-0.1-0.2-0.2l-0.4-0.4c0,0,0.2,0.3,0.1,0.1c-0.2-0.3,0.1,0.3,0,0
				l-0.1-0.5c0,0,0,0.4,0,0.1c0-0.1,0-0.2,0-0.3c0-0.1,0-0.2,0-0.2c0-0.3-0.1,0.3,0,0.1c0-0.1,0-0.1,0-0.2c0.1-0.4-0.2,0.2,0,0
				c0.1-0.1,0.3-0.5,0.1-0.2c0.1-0.2,0.3-0.3,0.4-0.4c0,0-0.3,0.2-0.1,0.1c0.1,0,0.2-0.1,0.3-0.2c0.1,0,0.1-0.1,0.2-0.1
				c-0.4,0.2-0.1,0.1,0,0c0.5-0.1-0.3,0,0.1,0c0.4,0-0.1,0-0.1,0l0.3,0.1c0.4,0.1,0.9,0.2,1.3,0.3c1,0.3,2,0.6,3,1
				c0.6,0.2,1.1,0.4,1.7,0.6c0.2,0.1,0.5,0.2,0.7,0.3c0.4,0.1,0.1,0,0,0c0.2,0.1,0.3,0.1,0.5,0.2c1,0.4,2.2,0.3,2.7-0.7
				C550.3,419.6,550.2,418.2,549.2,417.7L549.2,417.7z"/>
		</g>
	</g>
	<g>
		<g>
			<path d="M539.1,421.1c-1.8-0.3-3.7,0-5,1.4c-1.1,1.2-1.9,2.8-1.9,4.5s0.7,3.3,1.8,4.5c0.6,0.6,1.3,1.2,1.9,1.9
				c0.9,0.8,1.8,1.7,2.8,2.4c0.9,0.6,2.3,0.2,2.7-0.7c0.5-1,0.2-2.1-0.7-2.7c-0.4-0.3,0.4,0.3,0.1,0.1c-0.1-0.1-0.1-0.1-0.2-0.2
				c-0.2-0.2-0.4-0.4-0.6-0.5c-0.4-0.4-0.9-0.8-1.3-1.2c-0.7-0.7-1.3-1.4-2-2c-0.1-0.1-0.1-0.1,0.1,0.1c-0.1-0.1-0.1-0.2-0.2-0.3
				c-0.1-0.1-0.1-0.3-0.2-0.4c0.2,0.4,0,0,0-0.1s-0.2-0.5-0.2-0.6c0,0.1,0,0.1,0,0.2c0-0.1,0-0.2,0-0.3c0-0.2,0-0.3,0-0.5
				s0-0.2,0,0.1c0-0.1,0-0.2,0.1-0.3c0-0.1,0.2-0.5,0-0.1c0.2-0.3,0.4-0.6,0.6-1c0.2-0.3-0.2,0.2,0.1-0.1c0.1-0.1,0.4-0.3,0.1-0.1
				c0,0,0.6-0.3,0.3-0.2c-0.3,0.1,0.3-0.1,0.3-0.1c-0.3,0-0.3,0-0.1,0c0.1,0,0.2,0,0.2,0c0.1,0,0.8,0.1,0.3,0c1,0.2,2.2-0.3,2.5-1.4
				C540.8,422.7,540.2,421.3,539.1,421.1L539.1,421.1z"/>
		</g>
	</g>
	<g>
		<g>
			<path d="M541.1,407c-1-0.2-1.9-0.7-3-0.9c-1.1-0.2-2.2-0.1-3.3,0.2c-2.2,0.8-3.9,2.3-5.1,4.3c-1.1,1.9-2,4.2-2.1,6.4
				c-0.2,2.3,0.4,4.7,2.4,6.1s4.8,1.2,6.9,0c0.9-0.5,1.3-1.8,0.7-2.7c-0.6-1-1.8-1.2-2.7-0.7c-0.3,0.1-0.4,0.2-0.7,0.3
				c-0.1,0-0.7,0.1-0.3,0.1c-0.2,0-0.4,0-0.6,0c-0.1,0-0.3,0-0.4,0c0.2,0,0.2,0,0,0c-0.1,0-0.3-0.1-0.4-0.1
				c-0.3-0.1,0.3,0.2-0.1-0.1c-0.1-0.1-0.2-0.1-0.3-0.2c0.1,0.1,0.2,0.1,0.1,0s-0.1-0.1-0.2-0.2c0.1,0.2,0.1,0.2,0,0
				c-0.2-0.3,0,0.1-0.1-0.3c-0.1-0.3-0.1-0.5-0.2-0.8c0-0.2-0.1-0.8,0-1.2c0-0.8,0.4-1.8,0.7-2.7c0.3-0.8,0.8-1.7,1.3-2.6
				c0.2-0.3,0.4-0.5,0.7-0.8c0.1-0.1,0.6-0.5,0.4-0.4c0.2-0.1,0.4-0.2,0.5-0.3c0.7-0.4,1.1-0.5,2-0.5c-0.3,0,0.3,0.1,0.4,0.1
				c0.3,0.1,0.5,0.2,0.8,0.3c0.5,0.2,1,0.4,1.6,0.5c1.1,0.2,2.2-0.3,2.5-1.4C542.8,408.5,542.2,407.2,541.1,407L541.1,407z"/>
		</g>
	</g>
	<g>
		<g>
			<path d="M453.3,402.2c-8.9,3.5-17.8,7.6-25.4,13.3c-5.7,4.3-9.9,10.3-14.2,15.9c-2.1,2.7-4.2,5.5-6.5,8c-1.8,1.9,1,4.7,2.8,2.8
				c4.6-4.8,8.3-10.4,12.5-15.5c2-2.5,4.1-5,6.6-7c3.2-2.8,7.1-4.9,10.8-6.9c4.7-2.5,9.6-4.7,14.6-6.7c1-0.4,1.7-1.3,1.4-2.5
				C455.5,402.7,454.3,401.9,453.3,402.2L453.3,402.2z"/>
		</g>
	</g>
	<g>
		<g>
			<path d="M394.2,398.6c11.1,1.6,22.1,5.3,32,10.5c2.3,1.2,4.3-2.2,2-3.5c-10.2-5.4-21.5-9.3-32.9-10.9c-1.1-0.2-2.1,0.3-2.5,1.4
				C392.6,397.1,393.2,398.5,394.2,398.6L394.2,398.6z"/>
		</g>
	</g>
	<g>
		<g>
			<path d="M435,469.1c-8.2,6.1-16.2,12.5-24.1,19c-0.8,0.7-0.7,2.1,0,2.8c0.8,0.8,2,0.7,2.8,0c7.7-6.3,15.3-12.5,23.3-18.4
				c0.9-0.6,1.3-1.7,0.7-2.7C437.3,468.9,435.9,468.4,435,469.1L435,469.1z"/>
		</g>
	</g>
	<g>
		<g>
			<path d="M297.3,411c4.8-3.3,10.5-5.6,16-7.5c5.4-1.9,11-3.7,16.6-4.5c1.1-0.2,1.7-1.5,1.4-2.5c-0.3-1.1-1.4-1.6-2.5-1.4
				c-5.8,0.8-11.5,2.7-17,4.6c-5.7,2-11.6,4.4-16.6,7.8C293.1,409,295.1,412.5,297.3,411L297.3,411z"/>
		</g>
	</g>
	<g>
		<g>
			<path d="M270.3,407.7c8.3,3.6,17.1,7.2,23.8,13.5c6.8,6.4,11.9,14.4,18.4,21c1.8,1.8,4.6-1,2.8-2.8c-5.1-5.2-9.5-11.2-14.3-16.7
				c-2.5-2.8-5.1-5.4-8.2-7.7c-2.9-2.2-6.1-4-9.3-5.6c-3.7-1.9-7.5-3.5-11.3-5.2c-1-0.4-2.1-0.3-2.7,0.7
				C269.1,405.8,269.3,407.3,270.3,407.7L270.3,407.7z"/>
		</g>
	</g>
	<g>
		<g>
			<path d="M440.9,355.8c-2.3-1.7-5.7-1.8-8.1-0.4c-1.9,1.1-3,3.1-3.4,5.2c-0.8,5,0.8,10.2,4,14.1c2.2,2.7,5.3,4.4,8.8,3.7
				c1.1-0.2,1.7-1.5,1.4-2.5c-0.3-1.1-1.4-1.6-2.5-1.4c-2.3,0.5-4.3-1.7-5.5-3.5c-1.2-1.9-2-3.7-2.4-5.9c-0.3-1.9-0.3-4.1,0.7-5.7
				c0.2-0.3-0.2,0.2,0.1-0.1c0.1-0.1,0.4-0.4,0.4-0.4c0.2-0.2,0.8-0.4,1.2-0.5c1.2-0.3,2.2,0,3.2,0.7c0.9,0.7,2.2,0.1,2.7-0.7
				C442.2,357.5,441.7,356.4,440.9,355.8L440.9,355.8z"/>
		</g>
	</g>
	<g>
		<g>
			<path d="M506.8,354.6c0.8-0.8,1.8-1.1,2.9-1c0.5,0.1,0.9,0.2,1.3,0.4c0.4,0.2,0.3,0.2,0.6,0.6c0.3,0.3-0.2-0.3,0.1,0.1
				c0.1,0.2,0.3,0.4,0.4,0.6c0.2,0.4,0.3,0.9,0.5,1.3c0.3,1.1,0.4,2.3,0.4,3.5c0,2-0.6,4-1.4,5.8c-1,2.2-2.7,4.5-5.3,4.4
				c-2.6-0.2-2.6,3.8,0,4c5.8,0.4,9.1-5.8,10.3-10.7c1-4.2,0.7-10.7-3.6-13.1c-2.9-1.6-6.6-1-8.9,1.2
				C502.2,353.6,505,356.4,506.8,354.6L506.8,354.6z"/>
		</g>
	</g>
	<g>
		<g>
			<path d="M504.3,369.4c-0.8,5.2-2.5,9-5.2,13.3c-2.9,4.6-7,9.8-12.5,11.4c-2.5,0.7-1.4,4.6,1.1,3.9c6.3-1.9,11.1-7.4,14.6-12.7
				c2.9-4.5,5.2-9.5,6-14.8c0.2-1.1-0.3-2.1-1.4-2.5C505.8,367.7,504.4,368.3,504.3,369.4L504.3,369.4z"/>
		</g>
	</g>
	<g>
		<g>
			<path d="M439.2,374.6c3.8,12.3,14.1,24.4,27.6,25.5c2.6,0.2,2.6-3.8,0-4c-5.9-0.5-10.9-3.7-15-7.8c-4.1-4.1-7-9.2-8.7-14.7
				C442.3,371.1,438.5,372.1,439.2,374.6L439.2,374.6z"/>
		</g>
	</g>
	<g>
		<g>
			<path d="M492.5,307.8c-12.2-6.6-27.5-6.9-40-0.7c-10.1,5-18.1,14.6-21.1,25.5c-2.2,8-1.7,16.4,0.9,24.2c0.8,2.4,4.7,1.4,3.9-1.1
				c-2.1-6.4-2.8-13.2-1.4-19.9c1.1-5.3,3.4-10.2,6.7-14.5c6.9-9,17.4-14.1,28.7-14.7c7.1-0.3,14.1,1.2,20.3,4.6
				C492.8,312.4,494.8,309,492.5,307.8L492.5,307.8z"/>
		</g>
	</g>
	<g>
		<g>
			<path d="M512.5,351.8c0.8-4.3,1.2-8.7,0.7-13.1c-0.5-4-1.4-7.9-3-11.6c-2.6-6.1-6.7-11.5-12-15.5c-0.9-0.7-2-0.8-2.8,0
				c-0.7,0.7-0.9,2.2,0,2.8c4.8,3.7,8.6,8.4,11,14c3.1,7.1,3.6,14.8,2.2,22.4C508.2,353.2,512.1,354.3,512.5,351.8L512.5,351.8z"/>
		</g>
	</g>
	<g>
		<g>
			<path d="M468.6,382.8c2.2,0.9,4.4,1.3,6.8,1.1c2.3-0.2,4.7-0.7,6.5-2.3c0.8-0.7,0.8-2.1,0-2.8c-0.8-0.8-2-0.7-2.8,0
				c-0.3,0.3,0.3-0.2,0.1-0.1c-0.1,0.1-0.2,0.2-0.4,0.2c-0.1,0.1-0.3,0.2-0.4,0.2l-0.3,0.1c0.1,0,0.5-0.2,0.1,0
				c-0.5,0.2-0.9,0.3-1.4,0.4c-0.2,0-0.3,0.1-0.5,0.1c0,0-0.5,0.1-0.3,0c0.3,0-0.2,0-0.3,0c-0.2,0-0.4,0-0.6,0c-0.7,0-1.3,0.1-2,0
				c-0.1,0-0.3,0-0.4,0s-0.2,0-0.2,0c-0.2,0-0.1,0,0.2,0c-0.2,0-0.5-0.1-0.7-0.1c-0.4-0.1-0.8-0.2-1.1-0.3c-0.1,0-0.3-0.1-0.4-0.1
				c-0.4-0.2,0.5,0.2,0,0c-1-0.4-2.2-0.3-2.7,0.7C467.4,381,467.6,382.4,468.6,382.8L468.6,382.8z"/>
		</g>
	</g>
	<g>
		<g>
			<path d="M473.2,367.5c0.2,0.5,0.3,1.1,0.5,1.6c0.2,0.6,0.4,1.1,0.4,1.7c0-0.2,0-0.4-0.1-0.5c0,0.1,0,0.2,0,0.3
				c0-0.2,0-0.4,0.1-0.5c0,0.1,0,0.1,0,0.2c0.1-0.2,0.1-0.3,0.2-0.5c0,0,0,0.1-0.1,0.1c0.1-0.1,0.2-0.3,0.3-0.4c0,0,0,0.1-0.1,0.1
				c0.1-0.1,0.3-0.2,0.4-0.3c-0.1,0.1-0.2,0.2-0.4,0.2c0.2-0.1,0.3-0.1,0.5-0.2c-0.1,0.1-0.3,0.1-0.4,0.1c0.2,0,0.4,0,0.5-0.1
				c-0.3,0-0.5,0-0.8,0c-0.5,0-1.1,0.2-1.4,0.6c-0.3,0.3-0.6,0.9-0.6,1.4s0.2,1.1,0.6,1.4c0.4,0.4,0.9,0.6,1.4,0.6
				c0.2,0,0.4,0.1,0.6,0c0.6,0,1.2-0.2,1.7-0.5c0.6-0.3,1.1-0.9,1.3-1.7c0.1-0.6,0.1-1.2-0.1-1.7c-0.2-1-0.5-2-0.9-3
				c-0.2-0.5-0.5-0.9-0.9-1.2c-0.4-0.3-1.1-0.4-1.5-0.2c-0.5,0.2-1,0.5-1.2,0.9C473.1,366.4,473,367,473.2,367.5L473.2,367.5z"/>
		</g>
	</g>
	<g>
		<path d="M455.7,359.7c-0.4,1.7,0.2,5.7,3.5,5.8c4.4-0.3,4.3-5.1,2.7-7.2C460.6,356.5,457,356,455.7,359.7z"/>
	</g>
	<g>
		<path d="M491.1,357.4c0.7,1.7,0.6,5.6-2.8,6.2c-4.4,0.3-5-4.5-3.6-6.8C485.8,354.9,489.3,353.9,491.1,357.4z"/>
	</g>
	<g>
		<g>
			<path d="M264,209.7c7.9,19.4,15.8,38.8,23.7,58.2c0.4,1,1.3,1.7,2.5,1.4c0.9-0.3,1.8-1.5,1.4-2.5c-7.9-19.4-15.8-38.8-23.7-58.2
				c-0.4-1-1.3-1.7-2.5-1.4C264.5,207.5,263.6,208.7,264,209.7L264,209.7z"/>
		</g>
	</g>
	<g>
		<g>
			<path d="M193,240.4c8.3,10.1,16.9,20.1,25.4,29.9c2.5,2.9,5,5.7,7.5,8.6c1.7,1.9,4.5-0.9,2.8-2.8c-9.3-10.6-18.5-21.3-27.6-32.1
				c-1.8-2.1-3.6-4.3-5.4-6.5C194.2,235.6,191.4,238.4,193,240.4L193,240.4z"/>
		</g>
	</g>
	<g>
		<g>
			<path d="M458.3,208.6c-7.9,19.4-15.8,38.8-23.7,58.2c-0.4,1,0.4,2.2,1.4,2.5c1.1,0.3,2.1-0.4,2.5-1.4
				c7.9-19.4,15.8-38.8,23.7-58.2c0.4-1-0.4-2.2-1.4-2.5C459.6,206.9,458.7,207.6,458.3,208.6L458.3,208.6z"/>
		</g>
	</g>
	<g>
		<g>
			<path d="M530.3,237.6c-8.3,10.1-16.9,20.1-25.4,29.9c-2.5,2.9-5,5.7-7.5,8.6c-1.7,1.9,1.1,4.8,2.8,2.8
				c9.3-10.6,18.5-21.3,27.6-32.1c1.8-2.1,3.6-4.3,5.4-6.5C534.7,238.4,531.9,235.6,530.3,237.6L530.3,237.6z"/>
		</g>
	</g>
	<g>
		<g>
			<path d="M227.4,350.4c-2-2-5.2-2.7-7.8-1.7c-2.1,0.8-3.5,2.5-4.2,4.6c-1.6,4.5-0.7,10.1,1.8,14.1c1.7,2.9,4.5,5.3,8,5.1
				c2.6-0.1,2.6-4.1,0-4s-4.2-2.2-5.2-4.3c-0.8-1.8-1.3-3.7-1.4-5.7c0-1.2,0.1-2.3,0.4-3.4c0.1-0.4,0.3-0.9,0.5-1.3
				c0.1-0.2,0.2-0.4,0.4-0.6c0.2-0.4-0.3,0.3,0-0.1c0.4-0.4,0.2-0.3,0.6-0.5c0.3-0.2,0.7-0.3,1.2-0.4c1.1-0.1,2.1,0.2,2.9,1
				C226.4,355.1,229.3,352.3,227.4,350.4L227.4,350.4z"/>
		</g>
	</g>
	<g>
		<g>
			<path d="M291.3,358.2c0.9-0.7,2-1,3.1-0.7c0.4,0.1,0.8,0.3,1.2,0.5c-0.2-0.1,0.2,0.2,0.3,0.3c0.1,0.1,0.1,0.1,0.2,0.2
				c-0.1-0.2-0.1-0.2-0.1-0.1c1,1.5,1,3.8,0.7,5.7c-0.3,2.1-1.1,3.8-2.3,5.6c-1.1,1.7-3.1,3.9-5.4,3.4c-1.1-0.2-2.2,0.3-2.5,1.4
				c-0.3,1,0.3,2.2,1.4,2.5c5.8,1.2,9.7-4,11.7-8.7c1-2.3,1.4-5,1.2-7.5c-0.2-2.1-0.8-4.3-2.5-5.7c-2.5-2.1-6.4-2.3-9-0.4
				c-0.9,0.6-1.3,1.7-0.7,2.7C289,358.3,290.4,358.9,291.3,358.2L291.3,358.2z"/>
		</g>
	</g>
	<g>
		<g>
			<path d="M286.8,372.3c-1.3,4.5-3.8,8.5-6.8,12c-3.6,4.2-8.2,8.6-13.9,9.4c-1.1,0.2-1.7,1.5-1.4,2.5c0.3,1.1,1.4,1.6,2.5,1.4
				c6.3-1,11.7-5.8,15.7-10.5c3.5-4,6.3-8.6,7.8-13.7C291.4,370.8,287.6,369.8,286.8,372.3L286.8,372.3z"/>
		</g>
	</g>
	<g>
		<g>
			<path d="M223.1,368.6c2,12.2,10.4,25.3,23.1,28.1c2.5,0.6,3.6-3.3,1.1-3.9c-11.4-2.5-18.5-14.5-20.3-25.3
				c-0.2-1.1-1.5-1.7-2.5-1.4C223.4,366.5,223,367.6,223.1,368.6L223.1,368.6z"/>
		</g>
	</g>
	<g>
		<g>
			<path d="M283.6,310.4c-10.9-8-25.8-10.3-38.6-5.9c-10.5,3.6-19.5,11.7-23.8,22c-3.2,7.6-3.8,15.8-2.3,23.8
				c0.5,2.5,4.3,1.5,3.9-1.1c-2.2-11.7,1.1-23.8,9.6-32.3c8.1-8.1,19.2-11.6,30.6-10.4c6.8,0.7,13.1,3.2,18.6,7.3
				c0.9,0.6,2.2,0.1,2.7-0.7C284.9,312.2,284.5,311.1,283.6,310.4L283.6,310.4z"/>
		</g>
	</g>
	<g>
		<g>
			<path d="M297.5,355.8c2.6-7.8,3.1-16.1,1-24.1c-1.7-6.3-5-12-9.6-16.7c-1.8-1.9-4.6,1-2.8,2.8c4.1,4.2,7,9.3,8.5,14.9
				c0.9,3.4,1.3,6.9,1.2,10.4c-0.1,4-0.9,7.8-2.2,11.6C292.8,357.2,296.7,358.2,297.5,355.8L297.5,355.8z"/>
		</g>
	</g>
	<g>
		<g>
			<path d="M250.7,380.5c1.9,1.2,4.1,1.7,6.3,1.9c2.1,0.2,4.6-0.1,6.4-1.2c0.9-0.6,1.3-1.8,0.7-2.7c-0.6-0.9-1.8-1.3-2.7-0.7
				c-0.2,0.1-0.5,0.2-0.7,0.4c0.1-0.1,0.5-0.2,0.2-0.1c-0.1,0-0.2,0.1-0.2,0.1c-0.2,0.1-0.4,0.1-0.6,0.2c-0.2,0.1-0.5,0.1-0.7,0.1
				c-0.4,0.1,0.3,0,0,0c-0.1,0-0.3,0-0.4,0c-0.7,0-1.3,0-2,0c-0.2,0-0.3,0-0.5,0s-0.4-0.1-0.1,0c-0.3,0-0.6-0.1-0.9-0.2
				c-0.5-0.1-0.9-0.2-1.4-0.4c-0.1,0-0.2-0.1-0.3-0.1c0.1,0,0.4,0.2,0.1,0.1c-0.2-0.1-0.3-0.1-0.5-0.2s-0.5-0.3-0.7-0.4
				c-0.9-0.5-2.2-0.2-2.7,0.7C249.5,378.7,249.8,379.9,250.7,380.5L250.7,380.5z"/>
		</g>
	</g>
	<g>
		<g>
			<path d="M257,366.3c0.1,0.8,0.3,1.5,0.4,2.3c0-0.2,0-0.4-0.1-0.5c0.1,0.4,0.1,0.8,0.1,1.2c0-0.2,0-0.4,0.1-0.5
				c0,0.1,0,0.2-0.1,0.2c0.1-0.2,0.1-0.3,0.2-0.5c0,0,0,0.1-0.1,0.1c0.1-0.1,0.2-0.3,0.3-0.4l-0.1,0.1c0.1-0.1,0.3-0.2,0.4-0.3
				c-0.1,0-0.1,0.1-0.2,0.1c0.2-0.1,0.3-0.1,0.5-0.2c-0.1,0.1-0.3,0.1-0.4,0.1c0.2,0,0.4,0,0.5-0.1c-0.1,0-0.3,0-0.4,0
				c0.2,0,0.4,0,0.5,0.1c-0.2,0-0.4-0.1-0.6-0.1c-0.5-0.1-1.1-0.1-1.5,0.2c-0.4,0.2-0.8,0.7-0.9,1.2c-0.1,0.5-0.1,1.1,0.2,1.5
				c0.3,0.4,0.7,0.8,1.2,0.9c0.4,0.1,0.7,0.2,1.1,0.2c0.4,0,0.9,0,1.3-0.2c0.5-0.2,0.8-0.3,1.2-0.7c0.3-0.3,0.5-0.7,0.6-1.1
				c0.1-0.4,0.1-0.8,0.1-1.2c-0.1-1.2-0.3-2.3-0.5-3.5c-0.1-0.5-0.5-1-0.9-1.2c-0.4-0.3-1.1-0.4-1.5-0.2c-0.5,0.2-1,0.5-1.2,0.9
				C257,365.3,256.9,365.7,257,366.3L257,366.3z"/>
		</g>
	</g>
	<g>
		<path d="M241.1,356.1c-0.7,1.6-0.6,5.5,2.7,6.1c4.3,0.3,4.9-4.4,3.6-6.7C246.3,353.7,242.9,352.7,241.1,356.1z"/>
	</g>
	<g>
		<path d="M275.8,358.6c0.4,1.7-0.2,5.5-3.5,5.6c-4.3-0.3-4.2-5-2.6-7.1C271,355.4,274.5,354.9,275.8,358.6z"/>
	</g>
	<g>
		<g>
			<path d="M275.9,330.6c1,5.8,3.1,11.4,5.6,16.6c1.1,2.3,2.3,4.6,3.7,6.7c1.1,1.6,2.3,3.3,4,4.3c2.2,1.3,4.2-2.2,2-3.5
				c-0.1-0.1-0.3-0.2-0.4-0.3c0.4,0.3-0.1-0.1-0.1-0.1c-0.3-0.3-0.5-0.5-0.8-0.8c-0.6-0.7-1.1-1.3-1.6-2.1c-1.4-2.1-2.5-4.3-3.6-6.5
				c-2.3-4.9-4.1-10.1-5.1-15.4c-0.2-1.1-1.5-1.7-2.5-1.4C276.1,328.5,275.7,329.6,275.9,330.6L275.9,330.6z"/>
		</g>
	</g>
	<g>
		<g>
			<path d="M251.8,333.2c-8.8,5.6-17.4,11.5-26.3,16.9c-2.2,1.3-0.2,4.8,2,3.5c8.9-5.4,17.6-11.3,26.3-16.9
				C256,335.2,254,331.8,251.8,333.2L251.8,333.2z"/>
		</g>
	</g>
	<g>
		<g>
			<path d="M276,328.9c-4.9,5.7-10.9,10.4-17.9,13.1c-1.8,0.7-3.6,1.3-5.4,1.7c-0.3,0.1-0.5,0.1-0.8,0.2c-0.5,0.1-0.5,0.1-0.1,0
				c0.3,0.1,0.7,0.3,1,0.4c0.1,0.1,0.2,0.3,0.3,0.5c0-0.2,0-0.2,0,0.1c0-0.1,0-0.3,0-0.4c0-0.2,0-0.5,0-0.6c0.3-2.6,1.3-5.4,1.9-8
				c0.5-2.5-3.4-3.6-3.9-1.1s-1.3,4.9-1.8,7.4c-0.4,2.1-0.7,5.7,2.4,5.7c1.5,0,3.1-0.6,4.5-1.1c1.7-0.5,3.4-1.2,5-1.9
				c3.1-1.4,6-3.1,8.8-5.1c3.3-2.4,6.2-5.2,8.8-8.2C280.5,329.8,277.7,326.9,276,328.9L276,328.9z"/>
		</g>
	</g>
	<g>
		<g>
			<path d="M494,340c0.4,0.2-0.1-0.1-0.1-0.1c0.1,0.1,0.2,0.1,0.2,0.2c0.1,0.1,0.1,0.2,0.2,0.2c0.4,0.4-0.1-0.2,0,0
				c0.4,0.6,0.8,1.1,1.1,1.7c0.9,1.5,1.6,3,2.4,4.6c0.8,1.6,1.6,3.2,2.4,4.7c0.6,1.2,1.3,2.4,2.3,3.4c1.4,1.3,3.6,1.3,4.5-0.5
				c0.5-1,0.3-2.2-0.7-2.7c-0.9-0.5-2.2-0.3-2.7,0.7c0,0.1-0.1,0.2-0.1,0.2c0.5-0.5,0.3-0.4,0.2-0.3c-0.2,0.2,0.3-0.2,0.3-0.2
				c-0.2,0.2,0.4-0.1,0.5-0.1c0.6-0.1-0.2,0,0.4,0c0.4,0,0.2,0,0.1,0c-0.2,0,0.6,0.3,0.3,0.1c-0.3-0.2,0.3,0.3,0.2,0.1
				c-0.1-0.2-0.3-0.3-0.5-0.5c-0.3-0.3,0.2,0.3,0,0.1c-0.1-0.1-0.2-0.2-0.2-0.3c-0.2-0.3-0.4-0.5-0.5-0.8c-0.4-0.6-0.7-1.3-1.1-1.9
				c-1.5-2.9-2.8-5.9-4.5-8.7c-0.7-1.2-1.5-2.6-2.8-3.3C493.8,335.2,491.8,338.7,494,340L494,340z"/>
		</g>
	</g>
	<g>
		<g>
			<path d="M330.7,344.1c-2.3-2-5.5-2.5-8.2-1.3c-2,0.9-3.2,2.7-3.8,4.7c-1.4,4.7-0.1,10.3,2.6,14.3c1.9,2.8,4.8,5.2,8.4,4.8
				c1.1-0.1,2-0.8,2-2c0-1-0.9-2.1-2-2c-4.5,0.5-7.2-5.9-7.5-9.6c-0.2-1.9-0.1-4.3,1.1-5.9c-0.3,0.4,0.5-0.4,0.4-0.3
				c0.4-0.3,0.7-0.4,1.2-0.5c1.1-0.2,2.2-0.1,3.1,0.7C329.8,348.6,332.6,345.8,330.7,344.1L330.7,344.1z"/>
		</g>
	</g>
	<g>
		<g>
			<path d="M396.4,347.5c0.8-0.7,1.9-0.8,2.9-0.6c0.9,0.2,1.4,0.5,1.9,1.1c-0.2-0.2,0-0.1,0,0.1c0.1,0.2,0.2,0.4,0.3,0.6
				c0.2,0.4,0.3,0.9,0.4,1.3c0.2,1.1,0.2,2.3,0.1,3.5c-0.2,2-0.9,4-1.8,5.7c-1,1.8-2.9,4.5-5.3,4.1c-1.1-0.1-2.1,0.3-2.5,1.4
				c-0.3,0.9,0.3,2.3,1.4,2.5c6.1,0.8,9.9-4.8,11.5-9.9c1.4-4.2,1.3-10.6-2.7-13.3c-2.8-1.8-6.6-1.3-9,0.8c-0.8,0.7-0.7,2.1,0,2.8
				C394.4,348.3,395.6,348.2,396.4,347.5L396.4,347.5z"/>
		</g>
	</g>
	<g>
		<g>
			<path d="M392.6,362.3c-0.4,1.7-1,3.5-1.7,5.1c-0.1,0.2-0.8,1.7-0.5,1c-0.1,0.3-0.3,0.6-0.5,1c-1,2-2.3,4-3.7,5.8
				c-3.3,4.4-7.8,9.1-13.4,10.3c-2.5,0.5-1.4,4.4,1.1,3.9c6.5-1.4,11.5-6.6,15.4-11.7c1.5-2,2.9-4.1,4-6.3c0.2-0.4,0.4-0.7,0.5-1.1
				c0,0,0.4-0.9,0.2-0.4c0.2-0.4,0.3-0.8,0.5-1.2c0.7-1.7,1.4-3.5,1.8-5.4C397,360.8,393.2,359.7,392.6,362.3L392.6,362.3z"/>
		</g>
	</g>
	<g>
		<g>
			<path d="M327.4,362.7c2.8,12.2,12.1,25.2,25.2,27.2c1.1,0.2,2.2-0.3,2.5-1.4c0.3-0.9-0.3-2.3-1.4-2.5
				c-11.8-1.8-19.9-13.4-22.4-24.4C330.7,359.1,326.9,360.1,327.4,362.7L327.4,362.7z"/>
		</g>
	</g>
	<g>
		<g>
			<path d="M385.4,299.7c-11.7-7.5-27.1-8.9-39.9-3.5c-10.5,4.4-19,13.2-22.7,23.9c-2.7,7.8-2.8,16.2-0.8,24.2
				c0.6,2.5,4.5,1.4,3.9-1.1c-3-11.8-0.5-24.5,7.7-33.6c3.2-3.6,7.1-6.6,11.4-8.8c5.9-2.9,12.5-4.1,19-3.8c7,0.3,13.6,2.4,19.5,6.1
				C385.5,304.6,387.5,301.1,385.4,299.7L385.4,299.7z"/>
		</g>
	</g>
	<g>
		<g>
			<path d="M402.2,345c2.1-8.2,2.2-16.6-0.5-24.7c-2.1-6.3-5.9-12-10.9-16.5c-1.9-1.7-4.7,1.1-2.8,2.8c4.5,4,7.9,9,9.9,14.7
				c2.5,7.4,2.5,15.1,0.5,22.6C397.7,346.4,401.6,347.5,402.2,345L402.2,345z"/>
		</g>
	</g>
	<g>
		<g>
			<path d="M356.2,373c2,1.1,4.2,1.5,6.5,1.5c2.1,0,4.7-0.3,6.4-1.6c0.8-0.6,1.3-1.8,0.7-2.7c-0.5-0.8-1.8-1.4-2.7-0.7
				c-0.2,0.2-0.4,0.3-0.7,0.4c-0.1,0-0.1,0.1-0.2,0.1c-0.3,0.2,0.1,0,0.2-0.1c0,0.1-0.5,0.2-0.6,0.2c-0.5,0.1-1,0.2-1.4,0.3
				c0.5-0.1-0.1,0-0.1,0c-0.1,0-0.3,0-0.4,0c-0.4,0-0.7,0-1.1,0c-0.3,0-0.7,0-1,0c-0.2,0-0.4,0-0.5,0c-0.4,0,0.2,0,0,0
				c-0.5-0.1-1-0.2-1.5-0.3c-0.2-0.1-0.4-0.1-0.6-0.2c-0.1,0-0.2-0.1-0.2-0.1c-0.4-0.1,0.5,0.2,0.1,0.1c-0.2-0.1-0.5-0.2-0.7-0.4
				c-0.9-0.5-2.2-0.3-2.7,0.7C355,371.2,355.2,372.5,356.2,373L356.2,373z"/>
		</g>
	</g>
	<g>
		<g>
			<path d="M361.8,358.1c0.3,1,0.5,2.1,0.7,3.2c0-0.2,0-0.4-0.1-0.5c0,0.1,0,0.3,0,0.4c0-0.2,0-0.4,0.1-0.5c0,0.1,0,0.1-0.1,0.2
				c0.1-0.2,0.1-0.3,0.2-0.5c0,0,0,0.1-0.1,0.1c0.1-0.1,0.2-0.3,0.3-0.4c0,0,0,0-0.1,0.1c0.1-0.1,0.3-0.2,0.4-0.3
				c-0.1,0.1-0.2,0.1-0.3,0.2c0.2-0.1,0.3-0.1,0.5-0.2c-0.1,0.1-0.3,0.1-0.4,0.1c0.2,0,0.4,0,0.5-0.1c-0.1,0-0.3,0-0.4,0
				c0.2,0,0.4,0,0.5,0.1c-0.1,0-0.3-0.1-0.4-0.1c-0.3-0.1-0.5-0.1-0.8,0c-0.3,0-0.5,0.1-0.7,0.2c-0.4,0.2-0.8,0.7-0.9,1.2
				s-0.1,1.1,0.2,1.5c0.3,0.4,0.7,0.8,1.2,0.9c0.4,0.1,0.7,0.1,1.1,0.2c0.6,0,1.2-0.2,1.7-0.4c0.7-0.3,1.2-0.9,1.4-1.6
				c0.2-0.6,0.1-1.2,0-1.8c-0.2-1-0.4-2-0.7-3.1c-0.1-0.5-0.5-0.9-0.9-1.2c-0.4-0.3-1.1-0.4-1.5-0.2
				C362.1,356,361.5,357,361.8,358.1L361.8,358.1z"/>
		</g>
	</g>
	<g>
		<path d="M344.9,348.9c-0.6,1.7-0.2,5.7,3.1,6c4.4,0,4.7-4.8,3.2-7C350.1,346,346.5,345.3,344.9,348.9z"/>
	</g>
	<g>
		<path d="M380.4,349.2c0.5,1.7,0.1,5.7-3.2,6c-4.4-0.1-4.6-4.8-3.1-7.1C375.3,346.3,378.9,345.5,380.4,349.2z"/>
	</g>
	<g>
		<g>
			<path d="M373.5,328c3.2,1.4,5.9,3.5,8.4,6c2.4,2.5,4.8,5.5,6,8.5c0.4,1,1.3,1.7,2.5,1.4c0.9-0.3,1.8-1.5,1.4-2.5
				c-1.6-3.8-4-7.2-6.9-10.1c-2.7-2.8-5.8-5.3-9.4-6.8c-1-0.4-2.1-0.3-2.7,0.7C372.3,326.1,372.5,327.6,373.5,328L373.5,328z"/>
		</g>
	</g>
	<g>
		<g>
			<path d="M336,342.7c2.6-2.8,5.4-5.4,8.4-7.8c1.4-1.2,2.9-2.3,4.4-3.3c0.6-0.4,1.3-0.8,2-1.2c0.2-0.1,0.4-0.2,0.5-0.3
				c-0.5,0.1-0.8,0-1.1-0.3c-0.1,0.1,0.1,1.2,0.1,1.4c-0.1,2,1.2,3.8,3.4,3.7c1.6-0.1,3.3-1.5,4.7-2.2c3.4-1.9,6.7-3.8,10.3-5.3
				c1-0.4,1.7-1.3,1.4-2.5c-0.3-0.9-1.5-1.8-2.5-1.4c-3.8,1.5-7.4,3.5-10.9,5.5c-0.8,0.4-1.6,0.9-2.4,1.3c-0.2,0.1-0.6,0.3-0.8,0.4
				c-0.5,0.2-0.3,0.3,0.4,0.2c0.3,0.6,0.4,0.7,0.4,0.2c0.3-0.9-0.2-2.5-0.5-3.2c-0.4-0.9-1.2-1.5-2.2-1.7c-1.7-0.4-3.7,1.2-5,2.1
				c-1.6,1.1-3.1,2.3-4.6,3.5c-3.1,2.5-5.9,5.2-8.7,8.1C331.4,341.7,334.2,344.6,336,342.7L336,342.7z"/>
		</g>
	</g>
	<g>
		<g>
			<path d="M442.9,360.5c0.5-3.5,1.9-7,3.4-10.2c0.9-2,2-3.9,3.3-5.7c1-1.4,2.3-2.7,3.6-3.4c2.3-1.2,0.2-4.7-2-3.5
				c-3.9,2.1-6.4,6.4-8.2,10.3c-1.7,3.6-3.3,7.5-3.9,11.4c-0.2,1.1,0.3,2.2,1.4,2.5C441.4,362.2,442.8,361.6,442.9,360.5
				L442.9,360.5z"/>
		</g>
	</g>
	<g>
		<g>
			<path d="M174.1,507.4c6.2-8.3,12.5-16.7,17.4-25.8c1.6-3,2.7-6.1,3.6-9.3c1.3-4.7,2.4-9.5,3.5-14.3c1.6-6.9,3.1-13.9,4.5-20.9
				c0.5-2.5-3.3-3.6-3.9-1.1c-2.3,11.2-4.6,22.4-7.5,33.5c-0.8,3.1-1.7,6.1-3.1,8.9c-2.2,4.2-4.8,8.2-7.4,12.1
				c-3.4,5-6.9,9.9-10.6,14.7c-0.6,0.9-0.1,2.2,0.7,2.7C172.4,508.7,173.5,508.3,174.1,507.4L174.1,507.4z"/>
		</g>
	</g>
	<g>
		<g>
			<path d="M527.7,448.9c2.6,15.7,6.2,31.3,9.6,46.8c1.2,5.2,2.3,10.4,3.5,15.6c0.6,2.5,4.4,1.4,3.9-1.1c-3.9-17.3-7.8-34.6-11.2-52
				c-0.7-3.5-1.3-7-1.9-10.5c-0.2-1.1-1.5-1.7-2.5-1.4C528,446.8,527.6,447.8,527.7,448.9L527.7,448.9z"/>
		</g>
	</g>
	<g>
		<g>
			<path d="M433.2,460.7c3.6,16.8,6.7,33.8,9.8,50.7c0.5,2.5,4.3,1.5,3.9-1.1c-3.1-16.9-6.3-33.9-9.8-50.7
				C436.5,457.1,432.6,458.2,433.2,460.7L433.2,460.7z"/>
		</g>
	</g>
	<g>
		<g>
			<path d="M405.4,437.1c0.2,10.1,0.8,20.2,1.3,30.3c0.4,9.3,0.7,18.5,1.1,27.8c0.2,5.2,0.5,10.4,0.7,15.6c0.1,2.6,4.1,2.6,4,0
				c-0.8-19-1.5-38-2.4-57c-0.3-5.6-0.5-11.2-0.6-16.8C409.3,434.5,405.3,434.5,405.4,437.1L405.4,437.1z"/>
		</g>
	</g>
	<g>
		<g>
			<path d="M313.7,510.9c0.8-17.9,1.4-35.9,2.3-53.8c0.3-5.7,0.5-11.4,0.6-17c0-2.6-4-2.6-4,0c-0.2,10.2-0.8,20.4-1.3,30.5
				c-0.4,8.8-0.6,17.6-1,26.3c-0.2,4.7-0.4,9.3-0.6,14C309.6,513.4,313.6,513.4,313.7,510.9L313.7,510.9z"/>
		</g>
	</g>
	<g>
		<g>
			<path d="M352,463.3c-8-13.8-15.9-27.7-23.2-41.9c-0.5-0.9-0.9-1.9-1.5-2.8c0,0-0.2-0.6-0.2-0.3c0,0-0.2,0.5,0.1-0.1
				c0.3-0.4,0.8-0.8,1.1-1.2c1.7-1.7,3.4-3.4,5.1-5c0.9-0.9,0.7-2.5-0.4-3.1c-1-0.6-2.1-1.2-3.1-1.8c-0.5-0.3-1-0.6-1.5-0.8
				c-0.3-0.2-0.6-0.3-0.8-0.5c-0.5-0.3-0.5-0.3-0.2,0c0.1,0.3,0.2,0.7,0.3,1c0,0.3,0.2-0.3,0.3-0.4c0.2-0.3,0.3-0.6,0.5-0.8
				c0.4-0.6,0.8-1.2,1.2-1.7c0.9-1.2,1.9-2.3,2.9-3.4c2-2.1,4.1-4,6.6-5.6c-1-0.4-2-0.8-2.9-1.2c2.3,10.2,5.6,20.3,8.9,30.2
				c3,9,5.9,18.1,9,27c1.6,4.6,3.4,9.1,5.2,13.6c0.4,1,1.3,1.7,2.5,1.4c0.9-0.3,1.8-1.5,1.4-2.5c-3.2-7.8-5.9-15.7-8.5-23.7
				c-3.3-10-6.8-20-9.9-30.1c-1.7-5.6-3.3-11.3-4.6-17c-0.3-1.2-1.9-1.9-2.9-1.2c-4,2.6-7.6,6.1-10.5,9.9c-1.2,1.5-3.5,4.2-2.7,6.3
				c0.5,1.3,1.9,1.8,3,2.4c1.4,0.8,2.8,1.6,4.1,2.4c-0.1-1-0.3-2.1-0.4-3.1c-1.6,1.5-3.2,3.1-4.8,4.7c-1.3,1.4-3.1,2.8-2.7,5
				c0.3,1.9,1.7,3.8,2.6,5.5c1,1.9,2,3.8,3,5.7c4.1,7.7,8.3,15.3,12.6,22.8c2.4,4.2,4.8,8.4,7.2,12.5
				C349.8,467.6,353.3,465.6,352,463.3L352,463.3z"/>
		</g>
	</g>
	<g>
		<g>
			<path d="M364.6,464.5c3.2-8.2,6.4-16.3,9.2-24.7c3.2-9.8,6.7-19.6,9.8-29.5c1.7-5.5,3.3-11.1,4.6-16.8c-1,0.4-2,0.8-2.9,1.2
				c2.5,1.5,4.7,3.5,6.8,5.6c1.1,1.1,2.2,2.3,3.1,3.5c0.4,0.5,0.8,1,1.1,1.6c0.2,0.3,0.3,0.5,0.5,0.8c0.1,0.1,0.5,0.9,0.4,0.7
				c0.1-0.3,0.2-0.7,0.3-1c0.3-0.3,0.3-0.3-0.2,0c-0.3,0.2-0.6,0.3-0.8,0.5c-0.5,0.3-1,0.5-1.5,0.8c-1,0.6-2.1,1.2-3.1,1.8
				c-1.1,0.6-1.3,2.3-0.4,3.1c1.6,1.5,3.1,2.9,4.6,4.5c0.5,0.5,1.7,1.4,1.8,1.9c-0.1-0.4-0.4,0.6-0.5,0.8c-0.2,0.4-0.5,0.9-0.7,1.3
				c-1.8,3.5-3.7,7-5.7,10.5c-4,7.2-8.2,14.4-12.4,21.5c-2.4,4-4.7,8-7.1,11.9c-1.3,2.2,2.1,4.2,3.5,2c9-14.9,18-29.9,26-45.4
				c0.5-1.1,1.1-2.1,0.9-3.3c-0.2-1.1-0.9-1.9-1.7-2.8c-1.9-2-3.8-3.8-5.8-5.7c-0.1,1-0.3,2.1-0.4,3.1c1.4-0.8,2.8-1.6,4.1-2.4
				c1.1-0.7,2.7-1.2,3.1-2.7c0.6-2.1-2-4.9-3.2-6.4c-2.9-3.8-6.6-7.2-10.7-9.7c-1.1-0.6-2.7-0.1-2.9,1.2
				c-2.3,10.1-5.5,19.9-8.8,29.7c-3.1,9.1-6,18.4-9.3,27.4c-1.7,4.6-3.6,9.2-5.4,13.8c-0.4,1,0.4,2.2,1.4,2.5
				C363.3,466.2,364.3,465.5,364.6,464.5L364.6,464.5z"/>
		</g>
	</g>
	<g>
		<g>
			<path d="M361.6,396.5c-5.4-3.6-10.7-7.4-16.1-11c-0.7-0.4-1.9-0.3-2.4,0.3c-1.8,2.1-3.4,4.5-5.2,6.6c-0.6,0.7-0.8,1.6-0.3,2.4
				c4,6.2,7.6,12.6,13.2,17.6c0.9,0.8,2.5,0.8,3.1-0.4c2.5-4.4,5.7-8.5,8.4-12.8c1.4-2.2-2.1-4.2-3.5-2c-2.7,4.3-5.9,8.4-8.4,12.8
				c1-0.1,2.1-0.3,3.1-0.4c-5.3-4.7-8.7-10.9-12.5-16.8c-0.1,0.8-0.2,1.6-0.3,2.4c1.8-2.1,3.4-4.4,5.2-6.6c-0.8,0.1-1.6,0.2-2.4,0.3
				c5.4,3.6,10.7,7.3,16.1,11C361.8,401.4,363.8,398,361.6,396.5z"/>
		</g>
	</g>
	<g>
		<g>
			<path d="M367.3,410.7c-3.4,0-6.7-0.1-10.1-0.1c-1,0-2,0.9-2,2s0.9,2,2,2c3.4,0,6.7,0.1,10.1,0.1c1,0,2-0.9,2-2
				C369.2,411.7,368.4,410.7,367.3,410.7L367.3,410.7z"/>
		</g>
	</g>
	<g>
		<g>
			<path d="M367.4,406.5c-0.4,1.9-0.7,3.7-1.2,5.6c-0.2,1-0.5,2.1-0.4,3.1c0.1,1.8,0.4,3.6,0.7,5.4c0.9,7,1.8,14.1,2.6,21.1
				c0.1,1.1,0.8,2,2,2c1,0,2.1-0.9,2-2c-0.8-6.9-1.7-13.9-2.5-20.8c-0.2-1.9-0.5-3.7-0.7-5.6c-0.1-0.8,0-1.5,0.2-2.3
				c0.4-1.9,0.8-3.7,1.2-5.6C371.7,405.1,367.8,404,367.4,406.5L367.4,406.5z"/>
		</g>
	</g>
	<g>
		<g>
			<path d="M355.1,442.2c1-6.9,2-13.9,2.9-20.8c0.3-1.9,0.5-3.8,0.7-5.6c0.3-2.7-1-5.5-1.6-8.1c-0.6-2.5-4.5-1.4-3.9,1.1
				c0.5,2.3,1.8,4.7,1.5,7c-0.2,1.8-0.4,3.4-0.7,5.2c-0.9,6.7-1.9,13.5-2.9,20.2c-0.2,1.1,0.3,2.1,1.4,2.5
				C353.6,443.9,355,443.3,355.1,442.2L355.1,442.2z"/>
		</g>
	</g>
	<g>
		<g>
			<path d="M364.4,400.1c5.4-3.6,10.7-7.4,16.1-11c-0.8-0.1-1.6-0.2-2.4-0.3c1.8,2.1,3.4,4.5,5.2,6.6c-0.1-0.8-0.2-1.6-0.3-2.4
				c-3.8,5.9-7.2,12.1-12.5,16.8c1,0.1,2.1,0.3,3.1,0.4c-2.5-4.4-5.7-8.5-8.4-12.8c-1.4-2.2-4.8-0.2-3.5,2c2.7,4.3,5.9,8.4,8.4,12.8
				c0.7,1.2,2.2,1.2,3.1,0.4c5.5-5,9.2-11.4,13.2-17.6c0.5-0.8,0.2-1.8-0.3-2.4c-1.8-2.1-3.4-4.4-5.2-6.6c-0.5-0.6-1.7-0.8-2.4-0.3
				c-5.4,3.6-10.7,7.3-16.1,11C360.3,398.1,362.3,401.5,364.4,400.1z"/>
		</g>
	</g>
	<g>
		<path d="M359.2,475.6c-1.9,1.6-1.1,3.9-0.4,4.7c1.2,1.4,3.7,1.6,4.9,0.5c1.7-1.5,1.3-3.5,0.2-4.9
			C362.8,474.8,360.5,474.5,359.2,475.6z"/>
	</g>
	<g>
		<g>
			<path d="M477.7,404.1c-5.7-3-11.4-6.3-17.1-9.2c-1-0.5-2.1-0.2-2.7,0.7c-1.6,2.3-2.9,4.8-4.5,7.1c-0.5,0.8-0.2,1.8,0.3,2.4
				c4.6,5.8,8.9,11.7,15,16.1c0.8,0.6,2.3,0.2,2.7-0.7c2.1-4.7,4.8-9,7.1-13.6c1.1-2.3-2.3-4.3-3.5-2c-2.3,4.6-5,8.9-7.1,13.6
				c0.9-0.2,1.8-0.5,2.7-0.7c-5.7-4.1-9.8-10-14.1-15.5c0.1,0.8,0.2,1.6,0.3,2.4c1.6-2.3,2.9-4.8,4.5-7.1c-0.9,0.2-1.8,0.5-2.7,0.7
				c5.8,3,11.4,6.2,17.1,9.2C478,408.7,480,405.3,477.7,404.1z"/>
		</g>
	</g>
	<g>
		<g>
			<path d="M484.8,417.5c-3.3,0.3-6.7,0.6-10,1c-1,0.1-2.1,0.8-2,2c0,1,0.9,2.1,2,2c3.3-0.3,6.7-0.6,10-1c1-0.1,2.1-0.8,2-2
				C486.8,418.5,486,417.4,484.8,417.5L484.8,417.5z"/>
		</g>
	</g>
	<g>
		<g>
			<path d="M470.5,416.8c0.8,2.2,2.3,4.6,2.3,6.8c0,1.2-0.1,2.5-0.2,3.7c-0.3,4.8-0.5,9.5-0.8,14.3c-0.3,5.9-0.6,11.8-1,17.7
				c-0.1,2.6-0.3,5.3-0.4,7.9c-0.1,1.1-0.1,2.3-0.2,3.4c0,1.1-0.3,2.5,0.2,3.5c0.8,1.7,2.2,3.2,3.4,4.7c1.2,1.6,2.5,3.2,3.8,4.7
				c1.4,1.6,2.7,3.2,4.1,4.8c0.6,0.7,1.2,1.4,1.9,2.1c0.6,0.7,1.2,1.6,2.1,2.1s2.1,0.5,3,0c1-0.6,1.5-1.8,2-2.8
				c1.2-2.1,2.4-4.2,3.5-6.4c1.1-1.9,2.1-3.9,3.1-5.9c0.9-1.8,2-3.6,2.7-5.5c0.4-1.2-0.1-2.4-0.4-3.6c-0.2-1-0.5-2-0.7-3.1
				c-0.6-2.4-1.2-4.7-1.8-7.1c-1.4-5.6-2.9-11.1-4.4-16.7c-1.3-4.9-2.6-9.7-3.9-14.6c-0.4-1.5-0.8-2.9-1.2-4.4
				c-0.3-1.2-0.4-1.7-0.2-2.9c0.2-2,0.5-4,0.6-5.9c0.2-2.6-3.8-2.6-4,0c-0.1,2-0.4,3.9-0.6,5.9c-0.1,0.9-0.2,1.9,0,2.8
				s0.5,1.8,0.7,2.7c1.1,4,2.1,8,3.2,12.1c2.7,10.2,5.5,20.5,8,30.8c0.2,1,0.4,2,0.7,3c0,0.1,0.1,0.2,0.1,0.3
				c-0.1-0.4,0.1-0.4-0.2,0c-0.3,0.4-0.5,1-0.7,1.4c-0.5,1.1-1.1,2.2-1.6,3.2c-1.1,2.2-2.3,4.4-3.5,6.5c-0.6,1.1-1.2,2.3-1.9,3.4
				c-0.3,0.6-0.6,1.1-1,1.7c-0.1,0.2-0.2,0.4-0.4,0.6c-0.1,0.2-0.2,0.4-0.4,0.6c-0.3,0.4-0.1,0.4,0.5,0.1c0.3,0.2,0.6,0.3,0.9,0.5
				c-1.4-1.1-2.5-2.7-3.6-4c-1.3-1.5-2.6-3-3.9-4.5s-2.5-3-3.7-4.6c-1-1.3-2.3-2.7-3-4.2c0.1,0.3,0.2,0.7,0.3,1
				c-0.2-1.6,0.1-3.3,0.2-4.9c0.1-2,0.2-3.9,0.3-5.9c0.2-4.5,0.5-9.1,0.7-13.6c0.4-7.6,0.9-15.3,1.3-22.9c0-0.9,0.1-1.7,0.1-2.6
				c0-2.6-1.6-5.1-2.4-7.5C473.5,413.3,469.6,414.4,470.5,416.8L470.5,416.8z"/>
		</g>
	</g>
	<g>
		<g>
			<path d="M480.9,407c5-4.2,9.8-8.5,14.9-12.6c-0.9,0-1.9,0-2.8,0c2,2,3.8,4.1,5.8,6c-0.1-0.8-0.2-1.6-0.3-2.4
				c-3.2,6.2-5.9,12.8-10.7,18c1,0.1,2.1,0.3,3.1,0.4c-3.1-4.3-6.7-8.1-10-12.3c-0.7-0.8-2.1-0.7-2.8,0c-0.8,0.8-0.7,2,0,2.8
				c3.1,3.9,6.5,7.5,9.4,11.5c0.7,1,2.2,1.4,3.1,0.4c5-5.5,8-12.3,11.3-18.8c0.4-0.8,0.4-1.8-0.3-2.4c-2-1.9-3.8-4.1-5.8-6
				c-0.8-0.8-2-0.7-2.8,0c-5,4.1-9.9,8.4-14.9,12.6C476.1,405.9,479,408.7,480.9,407z"/>
		</g>
	</g>
	<g>
		<path d="M239.4,475.8c-2,1.3-1.6,3.6-1,4.5c0.9,1.5,3.4,2,4.7,1.1c1.8-1.2,1.7-3.3,0.8-4.7C243,475.5,240.8,474.9,239.4,475.8z"/>
	</g>
	<g>
		<g>
			<path d="M246.1,463c8.2-14.3,15.7-29,22.5-44c2.1-4.7,4.2-9.5,6-14.3c-1.1,0.3-2.2,0.6-3.3,0.9c2.1,1.7,4,3.7,5.7,5.8
				c0.8,1.1,1.6,2.2,2.3,3.3c0.4,0.7,1.6,2.2,1.5,3.1c0.2-0.5,0.4-0.9,0.6-1.4c-0.2,0.3-0.9,0.4-1.2,0.6c-0.6,0.3-1.2,0.5-1.7,0.8
				c-1.1,0.5-2.1,1.1-3.2,1.6c-1.2,0.5-1.3,2.3-0.4,3.1c0.9,0.8,1.7,1.6,2.6,2.4c0.4,0.4,0.8,0.8,1.2,1.2c0.3,0.3,0.7,1.1,1.1,1.3
				c0.1,0.1,0.2,0.2,0.2,0.3c0.2-0.4,0.2-0.4,0-0.1c-0.4,0.4-0.7,0.9-1,1.4c-0.7,0.9-1.4,1.8-2,2.8c-2.7,3.6-5.4,7.1-8.2,10.6
				c-5.8,7.3-11.7,14.4-17.6,21.5c-1.6,2,1.2,4.8,2.8,2.8c5.1-6.1,10.1-12.1,15-18.3c4.9-6.1,9.8-12.2,14.3-18.7
				c2.7-3.9-3.2-7.7-5.6-10.1c-0.1,1-0.3,2.1-0.4,3.1c1.1-0.5,2.3-1.1,3.4-1.7c1.1-0.5,2.6-0.9,3.4-1.8c1.7-1.7-0.2-4.6-1.2-6.3
				c-2.3-3.8-5.3-7.5-8.8-10.2c-1.2-1-2.8-0.6-3.3,0.9c-3.2,8.4-7,16.5-10.9,24.5c-3.6,7.4-7.2,14.8-11.1,22c-2,3.6-4,7.2-6.1,10.8
				C241.3,463.3,244.8,465.3,246.1,463L246.1,463z"/>
		</g>
	</g>
	<g>
		<g>
			<path d="M246,462c-1.9-7.4-3.9-14.8-5.4-22.3c-1.8-8.8-3.7-17.6-5.4-26.4c-0.9-4.9-1.7-9.9-2.2-14.9c-0.1-1.1-1.2-2.5-2.5-1.9
				c-4.2,1.8-8.2,4.5-11.5,7.6c-1.4,1.3-4.1,3.6-3,5.8c0.5,1,1.7,1.7,2.6,2.5c1.1,0.9,2.1,1.9,3.2,2.8c0.1-1,0.3-2.1,0.4-3.1
				c-1.6,0.9-3.2,1.6-4.7,2.5c-1.6,0.9-3.6,2.1-3.6,4.2c0,1.7,1.1,3.5,1.7,5.1c0.7,1.8,1.4,3.5,2.1,5.3c3,7.5,6.3,14.8,9.5,22.2
				c1.8,4.1,3.7,8.2,5.6,12.3c0.4,1,1.9,1.2,2.7,0.7c1-0.6,1.2-1.8,0.7-2.7c-3.9-8.5-7.7-17-11.4-25.6c-1.8-4.2-3.5-8.4-5.2-12.6
				c-0.4-1.1-0.8-2.1-1.2-3.2c-0.1-0.4-0.2-0.9-0.4-1.2c-0.1-0.4-0.1-0.4-0.1,0.1c0.2-0.2,0.4-0.3,0.7-0.5c1.8-1.2,3.8-2.1,5.8-3.2
				c1.1-0.6,1.4-2.3,0.4-3.1c-0.9-0.8-1.8-1.6-2.7-2.4c-0.4-0.4-0.9-0.8-1.3-1.1c-0.3-0.3-1-0.6-1.2-1c0.1,0.5,0.1,1,0.2,1.5
				c0.1-0.8,1.5-1.8,2-2.3c1-1,2.1-1.9,3.2-2.7c2.1-1.5,4.3-3,6.7-4c-0.8-0.6-1.7-1.3-2.5-1.9c0.9,9.1,2.7,18.1,4.5,27
				c1.7,8.3,3.3,16.6,5.3,24.9c1,4.3,2.2,8.5,3.3,12.8C242.8,465.5,246.7,464.5,246,462L246,462z"/>
		</g>
	</g>
	<g>
		<g>
			<path d="M453.2,341.2c2.6-1.2,5.9-0.8,8.7-0.6c2.9,0.2,5.9,0.6,8.8,0.4c5.7-0.4,11.2-1.6,16.9-2c1.3-0.1,2.7-0.1,4,0
				c0.2,0,0.9,0.2,1.3,0.3s0.1,0,0.3,0.1c0.1,0.1,0.6,0.4,0.3,0.2c0.8,0.7,2,0.8,2.8,0c0.7-0.7,0.8-2.1,0-2.8
				c-1.9-1.5-4.2-1.8-6.5-1.9c-3,0-6.1,0.4-9.1,0.8c-3,0.4-6,0.9-9,1.2c-3.1,0.3-6.1,0-9.1-0.3c-3.8-0.3-7.9-0.6-11.5,1.1
				C448.9,338.8,450.9,342.3,453.2,341.2L453.2,341.2z"/>
		</g>
	</g>
	<g>
		<g>
			<path d="M265.3,416.4c-10.4,3.7-21.5,1-30.9-4.3c-2.2-1.3-4.3,2.2-2,3.5c10.2,5.7,22.5,8.7,34,4.7
				C268.8,419.4,267.7,415.5,265.3,416.4L265.3,416.4z"/>
		</g>
	</g>
</g>
</svg>
