<?xml version="1.0" encoding="utf-8"?>
<!-- Generator: Adobe Illustrator 26.3.1, SVG Export Plug-In . SVG Version: 6.00 Build 0)  -->
<svg version="1.1" id="layer" xmlns="http://www.w3.org/2000/svg" xmlns:xlink="http://www.w3.org/1999/xlink" x="0px" y="0px"
	 viewBox="0 0 720 720" style="enable-background:new 0 0 720 720;" xml:space="preserve">
<style type="text/css">
	.st0{fill:#FFFFFF;}
	.st1{fill:#B38967;}
	.st2{fill:#FEDC5E;}
	.st3{fill:#F6AE54;}
</style>
<circle class="st0" cx="360" cy="360" r="360"/>
<g id="group">
	<g>
		<path class="st0" d="M323.3,388.5c-10.3-1.5-19.7-8-27.5-17.4c-5.9-7-9.1-14.9-10.9-21.7c-0.4,0.1-0.6,0.2-0.6,0.2
			c-3.3,0.8-5.9-0.8-7.7-2.3c-2.4-1.9-4.1-4.5-5.4-7.1c-2.7-5.4-3.9-11.5-3.4-17.4c0.1-1.5,0.4-3.1,1.1-4.4c1.1-1.9,3.2-3.4,5.6-3.7
			c2.4-0.4,4.9,0.4,6.6,1.9c0,0,4.3-43,54.4-43s56,43,56,43c1.7-1.5,4.2-2.3,6.6-1.9c2.4,0.4,4.5,1.8,5.6,3.7c0.8,1.4,1,2.9,1.1,4.4
			c0.5,6-0.7,12-3.4,17.4c-1.3,2.6-3,5.2-5.4,7.1c-1.8,1.4-4.9,1.4-7.3,1.8c-0.6,2.5-1.3,4.6-1.7,5.6c-2.1,5.8-15.3,28.2-31,31.7
			L323.3,388.5z"/>
	</g>
	<g>
		<path class="st1" d="M265.2,344.2c0.2-0.5,0.3-0.9,0.5-1.4c0.9-2.1,2.4-3.9,4.3-5.2c0.3,0.9,0.7,1.7,1.1,2.6
			c1.3,2.6,3,5.2,5.4,7.1c1.8,1.5,4.4,3.1,7.7,2.3c0,0,0.2-0.1,0.6-0.2c1.8,6.8,5,14.7,10.9,21.7c1.2,1.4,2.4,2.7,3.6,4
			c-2,5.8-7.2,11.3-12.5,14.5c-4.1,2.5-8.4,4.1-13.5,3.5c-0.9-0.1-1.9-0.2-2.3-1c-0.6-1.2,1.3-3.4,2.5-5.6c1.3-2.6,0.5-6.7-0.4-9.4
			s-2.5-5.2-3.8-7.7c-2.4-4.7-4-9.9-4.7-15.2C264.2,350.9,264.2,347.4,265.2,344.2z"/>
	</g>
	<g>
		<path class="st1" d="M401,284.6c1.4,9.8,2.2,23.4-1.6,32.2c-0.4-0.2-0.9-0.3-1.4-0.3c-2.6-0.4-5.4,0.5-7,2.4
			c-8.2-2.6-17-14.7-20.2-20.1c-2.3-4-5.5-13.2-7.5-20c-9.2,11.5-24.3,18.9-40.1,22.6c-3.8,0.9-0.8-8,0.1-13.3
			c-9.8,8.5-29.9,21.3-41,30.1c-1.4-2.5-4.7-3.9-7.7-3.5c-0.9-4.6-1.9-9.4-1.9-9.4c-1.4-6.1-1.6-19.1,0-26.8
			c5.7-28.3,34-50.7,63.6-49.1c29.6-1.6,57.9,20.8,63.6,49.1C400.3,280.2,400.7,282.3,401,284.6z"/>
	</g>
	<g>
		<g>
			<path d="M266.7,337.2c-5.2,5.3-5.3,13-4.2,19.9c0.6,3.7,1.7,7.2,3.2,10.6c1.4,3.2,3.3,6,4.6,9.2c0.9,2.3,2,5.6,1.1,8.1
				c-0.9,2.5-3.8,4.8-2.8,7.7c1.2,3.4,6.4,3.1,9.3,2.7c3.2-0.4,6.2-1.6,9.1-3.2c6.5-3.6,12-9.4,14.6-16.4c0.5-1.2-0.5-2.6-1.7-3
				c-1.3-0.4-2.5,0.5-3,1.7c-1.9,5.1-6.1,9.6-10.7,12.5c-2.2,1.4-4.6,2.6-7.2,3.3c-1.3,0.3-2.5,0.4-3.8,0.4c-0.6,0-1.3,0-1.9-0.1
				c0,0-0.8-0.1-0.7-0.1c0.5,0.2,0.7,0.5,0.6,1c0,0.4,0,0.4,0.1,0c0.7-0.9,1.2-2.1,1.8-3.1c0.8-1.3,1.2-2.7,1.4-4.2
				c0.3-2.6-0.3-5.3-1.1-7.8c-1-2.9-2.7-5.5-4.1-8.3c-1.4-2.8-2.5-5.7-3.3-8.8c-1.5-6-2.6-14,2.2-18.8
				C272.3,338.4,268.9,335,266.7,337.2L266.7,337.2z"/>
		</g>
	</g>
	<g>
		<g>
			<path d="M393.2,318.3c2.5-2.1,6.8-1.6,8.4,1.3c0.9,1.6,0.9,3.7,0.9,5.4c0,2.2-0.1,4.4-0.6,6.5c-0.8,4-2.4,8.1-4.9,11.3
				c-1,1.3-2.2,2.7-3.8,3.2c-1.7,0.5-3.6,0.5-5.3,0.8c-1.3,0.2-2,1.8-1.7,3c0.4,1.4,1.7,1.9,3,1.7c1.7-0.2,3.4-0.3,5-0.7
				c2-0.5,3.5-1.5,4.9-3c2.9-3,4.9-6.8,6.2-10.7c1.4-4,2.1-8.3,2-12.5c-0.1-4.2-1-8.3-4.8-10.7c-4-2.6-9.2-2-12.8,1
				c-1,0.8-0.9,2.5,0,3.4C390.8,319.2,392.2,319.1,393.2,318.3L393.2,318.3z"/>
		</g>
	</g>
	<g>
		<g>
			<path d="M387.1,343.9c-0.1,2.5-0.7,4.9-1.4,7.3c-0.3,0.8-0.5,1.7-0.8,2.5c-0.1,0.2-0.1,0.4-0.2,0.6c-0.3,0.7,0.1-0.2-0.1,0.2
				c-1.1,2.3-2.3,4.6-3.7,6.8c-4,6.4-8.8,12.5-14.7,17.2c-3.2,2.6-6.8,4.6-10.8,5.5c-3,0.7-1.7,5.3,1.3,4.6
				c8.2-1.9,15-7.9,20.4-14.1c4.5-5.2,8.6-11,11.5-17.3c1.9-4.1,3.2-8.9,3.3-13.4C392,340.8,387.2,340.8,387.1,343.9L387.1,343.9z"
				/>
		</g>
	</g>
	<g>
		<g>
			<path d="M282.8,314.9c-3.3-2.8-7.7-3.5-11.6-1.7c-4,1.9-5.5,5.8-5.8,10c-0.6,8.4,2,17.8,7.7,24.1c3.1,3.3,7.2,5.6,11.8,4.6
				c3-0.7,1.7-5.3-1.3-4.6c-3.3,0.7-6.3-2.1-8.1-4.5c-2.5-3.3-4.1-7.5-4.9-11.5c-0.4-2.1-0.6-4.2-0.5-6.3c0-1.8,0.1-4,1-5.6
				c1.7-2.8,5.9-3.2,8.3-1.2c1,0.8,2.4,1,3.4,0C283.7,317.4,283.8,315.7,282.8,314.9L282.8,314.9z"/>
		</g>
	</g>
	<g>
		<g>
			<path d="M280.2,337.2c1,8.2,2.8,16.3,6.4,23.9c4.5,9.6,12,18.1,20.9,23.8c4.6,3,9.8,5.2,15.3,6c1.3,0.2,2.6-0.3,3-1.7
				c0.3-1.1-0.4-2.8-1.7-3c-9.3-1.4-17.3-6.8-23.6-13.5c-6.6-7-11-15.3-13.3-24.6c-0.5-2-1-4.1-1.3-6.1c-0.2-0.9-0.3-1.9-0.4-2.8
				c-0.1-0.7-0.1-1-0.3-2c-0.2-1.3-1-2.4-2.4-2.4S280,335.9,280.2,337.2L280.2,337.2z"/>
		</g>
	</g>
	<g>
		<g>
			<path d="M275.1,304.6c-0.7-3.2-0.9-6.5-1-9.9c-0.1-4,0-8.1,0.4-12.1c0.8-7.2,3.4-14.2,7-20.4c7.6-13,20.1-23.1,34.3-27.7
				c3.5-1.1,7.1-2,10.8-2.4c3.9-0.5,7.8-0.3,11.7-0.4c7.6-0.1,15.1,1.3,22.2,4.1c13.9,5.5,25.8,16.4,32.5,29.8
				c3.2,6.4,4.8,13.2,5.8,20.2c1.1,7.7,1.7,15.8,0.3,23.4c-0.3,1.8-0.8,3.6-1.4,5.3c-1,2.9,3.6,4.2,4.6,1.3
				c2.7-7.9,2.5-16.7,1.8-24.9c-0.7-7.5-1.8-15.1-4.6-22.2c-5.9-15.1-17.6-27.7-32.1-34.9c-7.3-3.7-15.2-6-23.3-6.7
				c-2-0.2-4.1-0.2-6.1-0.2s-4.1,0-6.1,0c-4.1,0.1-8.2,0.6-12.1,1.5c-15.9,3.6-30.1,13.5-39.5,26.7c-4.6,6.5-8.1,13.9-9.8,21.7
				c-1.7,7.7-1.8,16.1-1,24c0.2,1.7,0.4,3.4,0.8,5.1C271.1,308.8,275.8,307.6,275.1,304.6L275.1,304.6z"/>
		</g>
	</g>
	<g>
		<g>
			<path d="M361.3,280.1c1.2,4,2.5,7.9,3.9,11.8c1.2,3.1,2.4,6.1,4.1,8.9c3.4,5.5,7.6,10.9,12.5,15.1c2.8,2.4,6,4.7,9.7,5.5
				c3,0.7,4.3-4,1.3-4.6c-5.7-1.3-10.4-6.6-14-11c-3.6-4.3-6.5-9-8.5-14.2c-1.6-4.2-3-8.4-4.3-12.7
				C365.1,275.9,360.5,277.2,361.3,280.1L361.3,280.1z"/>
		</g>
	</g>
	<g>
		<g>
			<path d="M361.9,276.8c-5.2,6.6-12.1,11.6-19.6,15.3c-3.9,1.9-7.9,3.5-12.1,4.8c-2.2,0.7-4.3,1.3-6.5,1.8
				c-0.3,0.1-0.5,0.1-0.8,0.2c-0.5,0.1,0.2,0.1,0,0c0.2,0.1,0.7,0.2,0.9,0.6c0,0,0.2,0.4,0.1,0.2c0-0.1-0.1-0.2-0.1-0.3
				c0.1,0.6,0-0.1,0-0.2c0.1-3.4,1.3-6.9,1.8-10.5c0.4-2.4-2.1-4-4-2.3c-4.9,4.2-10.3,8-15.6,11.8c-6,4.3-12.1,8.5-18.1,12.9
				c-3,2.1-5.9,4.3-8.7,6.6c-1,0.8-0.9,2.5,0,3.4c1,1,2.4,0.8,3.4,0c10.8-8.8,22.8-16.3,34-24.6c2.9-2.1,5.7-4.3,8.5-6.7
				c-1.3-0.8-2.7-1.6-4-2.3c-0.6,3.7-1.9,7.5-2,11.3c0,1.5,0.2,3.1,1.4,4.2c1.7,1.6,4.1,0.6,6.1,0.1c9.5-2.5,18.9-6.3,27-11.9
				c4.4-3.1,8.4-6.6,11.7-10.8c0.8-1,1-2.4,0-3.4C364.4,276,362.7,275.8,361.9,276.8L361.9,276.8z"/>
		</g>
	</g>
	<g id="lightbulb">
		<g>
			<path class="st0" d="M460.4,290.6c0-0.3,0-0.5,0-0.8c1,0.2,2.1,0.3,3,0.1c1.5-0.4,2.8-1.5,3.6-2.8c0.9-1.4,2.1-3.4,1.8-4.8
				l-0.7-1.5c-8-1.8-18.4-6.4-23.1-9l-2.3,0.1c-1.9,0.8-2.7,5.2-2.4,7.3c0.2,1.4,0.9,2.3,1.8,3.1c-1.2,0.9-2.3,1.8-2.3,1.8
				c-1.5,0.6-2,4.2-1.8,5.9c0.3,2.3,2.4,3.2,3.5,4c-4,4.1-1.8,8.3,1.2,9.9c2.6,1.3,7.2,1.2,9-2.5c0,0,0.5-1.1,1.2-2.5
				c1,0.3,2.1,0.5,3.1,0.2c1.2-0.3,2.1-1.2,2.8-2.3c0.7-1.1,1.6-2.8,1.4-3.9C460.3,292.5,460.3,291.7,460.4,290.6z"/>
		</g>
		<g>
			<path class="st2" d="M464,227.9c-0.8,0.1-1.6,0.2-2.5,0.3c-2.1,0.4-7.4,1.4-12.3,5.8c-4.3,3.8-6,8.1-6.8,10.2
				c-1.9,4.9-1.8,9.1-1.7,11.8c0.1,4.5,1,7.8,1.4,8.9c0.9,2.9,2,5.2,2.9,6.8c4.7,2.6,15.1,7.2,23.1,9c5.2,0,12.3-4.8,15.3-8.3
				c2.1-2.5,4.2-5.3,5.5-8.3c2-4.8,2.3-8.9,2.3-10.8c0-2.6,0-8.4-3.7-14.1c-2.6-4-6-6.3-7.6-7.3c-0.9-0.6-2.5-1.6-4.8-2.5
				C474.3,229,469.9,227.4,464,227.9z"/>
		</g>
		<g>
			<g>
				<path d="M438,294.6c-0.9,1.9-1.3,4.1-0.6,6.1c0.7,1.9,1.9,3.5,3.6,4.5c2.4,1.5,5.8,1.9,8.5,0.9c1.9-0.8,3.5-2,4.4-3.9
					c0.6-1.1,0.3-2.6-0.9-3.3c-1.1-0.6-2.7-0.3-3.3,0.9c-0.1,0.2-0.2,0.4-0.3,0.6c-0.1,0.1-0.1,0.2-0.2,0.3
					c-0.2,0.2-0.1,0.2,0.1-0.1c-0.1,0-0.6,0.6-0.7,0.7c-0.3,0.3,0.5-0.3-0.1,0c-0.1,0.1-0.2,0.1-0.4,0.2c-0.1,0-0.2,0.1-0.2,0.1
					c-0.2,0.1-0.2,0.1,0.2-0.1c-0.2,0-0.3,0.1-0.5,0.2c-0.3,0.1-0.6,0.1-0.9,0.2c0.7-0.2,0.2,0,0,0c-0.1,0-0.3,0-0.4,0
					c-0.2,0-0.4,0-0.5,0c-0.2,0-0.8-0.2,0,0c-0.3-0.1-0.6-0.1-0.9-0.2c-0.3-0.1-0.6-0.2-0.8-0.3c-0.4-0.1,0.6,0.3,0,0
					c-0.2-0.1-0.4-0.2-0.6-0.3c-0.1-0.1-0.4-0.2-0.4-0.3c0.3,0.2,0.3,0.2,0.1,0.1c-0.1-0.1-0.2-0.1-0.2-0.2
					c-0.2-0.1-0.3-0.3-0.4-0.5c-0.3-0.3,0.2,0.4,0,0c-0.1-0.2-0.2-0.4-0.3-0.6c-0.1-0.1-0.1-0.2-0.1-0.3c0.1,0.3,0.1,0.4,0.1,0.1
					c0-0.2-0.1-0.3-0.1-0.5c0-0.1-0.1-0.2-0.1-0.3c0-0.3,0-0.2,0,0.1c-0.1-0.1,0-0.5,0-0.6c0-0.1,0-0.2,0-0.3c0-0.3,0-0.2,0,0.1
					c0-0.2,0.1-0.5,0.2-0.7c0-0.1,0.1-0.2,0.1-0.4c-0.1,0.3-0.1,0.3,0,0c0.5-1.1,0.4-2.6-0.9-3.3C440.2,293.2,438.5,293.4,438,294.6
					L438,294.6z"/>
			</g>
		</g>
		<g>
			<g>
				<path d="M464,225.5c-5.6,0.5-10.9,2.4-15.4,5.9c-4.7,3.7-7.8,9.1-9.3,14.9c-1.5,5.7-1.3,12.1,0.1,17.8c0.7,2.7,1.7,5.3,3,7.7
					c0.4,0.7,0.7,1.5,1.5,2c0.3,0.2,0.7,0.4,1.1,0.6c1.2,0.6,2.4,1.2,3.6,1.8c5.7,2.6,11.5,5,17.6,6.5c3.1,0.8,5.9,0,8.8-1.2
					c2.8-1.2,5.3-2.9,7.6-4.8c8.9-7.4,13-19.8,10.4-31c-1.6-6.9-6.1-12.2-11.9-16C476,226.4,470.1,225,464,225.5
					c-1.3,0.1-2.4,1-2.4,2.4c0,1.2,1.1,2.5,2.4,2.4c5.8-0.4,10.9,1,15.7,4.3c5.6,3.9,8.9,10,9.1,16.9c0.2,6.6-1.8,12.7-6,17.9
					c-2,2.5-4.3,4.6-7.1,6.2c-1.4,0.9-3,1.6-4.6,2.2c-1.5,0.5-2.5,0.6-4,0.2c-7.2-1.9-14.4-4.7-20.9-8.4c0.3,0.3,0.6,0.6,0.9,0.9
					c-6.9-12-5.4-30.1,7.4-37.3c2.9-1.6,6.2-2.6,9.5-2.9c1.3-0.1,2.4-1,2.4-2.4C466.4,226.7,465.3,225.3,464,225.5z"/>
			</g>
		</g>
		<g>
			<g>
				<path d="M466.5,282.2c0.2,1.5-1.2,3.5-2.3,4.5c-1.5,1.4-3.3,0.8-5.1,0.3c-2.8-0.7-5.6-1.9-8.2-3.1c-2.4-1-5.2-2.1-7.2-3.8
					c-1.1-0.9-1.1-2.1-0.9-3.3c0.1-0.8,0.3-1.7,0.6-2.4c0-0.1,0.3-0.5,0.4-0.7c0,0,0,0,0.2,0c2.8-1.4,0.3-5.5-2.4-4.1
					c-2.9,1.4-3.8,6-3.6,8.9c0.2,3.7,2.9,5.8,5.9,7.4c2.9,1.5,6,2.8,9,4c3,1.2,6.5,2.6,9.7,2.4c2.5-0.1,4.6-1.6,6.1-3.6
					c1.4-1.8,2.9-4.3,2.6-6.6c-0.1-1.3-1-2.4-2.4-2.4C467.8,279.8,466.4,280.9,466.5,282.2L466.5,282.2z"/>
			</g>
		</g>
		<g>
			<g>
				<path d="M457.9,292.5c0.1,1.1-0.7,2.5-1.5,3.3c-1,1-2.3,0.5-3.5,0.1c-2.3-0.6-4.2-1.5-6.4-2.6c-1.8-0.8-4.4-1.8-5.6-3.2
					c-0.6-0.6-0.5-1.6-0.4-2.3c0.1-0.6,0.2-1.2,0.4-1.7c0.1-0.2,0.1-0.2,0,0c0.1-0.1,0.1-0.3,0.2-0.4c0,0.1-0.2,0.1,0,0
					c2.7-1.4,0.3-5.6-2.4-4.1c-2.4,1.3-3.1,4.9-3,7.4c0.1,3.2,2.2,5.2,4.8,6.6c2.2,1.2,4.5,2.3,6.8,3.3c2.5,1.1,5.4,2.3,8.1,2.2
					c2.3-0.1,4.1-1.5,5.4-3.3c1-1.5,2.1-3.5,1.9-5.4c-0.1-1.3-1-2.4-2.4-2.4C459.1,290.1,457.7,291.2,457.9,292.5L457.9,292.5z"/>
			</g>
		</g>
		<g>
			<g>
				<path d="M480.8,204.7c-0.1,2.2-0.2,4.4-0.3,6.6c-0.1,1.3,1.1,2.5,2.4,2.4s2.3-1.1,2.4-2.4c0.1-2.2,0.2-4.4,0.3-6.6
					c0.1-1.3-1.2-2.5-2.4-2.4C481.9,202.4,480.9,203.4,480.8,204.7L480.8,204.7z"/>
			</g>
		</g>
		<g>
			<g>
				<path d="M496,216.4c1.4-1.6,2.6-3.3,3.9-5c0.3-0.5,0.4-1.3,0.2-1.8c-0.2-0.6-0.6-1.2-1.1-1.4c-0.6-0.3-1.2-0.4-1.8-0.2
					c-0.2,0.1-0.4,0.2-0.6,0.2c-0.4,0.2-0.6,0.5-0.9,0.9c-0.5,0.8-1.1,1.5-1.7,2.3c0.1-0.2,0.3-0.3,0.4-0.5
					c-0.6,0.8-1.2,1.5-1.8,2.2c-0.4,0.5-0.7,1-0.7,1.7c0,0.6,0.3,1.3,0.7,1.7c0.5,0.4,1.1,0.7,1.7,0.7
					C494.9,217.1,495.6,216.9,496,216.4L496,216.4z"/>
			</g>
		</g>
		<g>
			<g>
				<path d="M503.3,226.8c1.6-0.8,3.2-1.5,4.8-2.2c-0.2,0.1-0.4,0.2-0.6,0.2c0.4-0.2,0.8-0.3,1.3-0.5c0.6-0.2,1.1-0.5,1.4-1.1
					c0.3-0.5,0.4-1.3,0.2-1.8c-0.2-0.6-0.5-1.1-1.1-1.4c-0.5-0.3-1.3-0.5-1.8-0.2c-2.3,0.9-4.5,1.9-6.7,3c-0.5,0.3-1,0.9-1.1,1.4
					c-0.2,0.6-0.1,1.3,0.2,1.8c0.3,0.5,0.8,1,1.4,1.1C502.2,227.2,502.7,227.1,503.3,226.8L503.3,226.8z"/>
			</g>
		</g>
		<g>
			<g>
				<path d="M468.1,273.3c3.8-1.8,7.4-4.2,9.8-7.7c2.2-3.2,3.1-7.7,1.7-11.4c-2.6-6.6-13.1-12.2-18.4-5.3c-2.7,3.4-2.3,8.5,1.4,10.9
					c3.3,2.2,9.2,1.9,11.4-1.8c1.9-3.2,1-7.4-1.4-10.1c-2.2-2.4-5.5-3.6-8.7-3.9c-4.6-0.4-9.2,1.7-11.5,5.7
					c-2.4,4.1-2.2,9.1-1.1,13.5c0.7,3,5.4,1.7,4.6-1.3c-1.2-4.9-0.8-11.6,5.2-13c3.4-0.8,8.6,0.8,9.2,4.5c0.1,0.6,0.1,1.7-0.4,2.3
					c-0.6,0.8-2.2,0.7-3.1,0.6c-2.3-0.4-3.3-2.6-1.8-4.5c2.9-3.6,8.8,0.8,10.1,3.8c1.1,2.6,0.1,5.7-1.5,7.9c-2,2.6-5,4.3-7.9,5.7
					c-1.2,0.6-1.5,2.2-0.9,3.3C465.5,273.6,466.9,273.9,468.1,273.3L468.1,273.3z"/>
			</g>
		</g>
	</g>
	<g id="book">
		<g>
			<path class="st0" d="M425.5,465.2c-1.4,4.4,3.1,12.7,5.3,14.7c3.9,3.4,7.4,4.9,12.5,5c4.9,0.1,10.7-1.1,14.2-5.1
				c2.9-3.4,4.4-5.7,5-11.9c0.3-2.8-0.8-11.8-3.3-16.2"/>
		</g>
		<g>
			<path class="st0" d="M421.7,353.1c-0.3-0.2-0.6-0.3-0.9-0.3c-19.9,0-64.8,14.1-83.7,29.4c-17.9-15.3-71.9-28.7-84.9-28.7
				c-0.6,0-1.1,0.4-1.1,1c0,1.5,0,6.6-0.1,9.9c18.9,1.5,70.2,11.3,83.9,20.5c1.1,0.8,3,0.8,4.1,0.1c14.2-8.5,62.4-19.2,83.2-20.6
				c0-3.6,0-7.2,0-7.2v-2.8C422.3,353.7,422.1,353.3,421.7,353.1z"/>
		</g>
		<g>
			<path class="st0" d="M248.8,465.2c1.4,4.4-3.1,12.7-5.3,14.7c-3.9,3.4-7.4,4.9-12.5,5c-4.9,0.1-10.7-1.1-14.2-5.1
				c-2.9-3.4-4.4-5.7-5-11.9c-0.3-2.8,0.8-11.8,3.3-16.2"/>
		</g>
		<g>
			<g>
				<path d="M246.5,465.8c0.2,0.7,0.2,1.4,0.1,2.2c-0.1,1.1-0.5,2.3-0.9,3.4c-0.7,1.9-1.7,3.8-2.8,5.5c-0.3,0.5-0.1,0.2-0.5,0.6
					c-0.2,0.2-0.4,0.5-0.6,0.7c-1,0.9-2.1,1.7-3.2,2.3c-2.1,1.2-4.5,1.8-6.9,1.9c-4.8,0.2-10-0.8-13.3-4.7c-2.6-3.1-4.1-6.8-4.2-11
					c0-2.3,0.3-4.6,0.8-6.8c0.5-2.4,1.1-5,2.2-7.1c1.5-2.7-2.7-5.2-4.1-2.4c-2.5,4.6-3.4,10.5-3.6,15.7s1.6,10.2,4.8,14.2
					c4,5,9.9,7,16.2,7c3.1,0,6.2-0.5,9.1-1.8c2.4-1.1,4.9-2.7,6.6-4.7c1.8-2.2,3.2-4.8,4.2-7.4c1.1-2.7,1.8-5.9,1-8.8
					C250.3,461.6,245.7,462.9,246.5,465.8L246.5,465.8z"/>
			</g>
		</g>
		<g>
			<g>
				<path d="M423.2,464.6c-0.7,2.6-0.2,5.4,0.6,7.8c0.8,2.4,2,4.8,3.4,6.9c3.3,4.7,8.9,7.4,14.5,7.8c6,0.5,13-0.9,17.2-5.5
					c3.7-4,5.7-8.8,6-14.3c0.1-2.7-0.3-5.4-0.8-8c-0.6-3.1-1.4-6.2-2.8-8.9c-1.5-2.7-5.6-0.3-4.1,2.4c2,3.7,2.7,8.5,2.9,12.7
					c0.2,4-0.8,8-3.2,11c-1.4,1.9-3.1,3.5-5.4,4.4c-2.2,0.9-4.6,1.3-6.9,1.4c-4.7,0.2-9.6-1.3-12.8-4.9c-1-1.2-2.3-3.6-3.1-5.5
					c-0.4-1.1-0.8-2.3-1-3.5c-0.2-0.9-0.2-1.9,0.1-2.7C428.7,462.9,424.1,461.6,423.2,464.6L423.2,464.6z"/>
			</g>
		</g>
		<g>
			<path class="st3" d="M335,384.8c-14.6-9.8-72.1-20.3-87.3-20.7c-1.1,0-2,0.9-2,2c0,18.1-0.3,106.3-0.4,123.8c0,1,0.8,1.9,1.8,2
				c14.3,1.2,74.4,16.8,88,23c1.1,0.5,3,0.5,4.1,0c13.6-6.4,73.3-22.3,88.1-23.1c1-0.1,1.8-0.9,1.8-2c-0.1-17.5-0.4-105.8-0.4-123.8
				c0-1.1-0.9-1.9-1.9-1.9c-17.3-0.1-72.3,11.6-87.6,20.8C338,385.6,336.1,385.6,335,384.8z"/>
		</g>
		<g>
			<g>
				<path d="M253.5,363.3c0-2.7,0-5.5,0-8.2c0-0.2,0-0.4,0-0.6c0.4,1.2-2,1.1-0.9,1.3c0.4,0.1,0.8,0,1.2,0.1c1,0.1,2,0.2,3,0.3
					c0.2,0,0.5,0.1,0.7,0.1c-0.6-0.1,0.3,0,0.4,0.1c0.6,0.1,1.3,0.2,1.9,0.3c1.4,0.2,2.8,0.5,4.1,0.7c3.1,0.6,6.3,1.3,9.4,2
					c14.8,3.5,29.6,7.9,43.5,14c3.6,1.6,7.1,3.2,10.4,5.2c1.5,0.9,3,1.8,4.5,2.8s2.3,1.6,3.4,2.6c1.1,0.9,2.3,0.9,3.4,0
					c4.8-3.8,10.8-7.2,16.5-10c6.8-3.4,13.9-6.2,21-8.8c7.3-2.6,14.6-4.8,22.1-6.6c6.2-1.5,12.3-2.7,18.4-3.1
					c0.7-0.1,1.5-0.1,2.2-0.1c0.3,0,0.7,0,1,0c0.1,0,0.3,0,0.4,0c0.6-0.1,0.1,0.1,0-0.1c-0.4-0.6-0.5-1.2-0.5-0.3c0,0.5,0,1.1,0,1.6
					c0,2.3,0,4.6,0,6.9c0,3.1,4.8,3.1,4.8,0c0-2.1,0-4.2,0-6.3c0-0.9,0-1.8,0-2.7c-0.1-2.4-1.8-3.9-4.2-3.9
					c-6.2-0.1-12.7,1.1-18.7,2.4c-15.7,3.3-31.3,8.5-45.8,15.3c-7.3,3.4-14.4,7.3-20.6,12.3c1.1,0,2.3,0,3.4,0
					c-5.1-4.3-11.1-7.5-17.2-10.3c-7.4-3.4-15.2-6.3-22.9-8.8c-13.5-4.4-27.5-8.2-41.6-10c-2.8-0.3-7.5-1.3-8.3,2.4
					c-0.3,1.5-0.1,3.3-0.1,4.9c0,1.5,0,3.1,0,4.6C248.7,366.4,253.5,366.4,253.5,363.3L253.5,363.3z"/>
			</g>
		</g>
		<g>
			<g>
				<path d="M336.2,382.7c-3.6-2.4-7.8-4-11.9-5.4c-5.5-2-11.1-3.6-16.8-5.1c-12.5-3.2-25.2-5.8-37.9-7.9
					c-5.2-0.8-10.4-1.6-15.6-2.2c-1.8-0.2-3.6-0.4-5.4-0.4c-1.6-0.1-3.1,0.2-4.2,1.5c-1,1.1-1.1,2.5-1.1,3.9c0,8.1,0,16.1-0.1,24.2
					c0,11.9-0.1,23.8-0.1,35.8s-0.1,24-0.1,36c0,8.3-0.1,16.6-0.1,24.9c0,0.6,0,1.2,0,1.7c0.1,2.1,1.4,4,3.5,4.4
					c0.8,0.2,1.7,0.2,2.6,0.3c0.4,0-0.6-0.1,0.1,0c0.2,0,0.4,0.1,0.5,0.1c0.5,0.1,0.9,0.1,1.4,0.2c4.6,0.7,9.1,1.7,13.7,2.7
					c12.1,2.7,24.1,5.7,36,9c10.1,2.8,20.3,5.6,30.1,9.3c0.4,0.1,0.8,0.3,1.1,0.4c0.2,0.1,0.4,0.2,0.6,0.2c0.1,0,0.8,0.3,0.4,0.2
					c-0.3-0.1,0.5,0.2,0.7,0.3c0.9,0.4,1.8,0.7,2.8,0.8c1.7,0.2,3.2-0.3,4.7-1c0.1-0.1,0.3-0.1,0.4-0.2c0.1,0,0.2-0.1,0.3-0.1
					c0.3-0.1-0.5,0.2-0.2,0.1c0.4-0.2,0.8-0.3,1.2-0.5c4.2-1.6,8.4-3,12.7-4.4c11.8-3.7,23.7-7,35.7-10c10.5-2.6,21-5.3,31.7-6.9
					c0.2,0,0.4-0.1,0.6-0.1s0.8-0.1,0.2,0c0.4-0.1,0.8-0.1,1.3-0.2c0.7-0.1,1.5-0.1,2.2-0.2c2.3-0.2,4.2-1.8,4.3-4.2
					c0-0.6,0-1.3,0-1.9c0-3.4,0-6.8,0-10.3c0-10.6-0.1-21.2-0.1-31.8c0-12.4-0.1-24.8-0.1-37.2c0-10.5-0.1-21-0.1-31.6
					c0-3.4,0-6.7,0-10.1c0-1.1,0-2.3-0.5-3.3c-0.9-1.7-2.7-2.2-4.5-2.2c-2,0-4,0.2-6,0.3c-12.1,1.1-24.1,3.5-35.9,6.1
					c-12.2,2.7-24.5,5.8-36.2,10.2c-2.2,0.8-4.4,1.7-6.5,2.7c-0.9,0.4-1.7,0.8-2.6,1.3C338,382.8,337.2,383.3,336.2,382.7
					c-2.7-1.6-5.1,2.6-2.4,4.1c1.8,1.1,4.1,1.2,6,0.4c0.9-0.4,1.8-1,2.7-1.4c2.1-1.1,3.6-1.7,5.6-2.5c5.3-2,10.6-3.7,16.1-5.3
					c12.5-3.6,25.3-6.4,38.1-8.7c5.5-1,10.7-1.8,16-2.4c2.1-0.2,4.2-0.4,6.3-0.5c0.4,0,0.9,0,1.3,0c0.2,0,0.4,0,0.6,0h0.3
					c-0.1,0.2-0.4-0.3-0.4-0.3c-0.2-0.1,0-0.3-0.1,0c0,0.1,0,0.3,0,0.4c0,0.3,0,0.6,0,0.9c0,8.1,0,16.1,0.1,24.2
					c0,11.7,0.1,23.4,0.1,35.1c0,11.8,0.1,23.7,0.1,35.5c0,8.3,0.1,16.6,0.1,24.9c0,0.6,0,1.2,0,1.9c0,0.1,0,0.3,0,0.4
					c0.1,0.4-0.1,0.1,0.1,0c0.5-0.2,0.2-0.2-0.3-0.1c-1.8,0.1-3.6,0.4-5.4,0.7c-4.7,0.7-9.3,1.7-14,2.7c-12,2.6-23.9,5.7-35.7,9
					c-9.9,2.8-19.9,5.5-29.4,9.3c-0.9,0.3-1.8,0.7-2.7,1.1c-0.3,0.1-0.6,0.3-0.9,0.4c-0.1,0-0.6,0.2-0.2,0.1
					c-0.4,0.1-0.7,0.2-1.1,0.2c-0.4,0-0.7-0.1-1.1-0.2c0.3,0.1,0,0-0.1-0.1c-0.5-0.2-1-0.4-1.4-0.6c-0.7-0.3-1.5-0.6-2.2-0.9
					c-4.2-1.6-8.4-2.9-12.7-4.2c-11.6-3.6-23.3-6.7-35-9.6c-10.3-2.6-20.7-5.1-31.1-6.9c-1.8-0.3-3.6-0.6-5.3-0.8
					c-0.1,0-0.8-0.2-0.9-0.1c0.4-0.4,0.4,1,0.5,0c0-0.6,0-1.2,0-1.9c0-3.4,0-6.9,0-10.3c0-10.4,0.1-20.9,0.1-31.3
					c0-12.2,0.1-24.5,0.1-36.7c0-10.4,0.1-20.8,0.1-31.2c0-3.4,0-6.8,0-10.2c0-0.3,0.2-1.6,0-1.8c0.3,0.4-0.9,0.2,0,0.4
					c0.4,0.1,0.8,0,1.2,0.1c1.9,0.1,3.7,0.3,5.6,0.5c1.1,0.1,2.2,0.3,3.4,0.4c0.3,0,0.5,0.1,0.8,0.1c0.1,0,0.9,0.1,0.5,0.1
					c0.7,0.1,1.3,0.2,2,0.3c2.8,0.4,5.5,0.8,8.3,1.3c6.1,1,12.3,2.2,18.4,3.5c11.8,2.5,23.8,5.2,35.2,9.4c1.1,0.4,2.2,0.8,3.3,1.3
					c0.3,0.1,0.5,0.2,0.8,0.3c0.4,0.2-0.2-0.1,0.3,0.1s0.9,0.4,1.4,0.6c1.6,0.7,3.2,1.5,4.6,2.5
					C336.4,388.6,338.8,384.4,336.2,382.7z"/>
			</g>
		</g>
		<g>
			<g>
				<path d="M334.9,393.8c0,12.5-0.1,25.1-0.1,37.6c0,17.2-0.1,34.4-0.1,51.7c0,6.9,0,13.9,0,20.8c0,3.1,4.8,3.1,4.8,0
					c0-14.3,0-28.5,0.1-42.8c0-16.7,0.1-33.5,0.1-50.2c0-5.7,0-11.4,0-17.1C339.7,390.7,334.9,390.7,334.9,393.8L334.9,393.8z"/>
			</g>
		</g>
		<g>
			<path class="st0" d="M222.3,427.4c1.2-1.6,2.9-3.5,5.2-5.1c1.4-1,5.5-3.7,11.3-3.8c1.4,0,4.6-0.1,8.1,1.7c1.7,0.8,3.2,2,4.6,3.5
				c1,1.1,1.8,2.3,2.2,3.7c0.3,1.4,0,3-1.1,4c-0.4,0.3-0.9,0.5-1.4,0.6c0.9,0.6,1.5,1.1,1.5,1.1c1.4,1,2.9,2.9,3.2,4.4
				c0.2,1.7,0.1,2.9-0.9,4.3c-0.7,1-1.9,1.6-3.2,1.8c1,1,1.9,1.8,1.9,1.8c1.8,1.7,2,4.7,0.7,6.8c-0.9,1.4-2.2,2-3.8,2.2
				c0.3,1.1,0.5,1.8,0.5,1.8c0.2,0.7,1.7,5.5-1.2,8.4c-1.9,1.8-4.5,2.7-7.1,3s-5.3,0.2-7.9,0c-2.7-0.3-5.5-0.4-7.9-1.3
				c-2.5-0.9-4.3-2.4-5.9-4.4c-0.9-1.1-2.9-4.6-3.3-7c-0.3-1.9-0.8-4.4-0.9-6.3c-0.1-4.4-0.4-10.8,3.2-17.5
				C220.6,430.1,221.3,428.8,222.3,427.4z"/>
		</g>
		<g>
			<g>
				<path d="M233.2,433.1c4.5,0.2,9,0.9,13.5,1.2c2.1,0.2,4.6,0.4,6.5-0.6c2.8-1.4,3.6-5,2.6-7.8c-2-5.6-8.4-9.1-14.1-9.7
					c-4.7-0.5-9.5,0.6-13.6,2.9c-8.9,5.1-13.4,15.2-13.7,25.2c-0.1,5,0.3,10.3,2.4,14.8c2.2,4.6,5.7,8.4,10.8,9.8
					c3.4,0.9,7.2,1.1,10.7,1.2s7-0.2,10.2-1.7c2.9-1.4,4.9-3.8,5.4-7c0.3-2,0-3.9-0.5-5.8c-0.8-3-5.5-1.7-4.6,1.3
					c0.4,1.3,0.5,2,0.5,3.3c-0.1,1.7-1,2.9-2.6,3.8c-2.1,1.1-4.5,1.3-6.8,1.4c-2.8,0.1-5.5-0.2-8.3-0.5c-2.2-0.3-4.5-0.8-6.3-2.2
					c-1.5-1.1-2.4-2.4-3.3-4c-2-3.5-2.6-7.6-2.7-11.6c-0.1-4.4,0.3-8.9,2.1-13c1.5-3.4,3.7-6.7,6.7-9c5.9-4.6,15.1-6,21-0.5
					c0.9,0.8,3.6,3.6,2.2,4.9c-0.5,0.5-1.7,0.3-2.4,0.2c-0.8,0-1.7-0.1-2.5-0.1c-4.4-0.3-8.7-0.9-13.1-1.2
					C230.1,428.1,230.1,432.9,233.2,433.1L233.2,433.1z"/>
			</g>
		</g>
		<g>
			<g>
				<path d="M251,434.7c1,0.8,2.2,1.9,2.5,3.1s-0.1,2.7-1.3,3.2c-1.4,0.6-3.6,0.1-5.1-0.1c-5.1-0.6-10.3-1.2-15.4-1.5
					c-3.1-0.2-3.1,4.6,0,4.8c4.7,0.3,9.4,0.8,14,1.3c1.5,0.2,3.1,0.4,4.6,0.5c3.4,0.2,6.4-1.7,7.6-4.9c1.3-3.8-0.6-7.5-3.6-9.9
					c-1-0.8-2.4-1-3.4,0C250.1,432.2,249.9,433.9,251,434.7L251,434.7z"/>
			</g>
		</g>
		<g>
			<g>
				<path d="M252,447.1c1.3,1.3,1.1,4-0.8,4.8c-1.1,0.4-2.3,0.3-3.4,0.2c-1.3-0.1-2.6-0.3-3.9-0.4c-4.6-0.5-9.2-1-13.8-1.2
					c-3.1-0.2-3.1,4.6,0,4.8c5.6,0.3,11.2,1,16.8,1.6c3.5,0.4,7.2,0.1,9.4-3.1c2.1-3,1.7-7.4-0.9-10
					C253.2,441.5,249.8,444.9,252,447.1L252,447.1z"/>
			</g>
		</g>
		<g>
			<path class="st0" d="M452,427.4c-1.2-1.6-2.9-3.5-5.2-5.1c-1.4-1-5.5-3.7-11.3-3.8c-1.4,0-4.6-0.1-8.1,1.7
				c-1.7,0.8-3.2,2-4.6,3.5c-1,1.1-1.8,2.3-2.2,3.7c-0.3,1.4,0,3,1.1,4c0.4,0.3,0.9,0.5,1.4,0.6c-0.9,0.6-1.5,1.1-1.5,1.1
				c-1.4,1-2.9,2.9-3.2,4.4c-0.2,1.7-0.1,2.9,0.9,4.3c0.7,1,1.9,1.6,3.2,1.8c-1,1-1.9,1.8-1.9,1.8c-1.8,1.7-2,4.7-0.7,6.8
				c0.9,1.4,2.2,2,3.8,2.2c-0.3,1.1-0.5,1.8-0.5,1.8c-0.2,0.7-1.7,5.5,1.2,8.4c1.9,1.8,4.5,2.7,7.1,3s5.3,0.2,7.9,0
				c2.7-0.3,5.5-0.4,7.9-1.3c2.5-0.9,4.3-2.4,5.9-4.4c0.9-1.1,2.9-4.6,3.3-7c0.3-1.9,0.8-4.4,0.9-6.3c0.1-4.4,0.4-10.8-3.2-17.5
				C453.8,430.1,453.1,428.8,452,427.4z"/>
		</g>
		<g>
			<g>
				<path d="M441.2,428.3c-3.2-0.1-6.5,0.5-9.6,0.8c-1.7,0.2-3.3,0.4-5,0.5c-1.1,0.1-3.2,0.6-3.6-0.7c-0.5-1.9,1.9-4.1,3.2-5.1
					c1.8-1.4,4.1-2.4,6.4-2.7c3.7-0.5,7.6,0.3,10.9,2.1c7.1,3.9,11.1,11.7,11.6,19.6c0.5,7.3-0.3,17.7-8,21.1
					c-2.6,1.2-5.8,1.2-8.6,1.4c-2.9,0.2-6.1,0.3-9-0.5c-2-0.6-4-1.7-4.4-4c-0.2-1.5,0-2.5,0.4-3.9c0.8-3-3.8-4.3-4.6-1.3
					c-1.3,4.5-0.7,9.1,3.4,11.9c5.2,3.7,12.6,2.8,18.5,2.1c3.1-0.4,6.1-1,8.7-2.9c2-1.4,3.6-3.3,4.9-5.4c2.7-4.6,3.4-9.7,3.5-15
					c0.1-5.8-0.9-11.5-3.7-16.7c-2.2-4-5.1-7.4-9-9.9s-8.6-3.8-13.3-3.6c-5.7,0.3-12,3.3-14.8,8.5c-1.6,3-1.3,7.4,2,9.1
					c2,1,4.6,0.7,6.9,0.5c4.4-0.4,8.8-1.2,13.2-1.2C444.3,433.1,444.3,428.3,441.2,428.3L441.2,428.3z"/>
			</g>
		</g>
		<g>
			<g>
				<path d="M420,431.3c-3.3,2.7-5.2,7-3,11.1c1.7,3.2,5,3.9,8.3,3.6c5.6-0.5,11.2-1.1,16.8-1.4c3.1-0.2,3.1-5,0-4.8
					c-5,0.3-10,0.8-15,1.2c-1.4,0.1-3.5,0.6-4.9,0c-1.1-0.5-1.5-2-1.3-3.2c0.3-1.3,1.5-2.4,2.5-3.1c1-0.8,0.8-2.6,0-3.4
					C422.4,430.3,421,430.5,420,431.3L420,431.3z"/>
			</g>
		</g>
		<g>
			<g>
				<path d="M419,443.7c-2.6,2.6-3,7-0.9,10c2.2,3.1,5.9,3.3,9.4,3.1c5.6-0.3,11.2-1.3,16.8-1.6c3.1-0.2,3.1-5,0-4.8
					c-4.6,0.3-9.1,1-13.7,1.4c-1.3,0.1-2.5,0.2-3.8,0.3c-1.2,0.1-2.4,0.2-3.5-0.3c-1.9-0.7-2.1-3.4-0.8-4.7
					C424.6,444.9,421.2,441.5,419,443.7L419,443.7z"/>
			</g>
		</g>
	</g>
	<g id="face_8_">
		<g>
			<g>
				<path d="M336.9,339.5c0.5,1.8,0.9,3.6,1.2,5.4c0-0.2-0.1-0.4-0.1-0.6c0,0.2,0,0.5,0,0.7c0-0.2,0.1-0.4,0.1-0.6
					c0,0.1,0,0.2-0.1,0.3c0.1-0.2,0.2-0.4,0.2-0.6c0,0.1-0.1,0.1-0.1,0.2c0.1-0.2,0.3-0.3,0.4-0.5c-0.1,0.1-0.1,0.1-0.2,0.2
					c0.2-0.1,0.3-0.3,0.5-0.4c-0.1,0.1-0.3,0.2-0.4,0.2c0.2-0.1,0.4-0.2,0.6-0.2c-0.2,0.1-0.5,0.2-0.7,0.2c0.2,0,0.4-0.1,0.6-0.1
					c-0.2,0-0.4,0-0.7,0c0.2,0,0.4,0.1,0.6,0.1c-0.3,0-0.5-0.1-0.8-0.1c-0.7-0.1-1.2-0.1-1.8,0.2c-0.5,0.3-1,0.9-1.1,1.4
					c-0.1,0.6-0.1,1.3,0.2,1.8s0.8,1,1.4,1.1c0.5,0.1,1.1,0.2,1.6,0.2c0.8,0,1.6-0.2,2.4-0.6c0.9-0.4,1.6-1.2,1.9-2.2
					c0.2-0.8,0.1-1.6,0-2.4c-0.3-1.7-0.7-3.4-1.1-5.1c-0.3-1.2-1.7-2.1-3-1.7C337.3,336.9,336.5,338.2,336.9,339.5L336.9,339.5z"/>
			</g>
		</g>
		<g>
			<path d="M308.3,325c-0.9,2.9-0.3,9.6,5.2,10.2c7.3,0,7.7-8.1,5.2-12C316.7,320.1,310.8,318.8,308.3,325z"/>
		</g>
		<g>
			<path d="M365.5,325c0.9,2.9,0.3,9.6-5.2,10.2c-7.3,0-7.7-8.1-5.2-12C357,320.1,362.9,318.8,365.5,325z"/>
		</g>
		<g>
			<g>
				<path d="M347.7,363.3c0.7-1,1.3-2.1,1.9-3.2c0.8-1.4,1.7-3,0.8-4.6c-1-1.8-2.9-1.3-4.6-1.2c-3.5,0.3-7.1,0.4-10.6,0.5
					c-1.8,0.1-3.7,0.1-5.5,0.2c-1.8,0-4.4-0.4-5.5,1.5c-0.9,1.5,0,2.9,0.9,4.1c0.8,1.1,1.6,2.1,2.5,3c1.8,1.9,3.8,3.9,5.9,5.4
					c2.6,1.8,5.9,1.8,8.5,0.2C344.5,367.7,346.2,365.5,347.7,363.3c0.7-1.1,0.2-2.7-0.9-3.3c-1.2-0.7-2.6-0.2-3.3,0.9
					c-1.4,2.1-4.3,6.2-7.2,4.3c-1.5-1-2.9-2.4-4.2-3.7c-0.7-0.7-1.4-1.4-2-2.2c-0.3-0.3-0.6-0.7-0.9-1c-0.2-0.2-0.7-0.7-0.7-0.9
					c0,0.4,0,0.9,0,1.3c0-0.1,0-0.2,0.1-0.2c-0.2,0.4-0.4,0.7-0.6,1.1c0.1-0.1,0.1-0.1,0.2-0.2c-0.4,0.2-0.7,0.4-1.1,0.6
					c-0.4,0.1-0.1,0,0.1,0s0.4,0,0.6,0c0.4,0,0.8,0,1.2,0c0.9,0,1.8,0,2.7-0.1c2.1-0.1,4.2-0.1,6.3-0.2c1.9-0.1,3.9-0.2,5.8-0.3
					c0.8,0,1.5-0.1,2.3-0.2c0.3,0,0.6-0.1,1-0.1c0.2,0,1,0,0.3-0.1c-0.4-0.2-0.7-0.4-1.1-0.6c0.1,0.1,0.1,0.1,0.2,0.2
					c-0.2-0.4-0.4-0.7-0.6-1.1c0,0.1,0.1,0.2,0.1,0.2c0-0.4,0-0.9,0-1.3c-0.1,0.7-0.8,1.5-1.1,2.2c-0.4,0.8-0.9,1.6-1.4,2.4
					c-0.7,1.1-0.2,2.7,0.9,3.3C345.6,364.8,347,364.4,347.7,363.3z"/>
			</g>
		</g>
	</g>
</g>
</svg>
