<?xml version="1.0" encoding="utf-8"?>
<!-- Generator: Adobe Illustrator 26.3.1, SVG Export Plug-In . SVG Version: 6.00 Build 0)  -->
<svg version="1.1" id="color" xmlns="http://www.w3.org/2000/svg" xmlns:xlink="http://www.w3.org/1999/xlink" x="0px" y="0px"
	 viewBox="0 0 720 720" style="enable-background:new 0 0 720 720;" xml:space="preserve">
<style type="text/css">
	.st0{fill:#FFFFFF;}
	.st1{fill:#82C1EA;}
	.st2{fill:#928170;}
	.st3{fill:#579ED7;}
	.st4{fill:#FCD475;}
</style>
<circle class="st0" cx="360" cy="360" r="360"/>
<g id="group">
	<g>
		<path class="st0" d="M447.5,310.1c-1.2,8.5-1.4,16.1-1.1,24.6c0.5,14.9,2,58.2,4,75.5c5.6,0.1,12.8,0,19.3,0s12.9-0.1,19-0.2
			c1.4-17.5,3.9-60.4,4.4-75.2c0.3-8.5,0.1-16.1-1.1-24.6h-11.4c-4.9,0-16.9,0-21.8,0h-11.3V310.1z"/>
	</g>
	<g>
		<path class="st0" d="M220.5,407c-1.2,8.5-1.4,16.1-1.1,24.6c0.5,14.9,2,58.2,4,75.5c5.6,0.1,12.8,0,19.3,0s12.9-0.1,19-0.2
			c1.4-17.5,3.9-60.4,4.4-75.2c0.3-8.5,0.1-16.1-1.1-24.6h-11.4c-4.9,0-16.9,0-21.8,0h-11.3V407z"/>
	</g>
	<g>
		<path class="st0" d="M273.3,527.4c-0.2,0.3-0.5,0.5-0.9,0.8c-1.2,0.7-2.7,1-4.1,1.2c-3.3,0.4-6.8-0.3-9.7-1.6
			c-0.9-0.4-1.6-1-2.4-1.5c-1.8-1.4-4.1-2.7-6.5-3.6c-1.5-0.6-3.6-0.9-4.8-1.8c-1.6-1.3-1.5-3.6-1.5-5.3c0-1.2,0-4.6,0-6
			c0,0,0-1,0-2.3c4.5,0,9-0.1,13.4-0.1c5.4,3.2,11.7,9,15.7,12.8c1.4,1.3,2.6,3.1,1.9,5.5C274,526.1,273.8,526.8,273.3,527.4z"/>
	</g>
	<g>
		<path class="st0" d="M212,527.5c-0.6-0.6-0.8-1.3-1-2.2c-0.6-2.4,0.8-4.1,2.2-5.5c4.1-4,9.9-9.2,15.8-12.7c4.1,0,8.6,0,12.8,0
			c0,1.3,0,2.3,0,2.3c0,1.6,0,4.9,0,6c0,1.7,0.2,4.1-1.5,5.3c-1.2,0.9-3.3,1.3-4.8,1.8c-2.4,0.9-4.7,2.2-6.5,3.6
			c-0.7,0.6-1.5,1.1-2.4,1.5c-2.9,1.4-6.4,2-9.7,1.6c-1.5-0.2-2.9-0.5-4.1-1.2C212.5,527.9,212.2,527.7,212,527.5z"/>
	</g>
	<g>
		<path class="st0" d="M500.3,430.5c-0.2,0.3-0.5,0.5-0.9,0.8c-1.2,0.7-2.7,1-4.1,1.2c-3.3,0.4-6.8-0.3-9.7-1.6
			c-0.9-0.4-1.6-1-2.4-1.5c-1.8-1.4-4.1-2.7-6.5-3.6c-1.5-0.6-3.6-0.9-4.8-1.8c-1.6-1.3-1.5-3.6-1.5-5.3c0-1.2,0-4.6,0-6
			c0,0,0-1,0-2.3c4.5,0,9-0.1,13.4-0.1c5.4,3.2,11.7,9,15.7,12.8c1.4,1.3,2.6,3.1,1.9,5.5C501.1,429.2,500.8,429.9,500.3,430.5z"/>
	</g>
	<g>
		<path class="st0" d="M439,430.6c-0.6-0.6-0.8-1.3-1-2.2c-0.6-2.4,0.8-4.1,2.2-5.5c4.1-4,9.9-9.2,15.8-12.7c4.1,0,8.6,0,12.8,0
			c0,1.3,0,2.3,0,2.3c0,1.6,0,4.9,0,6c0,1.7,0.2,4.1-1.5,5.3c-1.2,0.9-3.3,1.3-4.8,1.8c-2.4,0.9-4.7,2.2-6.5,3.6
			c-0.7,0.6-1.5,1.1-2.4,1.5c-2.9,1.4-6.4,2-9.7,1.6c-1.5-0.2-2.9-0.5-4.1-1.2C439.5,431,439.2,430.8,439,430.6z"/>
	</g>
	<g>
		<path class="st0" d="M218.5,413.5c-2.2-0.1-7.5-0.2-10.9-0.4c-2.1,6.3-4.6,14.1-4.5,19.1c0,1.4,1,2.3,2.2,2.5
			c1,0.2,2.1-0.2,2.9-0.9s1.3-1.5,1.8-2.4c1.5-2.6,2.1-3.6,2.9-5.4c0.8,1.6,2.5,2.7,3.6,2.6c0.8,0,1.4-0.3,1.8-0.6
			c0.9-0.9,1.1-1.4,1.2-2.6c0.1-1.6,0.2-2.4,0.2-3.9l-0.1-7.1L218.5,413.5z"/>
	</g>
	<g>
		<path class="st0" d="M279.6,434.8c0.1,0,0.3,0,0.4,0c1.3-0.2,2.2-1.1,2.2-2.5c0.1-5-2.4-12.8-4.5-19.2c-3,0.2-9,0.4-12,0.4
			c0,0.6,0,1,0,1l-0.1,7.1c0,1.4,0,2.3,0.2,3.9c0.1,1.2,0.3,1.8,1.2,2.6c0.4,0.3,0.9,0.6,1.8,0.6c1.2,0.1,2.9-1,3.6-2.6
			c0.8,1.8,1.4,2.8,2.9,5.4c0.5,0.9,1,1.7,1.8,2.4C277.8,434.4,278.7,434.8,279.6,434.8z"/>
	</g>
	<g>
		<path class="st0" d="M508.1,337.9c0.1,0,0.3,0,0.4,0c1.3-0.2,2.2-1.1,2.2-2.5c0.1-5-2.4-12.8-4.5-19.2c-3,0.2-9,0.4-12,0.4
			c0,0.6,0,1,0,1l-0.1,7.1c0,1.4,0,2.3,0.2,3.9c0.1,1.2,0.3,1.8,1.2,2.6c0.4,0.3,0.9,0.6,1.8,0.6c1.2,0.1,2.9-1,3.6-2.6
			c0.8,1.8,1.4,2.8,2.9,5.4c0.5,0.9,1,1.7,1.8,2.4C506.3,337.5,507.2,337.9,508.1,337.9z"/>
	</g>
	<g>
		<g>
			<path d="M503.3,314.1c2,5.9,4.3,12,5.2,18.2c0.1,0.6,0.1,1.2,0.2,1.8c0,0.3,0.2,1,0,1.3c-0.6,1-2-0.3-2.5-0.8
				c-1.6-2.2-2.9-4.8-3.9-7.3c-0.4-1-1.3-1.7-2.5-1.4c-0.9,0.3-1.8,1.5-1.4,2.5c0.6,1.5,1.3,3.1,2.1,4.5c0.9,1.7,1.8,3.5,3.1,4.9
				c1.5,1.6,3.8,2.5,6,1.7c1.9-0.7,3-2.4,3.1-4.4c0.1-3.6-0.9-7.3-1.9-10.8c-1.1-3.8-2.4-7.6-3.7-11.4
				C506.4,310.6,502.5,311.6,503.3,314.1L503.3,314.1z"/>
		</g>
	</g>
	<g>
		<g>
			<path d="M498.5,329.1c-0.2,0.2-0.3,0.3-0.5,0.4c-0.1,0.1-0.2,0.1-0.4,0.2c0.2-0.1,0.1-0.1-0.1,0c-0.1,0-0.2,0.1-0.4,0.1
				c0.2,0,0.2,0,0,0c0.1,0,0.1,0-0.1,0c-0.1,0-0.3-0.1-0.4-0.1c0.2,0.1,0.2,0.1,0,0c0.2,0.2,0.2,0.2,0,0c-0.1-0.1-0.2-0.2-0.3-0.3
				c0.1,0.2,0.1,0.1,0,0l-0.1-0.1c0.1,0.2,0.1,0.2,0,0c0-0.1-0.1-0.2-0.1-0.3c0,0.2,0,0.2,0,0c-0.1-1.6-0.2-3.1-0.2-4.7
				c0-2.2,0-4.3,0-6.5c0-1.1-0.9-2-2-2s-2,0.9-2,2c0,2,0,3.9,0,5.9c0,1,0,2,0,3c0.1,2.2,0.1,4.4,1.9,6.1c2.2,2.1,5.4,1.3,7.4-0.6
				c0.8-0.8,0.8-2.1,0-2.8C500.6,328.3,499.3,328.3,498.5,329.1L498.5,329.1z"/>
		</g>
	</g>
	<g>
		<path class="st0" d="M460,309.7c-0.4-16.5-1.4-37.4-2.2-53.3c6.4,4.6,16.6,4.3,22.7-0.7c-0.8,16.1-1.8,37.6-2.2,54.4
			c-5.1,0-13.6,0-18.3,0C460,310,460,309.9,460,309.7z"/>
	</g>
	<g>
		<g>
			<path d="M466.9,412.5c0,1.6,0,3.3,0,4.9c0,1.3,0.3,3.1-0.3,4.3c-0.6,1.3-3.1,1.5-4.3,1.9c-2.2,0.8-4.3,1.8-6.1,3.2
				c-1.8,1.3-3.4,2.4-5.5,3.1c-2.1,0.6-4.4,0.9-6.6,0.6c-1.7-0.2-3.6-0.6-4-2.4c-0.4-1.7,0.8-2.8,1.9-3.9c3.6-3.6,7.5-7,11.7-9.9
				c2.1-1.5,0.1-4.9-2-3.5c-4.5,3.2-8.7,6.8-12.6,10.7c-1.6,1.6-3.1,3.5-3.1,5.8s1.1,4.7,3.2,5.8c4.7,2.6,11.5,1.7,16-0.7
				c2.3-1.2,4.1-3,6.5-4.1c2.2-1.1,4.9-1.3,6.9-2.7c2.2-1.6,2.5-4.2,2.4-6.8c0-2.1,0-4.2,0-6.3C470.9,409.9,466.9,409.9,466.9,412.5
				L466.9,412.5z"/>
		</g>
	</g>
	<g>
		<g>
			<path d="M468.3,412.5c0,1.9,0,3.7,0,5.6c0,2-0.1,4.3,1.1,6c1.5,2.2,4,2.5,6.3,3.3c2.6,0.9,4.8,2.5,7,4c4.2,3,10.8,4,15.8,2.3
				c2.4-0.8,4-2.3,4.6-4.8c0.6-2.6-0.2-5-2-7s-4-3.9-6-5.7c-2.5-2.2-5-4.2-7.7-6.1c-2.1-1.5-4.1,2-2,3.5c3.7,2.6,7.1,5.6,10.4,8.8
				c1.2,1.1,3,2.4,3.4,4.1c0.5,1.7-0.5,3-2,3.5c-4,1.3-9.2,0.4-12.6-2.1c-1.9-1.4-3.8-2.6-5.9-3.6c-1-0.4-1.9-0.8-2.9-1.1
				c-0.8-0.2-2-0.4-2.7-1c-1.2-0.9-0.8-3.1-0.8-4.4c0-1.8,0-3.6,0-5.4C472.3,409.9,468.3,409.9,468.3,412.5L468.3,412.5z"/>
		</g>
	</g>
	<g>
		<g>
			<path d="M490,310.6c1.9,13.7,1,27.5,0.3,41.2c-0.7,13.4-1.5,26.7-2.4,40.1c-0.4,6-0.8,12-1.3,18.1c-0.2,2.6,3.8,2.6,4,0
				c1-12,1.7-24,2.4-36.1c0.7-12.1,1.4-24.2,1.9-36.3c0.4-9.4,0.2-18.8-1.1-28.1c-0.1-1.1-1.5-1.7-2.5-1.4
				C490.2,308.5,489.8,309.6,490,310.6L490,310.6z"/>
		</g>
	</g>
	<g>
		<g>
			<path d="M445.5,309.6c-1.9,13.9-1.2,27.8-0.6,41.8c0.5,13.4,1.1,26.8,1.9,40.2c0.4,6.1,0.8,12.2,1.5,18.2c0.1,1.1,0.8,2,2,2
				c1,0,2.1-0.9,2-2c-1.4-11.8-1.9-23.8-2.4-35.6c-0.6-12-1-24.1-1.4-36.1c-0.3-9.2-0.3-18.3,1-27.4c0.1-1.1-0.3-2.1-1.4-2.5
				C447.1,307.9,445.7,308.5,445.5,309.6L445.5,309.6z"/>
		</g>
	</g>
	<g>
		<g>
			<path d="M467.6,335.6c0,19.2,0,38.5,0,57.7c0,5.5,0,10.9,0,16.4c0,2.6,4,2.6,4,0c0-19.2,0-38.5,0-57.7c0-5.5,0-10.9,0-16.4
				C471.6,333.1,467.6,333.1,467.6,335.6L467.6,335.6z"/>
		</g>
	</g>
	<g>
		<g>
			<path d="M451.5,412.2c12,0.1,24.1,0,36.1-0.2c2.6-0.1,2.6-4.1,0-4c-12,0.3-24.1,0.3-36.1,0.2
				C448.9,408.2,448.9,412.2,451.5,412.2L451.5,412.2z"/>
		</g>
	</g>
	<g>
		<g>
			<path d="M458.6,312.1c7.2,0,14.5,0,21.8,0c2.6,0,2.6-4,0-4c-7.2,0-14.5,0-21.8,0C456.1,308.1,456.1,312.1,458.6,312.1
				L458.6,312.1z"/>
		</g>
	</g>
	<g>
		<path class="st1" d="M493.3,316.6c2.9-0.1,11.8-0.3,14.1-0.5c0.8-0.1,1.4-0.9,1.3-1.7c-0.5-8.4-4.2-41.4-9.7-50.5
			c-2-3.2-3.9-5-5.6-6.3c-3.3-2.5-9-4.7-12.7-6c-0.9,17.4-2.1,43.1-2.5,61.7c0,0.8,0.6,1.5,1.5,1.5h11.9L493.3,316.6z"/>
	</g>
	<g>
		<path class="st2" d="M222.7,351.3c-4.9,0.1-8.1-3.5-8-6.8c0-2.3,0.6-6,1.2-8.3c0.9-3.3,1.6-9,1.6-17c-0.4-11.8,2.7-20.4,7.6-25
			c3-2.8,9.6-6.7,17.1-6.7c4.6,0,8,0.9,10.8,2.1c1.1,0.4,2.7,1.3,4,2.3c0.9,0.7,1.7,1.4,2.8,2.4c4.3,3.9,7.4,11.5,7.8,17.3
			c0.1,1.7,0,4.6,0.1,8.3c0.1,10,0.9,14.9,1.9,17.6c0.8,2.2,1.1,4,1.2,6.2c0,3.7-4.6,8.6-9.9,6.6"/>
	</g>
	<g>
		<path class="st0" d="M233.4,406.6c-0.4-16.5-1.4-37.4-2.2-53.3c6.4,4.6,16.6,4.3,22.7-0.7c-0.8,16.1-1.8,37.6-2.2,54.4
			c-5.1,0-13.6,0-18.3,0C233.4,406.9,233.4,406.8,233.4,406.6z"/>
	</g>
	<g>
		<path class="st0" d="M267.1,319.6c-1-1.8-3.3-2.7-5.3-2.2c-2.5-1.4-5.9-4.3-7.7-6.8c-2.6-3.6-3.5-5.6-4.3-8.1
			c-6.4,6.1-21.5,14-26.6,14.8c-1.9-0.4-4,0.4-5,2.1c-1.1,1.8-0.9,4.3,0.2,6.2c1.1,2,3.2,3.6,5.3,4.3c0.8,2.3,2.1,5,4.4,7.5
			c1.8,2,3.9,3.5,6.1,4.5v0.2c0,0.4-0.3,2.7-0.4,3.2c-0.2,1.3-0.2,2.4-1.9,3c-0.1,0-0.6,0.2-1,0.3c0.1,1.5,0.1,3,0.2,4.6
			c6.4,4.6,16.6,4.3,22.7-0.7c0.1-1.4,0.1-2.7,0.2-4c-0.7-0.3-1.7-0.7-1.8-0.7c-1.8-0.6-1.7-1.8-1.9-3c-0.2-1.1-0.2-1.9-0.3-2.5l0,0
			c2.6-1,5-2.6,7.2-5.1c2.2-2.5,3.5-5.2,4.3-7.5c0.1,0,0.2-0.1,0.2-0.1c1.9-0.7,3.8-2.2,4.9-4C267.8,323.9,268.1,321.4,267.1,319.6z
			"/>
	</g>
	<g>
		<path class="st2" d="M449.3,254.4c-4.9,0.1-8.1-3.5-8-6.8c0-2.3,0.6-6,1.2-8.3c0.9-3.3,1.6-9,1.6-17c-0.4-11.8,2.7-20.4,7.6-25
			c3-2.8,9.6-6.7,17.1-6.7c4.6,0,8,0.9,10.8,2.1c1.1,0.4,2.7,1.3,4,2.3c0.9,0.7,1.7,1.4,2.8,2.4c4.3,3.9,7.4,11.5,7.8,17.3
			c0.1,1.7,0,4.6,0.1,8.3c0.1,10,0.9,14.9,1.9,17.6c0.8,2.2,1.1,4,1.2,6.2c0,3.7-4.6,8.6-9.9,6.6"/>
	</g>
	<g>
		<g>
			<path d="M274.8,411c2,5.9,4.3,12,5.2,18.2c0.1,0.6,0.1,1.2,0.2,1.8c0,0.3,0.2,1,0,1.3c-0.6,1-2-0.3-2.5-0.8
				c-1.6-2.2-2.9-4.8-3.9-7.3c-0.4-1-1.3-1.7-2.5-1.4c-0.9,0.3-1.8,1.5-1.4,2.5c0.6,1.5,1.3,3.1,2.1,4.5c0.9,1.7,1.8,3.5,3.1,4.9
				c1.5,1.6,3.8,2.5,6,1.7c1.9-0.7,3-2.4,3.1-4.4c0.1-3.6-0.9-7.3-1.9-10.8c-1.1-3.8-2.4-7.6-3.7-11.4
				C277.8,407.5,274,408.5,274.8,411L274.8,411z"/>
		</g>
	</g>
	<g>
		<g>
			<path d="M270,426c-0.2,0.2-0.3,0.3-0.5,0.4c-0.1,0.1-0.2,0.1-0.4,0.2c0.2-0.1,0.1-0.1-0.1,0c-0.1,0-0.2,0.1-0.4,0.1
				c0.2,0,0.2,0,0,0c0.1,0,0.1,0-0.1,0c-0.1,0-0.3-0.1-0.4-0.1c0.2,0.1,0.2,0.1,0,0c0.2,0.2,0.2,0.2,0,0c-0.1-0.1-0.2-0.2-0.3-0.3
				c0.1,0.2,0.1,0.1,0,0l-0.1-0.1c0.1,0.2,0.1,0.2,0,0c0-0.1-0.1-0.2-0.1-0.3c0,0.2,0,0.2,0,0c-0.1-1.6-0.2-3.1-0.2-4.7
				c0-2.2,0-4.3,0-6.5c0-1.1-0.9-2-2-2s-2,0.9-2,2c0,2,0,3.9,0,5.9c0,1,0,2,0,3c0.1,2.2,0.1,4.4,1.9,6.1c2.2,2.1,5.4,1.3,7.4-0.6
				c0.8-0.8,0.8-2.1,0-2.8C272.1,425.2,270.8,425.2,270,426L270,426z"/>
		</g>
	</g>
	<g>
		<g>
			<path d="M206.6,409.9c-1.3,3.7-2.5,7.4-3.6,11.2c-1,3.5-2,7.3-1.9,11c0.1,4.8,5.9,6,8.9,2.8c1.4-1.4,2.3-3.3,3.2-5
				c0.8-1.5,1.5-3,2.1-4.5c0.4-1-0.4-2.2-1.4-2.5c-1.2-0.3-2,0.4-2.5,1.4c-1,2.5-2.3,5-3.8,7.2c-0.4,0.6-1.9,2.1-2.6,1
				c-0.2-0.3,0-1,0-1.3c0-0.6,0.1-1.2,0.2-1.8c0.9-6.2,3.1-12.3,5.2-18.2C211.3,408.5,207.4,407.5,206.6,409.9L206.6,409.9z"/>
		</g>
	</g>
	<g>
		<g>
			<path d="M212.4,428.8c1.7,1.7,4.3,2.5,6.6,1.2c1-0.6,1.8-1.6,2.2-2.7c0.4-1,0.4-2.2,0.4-3.2c0.1-2.3,0.1-4.6,0-6.9
				c0-0.9,0-1.8,0-2.7c0-1.1-0.9-2-2-2s-2,0.9-2,2c0,2.2,0,4.3,0,6.5c0,1.6-0.1,3.1-0.2,4.7c0,0.3,0,0.3,0,0c0,0.1,0,0.2-0.1,0.3
				c-0.1,0.2-0.1,0.2,0,0.1c0.1-0.1,0-0.1,0,0.1c-0.1,0.2-0.1,0.2,0,0c-0.1,0.1-0.2,0.2-0.3,0.3c-0.2,0.2-0.2,0.2,0,0
				c-0.2,0.1-0.2,0.1,0,0c-0.1,0-0.2,0.1-0.4,0.1c-0.2,0.1-0.3,0.1-0.1,0c-0.2,0-0.2,0,0,0c-0.1,0-0.2-0.1-0.4-0.1
				c-0.2-0.1-0.2-0.1-0.1,0c-0.1-0.1-0.3-0.1-0.4-0.2c-0.2-0.1-0.2-0.2-0.5-0.4c-0.8-0.8-2.1-0.8-2.8,0
				C211.7,426.7,211.6,428,212.4,428.8L212.4,428.8z"/>
		</g>
	</g>
	<g>
		<path class="st1" d="M447.6,256c-1,0.5-1.9,1.1-2.6,1.7c-1.7,1.2-3.6,3-5.6,6.3c-0.3,0.5-0.6,1.1-0.9,1.8l-11.9,0.9
			c0.4,5,0.4,8.6,1.1,16c0.2,1.9,0.4,3.8,0.9,5.6c1.2,4,4.7,7.4,8.9,7.8c3.1,0.3,5.2-0.2,7.2-1c-0.1,6.5-0.2,13-0.4,20
			c1.3,0,2.5,0,2.5,0h11.9c0.8,0,1.5-0.7,1.5-1.5c-0.4-18.7-1.6-44.3-2.5-61.7C454.8,252.7,450.8,254.2,447.6,256z"/>
	</g>
	<g>
		<g>
			<path d="M449.3,252.4c-2.3,0-4.6-0.9-5.7-3.1c-0.9-1.9-0.2-4.6,0.1-6.6c0.4-2.1,1-4.2,1.3-6.3c0.4-2.7,0.6-5.4,0.8-8.1
				c0.3-6.3-0.2-12.5,1.3-18.7c1.1-4.1,2.9-8.3,6.2-11.2c8.1-7.3,22-7.9,30.3-0.7c4.2,3.7,6.8,8.6,8,14.1c0.5,2.3,0.5,4.5,0.5,6.9
				c0,3.2,0,6.5,0.2,9.7c0.2,4.3,0.5,8.7,1.8,12.8c0.8,2.6,1.9,5.8,0.2,8.2c-1.5,2.2-4,3-6.5,2.2c-2.4-0.8-3.5,3.1-1.1,3.9
				c5.6,1.9,12.1-2.3,12.5-8.3c0.2-2.9-0.9-5.5-1.6-8.2c-0.5-1.8-0.7-3.6-0.9-5.4c-0.6-6.2-0.3-12.4-0.6-18.6
				c-0.4-6.1-2.9-12.5-6.8-17.2c-8.5-10.3-24.2-11.6-35.3-4.8c-4.5,2.8-7.5,6.8-9.5,11.6c-2.5,6.2-2.6,12.7-2.6,19.2
				c0,3.6-0.2,7.2-0.7,10.8c-0.4,2.8-1.2,5.5-1.6,8.2c-0.5,3.1-1,6.5,0.9,9.3c2,2.9,5.2,4.4,8.7,4.4
				C451.8,256.4,451.8,252.4,449.3,252.4L449.3,252.4z"/>
		</g>
	</g>
	<g>
		<path class="st0" d="M493.7,222.7c-1-1.8-3.3-2.7-5.3-2.2c-2.5-1.4-5.9-4.3-7.7-6.8c-2.6-3.6-3.5-5.6-4.3-8.1
			c-6.4,6.1-21.5,14-26.6,14.8c-1.9-0.4-4,0.4-5,2.1c-1.1,1.8-0.9,4.3,0.2,6.2c1.1,2,3.2,3.6,5.3,4.3c0.8,2.3,2.1,5,4.4,7.5
			c1.8,2,3.9,3.5,6.1,4.5v0.2c0,0.4-0.3,2.7-0.4,3.2c-0.2,1.3-0.2,2.4-1.9,3c-0.1,0-0.6,0.2-1,0.3c0.1,1.5,0.1,3,0.2,4.6
			c6.4,4.6,16.6,4.3,22.7-0.7c0.1-1.4,0.1-2.7,0.2-4c-0.7-0.3-1.7-0.7-1.8-0.7c-1.8-0.6-1.7-1.8-1.9-3c-0.2-1.1-0.2-1.9-0.3-2.5l0,0
			c2.6-1,5-2.6,7.2-5.1s3.5-5.2,4.3-7.5c0.1,0,0.2-0.1,0.2-0.1c1.9-0.7,3.8-2.2,4.9-4C494.4,227,494.7,224.5,493.7,222.7z"/>
	</g>
	<g>
		<g>
			<path d="M489,222.4c0.2,0,0.3-0.1,0.5-0.1c-0.5,0.1,0,0,0.1,0c0.2,0,0.3,0,0.5,0c-0.3,0-0.2,0,0,0s0.3,0.1,0.5,0.1
				c0.2,0.1,0.3,0.1,0.1,0c0.1,0.1,0.3,0.1,0.4,0.2c0.1,0,0.5,0.4,0.1,0.1c0.1,0.1,0.3,0.2,0.4,0.3s0.4,0.5,0.1,0.1
				c0.1,0.1,0.2,0.2,0.2,0.4c0,0.1,0.1,0.2,0.1,0.2c-0.1-0.2-0.1-0.2,0-0.1c0.1,0.3,0.2,0.7,0.3,1c-0.1-0.4,0,0.2,0,0.2
				c0,0.2,0,0.4,0,0.6c0,0.1-0.1,0.6,0,0.2c0,0.2-0.1,0.3-0.1,0.5s-0.1,0.4-0.2,0.6c0,0.1-0.1,0.4,0,0.2c-0.1,0.4-0.3,0.7-0.5,1
				c0,0-0.4,0.5-0.1,0.2c-0.1,0.2-0.2,0.3-0.4,0.4c-0.2,0.3-0.5,0.5-0.8,0.8c-0.1,0.1-0.2,0.2-0.4,0.3c0.3-0.2-0.2,0.1-0.2,0.2
				c-0.3,0.2-0.7,0.4-1,0.6c-0.2,0.1-0.3,0.2-0.5,0.3c-0.4,0.2,0.2-0.1-0.2,0.1c-1,0.4-1.8,1.4-1.4,2.5c0.3,1,1.4,1.8,2.5,1.4
				c4-1.5,7.5-5,7.4-9.5c0-2.2-1-4.3-2.8-5.6c-1.6-1.2-3.7-1.5-5.6-1c-1,0.3-1.7,1.4-1.4,2.5C486.8,222.1,487.9,222.7,489,222.4
				L489,222.4z"/>
		</g>
	</g>
	<g>
		<g>
			<path d="M450.7,218.6c-1.9-0.6-4-0.3-5.7,0.9c-1.9,1.3-2.8,3.3-2.9,5.6c-0.2,4.5,3.3,8.1,7.2,9.7c1,0.4,2.2-0.4,2.5-1.4
				c0.3-1.2-0.4-2-1.4-2.5c0.4,0.1-0.2-0.1-0.2-0.1c-0.2-0.1-0.3-0.2-0.5-0.3c-0.3-0.2-0.6-0.4-0.9-0.6c-0.1-0.1-0.1-0.1,0,0
				c-0.1-0.1-0.2-0.1-0.2-0.2c-0.1-0.1-0.2-0.2-0.4-0.3c-0.3-0.3-0.6-0.6-0.8-0.9c-0.4-0.5,0.2,0.3-0.2-0.2
				c-0.1-0.2-0.2-0.3-0.3-0.5c-0.1-0.1-0.2-0.3-0.2-0.4c0-0.1-0.1-0.2-0.1-0.3c0.1,0.2,0.1,0.2,0,0c-0.1-0.3-0.2-0.7-0.3-1
				c0,0-0.1-0.6-0.1-0.2c0-0.2,0-0.4,0-0.6c0-0.2,0-0.4,0-0.6c0-0.4,0,0.1,0-0.1c0.1-0.3,0.1-0.7,0.3-1c-0.2,0.4,0.1-0.1,0.1-0.2
				c0-0.1,0.4-0.5,0.1-0.1c0.1-0.1,0.2-0.3,0.3-0.4c0.1-0.1,0.5-0.4,0.1-0.1c0.1-0.1,0.2-0.2,0.4-0.2c0.1,0,0.5-0.3,0.3-0.2
				s0.2-0.1,0.2-0.1c0.2,0,0.3-0.1,0.5-0.1c0.5-0.1-0.4,0,0.1,0c0.2,0,0.3,0,0.5,0c0.4,0-0.3-0.1,0.1,0c0.2,0,0.3,0.1,0.5,0.1
				c1,0.3,2.2-0.4,2.5-1.4C452.4,220,451.8,219,450.7,218.6L450.7,218.6z"/>
		</g>
	</g>
	<g>
		<g>
			<path d="M486.2,232.3c-1.2,3.6-3.5,7-6.6,9.3c-3,2.2-6.6,3.1-10.3,3.1c-3.8,0-7.5-0.9-10.5-3.1c-3-2.2-5.3-5.6-6.5-9.1
				c-0.8-2.4-4.7-1.4-3.9,1.1c2.3,6.7,7.4,12.5,14.4,14.3c7,1.9,15.1,0.7,20.6-4.2c3.1-2.8,5.3-6.4,6.7-10.3
				C490.9,230.9,487.1,229.9,486.2,232.3L486.2,232.3z"/>
		</g>
	</g>
	<g>
		<path d="M474,225.1c0-0.2-0.2-1.9,1-3.1c0.8-0.8,1.7-0.8,2-0.9c0.2,0,1.7,0,2.6,1.2s1,3.2-0.1,4.5c-1.1,1.4-2.9,1.5-4.1,0.7
			C474.4,226.9,474.1,226,474,225.1z"/>
	</g>
	<g>
		<path d="M458.7,225.1c0-0.2-0.2-1.9,1-3.1c0.8-0.8,1.7-0.8,2-0.9c0.2,0,1.7,0,2.6,1.2s1,3.2-0.1,4.5c-1.1,1.4-2.9,1.5-4.1,0.7
			C459.1,226.9,458.8,226,458.7,225.1z"/>
	</g>
	<g>
		<g>
			<path d="M475,204.2c-3.8,3.5-8.3,6.3-12.9,8.8c-3.9,2.1-8,4.4-12.3,5.4c-2.5,0.6-1.4,4.4,1.1,3.9c4.6-1.1,9.1-3.5,13.3-5.8
				c4.8-2.7,9.6-5.6,13.7-9.4C479.7,205.3,476.9,202.4,475,204.2L475,204.2z"/>
		</g>
	</g>
	<g>
		<g>
			<path d="M489.4,218.8c-1.4-0.8-2.5-1.7-3.7-2.7c-0.7-0.6-1.3-1.2-1.9-1.8c-0.3-0.3-0.6-0.6-0.8-0.9c-0.1-0.1-0.2-0.3-0.4-0.4
				c0,0-0.4-0.5-0.2-0.3c-1-1.4-2-2.8-2.8-4.4c-0.1-0.3-0.3-0.6-0.4-0.8c0,0-0.2-0.6-0.1-0.2c-0.1-0.1-0.1-0.3-0.2-0.4
				c-0.2-0.6-0.4-1.2-0.6-1.8c-0.3-1-1.4-1.7-2.5-1.4c-1,0.3-1.7,1.4-1.4,2.5c2,6.7,6.9,12.6,12.9,16.1
				C489.6,223.5,491.7,220.1,489.4,218.8L489.4,218.8z"/>
		</g>
	</g>
	<g>
		<g>
			<path d="M458.9,245.2c0,0.8-0.2,1.7-0.3,2.5c0-0.2,0-0.4,0.1-0.5c-0.1,0.8-0.2,1.7-0.5,2.4c0.1-0.2,0.1-0.3,0.2-0.5
				c0,0.1-0.1,0.2-0.2,0.3c-0.1,0.2-0.2,0.2,0.1-0.2l-0.1,0.1l-0.1,0.1c0-0.1,0.5-0.3,0.2-0.1c-0.2,0.1-0.3,0.2-0.5,0.2
				c0.2-0.1,0.3-0.1,0.5-0.2c-0.5,0.2-1,0.3-1.5,0.5c-1,0.3-1.7,1.4-1.4,2.5c0.3,1,1.4,1.8,2.5,1.4c0.9-0.3,1.9-0.5,2.6-1.1
				c1-0.7,1.6-1.8,1.8-3c0.1-0.8,0.3-1.7,0.4-2.5c0.1-0.7,0.2-1.4,0.2-2.1c0-1-0.9-2-2-2C459.8,243.3,458.9,244.1,458.9,245.2
				L458.9,245.2z"/>
		</g>
	</g>
	<g>
		<g>
			<path d="M474.7,245.5c0.1,0.9,0.2,1.9,0.3,2.8c0.1,0.6,0.2,1.3,0.4,1.9c0.4,1,1.1,1.9,2.1,2.4c0.6,0.3,1.2,0.5,1.7,0.7
				s1,0.4,1.4,0.6c0.4,0.2,1.1,0,1.5-0.2s0.8-0.7,0.9-1.2s0.1-1.1-0.2-1.5c-0.3-0.5-0.7-0.7-1.2-0.9c-0.8-0.3-1.7-0.6-2.5-1
				c0.2,0.1,0.3,0.1,0.5,0.2c-0.3-0.1-0.5-0.2-0.7-0.4c0.1,0.1,0.3,0.2,0.4,0.3c-0.1-0.1-0.3-0.2-0.4-0.4c0.1,0.1,0.2,0.3,0.3,0.4
				c-0.1-0.1-0.2-0.3-0.3-0.5c0.1,0.2,0.1,0.3,0.2,0.5c-0.3-0.8-0.4-1.7-0.5-2.5c0,0.2,0,0.4,0.1,0.5c-0.1-0.6-0.1-1.1-0.2-1.7
				c0-0.5-0.2-1-0.6-1.4c-0.3-0.3-0.9-0.6-1.4-0.6C475.7,243.5,474.6,244.4,474.7,245.5L474.7,245.5z"/>
		</g>
	</g>
	<g>
		<g>
			<path d="M457.5,258.6c7,4.4,17.1,4.2,23.7-0.9c0.9-0.6,1.3-1.7,0.7-2.7c-0.5-0.8-1.9-1.4-2.7-0.7c-5.6,4.2-13.8,4.6-19.7,0.9
				C457.3,253.7,455.3,257.2,457.5,258.6L457.5,258.6z"/>
		</g>
	</g>
	<g>
		<g>
			<path d="M491.4,272.1c0.2,14.2,0.5,28.5,0.8,42.7c0,2.6,4,2.6,4,0c-0.2-14.2-0.5-28.5-0.8-42.7
				C495.3,269.6,491.3,269.5,491.4,272.1L491.4,272.1z"/>
		</g>
	</g>
	<g>
		<g>
			<path d="M491.6,312.9c-2.7,0-5.4,0-8,0c-0.7,0-1.5,0-2.2,0c-0.3,0-1.2-0.2-1.5,0c0,0-0.1,0-0.2,0c0.2,0.2,0.4,0.3,0.5,0.5
				c0-0.2,0-0.5,0-0.7c0-0.2,0-0.5,0-0.7c0-1.5,0.1-3,0.1-4.6c0.3-12.2,0.9-24.4,1.4-36.7c0.3-6.4,0.6-12.7,0.9-19.1
				c-0.8,0.6-1.7,1.3-2.5,1.9c3.5,1.3,7.1,2.6,10.3,4.5c3,1.7,5.3,4.2,7,7.2c0.5,0.9,0.8,1.6,1.1,2.3c0.4,1.1,0.8,2.2,1.2,3.4
				c0.8,2.7,1.5,5.4,2.1,8.1c2.4,10.9,3.9,22.1,4.8,33.3c0,0.4,0.1,0.9,0.1,1.3c0,0.1,0,0.4,0,0.5c0.1,0.1,0.8-0.1,0.3-0.2
				s-1.2,0.1-1.8,0.1c-0.8,0-1.6,0.1-2.4,0.1c-3.2,0.1-6.4,0.2-9.6,0.3c-2.6,0.1-2.6,4.1,0,4c3-0.1,6.1-0.1,9.1-0.3
				c2.7-0.1,7.4,0.4,8.2-3.1c0.2-1,0-2.1-0.1-3.1c-0.1-1.1-0.2-2.2-0.3-3.3c-0.3-2.8-0.6-5.6-0.9-8.3c-0.8-6.7-1.8-13.4-3.1-20
				c-1.1-5.5-2.3-11.1-4.7-16.2c-1.7-3.5-4.4-6.6-7.6-8.8c-3.8-2.6-8.3-4.2-12.6-5.8c-1.3-0.5-2.5,0.7-2.5,1.9
				c-0.6,12.4-1.2,24.8-1.7,37.2c-0.3,6.4-0.5,12.8-0.7,19.3c0,1.4-0.1,2.8-0.1,4.2c0,1.7,0.1,3.3,1.8,4.2c1.1,0.6,2.5,0.4,3.7,0.4
				c3.3,0,6.6,0,9.9,0C494.2,316.9,494.2,312.9,491.6,312.9L491.6,312.9z"/>
		</g>
	</g>
	<g>
		<g>
			<path d="M442.9,272.1c-0.2,14.2-0.5,28.5-0.8,42.7c0,2.6,4,2.6,4,0c0.2-14.2,0.5-28.5,0.8-42.7C447,269.6,443,269.6,442.9,272.1
				L442.9,272.1z"/>
		</g>
	</g>
	<g>
		<g>
			<path d="M446.7,316.9c2.9,0,5.7,0,8.6,0c1.1,0,2.2,0.1,3.3,0c1.3-0.1,2.5-0.7,3.1-1.8c0.7-1.3,0.4-3.2,0.3-4.6
				c-0.3-12.8-0.9-25.7-1.4-38.5c-0.3-6.8-0.6-13.5-1-20.3c-0.1-1.2-1.2-2.4-2.5-1.9c-4.1,1.5-8.2,3-11.9,5.3
				c-3.7,2.3-6.7,5.7-8.5,9.6c-0.4,1-0.3,2.2,0.7,2.7c0.9,0.5,2.3,0.3,2.7-0.7c1.6-3.5,4.1-6.4,7.4-8.4s7-3.4,10.6-4.7
				c-0.8-0.6-1.7-1.3-2.5-1.9c0.6,11.8,1.1,23.7,1.6,35.5c0.2,6.1,0.5,12.2,0.7,18.2c0,1.4,0.1,2.7,0.1,4.1c0,0.7,0,1.4,0.1,2.1
				c0,0.2,0,0.5,0,0.7s0,0.5,0,0.7c-0.1,0.6,0.1,0.5,0.5-0.1c-0.1-0.1-0.6,0-0.7,0c-0.7,0-1.3,0-2,0c-3.1,0-6.2,0-9.3,0
				C444.1,312.9,444.1,316.9,446.7,316.9L446.7,316.9z"/>
		</g>
	</g>
	<g>
		<g>
			<path d="M424.5,266.5c0.2,3.2,0.4,6.5,0.6,9.7c0.1,2.1,0.3,4.2,0.5,6.3c0.2,2.3,0.4,4.7,1.2,6.8c1.3,3.6,4.1,6.5,7.6,7.9
				c3.6,1.4,7.6,0.9,11.1-0.6c1-0.4,1.2-1.9,0.7-2.7c-0.6-1-1.7-1.1-2.7-0.7c-2.6,1.1-6,1.3-8.5,0c-2.9-1.5-4.5-4.3-5.1-7.4
				c-0.7-3.6-0.8-7.3-1-10.9c-0.2-2.8-0.3-5.5-0.5-8.3C428.3,264,424.3,264,424.5,266.5L424.5,266.5z"/>
		</g>
	</g>
	<g>
		<path class="st0" d="M425.5,262.6c-0.7-1.4-1.5-3-2.1-3.8c-0.9-1.2-1.2-2.5-1.2-3.7c0-0.6,0.3-1.9,0.6-2.3
			c1.3-2.1,2.5-3.9,3.9-5.7c0.3-0.4,0.7-0.8,1.1-1.2c0.6-0.6,1.5-1,2.3-1c0.2,0,1.1,0.5,2.2,1.2c1.7,0.4,2-0.7,2.8-1.3
			c0.9-0.7,2.2-0.5,3.2,0c0.8,0.5,1.7,1.1,2.5,1.9c0.6,0.6,0.9,1.2,1.1,2.1c0.1,0.6,0,1.1-0.4,1.5c-0.3,0.4-1.1,0.8-2.1,0.8
			c1.3,1.5,1.3,2.6,1.3,3.5c0,0.2,0,0.4,0,0.5c0,0.2-0.1,0.4-0.2,0.5c-0.8,1.6-2.3,3.4-1.6,5.4c1.7,5,1.5,7.5-0.1,9
			c-1.3,1.2-3.3,2.1-4.5,2.4c-0.5,0.1-2.6,0.5-3,0.3c-0.8-0.4-1.6-0.6-2.3-1.3c-0.5-0.6-0.8-1.4-1-2.1c-0.3-0.9-1-3.2-1.6-4.7
			C426.1,263.9,425.8,263.3,425.5,262.6z"/>
	</g>
	<g>
		<g>
			<path d="M440.4,249.4c-2.3-1.7-4.6-3.4-7.1-4.9c-0.8-0.5-1.6-1.1-2.5-1.3c-1.3-0.4-2.8,0.1-3.8,0.9c-1.3,0.9-2.2,2.2-3.1,3.5
				c-1,1.4-2.2,2.9-3,4.5c-1.3,2.7-0.8,5.7,0.9,8.1c1.5,2.2,2.6,4.8,3.4,7.3c0.4,1.2,0.7,2.5,1.2,3.7c0.8,1.7,2,2.6,3.7,3.3
				c2.2,0.9,5.2-0.1,7.2-1.1c2.1-1.1,4-2.6,4.5-5.1c0.3-1.6,0.1-3.2-0.3-4.7c-0.4-1.6-1.4-3.1-0.6-4.7c0.7-1.5,1.7-2.6,1.7-4.3
				c0-1.8-0.7-3.3-1.9-4.7c-1.6-2-4.5,0.9-2.8,2.8c0.5,0.6,0.8,1.4,0.7,2.2c0,0.3,0.3-0.4-0.2,0.2c-0.1,0.2-0.3,0.5-0.4,0.7
				c-0.4,0.6-0.7,1.3-1,2c-0.5,1.3-0.6,2.6-0.3,3.9c0.4,1.3,0.9,2.6,1.1,4c0.1,0.7,0.1,1.4,0,2s-0.2,0.7-0.9,1.2
				c-1.5,1.2-3.2,1.7-5.1,1.9c-0.3,0-0.7-0.2-0.1,0.1c-0.2-0.1-0.5-0.2-0.7-0.3c-0.5-0.2-0.8-0.4-1-0.9c-0.4-0.9-0.7-2-1-3
				c-0.8-2.2-1.6-4.4-2.7-6.5c-0.9-1.7-2.6-3.5-2.1-5.4c0.2-1,0.8-1.6,1.4-2.6c0.8-1.1,1.5-2.3,2.4-3.4c0.4-0.5,0.9-1.2,1.5-1.4
				c0.1,0,0.5-0.1,0.6-0.1c-0.1,0.1-0.5-0.1-0.5-0.1c0.2,0.2,0.7,0.4,1,0.5c0.4,0.3,0.9,0.5,1.3,0.8c2.2,1.4,4.4,3,6.5,4.6
				c0.9,0.7,2.2,0.1,2.7-0.7C441.7,251.1,441.2,250,440.4,249.4L440.4,249.4z"/>
		</g>
	</g>
	<g>
		<g>
			<path d="M435,247.7c0.4-0.3,0.7-0.5,1-0.8c0.1-0.1,0.2-0.2,0.3-0.3c0.1-0.1,0.1-0.1,0.2-0.2c-0.1,0.1-0.1,0.1-0.2,0.2
				c0.1,0,0.1-0.1,0.2-0.1c0.2-0.1,0.1-0.1-0.2,0.1l0.3-0.1c-0.3,0-0.4,0-0.2,0c0.1,0,0.1,0,0.2,0s0.3,0,0.3,0c-0.3,0-0.4-0.1-0.2,0
				c0.1,0,0.2,0,0.2,0.1c0.1,0,0.2,0.1,0.3,0.1c0.4,0.1-0.4-0.2-0.1,0c0.1,0.1,0.2,0.1,0.3,0.2c0.3,0.1,0.6,0.3,0.8,0.5
				c-0.3-0.4-0.1,0,0,0c0.1,0.1,0.3,0.2,0.4,0.3c0.2,0.2,0.5,0.4,0.7,0.6c0.1,0.1,0.2,0.2,0.2,0.3c-0.2-0.3-0.2-0.3-0.1-0.1l0.1,0.1
				l0.1,0.1c0.1,0.2,0.1,0.1-0.1-0.2c0,0.1,0.1,0.2,0.1,0.3s0.1,0.2,0.1,0.4c0.1,0.4-0.1-0.5,0,0c0,0.2,0,0.1,0-0.2
				c0,0.1,0,0.1-0.1,0.2c0-0.1,0.1-0.2,0.1-0.3c-0.1,0.2-0.1,0.1,0.1-0.1c-0.1,0-0.1,0.1-0.2,0.2c-0.2,0.2,0.5-0.3,0.1-0.1
				c-0.1,0-0.2,0.1-0.3,0.2c0.1,0,0.2-0.1,0.3-0.1c-0.1,0-0.1,0.1-0.2,0.1s-0.2,0-0.2,0.1c0.1,0,0.2,0,0.3,0c-0.1,0-0.4,0-0.5,0
				c-1-0.1-2,1-2,2c0.1,1.1,0.9,1.9,2,2c1.3,0.1,2.8-0.4,3.6-1.4c1.2-1.4,1.1-3.2,0.3-4.7c-0.6-1.2-1.6-2.1-2.7-2.9
				c-1.2-0.9-2.4-1.5-3.8-1.6c-0.8-0.1-1.7,0.1-2.4,0.5c-0.4,0.2-0.7,0.5-1,0.8c-0.1,0.1-0.2,0.3-0.4,0.4c-0.1,0.1-0.5,0.4-0.1,0.1
				c-0.4,0.3-0.8,0.7-0.9,1.2s-0.1,1.1,0.2,1.5C432.8,247.8,434.1,248.3,435,247.7L435,247.7z"/>
		</g>
	</g>
	<g>
		<path class="st0" d="M530.4,432.5c-40.5,0-81.1,0-121.6,0c0,46.4,0,50.5,0,96.9c65.7,0,121.6,0,121.6,0
			C530.4,485.2,530.4,476.8,530.4,432.5z"/>
	</g>
	<g>
		<g>
			<path d="M530.4,430.5c-31.6,0-63.1,0-94.7,0c-9,0-17.9,0-26.9,0c-1.1,0-2,0.9-2,2c0,13.4,0,26.7,0,40.1c0,10.5,0,21,0,31.4
				c0,8.5,0,16.9,0,25.4c0,1.1,0.9,2,2,2c23.2,0,46.4,0,69.7,0c14.8,0,29.5,0,44.3,0c2.5,0,5.1,0,7.6,0c1.1,0,2-0.9,2-2
				c0-13.2,0-26.4,0-39.6c0-10.9,0-21.7,0-32.6c0-8.3,0-16.5,0-24.8c0-2.6-4-2.6-4,0c0,13.2,0,26.4,0,39.6c0,10.9,0,21.7,0,32.6
				c0,8.3,0,16.5,0,24.8c0.7-0.7,1.3-1.3,2-2c-7.6,0-15.2,0-22.8,0c-19.1,0-38.2,0-57.4,0c-13.8,0-27.7,0-41.5,0
				c0.7,0.7,1.3,1.3,2,2c0-13.4,0-26.7,0-40.1c0-10.5,0-21,0-31.4c0-8.5,0-16.9,0-25.4c-0.7,0.7-1.3,1.3-2,2c31.6,0,63.1,0,94.7,0
				c9,0,17.9,0,26.9,0C533,434.5,533,430.5,530.4,430.5z"/>
		</g>
	</g>
	<g>
		<path class="st3" d="M399.1,326.2c-9.5,5.1-19.7,11-30.5,13.7c-1,0.3-1,1.7,0,1.9l9.3,2.3c0.7,0.2,1,1,0.6,1.6
			c-14.9,18.1-42.5,35-66.8,45c-1.4,0.6-0.7,2.6,0.7,2.3c15.7-2.9,34.5-9.1,43.5-14c11.8-6.3,23.6-14.2,30.5-23.2
			c0.4-0.5,1.2-0.4,1.6,0.2c1.4,2.5,3.5,5.8,5.4,9c0.5,0.8,1.6,0.6,1.8-0.3c2.3-10.7,4.3-26.7,5.3-37.5
			C400.6,326.4,399.8,325.8,399.1,326.2z"/>
	</g>
	<g>
		<path class="st4" d="M396.6,294.7L396.6,294.7c0.5-2.4,2.6-6.3,4.7-8.5c2.7-2.8,5.6-4.1,8.5-4.6l0,0c-2.7-0.4-6.4-1.9-8.9-4.7
			c-2.5-2.7-4-8.5-4.3-9.1c-0.2,0.5-2,6.4-4.5,9.1c-2.5,2.7-6,4.2-8.7,4.6l0,0c2.8,0.5,6,1.6,8.6,4.6
			C394,288.5,396.1,292.2,396.6,294.7z"/>
	</g>
	<g>
		<g>
			<path d="M396.6,296.7L396.6,296.7c0.8,0,1.7-0.6,1.9-1.5c1.3-5.7,6-10.6,11.8-11.7c0.9-0.2,1.5-1.1,1.5-1.9l0,0
				c0-0.8-0.6-1.8-1.5-1.9c-3.5-0.6-7.1-2.4-9-5.4c-1.4-2.3-1.9-4.9-3-7.4c-0.8-1.8-3.1-0.9-3.7,0.5c-0.9,2.4-1.7,4.7-3,6.9
				c-1.9,3-5.3,4.9-8.8,5.4c-0.9,0.1-1.5,1.1-1.5,1.9l0,0c0,0.8,0.6,1.8,1.5,1.9c2.9,0.6,5.5,1.7,7.6,4c1.9,2.1,3.6,4.9,4.2,7.7
				c0.6,2.5,4.5,1.4,3.9-1.1c-0.8-3.5-2.9-6.9-5.3-9.5c-2.4-2.7-5.8-4.3-9.3-5c0.5,0.6,1,1.3,1.5,1.9l0,0c-0.5,0.6-1,1.3-1.5,1.9
				c4.2-0.7,8.4-3.2,10.8-6.7c1.8-2.6,2.7-5.5,3.8-8.4c-1.2,0.2-2.4,0.3-3.7,0.5c-0.2-0.5-0.1-0.3,0,0c0.1,0.2,0.1,0.5,0.2,0.7
				c0.2,0.7,0.5,1.5,0.8,2.2c0.7,1.8,1.4,3.6,2.5,5.2c2.5,3.5,6.7,5.8,10.9,6.5c-0.5-0.6-1-1.3-1.5-1.9l0,0c0.5-0.6,1-1.3,1.5-1.9
				c-7.1,1.3-13,7.5-14.6,14.5c0.6-0.5,1.3-1,1.9-1.5l0,0C394.1,292.7,394.1,296.7,396.6,296.7z"/>
		</g>
	</g>
	<g>
		<path class="st4" d="M524.4,232.4L524.4,232.4c0.5-2.4,2.6-6.3,4.7-8.5c2.7-2.8,5.6-4.1,8.5-4.6l0,0c-2.7-0.4-6.4-1.9-8.9-4.7
			c-2.5-2.7-4-8.5-4.3-9.1c-0.2,0.5-2,6.4-4.5,9.1s-6,4.2-8.7,4.6l0,0c2.8,0.5,6,1.6,8.6,4.6C521.8,226.2,523.9,230,524.4,232.4z"/>
	</g>
	<g>
		<g>
			<path d="M524.4,234.4L524.4,234.4c0.8,0,1.7-0.6,1.9-1.5c1.3-5.7,6-10.6,11.8-11.7c0.9-0.2,1.5-1.1,1.5-1.9l0,0
				c0-0.8-0.6-1.8-1.5-1.9c-3.5-0.6-7.1-2.4-9-5.4c-1.4-2.3-1.9-4.9-3-7.4c-0.8-1.8-3.1-0.9-3.7,0.5c-0.9,2.4-1.7,4.7-3,6.9
				c-1.9,3-5.3,4.9-8.8,5.4c-0.9,0.1-1.5,1.1-1.5,1.9l0,0c0,0.8,0.6,1.8,1.5,1.9c2.9,0.6,5.5,1.7,7.6,4c1.9,2.1,3.6,4.9,4.2,7.7
				c0.6,2.5,4.5,1.4,3.9-1.1c-0.8-3.5-2.9-6.9-5.3-9.5c-2.4-2.7-5.8-4.3-9.3-5c0.5,0.6,1,1.3,1.5,1.9l0,0c-0.5,0.6-1,1.3-1.5,1.9
				c4.2-0.7,8.4-3.2,10.8-6.7c1.8-2.6,2.7-5.5,3.8-8.4c-1.2,0.2-2.4,0.3-3.7,0.5c-0.2-0.5-0.1-0.3,0,0c0.1,0.2,0.1,0.5,0.2,0.7
				c0.2,0.7,0.5,1.5,0.8,2.2c0.7,1.8,1.4,3.6,2.5,5.2c2.5,3.5,6.7,5.8,10.9,6.5c-0.5-0.6-1-1.3-1.5-1.9l0,0c0.5-0.6,1-1.3,1.5-1.9
				c-7.1,1.3-13,7.5-14.6,14.5c0.6-0.5,1.3-1,1.9-1.5l0,0C521.9,230.4,521.9,234.4,524.4,234.4z"/>
		</g>
	</g>
	<g>
		<g>
			<path d="M239.9,509.4c0,1.6,0,3.3,0,4.9c0,1.3,0.3,3.1-0.3,4.3c-0.6,1.3-3.1,1.5-4.3,1.9c-2.2,0.8-4.3,1.8-6.1,3.2
				c-1.8,1.3-3.4,2.4-5.5,3.1c-2.1,0.6-4.4,0.9-6.6,0.6c-1.7-0.2-3.6-0.6-4-2.4c-0.4-1.7,0.8-2.8,1.9-3.9c3.6-3.6,7.5-7,11.7-9.9
				c2.1-1.5,0.1-4.9-2-3.5c-4.5,3.2-8.7,6.8-12.6,10.7c-1.6,1.6-3.1,3.5-3.1,5.8s1.1,4.7,3.2,5.8c4.7,2.6,11.5,1.7,16-0.7
				c2.3-1.2,4.1-3,6.5-4.1c2.2-1.1,4.9-1.3,6.9-2.7c2.2-1.6,2.5-4.2,2.4-6.8c0-2.1,0-4.2,0-6.3C243.9,506.8,239.9,506.8,239.9,509.4
				L239.9,509.4z"/>
		</g>
	</g>
	<g>
		<g>
			<path d="M241.3,509.4c0,1.9,0,3.7,0,5.6c0,2-0.1,4.3,1.1,6c1.5,2.2,4,2.5,6.3,3.3c2.6,0.9,4.8,2.5,7,4c4.2,3,10.8,4,15.8,2.3
				c2.4-0.8,4-2.3,4.6-4.8c0.6-2.6-0.2-5-2-7c-1.8-2-4-3.9-6-5.7c-2.5-2.2-5-4.2-7.7-6.1c-2.1-1.5-4.1,2-2,3.5
				c3.7,2.6,7.1,5.6,10.4,8.8c1.2,1.1,3,2.4,3.4,4.1c0.5,1.7-0.5,3-2,3.5c-4,1.3-9.2,0.4-12.6-2.1c-1.9-1.4-3.8-2.6-5.9-3.6
				c-1-0.4-1.9-0.8-2.9-1.1c-0.8-0.2-2-0.4-2.7-1c-1.2-0.9-0.8-3.1-0.8-4.4c0-1.8,0-3.6,0-5.4C245.3,506.8,241.3,506.8,241.3,509.4
				L241.3,509.4z"/>
		</g>
	</g>
	<g>
		<g>
			<path d="M263,407.5c1.9,13.7,1,27.5,0.3,41.2c-0.7,13.4-1.5,26.7-2.4,40.1c-0.4,6-0.8,12-1.3,18.1c-0.2,2.6,3.8,2.6,4,0
				c1-12,1.7-24,2.4-36.1s1.4-24.2,1.9-36.3c0.4-9.4,0.2-18.8-1.1-28.1c-0.1-1.1-1.5-1.7-2.5-1.4C263.2,405.4,262.8,406.5,263,407.5
				L263,407.5z"/>
		</g>
	</g>
	<g>
		<g>
			<path d="M218.5,406.5c-1.9,13.9-1.2,27.8-0.6,41.8c0.5,13.4,1.1,26.8,1.9,40.2c0.4,6.1,0.8,12.2,1.5,18.2c0.1,1.1,0.8,2,2,2
				c1,0,2.1-0.9,2-2c-1.4-11.8-1.9-23.8-2.4-35.6c-0.6-12-1-24.1-1.4-36.1c-0.3-9.2-0.3-18.3,1-27.4c0.1-1.1-0.3-2.1-1.4-2.5
				C220.1,404.8,218.7,405.4,218.5,406.5L218.5,406.5z"/>
		</g>
	</g>
	<g>
		<g>
			<path d="M240.6,432.5c0,19.2,0,38.5,0,57.7c0,5.5,0,10.9,0,16.4c0,2.6,4,2.6,4,0c0-19.2,0-38.5,0-57.7c0-5.5,0-10.9,0-16.4
				C244.6,430,240.6,430,240.6,432.5L240.6,432.5z"/>
		</g>
	</g>
	<g>
		<g>
			<path d="M224.5,509.1c12,0.1,24.1,0,36.1-0.2c2.6-0.1,2.6-4.1,0-4c-12,0.3-24.1,0.3-36.1,0.2
				C221.9,505.1,221.9,509.1,224.5,509.1L224.5,509.1z"/>
		</g>
	</g>
	<g>
		<g>
			<path d="M231.8,409c7.2,0,14.5,0,21.8,0c2.6,0,2.6-4,0-4c-7.2,0-14.5,0-21.8,0C229.2,405,229.2,409,231.8,409L231.8,409z"/>
		</g>
	</g>
	<g>
		<g>
			<path d="M222.7,349.3c-2.3,0-4.6-0.9-5.7-3.1c-0.9-1.9-0.2-4.6,0.1-6.6c0.4-2.1,1-4.2,1.3-6.3c0.4-2.7,0.6-5.4,0.8-8.1
				c0.3-6.3-0.2-12.5,1.3-18.7c1.1-4.1,2.9-8.3,6.2-11.2c8.1-7.3,22-7.9,30.3-0.7c4.2,3.7,6.8,8.6,8,14.1c0.5,2.3,0.5,4.5,0.5,6.9
				c0,3.2,0,6.5,0.2,9.7c0.2,4.3,0.5,8.7,1.8,12.8c0.8,2.6,1.9,5.8,0.2,8.2c-1.5,2.2-4,3-6.5,2.2c-2.4-0.8-3.5,3.1-1.1,3.9
				c5.6,1.9,12.1-2.3,12.5-8.3c0.2-2.9-0.9-5.5-1.6-8.2c-0.5-1.8-0.7-3.6-0.9-5.4c-0.6-6.2-0.3-12.4-0.6-18.6
				c-0.4-6.1-2.9-12.5-6.8-17.2c-8.5-10.3-24.2-11.6-35.3-4.8c-4.5,2.8-7.5,6.8-9.5,11.6c-2.5,6.2-2.6,12.7-2.6,19.2
				c0,3.6-0.2,7.2-0.7,10.8c-0.4,2.8-1.2,5.5-1.6,8.2c-0.5,3.1-1,6.5,0.9,9.3c2,2.9,5.2,4.4,8.7,4.4
				C225.2,353.3,225.2,349.3,222.7,349.3L222.7,349.3z"/>
		</g>
	</g>
	<g>
		<g>
			<path d="M262.4,319.3c0.2,0,0.3-0.1,0.5-0.1c-0.5,0.1,0,0,0.1,0c0.2,0,0.3,0,0.5,0c-0.3,0-0.2,0,0,0s0.3,0.1,0.5,0.1
				c0.2,0.1,0.3,0.1,0.1,0c0.1,0.1,0.3,0.1,0.4,0.2c0.1,0,0.5,0.4,0.1,0.1c0.1,0.1,0.3,0.2,0.4,0.3c0.1,0.1,0.4,0.5,0.1,0.1
				c0.1,0.1,0.2,0.2,0.2,0.4c0,0.1,0.1,0.2,0.1,0.2c-0.1-0.2-0.1-0.2,0-0.1c0.1,0.3,0.2,0.7,0.3,1c-0.1-0.4,0,0.2,0,0.2
				c0,0.2,0,0.4,0,0.6c0,0.1-0.1,0.6,0,0.2c0,0.2-0.1,0.3-0.1,0.5s-0.1,0.4-0.2,0.6c0,0.1-0.1,0.4,0,0.2c-0.1,0.4-0.3,0.7-0.5,1
				c0,0-0.4,0.5-0.1,0.2c-0.1,0.2-0.2,0.3-0.4,0.4c-0.2,0.3-0.5,0.5-0.8,0.8c-0.1,0.1-0.2,0.2-0.4,0.3c0.3-0.2-0.2,0.1-0.2,0.2
				c-0.3,0.2-0.7,0.4-1,0.6c-0.2,0.1-0.3,0.2-0.5,0.3c-0.4,0.2,0.2-0.1-0.2,0.1c-1,0.4-1.8,1.4-1.4,2.5c0.3,1,1.4,1.8,2.5,1.4
				c4-1.5,7.5-5,7.4-9.5c0-2.2-1-4.3-2.8-5.6c-1.6-1.2-3.7-1.5-5.6-1c-1,0.3-1.7,1.4-1.4,2.5C260.2,319,261.3,319.6,262.4,319.3
				L262.4,319.3z"/>
		</g>
	</g>
	<g>
		<g>
			<path d="M224.1,315.5c-1.9-0.6-4-0.3-5.7,0.9c-1.9,1.3-2.8,3.3-2.9,5.6c-0.2,4.5,3.3,8.1,7.2,9.7c1,0.4,2.2-0.4,2.5-1.4
				c0.3-1.2-0.4-2-1.4-2.5c0.4,0.1-0.2-0.1-0.2-0.1c-0.2-0.1-0.3-0.2-0.5-0.3c-0.3-0.2-0.6-0.4-0.9-0.6c-0.1-0.1-0.1-0.1,0,0
				c-0.1-0.1-0.2-0.1-0.2-0.2c-0.1-0.1-0.2-0.2-0.4-0.3c-0.3-0.3-0.6-0.6-0.8-0.9c-0.4-0.5,0.2,0.3-0.2-0.2
				c-0.1-0.2-0.2-0.3-0.3-0.5c-0.1-0.1-0.2-0.3-0.2-0.4c0-0.1-0.1-0.2-0.1-0.3c0.1,0.2,0.1,0.2,0,0c-0.1-0.3-0.2-0.7-0.3-1
				c0,0-0.1-0.6-0.1-0.2c0-0.2,0-0.4,0-0.6s0-0.4,0-0.6c0-0.4,0,0.1,0-0.1c0.1-0.3,0.1-0.7,0.3-1c-0.2,0.4,0.1-0.1,0.1-0.2
				c0-0.1,0.4-0.5,0.1-0.1c0.1-0.1,0.2-0.3,0.3-0.4c0.1-0.1,0.5-0.4,0.1-0.1c0.1-0.1,0.2-0.2,0.4-0.2c0.1,0,0.5-0.3,0.3-0.2
				s0.2-0.1,0.2-0.1c0.2,0,0.3-0.1,0.5-0.1c0.5-0.1-0.4,0,0.1,0c0.2,0,0.3,0,0.5,0c0.4,0-0.3-0.1,0.1,0c0.2,0,0.3,0.1,0.5,0.1
				c1,0.3,2.2-0.4,2.5-1.4C225.8,316.9,225.2,315.9,224.1,315.5L224.1,315.5z"/>
		</g>
	</g>
	<g>
		<g>
			<path d="M259.6,329.2c-1.2,3.6-3.5,7-6.6,9.3c-3,2.2-6.6,3.1-10.3,3.1c-3.8,0-7.5-0.9-10.5-3.1s-5.3-5.6-6.5-9.1
				c-0.8-2.4-4.7-1.4-3.9,1.1c2.3,6.7,7.4,12.5,14.4,14.3c7,1.9,15.1,0.7,20.6-4.2c3.1-2.8,5.3-6.4,6.7-10.3
				C264.3,327.8,260.5,326.8,259.6,329.2L259.6,329.2z"/>
		</g>
	</g>
	<g>
		<path d="M247.4,322c0-0.2-0.2-1.9,1-3.1c0.8-0.8,1.7-0.8,2-0.9c0.2,0,1.7,0,2.6,1.2c0.9,1.2,1,3.2-0.1,4.5
			c-1.1,1.4-2.9,1.5-4.1,0.7C247.8,323.8,247.6,322.9,247.4,322z"/>
	</g>
	<g>
		<path d="M232.1,322c0-0.2-0.2-1.9,1-3.1c0.8-0.8,1.7-0.8,2-0.9c0.2,0,1.7,0,2.6,1.2c0.9,1.2,1,3.2-0.1,4.5
			c-1.1,1.4-2.9,1.5-4.1,0.7C232.5,323.8,232.2,322.9,232.1,322z"/>
	</g>
	<g>
		<g>
			<path d="M248.4,301.1c-3.8,3.5-8.3,6.3-12.9,8.8c-3.9,2.1-8,4.4-12.3,5.4c-2.5,0.6-1.4,4.4,1.1,3.9c4.6-1.1,9.1-3.5,13.3-5.8
				c4.8-2.7,9.6-5.6,13.7-9.4C253.1,302.2,250.3,299.3,248.4,301.1L248.4,301.1z"/>
		</g>
	</g>
	<g>
		<g>
			<path d="M262.8,315.7c-1.4-0.8-2.5-1.7-3.7-2.7c-0.7-0.6-1.3-1.2-1.9-1.8c-0.3-0.3-0.6-0.6-0.8-0.9c-0.1-0.1-0.2-0.3-0.4-0.4
				c0,0-0.4-0.5-0.2-0.3c-1-1.4-2-2.8-2.8-4.4c-0.1-0.3-0.3-0.6-0.4-0.8c0,0-0.2-0.6-0.1-0.2c-0.1-0.1-0.1-0.3-0.2-0.4
				c-0.2-0.6-0.4-1.2-0.6-1.8c-0.3-1-1.4-1.7-2.5-1.4c-1,0.3-1.7,1.4-1.4,2.5c2,6.7,6.9,12.6,12.9,16.1
				C263,320.4,265.1,317,262.8,315.7L262.8,315.7z"/>
		</g>
	</g>
	<g>
		<g>
			<path d="M232.3,342.1c0,0.8-0.2,1.7-0.3,2.5c0-0.2,0-0.4,0.1-0.5c-0.1,0.8-0.2,1.7-0.5,2.4c0.1-0.2,0.1-0.3,0.2-0.5
				c0,0.1-0.1,0.2-0.2,0.3c-0.1,0.2-0.2,0.2,0.1-0.2l-0.1,0.1l-0.1,0.1c0-0.1,0.5-0.3,0.2-0.1c-0.2,0.1-0.3,0.2-0.5,0.2
				c0.2-0.1,0.3-0.1,0.5-0.2c-0.5,0.2-1,0.3-1.5,0.5c-1,0.3-1.7,1.4-1.4,2.5c0.3,1,1.4,1.8,2.5,1.4c0.9-0.3,1.9-0.5,2.6-1.1
				c1-0.7,1.6-1.8,1.8-3c0.1-0.8,0.3-1.7,0.4-2.5c0.1-0.7,0.2-1.4,0.2-2.1c0-1-0.9-2-2-2C233.2,340.2,232.3,341,232.3,342.1
				L232.3,342.1z"/>
		</g>
	</g>
	<g>
		<g>
			<path d="M248.1,342.4c0.1,0.9,0.2,1.9,0.3,2.8c0.1,0.6,0.2,1.3,0.4,1.9c0.4,1,1.1,1.9,2.1,2.4c0.6,0.3,1.2,0.5,1.7,0.7
				s1,0.4,1.4,0.6s1.1,0,1.5-0.2s0.8-0.7,0.9-1.2s0.1-1.1-0.2-1.5c-0.3-0.5-0.7-0.7-1.2-0.9c-0.8-0.3-1.7-0.6-2.5-1
				c0.2,0.1,0.3,0.1,0.5,0.2c-0.3-0.1-0.5-0.2-0.7-0.4c0.1,0.1,0.3,0.2,0.4,0.3c-0.1-0.1-0.3-0.2-0.4-0.4c0.1,0.1,0.2,0.3,0.3,0.4
				c-0.1-0.1-0.2-0.3-0.3-0.5c0.1,0.2,0.1,0.3,0.2,0.5c-0.3-0.8-0.4-1.7-0.5-2.5c0,0.2,0,0.4,0.1,0.5c-0.1-0.6-0.1-1.1-0.2-1.7
				c0-0.5-0.2-1-0.6-1.4c-0.3-0.3-0.9-0.6-1.4-0.6C249.1,340.4,248,341.3,248.1,342.4L248.1,342.4z"/>
		</g>
	</g>
	<g>
		<g>
			<path d="M230.8,355.5c7,4.4,17.1,4.2,23.7-0.8c0.9-0.6,1.3-1.7,0.7-2.7c-0.5-0.8-1.9-1.4-2.7-0.7c-5.6,4.2-13.8,4.6-19.7,0.9
				C230.6,350.6,228.6,354.1,230.8,355.5L230.8,355.5z"/>
		</g>
	</g>
	<g>
		<g>
			<path d="M182.4,531.4c23.2,0,46.4,0,69.7,0c14.8,0,29.5,0,44.3,0c2.5,0,5.1,0,7.6,0c2.6,0,2.6-4,0-4c-7.6,0-15.2,0-22.8,0
				c-19.1,0-38.2,0-57.4,0c-13.8,0-27.7,0-41.5,0C179.8,527.4,179.8,531.4,182.4,531.4L182.4,531.4z"/>
		</g>
	</g>
	<g>
		<path class="st1" d="M265.1,411.8h-11.9c-0.8,0-1.5-0.7-1.5-1.5c0.4-18.7,1.6-44.3,2.5-61.7c3.7,1.3,9.3,3.5,12.7,6
			c1.7,1.2,3.6,3,5.6,6.3c5.5,9,8.4,42.1,8.9,50.5c0.1,0.8-0.5,1.6-1.3,1.7c-2.3,0.3-10.4,0.5-13.3,0.5"/>
	</g>
	<g>
		<g>
			<path d="M264.9,369c0.2,14.2,0.5,28.5,0.8,42.7c0,2.6,4,2.6,4,0c-0.2-14.2-0.5-28.5-0.8-42.7C268.8,366.5,264.8,366.5,264.9,369
				L264.9,369z"/>
		</g>
	</g>
	<g>
		<g>
			<path d="M265.1,409.8c-2.7,0-5.4,0-8,0c-0.7,0-1.5,0-2.2,0c-0.3,0-1.2-0.2-1.5,0c0,0-0.1,0-0.2,0c0.2,0.2,0.4,0.3,0.5,0.5
				c0-0.2,0-0.5,0-0.7s0-0.5,0-0.7c0-1.5,0.1-3,0.1-4.6c0.3-12.2,0.9-24.4,1.4-36.7c0.3-6.4,0.6-12.7,0.9-19.1
				c-0.8,0.6-1.7,1.3-2.5,1.9c3.5,1.3,7,2.6,10.1,4.4c3,1.7,5.4,4.2,7.1,7.2c1,1.7,1.5,3.3,2.1,5.4c0.8,2.6,1.4,5.2,1.9,7.9
				c2.2,10.9,3.4,22,4.2,33.1c0,0.5,0.1,1,0.1,1.4c0,0.2-0.1,0.9,0.1,1.1c0.1,0.1,0.8-0.1,0.3-0.2c-0.2,0-0.6,0-0.8,0.1
				c-0.7,0.1-1.5,0.1-2.2,0.1c-3.3,0.2-6.6,0.2-9.8,0.3c-2.6,0.1-2.6,4.1,0,4c3.1-0.1,6.2-0.2,9.2-0.3c1.3-0.1,2.6-0.1,3.9-0.2
				c2.1-0.2,3.5-1.8,3.4-3.9c-0.2-4.8-0.8-9.6-1.3-14.4c-0.7-6.6-1.6-13.2-2.8-19.8c-1-5.3-2-10.9-4.4-15.8
				c-3.9-8.1-12.2-11.6-20.1-14.5c-1.3-0.5-2.5,0.7-2.5,1.9c-0.6,12.4-1.2,24.8-1.7,37.2c-0.3,6.4-0.5,12.8-0.7,19.3
				c0,1.4-0.1,2.8-0.1,4.2c0,1.7,0.1,3.3,1.8,4.2c1.1,0.6,2.5,0.4,3.7,0.4c3.3,0,6.6,0,9.9,0C267.7,413.8,267.7,409.8,265.1,409.8
				L265.1,409.8z"/>
		</g>
	</g>
	<g>
		<path class="st1" d="M220.2,411.8h11.9c0.8,0,1.5-0.7,1.5-1.5c-0.4-18.7-1.6-44.3-2.5-61.7c-3.7,1.3-9.3,3.5-12.7,6
			c-1.7,1.2-3.6,3-5.6,6.3c-5.5,9-8.4,42.1-8.9,50.5c-0.1,0.8,0.5,1.6,1.3,1.7c2.3,0.3,10.4,0.5,13.3,0.5L220.2,411.8z"/>
	</g>
	<g>
		<g>
			<path d="M216.4,369c-0.2,14.2-0.5,28.5-0.8,42.7c0,2.6,4,2.6,4,0c0.2-14.2,0.5-28.5,0.8-42.7C220.5,366.5,216.5,366.5,216.4,369
				L216.4,369z"/>
		</g>
	</g>
	<g>
		<g>
			<path d="M220.2,413.8c2.9,0,5.7,0,8.6,0c1.1,0,2.2,0.1,3.3,0c1.3-0.1,2.5-0.7,3.1-1.8c0.7-1.3,0.4-3.2,0.3-4.6
				c-0.3-12.8-0.9-25.7-1.4-38.5c-0.3-6.8-0.6-13.5-1-20.3c-0.1-1.2-1.2-2.4-2.5-1.9c-3.8,1.4-7.6,2.8-11.1,4.8s-6.3,4.9-8.4,8.4
				c-2.6,4.4-3.6,9.8-4.6,14.7c-2.3,11.6-3.6,23.5-4.4,35.3c-0.1,1.6-0.2,3.1,1.1,4.3c1.2,1.2,3.3,1,4.9,1.1c3.5,0.2,7,0.3,10.5,0.3
				c2.6,0.1,2.6-3.9,0-4c-2.9-0.1-5.7-0.1-8.6-0.3c-1.3-0.1-2.7-0.1-4-0.2c-0.1,0-0.9,0-0.3,0.1c0.5,0.1,0.1,0.3,0.3-0.1
				c0.1-0.3,0.1-0.9,0.1-1.2c0.3-4.8,0.8-9.5,1.3-14.2c0.7-6,1.5-12,2.6-18c0.5-2.8,1.1-5.6,1.8-8.3c0.3-1.2,0.6-2.3,1-3.5
				c0.3-1,0.7-1.9,1-2.6c1.4-3,3.7-5.7,6.5-7.6c3.5-2.3,7.5-3.8,11.4-5.2c-0.8-0.6-1.7-1.3-2.5-1.9c0.6,11.8,1.1,23.7,1.6,35.5
				c0.2,6.1,0.5,12.2,0.7,18.2c0,1.4,0.1,2.7,0.1,4.1c0,0.7,0,1.4,0.1,2.1c0,0.2,0,0.5,0,0.7s0,0.5,0,0.7c-0.1,0.6,0.1,0.5,0.5-0.1
				c-0.1-0.1-0.6,0-0.7,0c-0.7,0-1.3,0-2,0c-3.1,0-6.2,0-9.3,0C217.6,409.8,217.6,413.8,220.2,413.8L220.2,413.8z"/>
		</g>
	</g>
</g>
</svg>
