<svg width="116" height="54" viewBox="0 0 116 54" fill="none" xmlns="http://www.w3.org/2000/svg">
<path d="M0 27C0 12.0883 12.0883 0 27 0H89C103.912 0 116 12.0883 116 27V27C116 41.9117 103.912 54 89 54H27C12.0883 54 0 41.9117 0 27V27Z" fill="#FF668B"/>
<path d="M32.856 14.516V16.196H40.22V14.516H32.856ZM32.576 22.076V23.756H40.472V22.076H32.576ZM32.576 25.828V27.508H40.472V25.828H32.576ZM31.12 18.212V19.976H41.956V18.212H31.12ZM42.348 19.024V21.012H56.348V19.024H42.348ZM41.536 36.384V38.372H56.88V36.384H41.536ZM42.824 27.284V29.244H55.928V27.284H42.824ZM33.472 29.58V31.232H38.708V35.796H33.472V37.448H40.696V29.58H33.472ZM32.408 29.58V38.82H34.34V29.58H32.408ZM48.144 13.564V19.976H50.244V13.564H48.144ZM48.144 19.696V37.42H50.244V19.696H48.144ZM61.864 15.216V39.324H63.936V17.288H81.436V15.216H61.864ZM80.344 15.216V36.72C80.344 37.084 80.232 37.224 79.896 37.224C79.588 37.224 78.524 37.252 77.376 37.196C77.684 37.756 77.992 38.708 78.048 39.268C79.7 39.268 80.792 39.212 81.492 38.848C82.22 38.484 82.444 37.868 82.444 36.748V15.216H80.344ZM59.12 25.352V27.396H84.936V25.352H59.12ZM67.94 15.916V38.96H69.9V15.916H67.94ZM74.1 15.916V38.96H76.088V15.916H74.1Z" fill="white"/>
</svg>
