<svg width="116" height="54" viewBox="0 0 116 54" fill="none" xmlns="http://www.w3.org/2000/svg">
<path d="M38.792 21.292V23.112H49.18V21.292H38.792ZM31.82 36.832V38.596H56.208V36.832H31.82ZM33.5 14.572V16.336H41.788V14.572H33.5ZM41.116 14.572V14.964C39.38 19.416 34.844 23.336 30.728 25.072C31.148 25.436 31.708 26.164 31.988 26.612C36.44 24.54 41.116 20.536 43.216 15.16L41.872 14.46L41.48 14.572H41.116ZM45.848 13.564L44.084 14.152C46.464 19.472 50.748 24.036 55.704 26.276C56.04 25.716 56.628 24.96 57.132 24.54C52.288 22.664 48.004 18.324 45.848 13.564ZM32.744 18.52C34.2 19.416 35.88 20.816 36.72 21.796L37.896 20.508C37.084 19.5 35.348 18.212 33.864 17.372L32.744 18.52ZM51.476 13.732C50.356 14.964 48.368 16.672 46.94 17.708L48.228 18.716C49.684 17.736 51.616 16.224 53.072 14.852L51.476 13.732ZM54.612 17.036C53.436 18.296 51.364 20.004 49.852 21.012L51.14 22.02C52.68 21.068 54.696 19.556 56.18 18.156L54.612 17.036ZM38.288 27.144H49.628V30.84H38.288V27.144ZM36.216 25.408V32.576H51.784V25.408H36.216ZM37.84 33.024C38.596 34.256 39.296 35.964 39.576 37.056L41.564 36.44C41.284 35.348 40.556 33.696 39.772 32.492L37.84 33.024ZM48.256 32.408C47.808 33.64 46.912 35.46 46.212 36.552L48.004 37.084C48.704 35.992 49.544 34.452 50.3 32.968L48.256 32.408ZM64.356 15.188V17.316H72.28V15.188H64.356ZM71.216 15.188C71.216 20.452 72.14 32.38 83.34 39.156C83.732 38.652 84.572 37.756 85.048 37.392C73.988 30.84 73.372 20.2 73.372 15.188H71.216ZM70.432 20.676C68.724 28.6 65.224 34.256 59.008 37.504C59.568 37.896 60.52 38.764 60.912 39.212C67.1 35.572 70.796 29.664 72.812 21.124L70.432 20.676Z" fill="#00ADA9"/>
<path d="M27 1H89V-1H27V1ZM89 53H27V55H89V53ZM27 53C12.6406 53 1 41.3594 1 27H-1C-1 42.464 11.536 55 27 55V53ZM115 27C115 41.3594 103.359 53 89 53V55C104.464 55 117 42.464 117 27H115ZM89 1C103.359 1 115 12.6406 115 27H117C117 11.536 104.464 -1 89 -1V1ZM27 -1C11.536 -1 -1 11.536 -1 27H1C1 12.6406 12.6406 1 27 1V-1Z" fill="#00ADA9"/>
</svg>
