<svg width="191" height="191" viewBox="0 0 191 191" fill="none" xmlns="http://www.w3.org/2000/svg">
<path d="M95.4266 190.853C148.129 190.853 190.853 148.129 190.853 95.4266C190.853 42.7239 148.129 0 95.4266 0C42.7239 0 0 42.7239 0 95.4266C0 148.129 42.7239 190.853 95.4266 190.853Z" fill="#FFAF40"/>
<path d="M95.4264 174.401C139.042 174.401 174.4 139.043 174.4 95.4269C174.4 51.8109 139.042 16.4531 95.4264 16.4531C51.8104 16.4531 16.4526 51.8109 16.4526 95.4269C16.4526 139.043 51.8104 174.401 95.4264 174.401Z" stroke="#FFDD95" stroke-width="6.58114" stroke-linecap="round"/>
<path d="M53.8756 16.7542L52.3308 13.8488M95.1564 6.58159V3.29102V6.58159ZM136.437 16.7542L137.982 13.8488L136.437 16.7542ZM168.281 44.9661L170.977 43.0787L168.281 44.9661ZM183.354 84.7201L186.62 84.3191L183.354 84.7201ZM178.231 126.926L181.303 128.105L178.231 126.926ZM154.062 161.938L156.264 164.383L154.062 161.938ZM116.414 181.692L117.21 184.885L116.414 181.692ZM73.8985 181.692L73.1025 184.885L73.8985 181.692ZM36.2508 161.938L34.049 164.383L36.2508 161.938ZM12.0821 126.926L9.01005 128.105L12.0821 126.926ZM6.95843 84.7201L3.69238 84.3191L6.95843 84.7201ZM22.0317 44.9661L19.3362 43.0787L22.0317 44.9661Z" stroke="#FFDD95" stroke-width="6.58114" stroke-linecap="round"/>
<path d="M90.9548 161.162V29.5394H99.3869V161.162H90.9548ZM119.336 69.0263C118.719 63.8162 116.217 59.7715 111.829 56.8923C107.442 54.013 102.06 52.5734 95.685 52.5734C91.0234 52.5734 86.9444 53.3275 83.4482 54.8357C79.9862 56.3438 77.2784 58.4176 75.3246 61.0569C73.4051 63.6962 72.4453 66.6954 72.4453 70.0546C72.4453 72.8653 73.1137 75.2818 74.4505 77.3041C75.8216 79.2922 77.5697 80.9546 79.6949 82.2914C81.82 83.5939 84.048 84.6736 86.3788 85.5305C88.7097 86.3532 90.852 87.0216 92.8057 87.5357L103.5 90.415C106.242 91.1348 109.293 92.1288 112.652 93.3971C116.045 94.6653 119.285 96.3963 122.369 98.59C125.489 100.749 128.059 103.526 130.082 106.919C132.104 110.313 133.115 114.477 133.115 119.413C133.115 125.103 131.624 130.245 128.642 134.838C125.694 139.431 121.375 143.081 115.686 145.789C110.03 148.497 103.157 149.851 95.068 149.851C87.5271 149.851 80.9974 148.634 75.4788 146.2C69.9945 143.767 65.6757 140.373 62.5222 136.02C59.403 131.667 57.6378 126.611 57.2264 120.853H70.3887C70.7315 124.829 72.0683 128.119 74.3991 130.724C76.7642 133.295 79.7463 135.215 83.3454 136.483C86.9787 137.717 90.8862 138.334 95.068 138.334C99.9353 138.334 104.306 137.546 108.179 135.969C112.052 134.358 115.12 132.13 117.382 129.285C119.644 126.406 120.776 123.046 120.776 119.207C120.776 115.711 119.799 112.866 117.845 110.673C115.891 108.479 113.32 106.696 110.133 105.325C106.945 103.954 103.5 102.755 99.7982 101.726L86.8416 98.0244C78.6152 95.6593 72.1026 92.2831 67.3038 87.8956C62.5051 83.5082 60.1057 77.7668 60.1057 70.6715C60.1057 64.7759 61.6996 59.6344 64.8873 55.247C68.1093 50.8253 72.4282 47.3976 77.8439 44.9639C83.2939 42.496 89.3781 41.2621 96.0963 41.2621C102.883 41.2621 108.916 42.4789 114.194 44.9125C119.473 47.3119 123.655 50.6025 126.74 54.7842C129.859 58.966 131.504 63.7134 131.676 69.0263H119.336Z" fill="#FFDD95"/>
</svg>
