<svg width="48" height="48" viewBox="0 0 48 48" fill="none" xmlns="http://www.w3.org/2000/svg">
<path fill-rule="evenodd" clip-rule="evenodd" d="M10.5861 10.5862C10.9611 10.2112 11.4697 10.0006 12.0001 10.0006C12.5304 10.0006 13.039 10.2112 13.4141 10.5862L24.0001 21.1722L34.5861 10.5862C34.7706 10.3951 34.9912 10.2428 35.2353 10.138C35.4793 10.0331 35.7417 9.97797 36.0073 9.97566C36.2728 9.97335 36.5362 10.024 36.782 10.1245C37.0278 10.2251 37.2511 10.3736 37.4389 10.5614C37.6266 10.7492 37.7751 10.9725 37.8757 11.2183C37.9763 11.464 38.0269 11.7274 38.0246 11.993C38.0223 12.2585 37.9671 12.521 37.8623 12.765C37.7574 13.009 37.6051 13.2297 37.4141 13.4142L26.8281 24.0002L37.4141 34.5862C37.7784 34.9634 37.98 35.4686 37.9754 35.993C37.9709 36.5174 37.7605 37.019 37.3897 37.3898C37.0189 37.7606 36.5173 37.971 35.9929 37.9755C35.4685 37.9801 34.9633 37.7785 34.5861 37.4142L24.0001 26.8282L13.4141 37.4142C13.0369 37.7785 12.5317 37.9801 12.0073 37.9755C11.4829 37.971 10.9812 37.7606 10.6104 37.3898C10.2396 37.019 10.0293 36.5174 10.0247 35.993C10.0202 35.4686 10.2217 34.9634 10.5861 34.5862L21.1721 24.0002L10.5861 13.4142C10.2111 13.0391 10.0005 12.5305 10.0005 12.0002C10.0005 11.4698 10.2111 10.9612 10.5861 10.5862V10.5862Z" fill="#00ADA9"/>
</svg>
