<svg width="48" height="48" viewBox="0 0 48 48" fill="none" xmlns="http://www.w3.org/2000/svg">
<rect width="48" height="48" rx="24" fill="white"/>
<rect x="10" y="10" width="28" height="28" rx="6" fill="url(#paint0_radial_130_781)"/>
<rect x="10" y="10" width="28" height="28" rx="6" fill="url(#paint1_radial_130_781)"/>
<rect x="10" y="10" width="28" height="28" rx="6" fill="url(#paint2_radial_130_781)"/>
<path d="M31 18.5C31 19.3284 30.3284 20 29.5 20C28.6716 20 28 19.3284 28 18.5C28 17.6716 28.6716 17 29.5 17C30.3284 17 31 17.6716 31 18.5Z" fill="white"/>
<path fill-rule="evenodd" clip-rule="evenodd" d="M24 29C26.7614 29 29 26.7614 29 24C29 21.2386 26.7614 19 24 19C21.2386 19 19 21.2386 19 24C19 26.7614 21.2386 29 24 29ZM24 27C25.6569 27 27 25.6569 27 24C27 22.3431 25.6569 21 24 21C22.3431 21 21 22.3431 21 24C21 25.6569 22.3431 27 24 27Z" fill="white"/>
<path fill-rule="evenodd" clip-rule="evenodd" d="M14 23.6C14 20.2397 14 18.5595 14.654 17.2761C15.2292 16.1471 16.1471 15.2292 17.2761 14.654C18.5595 14 20.2397 14 23.6 14H24.4C27.7603 14 29.4405 14 30.7239 14.654C31.8529 15.2292 32.7708 16.1471 33.346 17.2761C34 18.5595 34 20.2397 34 23.6V24.4C34 27.7603 34 29.4405 33.346 30.7239C32.7708 31.8529 31.8529 32.7708 30.7239 33.346C29.4405 34 27.7603 34 24.4 34H23.6C20.2397 34 18.5595 34 17.2761 33.346C16.1471 32.7708 15.2292 31.8529 14.654 30.7239C14 29.4405 14 27.7603 14 24.4V23.6ZM23.6 16H24.4C26.1132 16 27.2777 16.0016 28.1779 16.0751C29.0548 16.1467 29.5032 16.2766 29.816 16.436C30.5686 16.8195 31.1805 17.4314 31.564 18.184C31.7234 18.4968 31.8533 18.9452 31.9249 19.8221C31.9984 20.7223 32 21.8868 32 23.6V24.4C32 26.1132 31.9984 27.2777 31.9249 28.1779C31.8533 29.0548 31.7234 29.5032 31.564 29.816C31.1805 30.5686 30.5686 31.1805 29.816 31.564C29.5032 31.7234 29.0548 31.8533 28.1779 31.9249C27.2777 31.9984 26.1132 32 24.4 32H23.6C21.8868 32 20.7223 31.9984 19.8221 31.9249C18.9452 31.8533 18.4968 31.7234 18.184 31.564C17.4314 31.1805 16.8195 30.5686 16.436 29.816C16.2766 29.5032 16.1467 29.0548 16.0751 28.1779C16.0016 27.2777 16 26.1132 16 24.4V23.6C16 21.8868 16.0016 20.7223 16.0751 19.8221C16.1467 18.9452 16.2766 18.4968 16.436 18.184C16.8195 17.4314 17.4314 16.8195 18.184 16.436C18.4968 16.2766 18.9452 16.1467 19.8221 16.0751C20.7223 16.0016 21.8868 16 23.6 16Z" fill="white"/>
<defs>
<radialGradient id="paint0_radial_130_781" cx="0" cy="0" r="1" gradientUnits="userSpaceOnUse" gradientTransform="translate(20 31) rotate(-55.3758) scale(25.5196)">
<stop stop-color="#B13589"/>
<stop offset="0.79309" stop-color="#C62F94"/>
<stop offset="1" stop-color="#8A3AC8"/>
</radialGradient>
<radialGradient id="paint1_radial_130_781" cx="0" cy="0" r="1" gradientUnits="userSpaceOnUse" gradientTransform="translate(19 39) rotate(-65.1363) scale(22.5942)">
<stop stop-color="#E0E8B7"/>
<stop offset="0.444662" stop-color="#FB8A2E"/>
<stop offset="0.71474" stop-color="#E2425C"/>
<stop offset="1" stop-color="#E2425C" stop-opacity="0"/>
</radialGradient>
<radialGradient id="paint2_radial_130_781" cx="0" cy="0" r="1" gradientUnits="userSpaceOnUse" gradientTransform="translate(8.5 11) rotate(-8.1301) scale(38.8909 8.31836)">
<stop offset="0.156701" stop-color="#406ADC"/>
<stop offset="0.467799" stop-color="#6A45BE"/>
<stop offset="1" stop-color="#6A45BE" stop-opacity="0"/>
</radialGradient>
</defs>
</svg>
