<svg width="48" height="48" viewBox="0 0 48 48" fill="none" xmlns="http://www.w3.org/2000/svg">
<path fill-rule="evenodd" clip-rule="evenodd" d="M16 18.0002C16 15.8785 16.8429 13.8437 18.3431 12.3434C19.8434 10.8431 21.8783 10.0002 24 10.0002C26.1217 10.0002 28.1566 10.8431 29.6569 12.3434C31.1571 13.8437 32 15.8785 32 18.0002C32 20.122 31.1571 22.1568 29.6569 23.6571C28.1566 25.1574 26.1217 26.0002 24 26.0002C21.8783 26.0002 19.8434 25.1574 18.3431 23.6571C16.8429 22.1568 16 20.122 16 18.0002V18.0002ZM31.648 27.2462C33.551 25.6719 34.9219 23.5488 35.5737 21.1666C36.2254 18.7843 36.1262 16.259 35.2896 13.9352C34.453 11.6114 32.9197 9.60237 30.8991 8.18222C28.8784 6.76207 26.4688 6 23.999 6C21.5292 6 19.1196 6.76207 17.0989 8.18222C15.0783 9.60237 13.545 11.6114 12.7084 13.9352C11.8718 16.259 11.7726 18.7843 12.4243 21.1666C13.0761 23.5488 14.447 25.6719 16.35 27.2462C9.972 29.4922 6 34.4942 6 40.0002C6 40.5307 6.21071 41.0394 6.58579 41.4144C6.96086 41.7895 7.46957 42.0002 8 42.0002C8.53043 42.0002 9.03914 41.7895 9.41421 41.4144C9.78929 41.0394 10 40.5307 10 40.0002C10 35.4602 14.71 30.0002 24 30.0002C33.29 30.0002 38 35.4602 38 40.0002C38 40.5307 38.2107 41.0394 38.5858 41.4144C38.9609 41.7895 39.4696 42.0002 40 42.0002C40.5304 42.0002 41.0391 41.7895 41.4142 41.4144C41.7893 41.0394 42 40.5307 42 40.0002C42 34.4942 38.032 29.4922 31.648 27.2462Z" fill="#00ADA9"/>
</svg>
