<svg width="48" height="48" viewBox="0 0 48 48" fill="none" xmlns="http://www.w3.org/2000/svg">
<path d="M45.003 24.4664C45.003 22.7397 44.8601 21.4797 44.5507 20.1731H24.4316V27.9663H36.2411C36.0031 29.9031 34.7173 32.8197 31.8602 34.7796L31.8201 35.0405L38.1814 39.87L38.6221 39.9131C42.6696 36.2497 45.003 30.8597 45.003 24.4664" fill="#4285F4"/>
<path d="M24.4299 44.9997C30.2156 44.9997 35.0726 43.1329 38.6203 39.913L31.8584 34.7794C30.049 36.0161 27.6203 36.8795 24.4299 36.8795C18.7633 36.8795 13.9539 33.2162 12.2394 28.1528L11.9881 28.1737L5.37361 33.1905L5.28711 33.4261C8.81087 40.2862 16.049 44.9997 24.4299 44.9997Z" fill="#34A853"/>
<path d="M12.2399 28.1532C11.7876 26.8465 11.5258 25.4464 11.5258 23.9998C11.5258 22.5531 11.7876 21.1531 12.2161 19.8465L12.2042 19.5682L5.50674 14.4709L5.28761 14.5731C3.83529 17.4198 3.00195 20.6165 3.00195 23.9998C3.00195 27.3832 3.83529 30.5797 5.28761 33.4264L12.2399 28.1532" fill="#FBBC05"/>
<path d="M24.4301 11.1199C28.4538 11.1199 31.168 12.8233 32.7157 14.2467L38.7633 8.46C35.0492 5.07668 30.2157 3 24.4301 3C16.049 3 8.81089 7.7133 5.28711 14.5732L12.2157 19.8466C13.9539 14.7833 18.7634 11.1199 24.4301 11.1199" fill="#EB4335"/>
</svg>
