<svg width="48" height="48" viewBox="0 0 48 48" fill="none" xmlns="http://www.w3.org/2000/svg">
<rect width="48" height="48" rx="24" fill="white"/>
<path d="M38 22.4979C38 16.1579 31.7199 11 23.9999 11C16.2809 11 10 16.1579 10 22.4979C10 28.1817 14.9806 32.9417 21.7084 33.8418C22.1644 33.9412 22.7849 34.146 22.9419 34.5404C23.0831 34.8986 23.0342 35.4598 22.987 35.8216C22.987 35.8216 22.8227 36.8214 22.7873 37.0343C22.7264 37.3926 22.5061 38.4353 23.9999 37.7981C25.4942 37.1609 32.0626 32.9935 34.9998 29.572C37.0287 27.3204 38 25.0353 38 22.4979Z" fill="#2CCF54"/>
<path d="M21.1553 19.4249H20.1733C20.0228 19.4249 19.9004 19.5483 19.9004 19.7V25.8665C19.9004 26.0184 20.0228 26.1416 20.1733 26.1416H21.1553C21.3059 26.1416 21.428 26.0184 21.428 25.8665V19.7C21.428 19.5483 21.3059 19.4249 21.1553 19.4249Z" fill="white"/>
<path d="M27.9147 19.4249H26.9327C26.7821 19.4249 26.66 19.5483 26.66 19.7V23.3635L23.8645 19.5472C23.8128 19.4688 23.729 19.43 23.6375 19.4249H22.6558C22.5052 19.4249 22.3828 19.5483 22.3828 19.7V25.8665C22.3828 26.0184 22.5052 26.1416 22.6558 26.1416H23.6375C23.7883 26.1416 23.9104 26.0184 23.9104 25.8665V22.204L26.7094 26.0252C26.7597 26.0972 26.845 26.1416 26.9327 26.1416H27.9147C28.0655 26.1416 28.1874 26.0184 28.1874 25.8665V19.7C28.1874 19.5483 28.0655 19.4249 27.9147 19.4249Z" fill="white"/>
<path d="M18.7884 24.5964H16.1201V19.6993C16.1201 19.5471 15.998 19.4236 15.8477 19.4236H14.8654C14.7149 19.4236 14.5928 19.5471 14.5928 19.6993V25.8647C14.5928 26.0144 14.7143 26.1406 14.8652 26.1406H18.7884C18.9389 26.1406 19.0605 26.0169 19.0605 25.8647V24.872C19.0605 24.7199 18.9389 24.5964 18.7884 24.5964Z" fill="white"/>
<path d="M33.3377 20.9678C33.4883 20.9678 33.6098 20.8447 33.6098 20.6922V19.6995C33.6098 19.5473 33.4883 19.4236 33.3377 19.4236H29.4148C29.2641 19.4236 29.1421 19.5496 29.1421 19.6993V25.865C29.1421 26.0142 29.2638 26.1406 29.4142 26.1406H33.3377C33.4883 26.1406 33.6098 26.0169 33.6098 25.865V24.872C33.6098 24.7201 33.4883 24.5964 33.3377 24.5964H30.6697V23.5541H33.3377C33.4883 23.5541 33.6098 23.4307 33.6098 23.2785V22.2858C33.6098 22.1336 33.4883 22.0099 33.3377 22.0099H30.6697V20.9678H33.3377Z" fill="white"/>
</svg>
