<svg width="191" height="200" viewBox="0 0 191 200" fill="none" xmlns="http://www.w3.org/2000/svg">
<path d="M95.4266 199.438C148.129 199.438 190.853 156.714 190.853 104.012C190.853 51.3089 148.129 8.58496 95.4266 8.58496C42.7239 8.58496 0 51.3089 0 104.012C0 156.714 42.7239 199.438 95.4266 199.438Z" fill="#D68F30"/>
<path d="M6.48828 128.799V138.548C7.48647 141.126 8.60111 143.672 9.81557 146.134V128.799H6.48828Z" fill="#BC6F00"/>
<path d="M17.3682 147.149V158.861C18.6991 160.741 20.0799 162.588 21.5273 164.368V147.149H17.3682Z" fill="#BC6F00"/>
<path d="M31.7759 162.455V175.082C33.3896 176.53 35.0533 177.91 36.7668 179.241V162.455H31.7759Z" fill="#BC6F00"/>
<path d="M49.5098 174.083V187.658C51.1401 188.557 52.8038 189.405 54.5007 190.22V174.083H49.5098Z" fill="#BC6F00"/>
<path d="M69.6235 181.486V195.86C71.2705 196.326 72.9342 196.742 74.6145 197.125V181.486H69.6235Z" fill="#BC6F00"/>
<path d="M93.1641 184.049V199.371C93.9127 199.388 94.6613 199.421 95.4266 199.421C96.3416 199.421 97.2566 199.371 98.155 199.354V184.049H93.1641Z" fill="#BC6F00"/>
<path d="M116.705 181.37V197.008C118.385 196.626 120.049 196.193 121.696 195.727V181.37H116.705Z" fill="#BC6F00"/>
<path d="M136.768 173.867V190.021C138.465 189.206 140.129 188.324 141.759 187.409V173.867H136.768Z" fill="#BC6F00"/>
<path d="M154.453 162.139V178.941C156.166 177.594 157.83 176.213 159.444 174.749V162.139H154.453Z" fill="#BC6F00"/>
<path d="M173.768 146.784H169.609V164.003C171.056 162.206 172.454 160.36 173.768 158.463V146.784Z" fill="#BC6F00"/>
<path d="M184.582 128.367H181.254V145.736C182.469 143.224 183.583 140.645 184.582 138.033V128.367Z" fill="#BC6F00"/>
<path d="M95.4266 190.853C148.129 190.853 190.853 148.129 190.853 95.4266C190.853 42.7239 148.129 0 95.4266 0C42.7239 0 0 42.7239 0 95.4266C0 148.129 42.7239 190.853 95.4266 190.853Z" fill="#FFF176"/>
<path d="M95.4264 182.353C143.434 182.353 182.352 143.435 182.352 95.4273C182.352 47.4198 143.434 8.50195 95.4264 8.50195C47.4188 8.50195 8.50098 47.4198 8.50098 95.4273C8.50098 143.435 47.4188 182.353 95.4264 182.353Z" fill="#F2BC1A"/>
<path d="M8.33461 98.753C7.71906 87.3071 9.6988 75.6949 13.6915 64.8147C17.8507 53.9677 24.2224 43.936 32.2578 35.4181C48.3952 18.3491 71.8193 8.45044 95.4264 8.33398C119.033 8.46708 142.474 18.3491 158.578 35.4347C166.63 43.936 172.985 53.9844 177.145 64.8147C181.154 75.7116 183.134 87.3071 182.501 98.753H182.169C182.135 87.3571 179.873 75.9944 175.514 65.4801C171.172 54.9659 164.734 45.3168 156.732 37.2481C148.713 29.1794 139.114 22.6912 128.616 18.3158C118.135 13.9238 106.772 11.6613 95.4097 11.6613C84.047 11.6613 72.6843 13.9238 62.2034 18.3158C51.7058 22.6912 42.1066 29.1794 34.0878 37.2481C26.069 45.3168 19.6474 54.9659 15.3053 65.4801C10.9465 75.9944 8.68397 87.3571 8.6507 98.753H8.33461Z" fill="#E08F00"/>
<path d="M95.4266 0.0166016C42.7224 0.0166016 0 42.739 0 95.4432C0 148.147 42.7224 190.87 95.4266 190.87C148.131 190.87 190.853 148.147 190.853 95.4432C190.853 42.739 148.131 0.0166016 95.4266 0.0166016V0.0166016ZM95.4266 182.369C47.4138 182.369 8.50122 143.456 8.50122 95.4432C8.50122 47.4138 47.4138 8.50118 95.4266 8.50118C143.439 8.50118 182.352 47.4138 182.352 95.4266C182.352 143.439 143.439 182.369 95.4266 182.369Z" fill="#FFF176"/>
<path d="M52.1551 28.7646L54.2679 35.3028L61.1554 32.6742V35.3028L55.5822 39.3454L57.7117 43.2383V45.8835L52.1551 41.8409L46.5819 45.8835V43.2383L48.7113 39.3454L43.1548 35.3028V32.6742L50.0256 35.3028L52.1551 28.7646Z" fill="#D38200"/>
<path d="M25.5701 66.2959L27.6996 72.834L34.5704 70.2055V72.834L29.0139 76.8767L31.1433 80.7862V83.4148L25.5701 79.3721L20.0136 83.4148V80.7862L22.143 76.8767L16.5698 72.834V70.2055L23.4573 72.834L25.5701 66.2959Z" fill="#D38200"/>
<path d="M24.7889 112.562L26.9184 119.101L33.7892 116.472V119.101L28.2326 123.143L30.3621 127.053V129.681L24.7889 125.639L19.2323 129.681V127.053L21.3618 123.143L15.7886 119.101V116.472L22.6761 119.101L24.7889 112.562Z" fill="#D38200"/>
<path d="M53.1697 149.296L55.2992 155.834L62.1701 153.205V155.834L56.6135 159.877L58.743 163.77V166.415L53.1697 162.372L47.6132 166.415V163.77L49.7426 159.877L44.1694 155.834V153.205L51.0569 155.834L53.1697 149.296Z" fill="#D38200"/>
<path d="M138.698 28.7646L136.585 35.3028L129.698 32.6742V35.3028L135.271 39.3454L133.141 43.2383V45.8835L138.698 41.8409L144.271 45.8835V43.2383L142.142 39.3454L147.698 35.3028V32.6742L140.828 35.3028L138.698 28.7646Z" fill="#D38200"/>
<path d="M165.283 66.2959L163.154 72.834L156.283 70.2055V72.834L161.839 76.8767L159.71 80.7862V83.4148L165.283 79.3721L170.84 83.4148V80.7862L168.71 76.8767L174.283 72.834V70.2055L167.396 72.834L165.283 66.2959Z" fill="#D38200"/>
<path d="M166.065 112.562L163.936 119.101L157.065 116.472V119.101L162.622 123.143L160.492 127.053V129.681L166.065 125.639L171.622 129.681V127.053L169.492 123.143L175.066 119.101V116.472L168.178 119.101L166.065 112.562Z" fill="#D38200"/>
<path d="M137.683 149.296L135.554 155.834L128.683 153.205V155.834L134.24 159.877L132.11 163.77V166.415L137.683 162.372L143.24 166.415V163.77L141.111 159.877L146.684 155.834V153.205L139.796 155.834L137.683 149.296Z" fill="#D38200"/>
<path d="M137.683 146.65L139.796 153.189H146.684L141.111 157.231L143.24 163.769L137.683 159.727L132.11 163.769L134.24 157.231L128.683 153.189H135.554L137.683 146.65Z" fill="#FFF176"/>
<path d="M166.065 109.934L168.178 116.472H175.066L169.492 120.514L171.622 127.052L166.065 123.01L160.492 127.052L162.622 120.514L157.065 116.472H163.936L166.065 109.934Z" fill="#FFF176"/>
<path d="M165.283 63.667L167.396 70.2051H174.283L168.71 74.2478L170.84 80.7859L165.283 76.7432L159.71 80.7859L161.839 74.2478L156.283 70.2051H163.154L165.283 63.667Z" fill="#FFF176"/>
<path d="M138.698 26.1191L140.828 32.6573H147.698L142.142 36.6999L144.271 43.238L138.698 39.1954L133.141 43.238L135.271 36.6999L129.698 32.6573H136.585L138.698 26.1191Z" fill="#FFF176"/>
<path d="M95.5096 163.77L97.6391 170.308L104.51 167.679V170.308L98.9533 174.35L101.083 178.26V180.888L95.5096 176.846L89.953 180.888V178.26L92.0825 174.35L86.5093 170.308V167.679L93.3968 170.308L95.5096 163.77Z" fill="#D38200"/>
<path d="M95.5096 160.275L97.6391 166.814H104.51L98.9533 170.856L101.083 177.394L95.5096 173.352L89.953 177.394L92.0825 170.856L86.5093 166.814H93.3968L95.5096 160.275Z" fill="#FFF176"/>
<path d="M95.5096 14.6904L97.6391 21.2285L104.51 18.6V21.2285L98.9533 25.2712L101.083 29.1808V31.8093L95.5096 27.7667L89.953 31.8093V29.1808L92.0825 25.2712L86.5093 21.2285V18.6L93.3968 21.2285L95.5096 14.6904Z" fill="#D38200"/>
<path d="M95.5096 12.0615L97.6391 18.5996H104.51L98.9533 22.6423L101.083 29.1804L95.5096 25.1378L89.953 29.1804L92.0825 22.6423L86.5093 18.5996H93.3968L95.5096 12.0615Z" fill="#FFF176"/>
<path d="M53.1697 146.65L51.0569 153.189H44.1694L49.7426 157.231L47.6132 163.769L53.1697 159.727L58.743 163.769L56.6135 157.231L62.1701 153.189H55.2992L53.1697 146.65Z" fill="#FFF176"/>
<path d="M24.7889 109.934L22.6761 116.472H15.7886L21.3618 120.514L19.2323 127.052L24.7889 123.01L30.3621 127.052L28.2326 120.514L33.7892 116.472H26.9184L24.7889 109.934Z" fill="#FFF176"/>
<path d="M25.5701 63.667L23.4573 70.2051H16.5698L22.143 74.2478L20.0136 80.7859L25.5701 76.7432L31.1433 80.7859L29.0139 74.2478L34.5704 70.2051H27.6996L25.5701 63.667Z" fill="#FFF176"/>
<path d="M52.1551 26.1191L50.0256 32.6573H43.1548L48.7113 36.6999L46.5819 43.238L52.1551 39.1954L57.7117 43.238L55.5822 36.6999L61.1554 32.6573H54.2679L52.1551 26.1191Z" fill="#FFF176"/>
<path d="M147.366 73.4336C147.366 72.8513 43.5879 73.4336 43.5879 73.4336L42.6562 76.2285V81.0032C42.6562 81.8683 43.355 82.567 44.2201 82.567H95.7764H146.634C147.499 82.567 148.198 81.8683 148.198 81.0032V76.3616L147.366 73.4336Z" fill="#D38200"/>
<path d="M147.515 135.488H44.0199L37.0991 138.965L37.1823 143.44C37.1989 143.923 37.5982 144.322 38.0973 144.322H152.772C153.255 144.322 153.671 143.94 153.687 143.44L153.77 139.048L147.515 135.488Z" fill="#D38200"/>
<path d="M60.7062 121.878H54.7503C53.7688 121.878 52.9702 118.784 52.9702 117.802L62.4696 117.503C62.4696 118.484 61.6711 121.878 60.7062 121.878V121.878Z" fill="#D38200"/>
<path d="M62.7365 89.7536H52.7047C51.9561 89.7536 51.3073 89.2545 51.091 88.5391L50.3091 82.001H64.9991L64.3336 88.5391C64.134 89.2545 63.4851 89.7536 62.7365 89.7536Z" fill="#D38200"/>
<path d="M52.7048 123.858H62.7366C63.4852 123.858 64.9659 124.324 65.1655 125.04C65.1655 125.04 65.1156 128.151 65.1156 129.382C65.1156 130.613 64.6165 131.511 63.5018 131.511H51.9395C50.8249 131.511 50.3258 130.513 50.3258 129.382C50.3258 128.25 50.2759 125.073 50.2759 125.073C50.4922 124.357 51.9562 123.858 52.7048 123.858V123.858Z" fill="#D38200"/>
<path d="M138.066 121.878H132.11C131.128 121.878 130.33 118.784 130.33 117.802L139.829 117.503C139.829 118.484 139.047 121.878 138.066 121.878V121.878Z" fill="#D38200"/>
<path d="M140.096 89.7536H130.064C129.315 89.7536 128.667 89.2545 128.45 88.5391L127.668 82.001H142.358L141.693 88.5391C141.493 89.2545 140.845 89.7536 140.096 89.7536Z" fill="#D38200"/>
<path d="M130.064 123.858H140.096C140.845 123.858 142.325 124.324 142.525 125.04C142.525 125.04 142.475 128.151 142.475 129.382C142.475 130.613 141.976 131.511 140.861 131.511H129.299C128.184 131.511 127.685 130.513 127.685 129.382C127.685 128.25 127.635 125.073 127.635 125.073C127.852 124.357 129.316 123.858 130.064 123.858V123.858Z" fill="#D38200"/>
<path d="M112.279 121.878H106.323C105.342 121.878 104.543 118.784 104.543 117.802L114.042 117.503C114.042 118.484 113.26 121.878 112.279 121.878V121.878Z" fill="#D38200"/>
<path d="M114.309 89.7536H104.277C103.529 89.7536 102.88 89.2545 102.664 88.5391L101.882 82.001H116.572L115.906 88.5391C115.707 89.2545 115.058 89.7536 114.309 89.7536Z" fill="#D38200"/>
<path d="M104.278 123.858H114.309C115.058 123.858 116.539 124.324 116.738 125.04C116.738 125.04 116.688 128.151 116.688 129.382C116.688 130.613 116.189 131.511 115.075 131.511H103.512C102.398 131.511 101.899 130.513 101.899 129.382C101.899 128.25 101.849 125.073 101.849 125.073C102.065 124.357 103.529 123.858 104.278 123.858V123.858Z" fill="#D38200"/>
<path d="M86.4928 121.878H80.5369C79.5554 121.878 78.7568 118.784 78.7568 117.802L88.2562 117.503C88.2562 118.484 87.4743 121.878 86.4928 121.878V121.878Z" fill="#D38200"/>
<path d="M88.5226 89.7536H78.4909C77.7422 89.7536 77.0934 89.2545 76.8771 88.5391L76.0952 82.001H90.7852L90.1197 88.5391C89.9201 89.2545 89.2713 89.7536 88.5226 89.7536Z" fill="#D38200"/>
<path d="M78.4909 123.858H88.5227C89.2713 123.858 90.752 124.324 90.9516 125.04C90.9516 125.04 90.9017 128.151 90.9017 129.382C90.9017 130.613 90.4026 131.511 89.288 131.511H77.7257C76.611 131.511 76.1119 130.513 76.1119 129.382C76.1119 128.25 76.062 125.073 76.062 125.073C76.2783 124.357 77.7423 123.858 78.4909 123.858V123.858Z" fill="#D38200"/>
<path d="M148.115 68.9748C148.115 68.3925 147.815 67.8435 147.366 67.5774L95.4936 38.1309L43.5546 67.5441C43.0555 67.8435 42.7394 68.3925 42.7394 68.9748L42.6562 76.2449C42.6562 77.1599 43.4049 77.9086 44.3199 77.9086H146.518C147.433 77.9086 148.181 77.1599 148.181 76.2449L148.115 68.9748Z" fill="#FFF176"/>
<path d="M135.088 66.9954L95.4264 44.4863L55.7651 66.9954H135.088Z" fill="#F2BC1A"/>
<path d="M120.498 64.2486L95.4266 50.0078L70.3555 64.2486H120.498Z" fill="#FFF176"/>
<path d="M144.321 129.697H46.5319C45.5669 129.697 44.6519 130.113 44.0031 130.829L37.282 138.332C36.8162 138.847 37.1822 139.663 37.8809 139.663H152.972C153.654 139.663 154.02 138.847 153.571 138.332L146.833 130.829C146.201 130.113 145.269 129.697 144.321 129.697Z" fill="#FFF176"/>
<path d="M138.066 118.865H132.11C131.128 118.865 130.33 118.066 130.33 117.085V90.4998C130.33 89.5183 131.128 88.7197 132.11 88.7197H138.066C139.047 88.7197 139.846 89.5183 139.846 90.4998V117.101C139.846 118.083 139.047 118.865 138.066 118.865Z" fill="#FFF176"/>
<path d="M140.112 86.7421H130.081C129.332 86.7421 128.683 86.243 128.467 85.5276L127.702 82.8824C127.385 81.8177 128.201 80.7529 129.315 80.7529H140.878C141.992 80.7529 142.791 81.8177 142.491 82.8824L141.726 85.5276C141.51 86.243 140.844 86.7421 140.112 86.7421V86.7421Z" fill="#FFF176"/>
<path d="M130.063 120.862H140.095C140.844 120.862 141.493 121.361 141.709 122.077L142.474 124.722C142.79 125.787 141.975 126.851 140.861 126.851H129.298C128.184 126.851 127.385 125.787 127.684 124.722L128.45 122.077C128.666 121.345 129.331 120.862 130.063 120.862V120.862Z" fill="#FFF176"/>
<path d="M60.7062 118.865H54.7503C53.7688 118.865 52.9702 118.066 52.9702 117.085V90.4998C52.9702 89.5183 53.7688 88.7197 54.7503 88.7197H60.7062C61.6877 88.7197 62.4863 89.5183 62.4863 90.4998V117.101C62.4696 118.083 61.6711 118.865 60.7062 118.865Z" fill="#FFF176"/>
<path d="M62.7358 86.7421H52.7041C51.9554 86.7421 51.3066 86.243 51.0903 85.5276L50.3251 82.8824C50.009 81.8177 50.8241 80.7529 51.9388 80.7529H63.5011C64.6158 80.7529 65.4143 81.8177 65.1148 82.8824L64.3496 85.5276C64.1333 86.243 63.4845 86.7421 62.7358 86.7421Z" fill="#FFF176"/>
<path d="M52.7041 120.862H62.7359C63.4845 120.862 64.1334 121.361 64.3496 122.077L65.1149 124.722C65.431 125.787 64.6158 126.851 63.5012 126.851H51.9389C50.8242 126.851 50.0257 125.787 50.3251 124.722L51.0904 122.077C51.3067 121.345 51.9555 120.862 52.7041 120.862Z" fill="#FFF176"/>
<path d="M86.4928 118.865H80.5369C79.5554 118.865 78.7568 118.066 78.7568 117.085V90.4998C78.7568 89.5183 79.5554 88.7197 80.5369 88.7197H86.4928C87.4743 88.7197 88.2729 89.5183 88.2729 90.4998V117.101C88.2562 118.083 87.4743 118.865 86.4928 118.865Z" fill="#FFF176"/>
<path d="M88.522 86.7421H78.4902C77.7416 86.7421 77.0927 86.243 76.8765 85.5276L76.1112 82.8824C75.7951 81.8177 76.6103 80.7529 77.7249 80.7529H89.2872C90.4019 80.7529 91.2004 81.8177 90.901 82.8824L90.1357 85.5276C89.9194 86.243 89.2706 86.7421 88.522 86.7421Z" fill="#FFF176"/>
<path d="M78.4907 120.862H88.5225C89.2712 120.862 89.92 121.361 90.1363 122.077L90.9015 124.722C91.2176 125.787 90.4024 126.851 89.2878 126.851H77.7255C76.6108 126.851 75.8123 125.787 76.1117 124.722L76.877 122.077C77.0933 121.345 77.7421 120.862 78.4907 120.862Z" fill="#FFF176"/>
<path d="M112.279 118.865H106.323C105.342 118.865 104.543 118.066 104.543 117.085V90.4998C104.543 89.5183 105.342 88.7197 106.323 88.7197H112.279C113.26 88.7197 114.059 89.5183 114.059 90.4998V117.101C114.042 118.083 113.26 118.865 112.279 118.865Z" fill="#FFF176"/>
<path d="M114.309 86.7421H104.277C103.528 86.7421 102.879 86.243 102.663 85.5276L101.898 82.8824C101.582 81.8177 102.397 80.7529 103.512 80.7529H115.074C116.189 80.7529 116.987 81.8177 116.688 82.8824L115.922 85.5276C115.706 86.243 115.057 86.7421 114.309 86.7421V86.7421Z" fill="#FFF176"/>
<path d="M104.277 120.862H114.309C115.058 120.862 115.707 121.361 115.923 122.077L116.688 124.722C117.004 125.787 116.189 126.851 115.074 126.851H103.512C102.397 126.851 101.599 125.787 101.898 124.722L102.664 122.077C102.88 121.345 103.545 120.862 104.277 120.862V120.862Z" fill="#FFF176"/>
</svg>
