<svg width="32" height="32" viewBox="0 0 32 32" fill="none" xmlns="http://www.w3.org/2000/svg">
<path fill-rule="evenodd" clip-rule="evenodd" d="M12.0247 6.22009C12.2467 4.22106 13.9418 2.6665 16 2.6665C18.0583 2.6665 19.7534 4.22106 19.9754 6.2201C23.1406 7.71236 25.3334 10.9319 25.3334 14.6665V18.8778C25.3334 19.2426 25.4783 19.5925 25.7363 19.8505L27.6095 21.7237C27.9908 22.105 28.1049 22.6785 27.8985 23.1768C27.6922 23.675 27.206 23.9998 26.6667 23.9998L21.3334 23.9998C21.3334 26.9454 18.9456 29.3332 16 29.3332C13.0545 29.3332 10.6667 26.9454 10.6667 23.9998L5.33337 23.9998C4.79409 23.9998 4.30791 23.675 4.10153 23.1768C3.89516 22.6785 4.00923 22.105 4.39056 21.7237L6.26381 19.8505C6.52178 19.5925 6.66671 19.2426 6.66671 18.8778V14.6665C6.66671 10.9319 8.85953 7.71235 12.0247 6.22009ZM13.3334 23.9998C13.3334 25.4726 14.5273 26.6665 16 26.6665C17.4728 26.6665 18.6667 25.4726 18.6667 23.9998H13.3334ZM16 5.33317C15.2637 5.33317 14.6667 5.93012 14.6667 6.6665V7.12172C14.6667 7.68681 14.3105 8.19053 13.7777 8.37884C11.1866 9.29467 9.33337 11.7659 9.33337 14.6665V18.8778C9.33337 19.7701 9.0383 20.6321 8.50218 21.3332H23.4979C22.9618 20.6321 22.6667 19.7701 22.6667 18.8778V14.6665C22.6667 11.7659 20.8135 9.29467 18.2224 8.37884C17.6896 8.19053 17.3334 7.68681 17.3334 7.12172V6.6665C17.3334 5.93012 16.7364 5.33317 16 5.33317Z" fill="#00ADA9"/>
</svg>
