<svg width="199" height="189" viewBox="0 0 199 189" fill="none" xmlns="http://www.w3.org/2000/svg">
<path d="M15.9404 14.0654V18.8421" stroke="#4C241D" stroke-width="6.75144" stroke-linecap="round" stroke-linejoin="round"/>
<path d="M15.9404 33.1699V37.9466" stroke="#4C241D" stroke-width="6.75144" stroke-linecap="round" stroke-linejoin="round"/>
<path d="M4 26.0059H8.77665" stroke="#4C241D" stroke-width="6.75144" stroke-linecap="round" stroke-linejoin="round"/>
<path d="M23.104 26.0059H27.8807" stroke="#4C241D" stroke-width="6.75144" stroke-linecap="round" stroke-linejoin="round"/>
<path d="M54.76 7.67139C56.753 7.67139 58.3687 6.05575 58.3687 4.06275C58.3687 2.06975 56.753 0.454102 54.76 0.454102C52.767 0.454102 51.1514 2.06975 51.1514 4.06275C51.1514 6.05575 52.767 7.67139 54.76 7.67139Z" fill="#4C241D"/>
<path d="M80.0791 164.41H181.351C184.037 164.41 186.613 165.477 188.512 167.376C190.411 169.276 191.478 171.851 191.478 174.537C191.478 177.223 190.411 179.799 188.512 181.698C186.613 183.598 184.037 184.664 181.351 184.664H80.0791V164.41Z" fill="#FFCE56" stroke="#4C241D" stroke-width="6.75144" stroke-linecap="round" stroke-linejoin="round"/>
<path d="M73.3276 144.156H174.599C177.285 144.156 179.861 145.223 181.76 147.122C183.659 149.022 184.726 151.598 184.726 154.283C184.726 156.969 183.659 159.545 181.76 161.444C179.861 163.344 177.285 164.411 174.599 164.411H73.3276V144.156Z" fill="#FFCE56" stroke="#4C241D" stroke-width="6.75144" stroke-linecap="round" stroke-linejoin="round"/>
<path d="M80.0791 123.901H181.351C184.037 123.901 186.613 124.968 188.512 126.868C190.411 128.767 191.478 131.343 191.478 134.029C191.478 136.714 190.411 139.29 188.512 141.19C186.613 143.089 184.037 144.156 181.351 144.156H80.0791V123.901Z" fill="#FFCE56" stroke="#4C241D" stroke-width="6.75144" stroke-linecap="round" stroke-linejoin="round"/>
<path d="M76.7031 103.647H177.975C180.661 103.647 183.237 104.714 185.136 106.614C187.035 108.513 188.102 111.089 188.102 113.775C188.102 116.461 187.035 119.036 185.136 120.936C183.237 122.835 180.661 123.902 177.975 123.902H76.7031V103.647Z" fill="#FFCE56" stroke="#4C241D" stroke-width="6.75144" stroke-linecap="round" stroke-linejoin="round"/>
<path d="M66.5762 83.3926H167.848C170.534 83.3926 173.11 84.4595 175.009 86.3588C176.908 88.258 177.975 90.8339 177.975 93.5197C177.975 96.2056 176.908 98.7815 175.009 100.681C173.11 102.58 170.534 103.647 167.848 103.647H66.5762V83.3926Z" fill="#FFCE56" stroke="#4C241D" stroke-width="6.75144" stroke-linecap="round" stroke-linejoin="round"/>
<path d="M73.3276 63.1387H174.599C177.285 63.1387 179.861 64.2056 181.76 66.1048C183.659 68.0041 184.726 70.5799 184.726 73.2658C184.726 75.9517 183.659 78.5276 181.76 80.4268C179.861 82.326 177.285 83.393 174.599 83.393H73.3276V63.1387Z" fill="#FFCE56" stroke="#4C241D" stroke-width="6.75144" stroke-linecap="round" stroke-linejoin="round"/>
<path d="M93.5818 42.8848H184.726C187.412 42.8848 189.988 43.9517 191.887 45.8509C193.786 47.7502 194.853 50.326 194.853 53.0119C194.853 55.6978 193.786 58.2737 191.887 60.1729C189.988 62.0721 187.412 63.1391 184.726 63.1391H83.4546V53.0119C83.4546 50.326 84.5216 47.7502 86.4208 45.8509C88.32 43.9517 90.8959 42.8848 93.5818 42.8848Z" fill="#FFCE56" stroke="#4C241D" stroke-width="6.75144" stroke-linecap="round" stroke-linejoin="round"/>
<path d="M164.472 22.6299H73.3274C67.7343 22.6299 63.2002 27.164 63.2002 32.757C63.2002 38.3501 67.7343 42.8842 73.3274 42.8842H164.472C170.065 42.8842 174.599 38.3501 174.599 32.757C174.599 27.164 170.065 22.6299 164.472 22.6299Z" fill="#FFCE56" stroke="#4C241D" stroke-width="6.75144" stroke-linecap="round" stroke-linejoin="round"/>
<path d="M80.0792 184.665C115.502 184.665 144.218 155.949 144.218 120.526C144.218 85.1036 115.502 56.3877 80.0792 56.3877C44.6563 56.3877 15.9404 85.1036 15.9404 120.526C15.9404 155.949 44.6563 184.665 80.0792 184.665Z" fill="#FFCE56" stroke="#4C241D" stroke-width="6.75144" stroke-linecap="round" stroke-linejoin="round"/>
<path d="M80.079 167.786C106.18 167.786 127.339 146.627 127.339 120.526C127.339 94.4247 106.18 73.2656 80.079 73.2656C53.9779 73.2656 32.8188 94.4247 32.8188 120.526C32.8188 146.627 53.9779 167.786 80.079 167.786Z" stroke="#4C241D" stroke-width="6.75144" stroke-linecap="round" stroke-linejoin="round" stroke-dasharray="13.49 13.49"/>
<path d="M89.3184 100.295C88.7274 99.2617 87.8738 98.403 86.8441 97.8061C85.8143 97.2091 84.6451 96.895 83.4548 96.8955H81.0715C78.1224 96.8955 75.2941 98.067 73.2088 100.152C71.1234 102.238 69.9519 105.066 69.9519 108.015L71.4845 116.762C76.7033 127.277 68.7906 130.757 66.5762 137.404H93.5819V130.653" stroke="#4C241D" stroke-width="6.75144" stroke-linecap="round" stroke-linejoin="round"/>
<path d="M66.5762 117.15H80.0791" stroke="#4C241D" stroke-width="6.75144" stroke-linecap="round" stroke-linejoin="round"/>
</svg>
