<svg width="49" height="49" viewBox="0 0 49 49" fill="none" xmlns="http://www.w3.org/2000/svg">
<path fill-rule="evenodd" clip-rule="evenodd" d="M8.00059 10.0029C7.47013 10.0029 6.9614 10.2137 6.5863 10.5887C6.21121 10.9638 6.00049 11.4726 6.00049 12.003C6.00049 12.5335 6.21121 13.0422 6.5863 13.4173C6.9614 13.7924 7.47013 14.0031 8.00059 14.0031H40.0022C40.5326 14.0031 41.0414 13.7924 41.4165 13.4173C41.7916 13.0422 42.0023 12.5335 42.0023 12.003C42.0023 11.4726 41.7916 10.9638 41.4165 10.5887C41.0414 10.2137 40.5326 10.0029 40.0022 10.0029H8.00059ZM6.00049 24.0036C6.00049 23.4732 6.21121 22.9644 6.5863 22.5893C6.9614 22.2142 7.47013 22.0035 8.00059 22.0035H40.0022C40.5326 22.0035 41.0414 22.2142 41.4165 22.5893C41.7916 22.9644 42.0023 23.4732 42.0023 24.0036C42.0023 24.5341 41.7916 25.0428 41.4165 25.4179C41.0414 25.793 40.5326 26.0037 40.0022 26.0037H8.00059C7.47013 26.0037 6.9614 25.793 6.5863 25.4179C6.21121 25.0428 6.00049 24.5341 6.00049 24.0036ZM6.00049 36.0042C6.00049 35.4738 6.21121 34.965 6.5863 34.5899C6.9614 34.2148 7.47013 34.0041 8.00059 34.0041H40.0022C40.5326 34.0041 41.0414 34.2148 41.4165 34.5899C41.7916 34.965 42.0023 35.4738 42.0023 36.0042C42.0023 36.5347 41.7916 37.0434 41.4165 37.4185C41.0414 37.7936 40.5326 38.0043 40.0022 38.0043H8.00059C7.47013 38.0043 6.9614 37.7936 6.5863 37.4185C6.21121 37.0434 6.00049 36.5347 6.00049 36.0042Z" fill="#00ADA9"/>
</svg>
