<svg width="48" height="48" viewBox="0 0 48 48" fill="none" xmlns="http://www.w3.org/2000/svg">
<path fill-rule="evenodd" clip-rule="evenodd" d="M18.037 9.33038C18.37 6.33184 20.9127 4 24.0001 4C27.0874 4 29.6301 6.33184 29.9631 9.33039C34.7108 11.5688 38.0001 16.3981 38.0001 22V28.3169C38.0001 28.8641 38.2175 29.389 38.6044 29.7759L41.4143 32.5858C41.9863 33.1578 42.1574 34.018 41.8478 34.7654C41.5383 35.5127 40.809 36 40.0001 36L32.0001 36C32.0001 40.4183 28.4183 44 24.0001 44C19.5818 44 16.0001 40.4183 16.0001 36L8.00006 36C7.19113 36 6.46186 35.5127 6.1523 34.7654C5.84274 34.018 6.01385 33.1578 6.58585 32.5858L9.39571 29.7759C9.78267 29.389 10.0001 28.8641 10.0001 28.3169V22C10.0001 16.3981 13.2893 11.5688 18.037 9.33038ZM20.0001 36C20.0001 38.2091 21.7909 40 24.0001 40C26.2092 40 28.0001 38.2091 28.0001 36H20.0001ZM24.0001 8C22.8955 8 22.0001 8.89543 22.0001 10V10.6828C22.0001 11.5305 21.4657 12.286 20.6666 12.5685C16.7799 13.9423 14.0001 17.6491 14.0001 22V28.3169C14.0001 29.6555 13.5574 30.9484 12.7533 32H35.2468C34.4427 30.9484 34.0001 29.6555 34.0001 28.3169V22C34.0001 17.6491 31.2202 13.9423 27.3336 12.5685C26.5344 12.286 26.0001 11.5305 26.0001 10.6828V10C26.0001 8.89543 25.1046 8 24.0001 8Z" fill="#00ADA9"/>
</svg>
