<svg width="48" height="48" viewBox="0 0 48 48" fill="none" xmlns="http://www.w3.org/2000/svg">
<rect width="48" height="48" rx="24" fill="white"/>
<path d="M30.0515 16.5234L24.0644 21.1959L17.9404 16.5234V16.5247L17.9478 16.531V23.0737L23.9954 27.8471L30.0515 23.258V16.5234Z" fill="#EA4335"/>
<path d="M31.6236 15.3864L30.0513 16.5229V23.2575L34.9988 19.459V17.1707C34.9988 17.1707 34.3982 13.9026 31.6236 15.3864Z" fill="#FBBC05"/>
<path d="M30.0513 23.2575V31.9924H33.8433C33.8433 31.9924 34.9223 31.8813 35 30.6513V19.459L30.0513 23.2575Z" fill="#34A853"/>
<path d="M17.9481 31.9996V23.0727L17.9404 23.0664L17.9481 31.9996Z" fill="#C5221F"/>
<path d="M17.9401 16.5245L16.3765 15.3943C13.6018 13.9105 13 17.1774 13 17.1774V19.4656L17.9401 23.0672V16.5245Z" fill="#C5221F"/>
<path d="M17.9404 16.5244V23.0671L17.9481 23.0734V16.5307L17.9404 16.5244Z" fill="#C5221F"/>
<path d="M13 19.4668V30.6591C13.0765 31.8904 14.1567 32.0003 14.1567 32.0003H17.9488L17.9401 23.0671L13 19.4668Z" fill="#4285F4"/>
</svg>
