<svg width="33" height="32" viewBox="0 0 33 32" fill="none" xmlns="http://www.w3.org/2000/svg">
<path fill-rule="evenodd" clip-rule="evenodd" d="M10.667 12.0005C10.667 10.586 11.2289 9.22937 12.2292 8.22912C13.2294 7.22888 14.586 6.66695 16.0006 6.66695C17.4151 6.66695 18.7718 7.22888 19.772 8.22912C20.7722 9.22937 21.3342 10.586 21.3342 12.0005C21.3342 13.4151 20.7722 14.7717 19.772 15.772C18.7718 16.7722 17.4151 17.3341 16.0006 17.3341C14.586 17.3341 13.2294 16.7722 12.2292 15.772C11.2289 14.7717 10.667 13.4151 10.667 12.0005V12.0005ZM21.0995 18.1648C22.3682 17.1153 23.2822 15.6998 23.7167 14.1115C24.1512 12.5233 24.0851 10.8397 23.5273 9.29039C22.9696 7.74112 21.9474 6.4017 20.6002 5.45488C19.253 4.50807 17.6465 4 15.9999 4C14.3533 4 12.7468 4.50807 11.3996 5.45488C10.0525 6.4017 9.03025 7.74112 8.47249 9.29039C7.91473 10.8397 7.84859 12.5233 8.2831 14.1115C8.7176 15.6998 9.63159 17.1153 10.9003 18.1648C6.64813 19.6622 4 22.9971 4 26.6679C4 27.0216 4.14048 27.3607 4.39054 27.6108C4.6406 27.8608 4.97976 28.0013 5.3334 28.0013C5.68704 28.0013 6.02619 27.8608 6.27625 27.6108C6.52631 27.3607 6.6668 27.0216 6.6668 26.6679C6.6668 23.6411 9.80695 20.0009 16.0006 20.0009C22.1942 20.0009 25.3344 23.6411 25.3344 26.6679C25.3344 27.0216 25.4749 27.3607 25.7249 27.6108C25.975 27.8608 26.3141 28.0013 26.6678 28.0013C27.0214 28.0013 27.3606 27.8608 27.6106 27.6108C27.8607 27.3607 28.0012 27.0216 28.0012 26.6679C28.0012 22.9971 25.3557 19.6622 21.0995 18.1648Z" fill="#00ADA9"/>
</svg>
