<?xml version="1.0" encoding="UTF-8"?><svg id="_層_2" xmlns="http://www.w3.org/2000/svg" viewBox="0 0 452.56 133.61"><defs><style>.cls-1{fill:#e84660;}.cls-2{fill:#00ada9;}.cls-3{fill:none;}.cls-4{fill:#ffe100;}</style></defs><g id="_層_2-2"><g><g><path class="cls-3" d="M37.71,111.85l-.96,5.54h7.03l-.96-5.54c1.83-.79,2.64-2.59,2.64-4.68,0-2.82-2.33-5.11-5.2-5.11s-5.2,2.29-5.2,5.11c0,2.1,.8,3.89,2.64,4.68Z"/><g><path class="cls-4" d="M118.28,81.22l-44.08,17.67v34.54l50-18.78v-35.8l-5.92,2.37Zm-12.2,40.23l-12.16,.44v-21.26l12.16-4.42v25.24Z"/><path class="cls-4" d="M94.52,54.24c-.22,.09-.43,.19-.65,.28-.26,.12-.52,.23-.77,.36-.22,.11-.43,.22-.64,.34-.25,.13-.49,.27-.74,.41-.21,.12-.41,.25-.62,.38-.24,.15-.47,.3-.71,.46-.2,.14-.4,.28-.6,.43-.23,.17-.45,.33-.67,.51-.19,.15-.39,.32-.58,.48-.22,.18-.43,.37-.64,.56-.19,.17-.37,.34-.56,.52-.21,.2-.41,.4-.61,.6-.18,.18-.36,.37-.53,.56-.2,.21-.39,.43-.59,.65-.17,.2-.34,.39-.51,.59-.19,.23-.38,.46-.56,.69-.16,.21-.33,.42-.48,.63-.18,.24-.36,.49-.53,.73-.15,.22-.31,.44-.46,.66-.17,.25-.34,.51-.51,.78-.15,.23-.29,.46-.43,.69-.16,.27-.32,.54-.48,.82-.14,.24-.27,.47-.41,.71-.15,.28-.31,.57-.46,.86-.13,.24-.26,.49-.38,.74-.15,.3-.29,.6-.43,.9-.12,.25-.24,.5-.35,.75-.14,.31-.28,.63-.41,.95-.11,.25-.22,.5-.32,.76-.13,.33-.26,.66-.39,1-.1,.25-.2,.5-.29,.75-.13,.35-.25,.71-.37,1.07-.08,.24-.17,.48-.25,.73-.13,.38-.24,.78-.36,1.17-.07,.23-.14,.45-.21,.68-.13,.45-.25,.91-.38,1.36-.05,.17-.1,.35-.14,.52-.17,.64-.32,1.28-.47,1.92-.01,.07-.03,.13-.04,.2-.13,.58-.26,1.16-.37,1.75-.04,.21-.08,.43-.12,.65-.08,.44-.17,.88-.24,1.33-.04,.26-.08,.52-.12,.79-.06,.4-.13,.8-.18,1.21-.04,.28-.07,.57-.11,.86-.05,.39-.1,.77-.14,1.16-.03,.29-.06,.59-.09,.89-.04,.38-.08,.76-.11,1.14-.03,.31-.05,.62-.07,.92-.03,.37-.05,.74-.08,1.11-.02,.31-.03,.63-.04,.94-.01,.26-.02,.53-.03,.79l49.91-20.01c-.51-9.99-7.24-20.81-19.32-22.09h0c-.82-.09-1.65-.13-2.46-.13-.57,0-1.13,.02-1.68,.06-.18,.01-.36,.04-.55,.06-.36,.04-.72,.07-1.08,.13-.21,.03-.42,.08-.64,.12-.31,.06-.63,.11-.94,.19-.22,.05-.44,.12-.65,.18-.29,.08-.58,.15-.87,.25-.22,.07-.44,.15-.66,.23-.27,.1-.55,.19-.82,.3Z"/><path class="cls-4" d="M12,115.98l58.58,17.63v-34.6L12,81.45v34.53Zm28.27-13.92c2.87,0,5.2,2.29,5.2,5.11,0,2.1-.8,3.89-2.64,4.68l.96,5.54h-7.03l.96-5.54c-1.83-.79-2.64-2.59-2.64-4.68,0-2.82,2.33-5.11,5.2-5.11Z"/><path class="cls-4" d="M74.5,73.44c.15-.44,.31-.87,.47-1.3,.07-.18,.13-.37,.21-.55,.23-.6,.48-1.2,.73-1.79,.05-.12,.11-.24,.16-.36,.2-.47,.41-.93,.63-1.38,.1-.21,.2-.41,.3-.61,.18-.37,.36-.73,.55-1.09,.11-.22,.23-.43,.35-.65,.18-.34,.37-.68,.56-1.01,.12-.21,.24-.42,.37-.63,.2-.34,.41-.67,.62-1.01,.12-.19,.23-.37,.35-.56,.27-.4,.54-.8,.81-1.19,.07-.1,.14-.2,.21-.3,.35-.48,.7-.95,1.07-1.41,.11-.14,.22-.27,.33-.4,.26-.32,.53-.63,.8-.94,.15-.16,.29-.32,.44-.48,.25-.27,.5-.53,.75-.79,.16-.16,.32-.32,.48-.48,.26-.25,.52-.49,.78-.73,.16-.15,.32-.29,.48-.43,.29-.25,.59-.49,.88-.73,.14-.11,.28-.23,.43-.34,.44-.34,.89-.67,1.35-.98,.04-.02,.08-.05,.11-.07,.43-.28,.86-.55,1.3-.81,.16-.09,.32-.18,.48-.27,.33-.18,.65-.36,.99-.52,.19-.09,.38-.18,.57-.27,.32-.15,.64-.29,.96-.42,.2-.08,.4-.16,.59-.24,.34-.13,.68-.25,1.03-.36,.19-.06,.38-.13,.57-.19,.08-.02,.15-.05,.22-.07l-55.33-16.54c-4.42,4.44-26.86,27.75-28.05,44.14l58.57,17.56c.02-.67,.05-1.35,.09-2.02,0-.16,.02-.32,.03-.48,.03-.54,.07-1.08,.12-1.62,.02-.24,.04-.48,.06-.73,.04-.46,.09-.92,.14-1.38,.03-.26,.06-.52,.09-.79,.05-.44,.11-.88,.17-1.32,.04-.26,.07-.52,.11-.77,.07-.47,.14-.93,.22-1.39,.04-.22,.07-.45,.11-.67,.11-.63,.23-1.26,.36-1.88,0-.05,.02-.1,.03-.15,.14-.67,.29-1.34,.44-2,.05-.21,.1-.42,.16-.63,.11-.45,.22-.9,.34-1.35,.07-.25,.14-.49,.2-.74,.11-.41,.23-.81,.35-1.21,.08-.25,.15-.5,.23-.75,.13-.4,.26-.8,.39-1.19,.08-.24,.16-.48,.24-.71Z"/></g><g><polygon class="cls-2" points="94.56 32.38 128.8 58.85 126.39 62.55 95.3 38.49 61.62 86.05 0 65.88 2.04 61.62 59.22 80.5 94.56 32.38"/><polygon class="cls-1" points="25.04 59.06 13.61 77.33 26.82 74.75 31.39 84.38 43.71 65.12 25.04 59.06"/><polygon class="cls-2" points="39.97 0 0 58.11 56.63 76.98 93.64 28.5 131.02 55.89 136.2 48.85 98.08 18.51 39.97 0"/></g></g><g><g><path class="cls-2" d="M235.95,81.49h-62.71v-4.68h28.09v-3.23h-22.53v-4.46h22.53v-3.09h-21.44v-4.25h21.44v-3.37h-28.23v-4.53h28.23v-3.02h-21.44v-4.53h21.44v-3.2h6.33v3.2h22.25v7.56h5.98v4.53h-5.98v7.63h-22.25v3.09h22.88v4.46h-22.88v3.23h28.3v4.68Zm-12.37-27.63v-3.02h-15.92v3.02h15.92Zm0,7.91v-3.37h-15.92v3.37h15.92Z"/><path class="cls-2" d="M276.41,88.97l-4.11,5.62c-2.44-4.01-5.1-7.56-7.98-10.65v22.08h-6.33v-21.02c-3.14,5.88-6.39,10.55-9.74,13.99l-3.94-5.91c5.06-4.9,9.37-11.01,12.94-18.35h-11.35v-5.69h12.09v-6.05h6.33v6.05h10.79v5.69h-10.79v.98c5.6,5.04,9.63,9.46,12.09,13.25Zm0-35.05h-19.3c-2.09,3.07-4.65,5.94-7.7,8.61l-4.6-4.29c4.9-4.38,8.86-9.64,11.88-15.78l6.26,1.58c-.94,2.02-1.63,3.39-2.08,4.11h15.54v5.77Zm-7,6.82l-6.4,1.65c-.98-2.48-2.06-4.52-3.23-6.12l6.61-1.58c1.03,1.41,2.04,3.42,3.02,6.05Zm38.53-6.82h-22.04c-2.84,3.98-5.33,6.83-7.49,8.54l-5.24-3.59c3.94-3.23,7.99-8.54,12.16-15.92l6.47,1.16c-.59,1.41-1.32,2.75-2.21,4.04h18.35v5.77Zm-8.44,7.35l-6.33,1.72c-.87-1.94-2.11-3.96-3.73-6.05l6.19-2.11c1.62,1.85,2.9,4,3.87,6.43Z"/><path class="cls-2" d="M343.66,82.22l-4.46,4.82c-.82-1.64-2.74-4.41-5.76-8.3v27.21h-6.26v-23.9c-3.28,2.98-5.52,4.92-6.71,5.84l-3.45-5.66c7.94-5.65,13.63-12.54,17.05-20.67h-15.96v-6.26h22.74v6.26c-1.29,3.19-3.14,6.71-5.55,10.58,4.19,4.66,6.98,8.03,8.37,10.09Zm-8.3-30.69l-5.76,2.74c-1.64-2.88-3.75-5.76-6.33-8.65l5.55-3.16c3.21,3.73,5.39,6.75,6.54,9.07Zm45.59,41.13c-.3,5.6-1.11,9.15-2.41,10.65-1.3,1.5-4.06,2.25-8.28,2.25-5.27,0-7.91-2-7.91-6.01v-14.55h-4.61c-1.22,10.78-6.71,18.08-16.49,21.9l-3.73-5.34c8.79-3.61,13.42-9.13,13.88-16.56h-6.75V44.93h31.36v40.07h-7.63v12.62c0,1.43,.93,2.14,2.78,2.14,1.24,0,2.11-.37,2.6-1.13,.49-.75,.89-3.59,1.2-8.51l5.98,2.53Zm-11.04-36.45v-5.84h-18.91v5.84h18.91Zm0,11.53v-5.98h-18.91v5.98h18.91Zm0,11.67v-6.19h-18.91v6.19h18.91Z"/><path class="cls-2" d="M452.56,97.83l-3.66,5.24c-8.32-4.66-14.48-9.57-18.49-14.73,.07,.98,.11,2.11,.11,3.37,0,5.51-.8,9.27-2.39,11.3-1.59,2.03-4.68,3.04-9.25,3.04-1.2,0-2.75-.04-4.67-.11l-2.11-6.12c3.3,.12,5.66,.18,7.06,.18,1.76,0,2.91-.25,3.46-.74s.98-1.1,1.28-1.81c.3-.71,.46-2.91,.46-6.59,0-1.17-.02-2.26-.07-3.27-9.02,7.62-19.87,13.04-32.55,16.27l-2.81-5.41c13.08-2.72,24.52-8.49,34.34-17.33-.4-1.38-.9-2.64-1.51-3.76-8.58,6.63-18.4,11.1-29.46,13.39l-2.74-5.24c10.36-1.73,20.18-5.94,29.46-12.62-.14-.19-.96-1.09-2.46-2.71-6.61,3.44-14.28,5.94-23.02,7.49l-2.88-5.48c9.77-1.01,18.79-3.82,27.07-8.44h-17.47v-5.59h40.67v5.59h-14.76c-1.17,1.17-2.64,2.27-4.39,3.3,3,3.28,5.15,6.69,6.47,10.23,4.94-2.46,9.68-5.92,14.2-10.37l4.53,4.04c-4.27,4.08-9.28,7.63-15.05,10.65,4.45,6.05,11.33,11.45,20.63,16.21Zm-2.35-49.46v13.04h-6.26v-7.35h-46.72v7.35h-6.36v-13.04h59.34Z"/></g><g><path class="cls-1" d="M221.73,84.52c.44,0,.88,.01,1.31,.07,2.69,.41,4.54,1.71,5.37,3.88,.84,2.19,.2,4.15-1.72,5.81-.11,.1-.26,.18-.38,.26,.58,.09,1.11,.08,1.64,.09,.51,0,.79,.24,.79,.66,0,.82,0,1.63,0,2.45,0,.45-.28,.67-.82,.68-.47,0-.93,0-1.41,0v3.76s.06,.03,.07,.03c.44,0,.88,0,1.32,.01,.57,0,.84,.23,.84,.7,0,.75,0,1.5,0,2.25,0,.65-.22,.84-1.01,.84-12.94,0-25.89,0-38.83,0-.37,0-.75-.01-1.12-.07-2.69-.4-4.55-1.69-5.39-3.86-.84-2.16-.24-4.1,1.61-5.76,.14-.13,.29-.25,.5-.43-.61,0-1.13,0-1.66,0-.51,0-.78-.24-.79-.66,0-.82,0-1.63,0-2.45,0-.45,.28-.67,.82-.68,.47,0,.93,0,1.41,0v-3.8c-.48,0-.94,0-1.39,0-.57,0-.83-.23-.84-.7,0-.76,0-1.53,0-2.29,0-.6,.24-.8,.96-.8,2.48,0,38.11,0,38.73,0Zm-35.91,7.59h.48c11.8,0,23.6,0,35.4,0,.11,0,.22,0,.33,0,1.48-.08,2.45-1.18,2.1-2.37-.26-.87-1.16-1.42-2.36-1.42-11.85,0-23.69,0-35.54,0-.13,0-.27,.01-.4,.02v3.78Zm39.13,6.32h-.55c-11.75,0-23.5,0-35.25,0-.14,0-.28,0-.42,0-1.41,.08-2.4,1.15-2.1,2.28,.26,.97,1.14,1.52,2.46,1.52,11.8,0,23.6,0,35.4,0h.48v-3.8Zm-41.39-3.79h.57c12.47,0,24.95,0,37.42,0,.19,0,.38,0,.56,0,3.45-.16,5.78-2.81,4.91-5.58-.62-1.98-2.73-3.27-5.36-3.27-12.54,0-25.07,0-37.61,0h-.49v1.27c2.34,0,4.65,0,6.95,0,10.48,0,20.96,0,31.44,0,2.41,0,4.18,1.86,3.67,3.83-.39,1.49-1.88,2.49-3.73,2.49-12.58,0-25.17,0-37.75,0h-.59v1.27Zm43.66,1.26h-.59c-12.47,0-24.95,0-37.42,0-.19,0-.38,0-.56,0-3.44,.15-5.77,2.81-4.9,5.59,.62,1.97,2.74,3.27,5.36,3.27,12.54,0,25.07,0,37.61,0h.49v-1.27h-.6c-3.95,0-7.91,0-11.86,0-8.65,0-17.29,0-25.94,0-2.41,0-4.18-1.86-3.66-3.84,.39-1.48,1.89-2.48,3.74-2.48,12.58,0,25.17,0,37.75,0h.6v-1.27Z"/><path class="cls-1" d="M306.07,66.55c0-.75-.26-1.03-.93-1.03h-26.39c-.65,0-.92,.29-.92,.99,0,12.17,0,24.33,0,36.5,0,.69,.34,1.08,.98,1.1,.25,0,.5,0,.77,0,0,.34-.01,.63,0,.92,.03,.6,.41,1.01,.92,.99,.49-.01,.85-.43,.87-1.01,0-.29,0-.57,0-.88h21.16c0,.31,0,.6,0,.88,.02,.6,.4,1.01,.91,1.01,.49,0,.86-.42,.88-1,.01-.29,0-.58,0-.92,.23,0,.41,0,.59,0,.85,0,1.16-.33,1.16-1.26v-32.73c0-1.19,0-2.38,0-3.57Zm-26.43,.88h24.64v9.57h-1.73v-.49c0-1.4,0-2.8,0-4.2,0-.81-.61-1.3-1.23-1-.37,.18-.54,.49-.54,.94,0,1.43,0,2.85,0,4.28v.46h-1.75v-.42c0-1.41,0-2.83,0-4.24,0-.86-.69-1.36-1.32-.97-.34,.21-.47,.54-.47,.96,0,1.41,0,2.83,0,4.24v.45h-3.14c.04-.17,.08-.31,.12-.46,.41-1.35,.82-2.7,1.22-4.05,.13-.45-.04-.89-.39-1.13-.33-.22-.77-.19-1.03,.12-.14,.16-.25,.39-.32,.61-.48,1.53-.94,3.07-1.4,4.61-.06,.21-.13,.32-.37,.32-4.03,0-8.06,0-12.09,0-.06,0-.12,0-.2-.01v-9.58Zm24.64,34.69h-1.73v-.43c0-1.36,0-2.72,0-4.08,0-.22-.01-.46-.08-.66-.14-.42-.57-.66-.97-.58-.41,.08-.71,.47-.72,.96,0,1.43,0,2.85,0,4.28v.51h-1.75v-.4c0-1.41,0-2.83,0-4.24,0-.84-.65-1.35-1.28-1.02-.36,.19-.52,.53-.51,.97,0,1.41,0,2.83,0,4.24v.46h-3.15c.07-.25,.13-.47,.2-.69,.37-1.21,.74-2.42,1.11-3.63,.11-.34,.14-.67-.05-.99-.2-.32-.48-.49-.83-.45-.38,.05-.64,.28-.76,.68-.31,1.01-.62,2.02-.93,3.03-.18,.6-.37,1.2-.54,1.8-.05,.19-.13,.27-.33,.27-4.05,0-8.11,0-12.16,0-.05,0-.09-.01-.16-.02v-9.58h24.65v9.57Zm0-11.55h-.39c-3.93,0-7.87,0-11.8,0-.29,0-.42-.09-.51-.39-.45-1.53-.92-3.05-1.38-4.58-.17-.55-.44-.81-.85-.83-.63-.03-1.08,.57-.89,1.23,.39,1.34,.8,2.68,1.21,4.01,.05,.16,.09,.32,.15,.52h-3.16v-.43c0-1.4,0-2.8,0-4.2,0-.71-.34-1.14-.89-1.13-.55,0-.89,.43-.89,1.14,0,1.39,0,2.77,0,4.16v.46h-1.75v-.43c0-1.45,0-2.91,0-4.36,0-.67-.48-1.07-1.07-.96-.42,.08-.69,.47-.69,1.06,0,1.41,0,2.83,0,4.24v.45h-1.73v-11.53h24.65v11.56Z"/><g><path class="cls-1" d="M423.62,39.45h0l-2.15-1.45s-.63-1.45-2.12-1.46c0,0-.04,0-.11,.01-.78,.05-1.35,.55-1.68,.96-.02,.02-.03,.04-.05,.06-.18,.24-.28,.42-.28,.42l-11.71,7.92,.47,.7,.91-.61,11.36-7.68s.25-.17,.63-.26c.37-.08,.88-.07,1.48,.23,.02,.01,.04,.02,.06,.03h0l11.41,7.72,.85,.57,.47-.7-9.56-6.47Z"/><path class="cls-1" d="M430.53,48.33l-11.17-7.53-10.89,7.52-2.16-2.38,11.74-7.94s.33-.21,.76-.32c.41-.09,1.02-.1,1.76,.26l.1,.06-.22,.33,.22-.33,11.78,7.97-1.91,2.37Zm-23.01-2.24l1.07,1.18,10.76-7.43,11.01,7.42,.9-1.12-11.05-7.48c-.44-.21-.85-.29-1.24-.2-.29,.07-.49,.2-.5,.21l-10.97,7.42Z"/></g></g></g></g></g></svg>