<svg xmlns="http://www.w3.org/2000/svg" width="263.97" height="313.042" viewBox="0 0 263.97 313.042"><defs><style>.a{fill:#211715;}.b{fill:#fff;}.c{fill:#a98a75;}.d{fill:#f8b8b4;}</style></defs><path class="a" d="M2.318,238.384c12.683,0,25.365-.051,38.047-.052,3.089,0,3.094-4.8,0-4.8-12.682,0-25.364.052-38.047.052-3.088,0-3.093,4.8,0,4.8Z"/><path class="a" d="M224.15,238.384c9.794,0,19.587-.033,29.381-.045q4.06-.006,8.121-.007c3.088,0,3.093-4.8,0-4.8q-15.981,0-31.96.046-2.772,0-5.542.006c-3.089,0-3.094,4.8,0,4.8Z"/><path class="b" d="M169.915,261.593c-.846-4.18-1.662-8.208-2.426-11.975-13.141,0-42.075,0-71.475,0-2.924,15.051-8.008,39.459-12.24,61.026H179.7C176.886,296.178,173.182,277.746,169.915,261.593Z"/><path class="c" d="M86.825,136.7c-8.79-1.26-14.14-8.89-14.1-14.67a81.493,81.493,0,0,1,2.48-17.33c1.93-6.88,3.3-18.979,3.3-35.759C77.685,44.188,84.2,26.236,94.465,16.407c6.189-5.924,20.134-14,35.8-14a56.888,56.888,0,0,1,22.744,4.356l3.475,1.409,3.5,2.048c3.022,1.769,4.1,3.284,7.209,6.264,7.809,7.482,13.236,20.943,14.1,33,.25,3.478.739,11.782.509,18.788a130.4,130.4,0,0,0,5,35.629c2,6.76,4.69,15.47,2.52,22.18A16.509,16.509,0,0,1,174.9,137.2"/><path class="b" d="M167.168,68.649c-5.724-2.985-11.583-9.049-15.284-16.036-.327-.617-.662-1.352-1-2.176a118.915,118.915,0,0,1-4.289-13.688,53.056,53.056,0,0,1-26.446,19.257,3.809,3.809,0,0,1-2.215.1c-.83-.393-1.063-.772-.992-1.866.176-2.722,1.266-7.22,1.578-9.851-8.506,8.354-17.926,17.244-26.3,23.7a5.948,5.948,0,0,0-5.49-3.025,5.746,5.746,0,0,0-5.177,2.875C79.784,71,79.837,76.658,81,80.163c.825,2.483,2.177,6.281,5.462,9.014a6.654,6.654,0,0,0,5.692,1.461,47.682,47.682,0,0,0,8.877,17.054,36.084,36.084,0,0,0,11.484,9.7v4.163a9.4,9.4,0,0,1-.4,3.328,8.087,8.087,0,0,1-2.428,3.534c-2.466,1.987-5,2.936-8.124,4.111l-3.943,1.552c8.24,5.543,21.762,8.65,33.2,8.91,11.6-.261,25.286-3.452,33.509-9.131l-3.376-1.331c-3.122-1.175-5.657-2.124-8.124-4.111a8.1,8.1,0,0,1-2.428-3.534,9.4,9.4,0,0,1-.4-3.328v-5.091a32.824,32.824,0,0,0,10.377-8.77,47.639,47.639,0,0,0,8.8-16.8,6.6,6.6,0,0,0,5.869-1.369c3.305-2.706,4.687-6.494,5.531-8.97,1.191-3.5,1.287-9.153-.456-12.231a5.746,5.746,0,0,0-5.154-2.915,5.876,5.876,0,0,0-5.983,4.085C168.382,69.248,167.775,68.966,167.168,68.649Z"/><path class="a" d="M179.405,68.273a137.773,137.773,0,0,0,4.184,33.041c1.275,4.846,2.95,9.586,3.761,14.546.691,4.232.639,8.713-1.7,12.444a14.238,14.238,0,0,1-10.753,6.5,2.46,2.46,0,0,0-2.4,2.4,2.42,2.42,0,0,0,2.4,2.4,19.325,19.325,0,0,0,12.547-5.853,18.966,18.966,0,0,0,5.087-13.319c0-5.333-1.469-10.587-2.964-15.662a128.333,128.333,0,0,1-3.842-16.8,143.28,143.28,0,0,1-1.518-19.7c-.045-3.086-4.845-3.095-4.8,0Z"/><path class="a" d="M158.775,12.3a20.87,20.87,0,0,1,4.059,3.25c1.506,1.5,3.079,2.948,4.486,4.541a42.861,42.861,0,0,1,6.48,10.2,60.975,60.975,0,0,1,5.331,22.95c.274,5.005.426,10.025.273,15.036-.095,3.09,4.705,3.087,4.8,0,.144-4.722.015-9.451-.227-14.168a82.832,82.832,0,0,0-1.271-11.893,56.093,56.093,0,0,0-11.059-24.422,72.344,72.344,0,0,0-5.033-5.254A27.8,27.8,0,0,0,161.2,8.152c-2.659-1.587-5.075,2.561-2.422,4.144Z"/><path class="a" d="M153.65,4.453A60.987,60.987,0,0,0,128.5.045a57.958,57.958,0,0,0-25.724,7.474,45.509,45.509,0,0,0-14.8,12.724,57.507,57.507,0,0,0-8.76,18.88,100.6,100.6,0,0,0-3.11,29.823c.1,3.081,4.9,3.094,4.8,0-.471-14.977,1.354-31.158,9.66-44.026a38.47,38.47,0,0,1,12.089-11.755,53.957,53.957,0,0,1,22.579-8.082,56.539,56.539,0,0,1,27.137,4,2.417,2.417,0,0,0,2.953-1.677,2.458,2.458,0,0,0-1.677-2.952Z"/><path class="a" d="M87.463,134.388a14.857,14.857,0,0,1-10.735-7.04,11.089,11.089,0,0,1-1.593-4.816,44,44,0,0,1,.5-7.23c.543-4.459,1.719-8.713,2.647-13.088a109.608,109.608,0,0,0,1.832-13.109c.592-6.7.788-13.436.793-20.162,0-3.089-4.8-3.094-4.8,0C76.1,79.666,75.871,90.7,73.6,101.181c-.423,1.954-1,3.867-1.42,5.822-.612,2.869-1.052,5.776-1.394,8.688a35.559,35.559,0,0,0-.415,7.349,16.269,16.269,0,0,0,1.991,6.34,19.348,19.348,0,0,0,13.825,9.637,2.476,2.476,0,0,0,2.952-1.676,2.418,2.418,0,0,0-1.676-2.953Z"/><path class="a" d="M123.128,103.019a16.546,16.546,0,0,0,7.965,1.879,13.04,13.04,0,0,0,8.125-2.4,2.4,2.4,0,0,0,0-3.394,2.475,2.475,0,0,0-3.394,0c.75-.58.246-.195.054-.073q-.234.15-.482.277c-.23.12-.763.234-.087.061-.224.057-.443.169-.664.239a12.18,12.18,0,0,1-1.859.416c.352-.053.169-.024-.076,0-.182.018-.365.032-.547.043-.44.027-.88.036-1.32.032q-.592-.006-1.182-.047c-.181-.013-.361-.032-.541-.047-.684-.058.48.09-.16-.018a13.874,13.874,0,0,1-1.733-.392c-.243-.073-.48-.161-.719-.244-.576-.2.443.218-.078-.031q-.444-.213-.879-.443a2.4,2.4,0,1,0-2.423,4.144Z"/><path class="a" d="M129.772,84.5a36.284,36.284,0,0,1,.844,3.934l-.085-.638a2.407,2.407,0,0,1,.012.543l.086-.638a1.3,1.3,0,0,1-.061.244l.242-.574a.964.964,0,0,1-.087.157l.376-.486a.809.809,0,0,1-.129.126l.486-.375a2.649,2.649,0,0,1-.312.164l.573-.242a2.3,2.3,0,0,1-.525.151l.638-.086a2.084,2.084,0,0,1-.493,0l.638.086c-.186-.027-.368-.073-.553-.1a1.812,1.812,0,0,0-.957-.043,1.778,1.778,0,0,0-.893.285,2.4,2.4,0,0,0-.861,3.283,2.3,2.3,0,0,0,1.435,1.1c.456.064.9.178,1.364.2a4.4,4.4,0,0,0,2.056-.492,3.043,3.043,0,0,0,1.668-2,4.87,4.87,0,0,0-.015-2.112c-.209-1.267-.5-2.523-.818-3.767a2.4,2.4,0,0,0-4.629,1.276Z"/><path class="a" d="M109.4,73.174c-.665,2.131-.256,7.039,3.784,7.473,5.341-.011,5.648-5.943,3.861-8.739C115.583,69.618,111.258,68.651,109.4,73.174Z"/><path class="a" d="M152.173,73.341c.648,2.136.2,7.041-3.841,7.443-5.341-.053-5.6-5.987-3.794-8.77C146.019,69.736,150.351,68.8,152.173,73.341Z"/><path class="a" d="M144.4,37.868c1.938,7.331,4,14.691,8.5,20.913,4.22,5.844,9.923,11.346,16.941,13.561,2.953.931,4.217-3.7,1.277-4.629-6.008-1.895-11.052-6.979-14.555-12.035-3.972-5.734-5.768-12.415-7.532-19.086-.789-2.983-5.421-1.718-4.629,1.276Z"/><path class="a" d="M144.486,35.586a51.8,51.8,0,0,1-16.869,14.639,47.082,47.082,0,0,1-5.114,2.394c-.862.338-1.732.663-2.614.948-.073.024-1.214.237-1.238.264.147-.17.884.768.645.656q.085.3.045-.245c.013-.2.03-.407.051-.609.035-.359.086-.714.14-1.071.135-.883.3-1.763.461-2.642.341-1.839.692-3.672.926-5.529.272-2.167-2.746-3.024-4.1-1.7-7.377,7.241-14.867,14.4-22.864,20.961a2.417,2.417,0,0,0,0,3.394,2.454,2.454,0,0,0,3.394,0c8-6.559,15.487-13.719,22.864-20.961l-4.1-1.7c-.378,3.008-1.309,6.363-1.556,9.553a4.076,4.076,0,0,0,2.031,4.171c1.813,1,3.9.336,5.7-.31a55.578,55.578,0,0,0,18.2-10.8,59.778,59.778,0,0,0,8.135-9,2.415,2.415,0,0,0-.861-3.284,2.457,2.457,0,0,0-3.283.861Z"/><path class="a" d="M89.065,88.2A50.719,50.719,0,0,0,99.752,109.89C104.9,116,111.563,120.9,119.606,122.141a2.476,2.476,0,0,0,2.952-1.676,2.417,2.417,0,0,0-1.676-2.952c-7.33-1.131-13.051-5.449-17.736-11.017a45.665,45.665,0,0,1-9.452-19.568c-.667-3.015-5.3-1.739-4.629,1.276Z"/><path class="a" d="M167.713,86.928a46.058,46.058,0,0,1-8.454,18.345,34.469,34.469,0,0,1-7.344,7.227,32.134,32.134,0,0,1-8.438,4.062c-2.923.955-1.672,5.591,1.276,4.628a36.6,36.6,0,0,0,9.585-4.546,39.173,39.173,0,0,0,8.315-7.977A50.673,50.673,0,0,0,172.342,88.2c.665-3.01-3.961-4.3-4.629-1.276Z"/><path class="a" d="M172.178,68.742a4.084,4.084,0,0,1,3.725-.8,3.646,3.646,0,0,1,1.415.66c-.205-.162.283.3.278.292.484.519-.192-.336.168.187,1.428,2.075,1.421,5.028,1.212,7.435a18.946,18.946,0,0,1-2.231,7.074c-1.159,2.183-3.43,5.528-6.334,5.136a2.484,2.484,0,0,0-2.952,1.676,2.416,2.416,0,0,0,1.676,2.952c7.486,1.01,11.815-6.106,13.8-12.307,1.628-5.074,1.726-13.061-3.092-16.509a9.033,9.033,0,0,0-11.064.812c-2.308,2.062,1.1,5.447,3.4,3.4Z"/><path class="a" d="M92.9,65.036a9.1,9.1,0,0,0-10.065-1.462,8.889,8.889,0,0,0-4.512,6.1,22.864,22.864,0,0,0,3.24,17.51c2.237,3.41,5.807,6.5,10.162,5.948a2.478,2.478,0,0,0,2.4-2.4,2.413,2.413,0,0,0-2.4-2.4c-3.217.408-5.357-2.239-6.758-4.811A18.972,18.972,0,0,1,82.649,76.3c-.216-2.485-.178-5.357,1.21-7.527q.14-.2-.074.077c.071-.087.144-.172.221-.253.062-.061.544-.511.362-.372a3.664,3.664,0,0,1,1.422-.644,4.072,4.072,0,0,1,3.714.85c2.284,2.072,5.688-1.313,3.394-3.394Z"/><path class="d" d="M96.8,237.761,68.652,249.739l-17.188-3.18a4.654,4.654,0,0,1-.943-.231l-.179-.067c-7.184-2.807-10.494-7.625-10.056-17.742.361-8.334,2.91-20.331,4.2-25.564,3.269-13.2,5.389-20.263,8.167-29.75a101.944,101.944,0,0,1,6.827-16.188c4.216-7.521,8.722-10.937,15.556-14.389,3.169-1.6,11.137-4.8,22.391-8.679,8.222,5.624,21.862,8.777,33.386,9.039,11.658-.262,25.422-3.484,33.631-9.215a168.34,168.34,0,0,1,25.021,11.6A44.731,44.731,0,0,1,204.1,158.962c.2.281.407.586.616.912a78.8,78.8,0,0,1,6.884,15.2c3.292,9.779,5.449,18.634,8.5,30.944a92.765,92.765,0,0,1,3.287,20.588c.44,10.12-4.875,17.72-13.095,20.06l-14.97,3.074L166.541,235.82c-20.283.018-45.308.036-65.306.054Z"/><path class="a" d="M96.44,136.171c7.791,5.163,17.4,7.485,26.558,8.63a70.508,70.508,0,0,0,28.575-2.614,49.746,49.746,0,0,0,13.877-6.2c2.544-1.722.145-5.883-2.423-4.145-7.1,4.808-15.973,7.092-24.392,8.157a66.894,66.894,0,0,1-26.926-2.334,46.1,46.1,0,0,1-12.846-5.643c-2.582-1.711-4.989,2.444-2.423,4.145Z"/><path class="a" d="M110.418,117.767c-.005,1.027-.02,2.051-.08,3.076-.039.658-.078,1.318-.151,1.974a4.365,4.365,0,0,1-.14.757c-.043.184-.094.365-.152.545q-.172.441-.05.176a8.491,8.491,0,0,1-.851,1.557c-.166.235-.194.273-.084.112-.109.129-.224.254-.343.374a6.966,6.966,0,0,1-.577.522q.186-.132-.169.127-.218.159-.439.311-.437.3-.889.57c-.52.312-1.054.6-1.6.864-2.45,1.2-5.473,2.214-8.247,3.306a2.472,2.472,0,0,0-1.676,2.952,2.415,2.415,0,0,0,2.952,1.676,96.786,96.786,0,0,0,10.087-4.142,17.577,17.577,0,0,0,3.768-2.612,10.877,10.877,0,0,0,2.554-4.007c.985-2.487.872-5.492.886-8.138a2.4,2.4,0,0,0-4.8,0Z"/><path class="a" d="M147.286,117.767c.014,2.646-.1,5.651.886,8.138a10.88,10.88,0,0,0,2.555,4.007,17.546,17.546,0,0,0,3.767,2.612,96.876,96.876,0,0,0,10.087,4.142,2.418,2.418,0,0,0,2.953-1.676,2.456,2.456,0,0,0-1.677-2.952c-2.766-1.089-5.807-2.115-8.247-3.306-.544-.266-1.079-.552-1.6-.864-.3-.181-.6-.371-.888-.57q-.222-.151-.44-.311-.354-.26-.169-.127a6.793,6.793,0,0,1-.577-.522q-.178-.18-.343-.374c.11.161.083.123-.083-.112a8.284,8.284,0,0,1-.851-1.557q.122.265-.05-.176c-.059-.18-.109-.361-.153-.545a4.463,4.463,0,0,1-.14-.757c-.073-.655-.111-1.316-.15-1.974-.061-1.025-.076-2.049-.081-3.076a2.4,2.4,0,0,0-4.8,0Z"/><path class="a" d="M59.317,220.308q.4-.169.1-.044c.151-.063.3-.124.454-.185q.4-.161.8-.312.872-.325,1.756-.615,1.653-.538,3.343-.949,1.651-.4,3.33-.677c.31-.05.621-.1.932-.141-.476.065.184-.02.282-.031.594-.069,1.19-.121,1.788-.161a2.4,2.4,0,0,0,0-4.8,46.01,46.01,0,0,0-15.212,3.771,2.406,2.406,0,0,0-.861,3.283,2.474,2.474,0,0,0,3.284.861Z"/><path class="a" d="M74.062,169.466c.684,11.036,1.537,22.058,3.164,33a2.417,2.417,0,0,0,2.953,1.676,2.462,2.462,0,0,0,1.676-2.952c-1.564-10.514-2.336-21.122-2.993-31.725-.191-3.068-4.992-3.09-4.8,0Z"/><path class="a" d="M182.28,174.625c-.458,15.334-2.312,30.507-3.917,45.747a2.415,2.415,0,0,0,2.4,2.4,2.454,2.454,0,0,0,2.4-2.4c1.6-15.24,3.459-30.413,3.917-45.747.093-3.09-4.707-3.087-4.8,0Z"/><path class="a" d="M169.691,272.933c2.587,12.779,5.2,25.552,7.69,38.35a2.422,2.422,0,0,0,2.952,1.676,2.448,2.448,0,0,0,1.676-2.952c-2.486-12.8-5.1-25.571-7.69-38.35a2.4,2.4,0,0,0-4.628,1.276Z"/><path class="a" d="M83.774,313.042h95.919c3.089,0,3.094-4.8,0-4.8H83.774c-3.089,0-3.094,4.8,0,4.8Z"/><path class="a" d="M86.088,311.28c3.012-15.34,6.156-30.654,9.247-45.979q1.1-5.464,2.187-10.933a2.462,2.462,0,0,0-1.676-2.952,2.423,2.423,0,0,0-2.953,1.676c-2.877,14.554-5.881,29.083-8.8,43.63Q82.767,303.361,81.46,310a2.46,2.46,0,0,0,1.676,2.952,2.422,2.422,0,0,0,2.952-1.676Z"/><path class="a" d="M108.361,252.018H159.8c3.088,0,3.093-4.8,0-4.8H108.361c-3.089,0-3.094,4.8,0,4.8Z"/><path class="a" d="M74.535,302.145q-5.3-.612-10.572-1.484l1.434,3.526q8.692-15.71,17.38-31.42c1.494-2.707-2.65-5.131-4.144-2.423q-8.675,15.719-17.38,31.42c-.681,1.23-.151,3.264,1.434,3.525q5.9.972,11.848,1.656a2.413,2.413,0,0,0,2.4-2.4,2.457,2.457,0,0,0-2.4-2.4Z"/><path class="b" d="M177.853,269.982c-.54.4-1.079.78-1.607,1.116-1.22.778-4.039,1.761-5.905.822a3.558,3.558,0,0,1-1.957-2.711l-.153.1c-2.356,1.563-6.24,2.491-8.52.7a5.208,5.208,0,0,1-.852-6.312,8.044,8.044,0,0,1,.79-1.248c-1.24.564-3.574,1.339-5.093-1.434-1.005-1.837-.365-4.795,1.789-7.1.813-.87,2.478-3.069,4.155-4.707q.54-.522,1.092-1.039l-1.61-.152a3.973,3.973,0,0,1-3.3-1.97,4.7,4.7,0,0,1-.192-3.375c.684-2.217,4.239-4.795,7.936-7.011a30.382,30.382,0,0,1,11.047-4.2,37.836,37.836,0,0,1,10.858-.412c3.684.389,6.346,1.95,9.06,3.554a24.141,24.141,0,0,1,6.111,6.081,17.946,17.946,0,0,1,2.533,8.9c-.119,4.8-1.2,7.554-4.017,10.82a80.993,80.993,0,0,1-6.391,6.472c-2.628,2.319-5.247,2.743-7.207,2.024-1.576-.578-1.905-3.473-1.347-4.657l.106-.224-.054.041c-.591.463-1.109.868-1.493,1.172C182.28,266.305,180.069,268.334,177.853,269.982Z"/><path class="a" d="M171.821,247.249c-2.871,2.512-5.626,5.145-8.371,7.793-2.42,2.335-5.288,4.68-6.827,7.735-1.646,3.27-.863,7.949,2.581,9.752,3.206,1.678,7.329.719,10.239-1.147,2.592-1.662.188-5.818-2.423-4.144a8.371,8.371,0,0,1-3.246,1.3,8.634,8.634,0,0,1-1.393.04,3.468,3.468,0,0,1-.817-.215c.279.117-.69-.481-.32-.186a2.776,2.776,0,0,1-.442-.654,3.053,3.053,0,0,1-.224-1.71,5.875,5.875,0,0,1,1.312-2.347,77.789,77.789,0,0,1,6.012-6.048c2.391-2.307,4.812-4.583,7.313-6.772a2.422,2.422,0,0,0,0-3.394,2.447,2.447,0,0,0-3.394,0Z"/><path class="a" d="M158.027,260.51c-.094.025-.714.122-.164.071a3.909,3.909,0,0,1-.53.012q-.264-.015.1.013c-.237-.077-.286-.086-.145-.026.245.154-.3-.219-.072-.021a4.275,4.275,0,0,1-.405-.446l-.18-.307q.089.277.007.035a3.03,3.03,0,0,1-.155-.586c.062.4.014-.368.014-.382a4.236,4.236,0,0,1,.248-1.153,5.534,5.534,0,0,1,.635-1.253,22.218,22.218,0,0,1,1.731-2.093,87.03,87.03,0,0,1,10.725-10.265,2.42,2.42,0,0,0,0-3.394,2.449,2.449,0,0,0-3.394,0,88.048,88.048,0,0,0-12.453,12.3c-1.814,2.3-2.994,5.568-1.849,8.435a5.877,5.877,0,0,0,7.166,3.691c2.984-.788,1.718-5.42-1.276-4.628Z"/><path class="a" d="M180.142,252.232c-3.1,2.755-6.258,5.458-9.241,8.345-2.638,2.552-5.925,5.859-4.687,9.887,1.413,4.6,6.592,4.881,10.34,3.181a23.021,23.021,0,0,0,4.754-3.343c1.355-1.105,2.653-2.279,4.019-3.371,2.652-2.119,5.43-4.1,7.969-6.359a2.4,2.4,0,1,0-3.394-3.395c-1.983,1.762-4.122,3.357-6.213,4.986-2.211,1.723-4.294,3.6-6.5,5.327a11.779,11.779,0,0,1-3.5,2.143c-1,.305-2.258.481-2.756-.276a.852.852,0,0,1-.2-.561c0-.014,0-.336-.023-.21a3.4,3.4,0,0,1,.673-1.427,23.852,23.852,0,0,1,3.211-3.482c2.9-2.772,5.936-5.39,8.935-8.051a2.4,2.4,0,0,0-3.394-3.394Z"/><path class="a" d="M159.982,245.622a1.391,1.391,0,0,1-1.31-1.612,1.577,1.577,0,0,1,.349-1.091,7.969,7.969,0,0,1,1.41-1.537,34.927,34.927,0,0,1,8.7-5.52,29.631,29.631,0,0,1,9.044-2.368,26.294,26.294,0,0,1,10.389.451c4.93,1.481,9.62,5.027,11.692,9.625a14.971,14.971,0,0,1,1.147,8.806,13.47,13.47,0,0,1-3.5,6.808c-1.087,1.223-2.227,2.4-3.388,3.553a20.189,20.189,0,0,1-3.884,3.365,5.239,5.239,0,0,1-1.844.7,3.873,3.873,0,0,1-.938.01c.277.033-.847-.182-.446-.08.247.062.031.427,0-.073a6.134,6.134,0,0,1-.2-.776,1.72,1.72,0,0,1,.182-1,2.417,2.417,0,0,0-1.676-2.953,2.459,2.459,0,0,0-2.952,1.677,6.724,6.724,0,0,0,.256,4.934,5.092,5.092,0,0,0,4.536,3.036c4.213.429,7.45-2.572,10.221-5.309,2.58-2.549,5.414-5.275,6.969-8.6a19.26,19.26,0,0,0,1.339-11.687c-1.524-7.619-7.432-13.116-14.394-15.993-4.01-1.657-8.6-1.8-12.869-1.359a37.242,37.242,0,0,0-12.277,3.173,44.238,44.238,0,0,0-6.4,3.767,19.439,19.439,0,0,0-5.1,4.683,7,7,0,0,0-.7,6.435,6.26,6.26,0,0,0,5.641,3.739c3.08-.1,3.094-4.905,0-4.8Z"/><path class="a" d="M100.874,228.826c-4.976-8.895-10.5-18.932-12.582-22.239a3.014,3.014,0,0,0-3.162-1.69,5.77,5.77,0,0,0-3.089,1.627,2.893,2.893,0,0,0-.209,3.516c6.446,10.292,12.534,20.126,15.5,25.057,2.887,4.8,10.865,17.92,14.646,23.953a2.488,2.488,0,0,0,4.3-2.491C113.243,250.866,107.219,240.167,100.874,228.826Z"/><path class="b" d="M101.688,227.523a16.116,16.116,0,0,0-4.859-2.258,15.923,15.923,0,0,0-3.964-.583,39.8,39.8,0,0,0-5.1.432,57.664,57.664,0,0,1-9.623.458c-1.709-.1-4.406-.06-5.817.91a21.289,21.289,0,0,0-5.683,5.423,44.267,44.267,0,0,0-5.736,11.961c-.559,1.625-.394,4.954,1.019,5.931,2.895,2,9.662,9.232,13.589,11.02a12.544,12.544,0,0,0,4.8,1.168c2.1.012,4.7-1.1,4.651-4.539a6.839,6.839,0,0,0,4.837,1.523,6.221,6.221,0,0,0,2.888-.8,5.535,5.535,0,0,0,2.083-4.726l-.033-.349c.332.269.674.539,1.022.812a6.155,6.155,0,0,0,7.3-.25c.963-.98,2.164-4.041,1.344-6.2l-.116-.28c.209.19.428.377.649.565a7.345,7.345,0,0,0,3.35,1.444,4.521,4.521,0,0,0,3.51-.615,4.715,4.715,0,0,0,1.465-4.87,13.866,13.866,0,0,0-2.514-4.728c-2.154-3.024-6.43-9.036-9.069-11.449"/><path class="a" d="M76.563,253.083a71.077,71.077,0,0,0,5.315,4.937c1.643,1.373,3.316,2.746,5.483,3.14a9.015,9.015,0,0,0,6.838-1.13,7.811,7.811,0,0,0,2.977-6.59,2.457,2.457,0,0,0-2.4-2.4,2.42,2.42,0,0,0-2.4,2.4c.013.211.016.414.012.625-.005.226.063-.141-.031.243-.05.208-.1.412-.169.614-.034.106-.227.519-.088.24-.108.216-.23.417-.354.625-.092.155-.193.239-.025.051-.085.095-.54.459-.092.16-.115.077-.234.142-.354.211-.47.27.186-.006-.364.146-.168.046-.338.091-.5.14-.588.176.217.045-.364.067-.169.006-.338.008-.508.006-.252,0-.5-.018-.753-.03-.205-.009-.3-.026-.039.012a7.1,7.1,0,0,1-1.1-.271c-.327-.1.463.267-.079-.032-.153-.084-.31-.162-.461-.251-.268-.157-.7-.457-.82-.544-.507-.38-1.337-1.1-1.943-1.623-1.521-1.315-2.975-2.7-4.379-4.14a2.4,2.4,0,1,0-3.394,3.394Z"/><path class="a" d="M83.631,246.638c2.264,2.085,4.552,4.143,6.914,6.116,2.07,1.728,4.255,4.014,7.011,4.479,2.49.421,5.524-.085,7.322-2a9.07,9.07,0,0,0,1.849-8.411,2.457,2.457,0,0,0-2.952-1.676,2.425,2.425,0,0,0-1.677,2.953,3.486,3.486,0,0,1-.08,2.528c-.019.063-.264.725-.131.411a5.491,5.491,0,0,1-.325.634c-.035.06-.371.532-.152.262.278-.344-.409.369-.052.061.266-.229-.232.129-.3.174-.089.05-.181.1-.274.14.21-.084.233-.1.068-.034a6.23,6.23,0,0,1-1.26.321c.42-.053-.283,0-.365,0a5.092,5.092,0,0,1-.771-.036c.366.054-.393-.119-.385-.117-.588-.167.141.129-.407-.159a16.208,16.208,0,0,1-2.313-1.758q-1.26-1.023-2.5-2.078c-1.98-1.689-3.911-3.434-5.825-5.2-2.27-2.09-5.673,1.3-3.395,3.394Z"/><path class="a" d="M82.615,257.606a2.119,2.119,0,0,1-.762,1.623,3.514,3.514,0,0,1-1.283.352,9.433,9.433,0,0,1-5.1-1.526,58.8,58.8,0,0,1-8.027-6.712c-1.171-1.064-2.345-2.127-3.6-3.093-.157-.121-.327-.237-.48-.365-.245-.2.2.3-.009-.02a1.041,1.041,0,0,1-.142-.366,6.643,6.643,0,0,1-.172-2.277,24.2,24.2,0,0,1,1.914-5.358A39.315,39.315,0,0,1,68,234.212a18.923,18.923,0,0,1,4.468-4.886,5.524,5.524,0,0,1,2.257-1.219,11.779,11.779,0,0,1,2.82-.162,92.5,92.5,0,0,0,12.306-.684c3.774-.379,8.3-.056,11.08,2.888a83.166,83.166,0,0,1,6.967,8.925c1.176,1.645,2.932,3.544,3.118,5.636.2,2.2-1.536,2.443-3.271,1.856a8.977,8.977,0,0,1-2.88-2.063c-1.089-.956-2.166-1.926-3.24-2.9-2.262-2.05-4.519-4.106-6.837-6.093a2.462,2.462,0,0,0-3.394,0,2.421,2.421,0,0,0,0,3.394c2.376,2.037,4.686,4.145,7.005,6.245,2.209,2,4.5,4.626,7.3,5.754,2.621,1.056,5.871,1.212,8.071-.846a7.388,7.388,0,0,0,1.716-7.4c-.707-2.441-2.338-4.473-3.8-6.5-1.418-1.976-2.864-3.932-4.364-5.847a24.06,24.06,0,0,0-4.421-4.86,17.508,17.508,0,0,0-6.751-2.8,18.278,18.278,0,0,0-4.679-.324c-.7.04-1.392.1-2.085.18q-.579.065-1.156.141c.185-.025-1.545.2-.911.122a59.987,59.987,0,0,1-7.226.454c-2.436,0-4.923-.327-7.3.423-2.539.8-4.92,3.04-6.646,5-3.522,4.008-5.7,9.158-7.409,14.15a9.68,9.68,0,0,0,.226,6.961,5.676,5.676,0,0,0,1.974,2.264c.313.235-.459-.375.09.067q.181.145.36.294c.406.336.8.683,1.2,1.032,3.53,3.12,6.932,6.886,11.107,9.158a12.992,12.992,0,0,0,8.291,1.632,6.467,6.467,0,0,0,5.258-5.331,2.476,2.476,0,0,0-1.676-2.952,2.417,2.417,0,0,0-2.952,1.676Z"/><path class="a" d="M210.926,248.98c9.26-2.724,14.678-11.244,14.876-20.671.232-11.013-3.112-21.963-5.783-32.529-2.62-10.365-5.34-20.837-9.794-30.592A48.681,48.681,0,0,0,190.681,143.3c-8.782-5.243-18.321-9.009-27.819-12.711a2.417,2.417,0,0,0-2.952,1.676,2.457,2.457,0,0,0,1.676,2.953,206.525,206.525,0,0,1,23.838,10.621c7.8,4.237,14.542,10,18.767,17.922,4.635,8.693,7.293,18.356,9.794,27.835,1.407,5.334,2.726,10.692,4.042,16.048a98.774,98.774,0,0,1,2.618,14.034c.486,5.027.792,10.244-1.588,14.876a15.3,15.3,0,0,1-9.407,7.794c-2.957.87-1.7,5.5,1.276,4.629Z"/><path class="a" d="M52.1,244.245a13.2,13.2,0,0,1-4.987-2.418,9.993,9.993,0,0,1-3.148-3.963c-1.743-3.692-1.43-8.717-1.025-12.9.989-10.184,3.481-20.189,6.075-30.061q1.883-7.162,3.966-14.268c1.285-4.421,2.536-8.822,4.255-13.1a62.36,62.36,0,0,1,6.64-13A30.016,30.016,0,0,1,74.3,145.722c8.26-4.5,17.58-7.151,26.593-10.487a2.465,2.465,0,0,0,1.677-2.952,2.42,2.42,0,0,0-2.953-1.676C91.1,133.76,82.275,136.4,74.1,140.42a38.1,38.1,0,0,0-11.888,8.552c-3.541,3.99-5.948,8.728-8.055,13.588C50.15,171.808,47.6,181.62,45,191.338c-2.8,10.455-5.383,20.982-6.651,31.749-.663,5.633-1.046,11.66,1.364,16.954a14.414,14.414,0,0,0,4.012,5.18,16.82,16.82,0,0,0,7.1,3.652,2.469,2.469,0,0,0,2.953-1.676,2.421,2.421,0,0,0-1.676-2.952Z"/><path class="a" d="M108.528,238.278q27.825-.031,55.65-.06c3.088,0,3.094-4.8,0-4.8q-27.825.031-55.65.06c-3.088,0-3.094,4.8,0,4.8Z"/></svg>